<svg width="20" height="19" viewBox="0 0 20 19" fill="none" xmlns="http://www.w3.org/2000/svg">
<path d="M9.2989 1.82746C5.99882 2.06843 3.24262 4.29032 2.44516 7.3556C2.23202 8.17065 2.15117 9.10618 2.27244 9.32943C2.47089 9.69088 3.0405 9.71923 3.2757 9.37904C3.3492 9.26919 3.36757 9.18059 3.40064 8.76598C3.52559 7.18905 4.154 5.84954 5.27486 4.76872C7.60108 2.52557 11.3054 2.32712 13.8926 4.30804C14.2049 4.54901 14.6239 4.94236 14.8223 5.18333L14.9399 5.32862L14.069 5.34279C13.2641 5.35342 13.1833 5.36051 13.0657 5.42784C12.6762 5.64755 12.6651 6.18973 13.0473 6.40589C13.1502 6.46259 13.3082 6.46614 14.8921 6.47322C16.5422 6.47677 16.634 6.47322 16.748 6.40944C16.8141 6.374 16.906 6.28895 16.9501 6.22162L17.0346 6.10468V4.41789C17.0346 2.79843 17.0309 2.72756 16.9611 2.61416C16.7333 2.25625 16.1784 2.27042 15.9542 2.64251C15.8844 2.75591 15.877 2.84095 15.8586 3.67726L15.8403 4.59153L15.5793 4.29741C14.8039 3.42566 13.661 2.6744 12.4777 2.2527C11.5333 1.91605 10.3132 1.75305 9.2989 1.82746Z" fill="#5E36EF"/>
<path d="M16.6418 8.70228C16.3808 8.82985 16.3331 8.94679 16.2963 9.5315C16.2008 11.1368 15.5246 12.5543 14.3266 13.667C13.1138 14.7939 11.541 15.3998 9.84682 15.3998C8.32908 15.3963 6.91423 14.9108 5.74193 13.993C5.48101 13.7839 4.76072 13.0752 4.76072 13.0256C4.76072 13.0078 5.16864 12.9901 5.6721 12.983C6.56511 12.9724 6.58349 12.9724 6.70476 12.8874C7.0649 12.6393 7.01713 12.1148 6.62024 11.927C6.46221 11.8562 6.42546 11.8526 4.7497 11.8632C3.08128 11.8739 3.03718 11.8774 2.93429 11.9483C2.87916 11.9873 2.79464 12.0759 2.74686 12.1396L2.66602 12.2566V13.9292V15.6018L2.75054 15.7188C2.89019 15.9172 3.01513 15.9845 3.24665 15.9845C3.5039 15.9845 3.66927 15.8853 3.77217 15.6692C3.83097 15.5416 3.84199 15.4246 3.84199 14.6379V13.752L4.03309 13.9646C5.04002 15.0986 6.43649 15.9349 7.93586 16.3035C11.8276 17.2603 15.8075 15.1872 17.0864 11.5337C17.3437 10.8001 17.476 10.0701 17.476 9.38975C17.476 9.07791 17.4649 9.01767 17.3951 8.9149C17.204 8.64558 16.9211 8.56762 16.6418 8.70228Z" fill="#5E36EF"/>
</svg>
