<svg width="45" height="45" viewBox="0 0 45 45" fill="none" xmlns="http://www.w3.org/2000/svg">
<path d="M19.8109 0.357042C19.3093 0.544583 18.8864 0.969019 18.7683 1.39345C18.7192 1.59087 18.67 2.83456 18.67 4.16709C18.67 6.48668 18.6798 6.615 18.8962 7.02956C19.3191 7.86856 19.2896 7.86856 22.4469 7.89818C25.2008 7.92779 25.2205 7.92779 25.5451 7.70076C26.3024 7.18749 26.2926 7.22697 26.3221 4.21644C26.3516 1.66983 26.3418 1.49216 26.1549 1.11708C26.0467 0.909795 25.791 0.623548 25.5844 0.505101C25.2205 0.278078 25.1418 0.268207 22.7026 0.248466C20.7355 0.228724 20.1158 0.248466 19.8109 0.357042ZM24.7681 4.06839V6.33862H22.5059H20.2437V4.13748C20.2437 2.9234 20.2732 1.89685 20.3125 1.86724C20.342 1.82776 21.3649 1.79815 22.5747 1.79815H24.7681V4.06839Z" fill="black"/>
<path d="M14.7358 4.99625C10.595 6.88154 7.33944 10.0895 5.36249 14.2154C4.68383 15.6368 4.60515 16.1007 4.98873 16.4165C5.24446 16.6238 5.59854 16.6534 5.89361 16.5054C5.99197 16.4461 6.36572 15.8046 6.70997 15.0741C7.76238 12.8532 8.83446 11.3628 10.5262 9.73414C12.031 8.29303 13.7523 7.13817 15.5227 6.38801C16.5161 5.97344 16.8505 5.65758 16.762 5.21341C16.6833 4.81858 16.3685 4.56195 15.9751 4.57182C15.8079 4.57182 15.2473 4.76923 14.7358 4.99625Z" fill="black"/>
<path d="M28.5351 4.7791C28.3089 5.01599 28.2499 5.3812 28.3679 5.69706C28.4073 5.7859 29.0269 6.14124 29.7547 6.48671C31.6727 7.40467 32.7546 8.12523 34.2594 9.45776C36.0003 11.0074 37.9183 13.7712 38.6855 15.844C38.8822 16.377 39.1379 16.6041 39.551 16.6041C39.8952 16.6041 40.3083 16.2092 40.3083 15.8638C40.3083 15.5183 39.5707 13.8798 38.9117 12.7545C36.9937 9.4775 34.1217 6.83218 30.7088 5.18379C29.3416 4.52246 28.8499 4.43363 28.5351 4.7791Z" fill="black"/>
<path d="M28.8696 15.459C28.663 15.538 28.4171 15.6565 28.3286 15.7354C28.2401 15.8144 26.2435 17.5615 23.9026 19.6146L19.6339 23.3456L18.0996 21.8157C16.3488 20.0785 16.0341 19.8909 15.0702 19.9896C13.9194 20.1081 13.0638 20.9866 12.9851 22.1414C12.9064 23.2469 12.9851 23.3654 15.8571 26.2476C18.3553 28.7547 18.4438 28.8337 19.0143 29.0015C19.5159 29.1397 19.6929 29.1496 20.1454 29.0607C20.4405 28.9916 20.824 28.8436 20.9814 28.7251C21.6797 28.2118 31.4563 19.5455 31.6924 19.2395C33.0202 17.4924 30.9547 14.7187 28.8696 15.459ZM30.1089 17.0976C30.4629 17.3739 30.6203 17.8971 30.4531 18.2228C30.3154 18.4794 20.3323 27.3038 19.9782 27.4814C19.8602 27.5406 19.6634 27.5604 19.5356 27.5308C19.4077 27.4913 18.2373 26.3858 16.9291 25.0631C14.6866 22.8126 14.5391 22.6448 14.5391 22.3092C14.5391 21.8749 14.8932 21.5393 15.3554 21.5393C15.6013 21.5393 15.9161 21.8058 17.4799 23.3654C19.0635 24.9348 19.3585 25.1914 19.6241 25.1914C19.8798 25.1914 20.5978 24.5992 24.3944 21.263C26.8533 19.1013 28.9876 17.2358 29.145 17.1173C29.4892 16.8508 29.7843 16.8409 30.1089 17.0976Z" fill="black"/>
<path d="M3.50356 18.7756C3.01178 19.0421 2.91343 19.2099 1.6348 21.7762C0.651239 23.78 0.523376 24.086 0.523376 24.54C0.523376 25.1717 0.877458 25.7738 1.38891 26.0107C1.90036 26.2575 6.71981 26.2575 7.23126 26.0107C7.66402 25.8034 8.02794 25.2606 8.10663 24.6979C8.16564 24.2735 8.09679 24.1156 6.87718 21.6677C5.74608 19.3974 5.54937 19.0618 5.23463 18.8644C4.73302 18.5584 3.97567 18.5189 3.50356 18.7756ZM5.47069 22.3783L6.57227 24.5992H4.31008C3.06096 24.5992 2.0479 24.5795 2.0479 24.5499C2.0479 24.4216 4.22156 20.1575 4.29041 20.1575C4.32976 20.1575 4.86088 21.1544 5.47069 22.3783Z" fill="black"/>
<path d="M39.6691 18.7065C38.5282 19.0914 37.8003 19.7133 37.3282 20.7299C37.043 21.332 37.0135 21.4702 37.0135 22.3882C37.0135 23.3358 37.0332 23.4049 37.3872 24.1254C37.8102 24.9842 38.2921 25.4678 39.1281 25.8725C39.6101 26.0995 39.7871 26.1292 40.751 26.1292C41.7444 26.1292 41.8821 26.1094 42.4132 25.8429C43.6033 25.2605 44.3902 24.0859 44.5082 22.7435C44.6459 21.0655 43.8394 19.6244 42.3936 18.9434C41.8526 18.6867 41.5969 18.6275 40.8986 18.6078C40.3871 18.588 39.9052 18.6275 39.6691 18.7065ZM41.6362 20.345C43.2689 21.0853 43.4066 23.3456 41.8821 24.2833C41.3805 24.5893 41.292 24.6091 40.633 24.5795C40.033 24.5499 39.8658 24.5005 39.5019 24.234C38.9413 23.8293 38.538 23.0693 38.538 22.4178C38.538 20.8089 40.2101 19.6935 41.6362 20.345Z" fill="black"/>
<path d="M4.97889 28.4487C4.5953 28.8337 4.62481 28.9817 5.38215 30.5808C6.87716 33.7097 9.10001 36.2958 11.9523 38.2404C12.8572 38.8425 14.4899 39.7209 15.3358 40.0368C15.9653 40.2737 15.9948 40.2737 16.3193 40.1158C16.6931 39.9184 16.8505 39.5531 16.7128 39.1781C16.6341 38.9708 16.3292 38.7832 15.2571 38.27C12.4835 36.9374 10.1918 35.0719 8.5197 32.772C7.61483 31.5382 7.22141 30.8374 6.44439 29.1199C5.97228 28.0835 5.53952 27.8861 4.97889 28.4487Z" fill="black"/>
<path d="M39.1674 28.2612C39.0395 28.3303 38.7346 28.8633 38.3412 29.6925C36.4724 33.6901 33.4234 36.6907 29.4892 38.4181C28.9777 38.6451 28.4958 38.9017 28.4368 38.9807C28.24 39.2373 28.2794 39.7703 28.5056 39.9974C28.8498 40.3428 29.3121 40.254 30.7383 39.5631C33.9545 37.9936 36.3643 35.8813 38.3805 32.8905C39.0789 31.8541 40.21 29.5641 40.2788 29.0509C40.3673 28.3895 39.7674 27.975 39.1674 28.2612Z" fill="black"/>
<path d="M20.7847 37.3224C20.2831 37.5494 20.2142 37.6383 19.4077 39.0399C18.7586 40.1651 18.7487 40.2145 18.7881 40.7673C18.8274 41.241 18.9356 41.5075 19.5257 42.5143C19.8995 43.1559 20.3224 43.7778 20.4601 43.8765C20.8142 44.143 21.3453 44.2417 22.5059 44.2417C24.2763 44.2417 24.5616 44.1035 25.2894 42.8993C26.0861 41.5964 26.3713 40.9252 26.3123 40.5007C26.2631 40.0763 25.1812 38.1318 24.7288 37.6481C24.3255 37.2237 23.9616 37.1349 22.4568 37.1349C21.424 37.1349 21.0994 37.1744 20.7847 37.3224ZM24.1977 39.7012L24.7681 40.6784L24.1977 41.6457L23.6272 42.6131L22.5354 42.6427L21.4437 42.6723L20.8929 41.7247C20.588 41.2016 20.3421 40.7278 20.3421 40.6685C20.3421 40.6192 20.588 40.1553 20.8831 39.642L21.4339 38.7142H22.5354H23.637L24.1977 39.7012Z" fill="black"/>
</svg>
