<svg width="128" height="52" viewBox="0 0 128 52" fill="none" xmlns="http://www.w3.org/2000/svg">
<path d="M127.555 34.5912C127.553 25.1833 119.924 17.5588 110.516 17.5614L13.1638 17.5883L13.1691 36.6575C13.1713 44.9418 19.8889 51.6557 28.1732 51.6534L110.526 51.6306C119.934 51.628 127.558 43.9992 127.555 34.5912Z" fill="#5E36EF"/>
<path d="M35.5435 39.5434C34.7008 39.5443 33.922 39.3957 33.2071 39.0977C32.5028 38.7891 31.8837 38.3577 31.3498 37.8036C30.8266 37.2494 30.4206 36.5992 30.1319 35.8528C29.8432 35.1064 29.6984 34.2905 29.6975 33.4052C29.6966 32.5092 29.8398 31.6877 30.1271 30.9408C30.4143 30.1938 30.819 29.5428 31.3411 28.9876C31.8633 28.4324 32.4815 28.0051 33.1959 27.7057C33.9102 27.3957 34.6888 27.2403 35.5314 27.2394C36.3528 27.2386 37.0889 27.3819 37.7399 27.6693C38.4015 27.9566 38.9565 28.3294 39.405 28.7876C39.8641 29.2458 40.1899 29.7362 40.3824 30.2586L38.943 30.9161C38.6651 30.255 38.2325 29.7221 37.6455 29.3173C37.0584 28.9019 36.3542 28.6946 35.5329 28.6954C34.7009 28.6963 33.9597 28.8943 33.3094 29.2896C32.6698 29.6849 32.169 30.2348 31.8071 30.9391C31.4451 31.6435 31.2646 32.465 31.2655 33.4037C31.2664 34.3317 31.4485 35.1475 31.8119 35.8511C32.1752 36.5548 32.6771 37.1036 33.3175 37.4976C33.9686 37.8917 34.7101 38.0883 35.5421 38.0874C36.3634 38.0866 37.0672 37.8833 37.6535 37.4773C38.2397 37.0608 38.6712 36.5217 38.9479 35.8601L40.3885 36.5146C40.1971 37.0375 39.8722 37.5285 39.414 37.9876C38.9664 38.4467 38.4121 38.8206 37.7511 39.1092C37.1007 39.3979 36.3648 39.5426 35.5435 39.5434ZM46.288 39.5328C45.456 39.5336 44.7038 39.3424 44.0314 38.959C43.3591 38.565 42.8252 38.0269 42.4299 37.3446C42.0345 36.6623 41.8364 35.8892 41.8356 35.0252C41.8347 34.1612 42.026 33.393 42.4093 32.7206C42.8033 32.0483 43.3361 31.5144 44.0077 31.1191C44.6794 30.7237 45.4365 30.5256 46.2792 30.5248C47.1112 30.524 47.8634 30.7206 48.5357 31.1146C49.2081 31.4979 49.7366 32.0254 50.1213 32.697C50.5166 33.3686 50.7147 34.1418 50.7156 35.0164C50.7164 35.8911 50.5145 36.67 50.1099 37.353C49.7052 38.0254 49.1671 38.5593 48.4954 38.9546C47.8345 39.3393 47.0987 39.532 46.288 39.5328ZM46.2866 38.0928C46.8199 38.0923 47.2998 37.9585 47.7262 37.6914C48.1633 37.4243 48.5042 37.056 48.7491 36.5864C49.0047 36.1168 49.1321 35.594 49.1316 35.018C49.131 34.4313 49.0025 33.9141 48.7461 33.4664C48.5003 33.008 48.1586 32.6456 47.721 32.3794C47.294 32.1025 46.8139 31.9643 46.2806 31.9648C45.7366 31.9654 45.246 32.1045 44.809 32.3823C44.3826 32.6494 44.0416 33.0124 43.7861 33.4713C43.5305 33.9195 43.403 34.437 43.4036 35.0237C43.4041 35.5997 43.5327 36.1222 43.7891 36.5913C44.0456 37.0604 44.3873 37.428 44.8142 37.6943C45.2518 37.9605 45.7426 38.0933 46.2866 38.0928ZM52.6606 39.3345L52.6521 30.7105L54.1081 30.7091L54.1097 32.3891L53.8696 32.2453C54.0824 31.7011 54.4233 31.2794 54.8924 30.9803C55.3721 30.6705 55.9319 30.5153 56.5719 30.5146C57.1906 30.514 57.74 30.6521 58.2203 30.929C58.7113 31.2059 59.0956 31.5895 59.3734 32.0799C59.6619 32.5703 59.8065 33.1248 59.8071 33.7434L59.8126 39.3274L58.3086 39.3289L58.3036 34.2249C58.3031 33.7449 58.2173 33.3397 58.0464 33.0092C57.8754 32.6787 57.6298 32.4229 57.3096 32.2419C57.0001 32.0502 56.6427 31.9546 56.2373 31.955C55.832 31.9554 55.4694 32.0517 55.1496 32.244C54.8404 32.4257 54.5954 32.6873 54.4144 33.0288C54.2334 33.3596 54.1431 33.7597 54.1436 34.229L54.1486 39.333L52.6606 39.3345ZM65.03 39.5143C64.166 39.5151 63.4138 39.3025 62.7734 38.8765C62.133 38.4505 61.6791 37.8749 61.4117 37.1499L62.5951 36.5727C62.8409 37.0844 63.1773 37.4894 63.6043 37.7877C64.0313 38.0859 64.5061 38.2348 65.0287 38.2343C65.4981 38.2338 65.8873 38.1214 66.1964 37.8971C66.5055 37.6728 66.6599 37.3793 66.6595 37.0167C66.6593 36.7607 66.5844 36.5581 66.435 36.4089C66.2961 36.249 66.1253 36.1265 65.9226 36.0414C65.7198 35.9456 65.5331 35.8764 65.3624 35.8339L64.066 35.4672C63.2871 35.244 62.7162 34.9246 62.3531 34.5089C62.0007 34.0933 61.8242 33.6081 61.8237 33.0534C61.8231 32.5414 61.9507 32.0987 62.2063 31.7251C62.4726 31.3408 62.8297 31.0418 63.2775 30.828C63.7359 30.6142 64.2478 30.507 64.8132 30.5065C65.5705 30.5057 66.248 30.6971 66.8457 31.0805C67.4541 31.4639 67.8866 32.0021 68.1433 32.6952L66.9279 33.2564C66.7354 32.8086 66.4471 32.4569 66.0628 32.2013C65.6786 31.935 65.2464 31.8021 64.7664 31.8025C64.3291 31.803 63.9825 31.9153 63.7268 32.1396C63.471 32.3532 63.3432 32.6253 63.3436 32.9559C63.3438 33.2013 63.408 33.4039 63.5362 33.5638C63.6643 33.713 63.8191 33.8301 64.0005 33.9153C64.1819 33.9898 64.358 34.0536 64.5287 34.1068L65.9371 34.5214C66.6413 34.7234 67.1856 35.0375 67.57 35.4638C67.9651 35.89 68.1629 36.4018 68.1635 36.9992C68.164 37.4792 68.0311 37.9113 67.7648 38.2956C67.4985 38.6798 67.1308 38.9789 66.6617 39.1927C66.1926 39.4065 65.6487 39.5137 65.03 39.5143ZM73.1699 39.5062C72.5512 39.5068 71.9911 39.3634 71.4894 39.0759C70.9985 38.7884 70.6141 38.3888 70.3363 37.877C70.0691 37.3546 69.9352 36.7574 69.9345 36.0854L69.9292 30.6934L71.4172 30.692L71.4224 35.924C71.4228 36.3506 71.5085 36.7239 71.6795 37.0437C71.8611 37.3635 72.1067 37.6139 72.4162 37.795C72.7364 37.976 73.0991 38.0663 73.5045 38.0659C73.9098 38.0655 74.267 37.9745 74.5762 37.7928C74.896 37.6112 75.1411 37.3496 75.3114 37.0081C75.4924 36.6666 75.5827 36.2612 75.5822 35.7918L75.5772 30.6878L77.0812 30.6864L77.0897 39.3104L75.6337 39.3118L75.632 37.6318L75.8722 37.7756C75.67 38.3198 75.3238 38.7468 74.8334 39.0566C74.3537 39.3557 73.7992 39.5056 73.1699 39.5062ZM79.3949 39.3081L79.383 27.1961L80.871 27.1946L80.8829 39.3066L79.3949 39.3081ZM86.6959 39.3969C85.8532 39.3977 85.2023 39.1583 84.7432 38.6788C84.2947 38.1992 84.0701 37.5221 84.0692 36.6475L84.0647 32.1035L82.4967 32.105L82.4953 30.681L82.8153 30.6807C83.1993 30.6803 83.5032 30.5627 83.727 30.3278C83.9508 30.0929 84.0625 29.7835 84.0621 29.3995L84.0614 28.6955L85.5494 28.694L85.5513 30.678L87.4873 30.6761L87.4887 32.1001L85.5527 32.102L85.5571 36.598C85.5574 36.886 85.6003 37.1366 85.6859 37.3499C85.7821 37.5631 85.9369 37.7336 86.1504 37.8614C86.3638 37.9785 86.6466 38.0369 86.9986 38.0366C87.0732 38.0365 87.1639 38.0311 87.2705 38.0203C87.3879 38.0095 87.4945 37.9987 87.5905 37.988L87.5918 39.3C87.4532 39.3321 87.2985 39.3536 87.1279 39.3644C86.9572 39.3859 86.8132 39.3967 86.6959 39.3969ZM89.5356 39.2981L89.5271 30.6741L91.0151 30.6726L91.0235 39.2966L89.5356 39.2981ZM89.5257 29.2981L89.5238 27.3781L91.0118 27.3766L91.0137 29.2966L89.5257 29.2981ZM93.3324 39.2943L93.324 30.6703L94.78 30.6689L94.7816 32.3489L94.5415 32.2051C94.7543 31.6609 95.0952 31.2392 95.5642 30.9401C96.0439 30.6303 96.6038 30.4751 97.2438 30.4744C97.8624 30.4738 98.4119 30.6119 98.8922 30.8888C99.3831 31.1656 99.7675 31.5493 100.045 32.0397C100.334 32.53 100.478 33.0846 100.479 33.7032L100.484 39.2872L98.9804 39.2887L98.9754 34.1847C98.9749 33.7047 98.8892 33.2995 98.7182 32.969C98.5472 32.6385 98.3016 32.3827 97.9815 32.2017C97.6719 32.01 97.3145 31.9144 96.9092 31.9148C96.5038 31.9152 96.1413 32.0115 95.8215 32.2038C95.5123 32.3855 95.2672 32.647 95.0862 32.9886C94.9052 33.3194 94.8149 33.7195 94.8154 34.1888L94.8204 39.2928L93.3324 39.2943ZM106.729 42.8011C106.121 42.8017 105.556 42.7062 105.033 42.5147C104.521 42.3232 104.078 42.057 103.704 41.716C103.341 41.3857 103.063 40.9967 102.871 40.5489L104.262 39.9075C104.412 40.3127 104.695 40.6537 105.111 40.9307C105.538 41.2182 106.072 41.3617 106.712 41.3611C107.202 41.3606 107.645 41.2642 108.039 41.0718C108.445 40.89 108.764 40.6124 108.999 40.2388C109.233 39.8759 109.35 39.4331 109.349 38.9105L109.347 36.9745L109.62 37.2622C109.322 37.8492 108.89 38.2976 108.325 38.6075C107.771 38.9174 107.157 39.0726 106.485 39.0733C105.675 39.0741 104.949 38.8881 104.309 38.5154C103.669 38.1321 103.167 37.6152 102.803 36.9649C102.44 36.304 102.258 35.5735 102.257 34.7735C102.256 33.9628 102.437 33.232 102.799 32.5809C103.161 31.9299 103.657 31.4174 104.286 31.0435C104.925 30.6588 105.65 30.4661 106.461 30.4653C107.133 30.4647 107.741 30.6187 108.285 30.9275C108.84 31.2256 109.284 31.6412 109.615 32.1742L109.391 32.5744L109.389 30.6544L110.845 30.653L110.853 38.909C110.854 39.6556 110.679 40.3225 110.327 40.9095C109.976 41.4965 109.486 41.9557 108.857 42.287C108.238 42.6289 107.529 42.8003 106.729 42.8011ZM106.612 37.6332C107.124 37.6327 107.583 37.5042 107.988 37.2478C108.403 36.9914 108.734 36.6497 108.979 36.2228C109.224 35.7853 109.346 35.2998 109.345 34.7665C109.345 34.2438 109.222 33.7639 108.976 33.3268C108.73 32.8897 108.399 32.5434 107.983 32.2878C107.577 32.0322 107.118 31.9047 106.606 31.9052C106.084 31.9057 105.609 32.0342 105.183 32.2906C104.756 32.547 104.421 32.894 104.176 33.3316C103.942 33.7585 103.825 34.2386 103.825 34.7719C103.826 35.3053 103.944 35.7905 104.179 36.2276C104.424 36.654 104.755 36.995 105.172 37.2506C105.599 37.5062 106.079 37.6337 106.612 37.6332Z" fill="white"/>
<path d="M3.28479 15.6066L0.669573 3.51139C0.401869 2.27329 1.69451 1.28122 2.82122 1.86007L13.8977 7.55068C15.1335 8.18557 14.9164 10.0143 13.5664 10.3425L8.75249 11.5125C8.30546 11.6211 7.93299 11.9289 7.74202 12.3475L6.11556 15.9121C5.51638 17.2253 3.58983 17.0173 3.28479 15.6066Z" fill="#5E36EF"/>
</svg>
