<svg width="122" height="52" viewBox="0 0 122 52" fill="none" xmlns="http://www.w3.org/2000/svg">
<path d="M121.573 33.532C121.57 23.8008 113.679 15.9143 103.948 15.917L10.8855 15.9427L10.8911 36.1825C10.8934 44.4668 17.611 51.1807 25.8953 51.1784L103.958 51.1568C113.689 51.1541 121.576 43.2633 121.573 33.532Z" fill="#36B884"/>
<path d="M31.3444 39.5824L31.3304 25.4274L36.3274 25.4225C37.2647 25.4216 38.0883 25.5981 38.7979 25.952C39.5076 26.306 40.0591 26.8121 40.4524 27.4704C40.8584 28.1287 41.0618 28.9011 41.0627 29.7878C41.0637 30.7885 40.8112 31.6374 40.3052 32.3346C39.7992 33.0317 39.1157 33.5327 38.2547 33.8376L41.5474 39.5723L39.3814 39.5745L35.9173 33.4409L37.153 34.1617L33.201 34.1656L33.2064 39.5806L31.3444 39.5824ZM33.1993 32.4556L36.3913 32.4524C36.9487 32.4519 37.4362 32.3437 37.854 32.128C38.2718 31.9122 38.5945 31.6016 38.8221 31.196C39.0624 30.7905 39.1822 30.3217 39.1817 29.7897C39.1812 29.245 39.0604 28.7765 38.8193 28.384C38.5909 27.9789 38.2676 27.6689 37.8494 27.454C37.4312 27.2391 36.9434 27.1319 36.3861 27.1324L33.1941 27.1356L33.1993 32.4556ZM47.5927 39.7944C46.6047 39.7954 45.7241 39.5619 44.951 39.094C44.1779 38.6261 43.5693 37.987 43.1251 37.1768C42.681 36.3539 42.4584 35.4358 42.4574 34.4224C42.4564 33.3964 42.6708 32.4842 43.1007 31.6858C43.5433 30.8874 44.138 30.2598 44.8849 29.803C45.6444 29.3336 46.4928 29.0985 47.4302 29.0975C48.1902 29.0968 48.8616 29.2355 49.4446 29.5136C50.0402 29.779 50.5409 30.1458 50.9467 30.6141C51.3651 31.0697 51.6823 31.595 51.8982 32.1901C52.1268 32.7726 52.2414 33.3805 52.242 34.0138C52.2421 34.1531 52.2296 34.3115 52.2045 34.4888C52.192 34.6535 52.1731 34.8119 52.1479 34.9639L43.7499 34.9722L43.7484 33.4522L51.1204 33.4449L50.2851 34.1297C50.3985 33.4709 50.3346 32.882 50.0934 32.3629C49.8522 31.8438 49.4971 31.4325 49.0282 31.129C48.5592 30.8254 48.027 30.674 47.4317 30.6745C46.8364 30.6751 46.2919 30.8277 45.7982 31.1321C45.3045 31.4366 44.9186 31.874 44.6405 32.4443C44.375 33.0019 44.268 33.667 44.3194 34.4396C44.2695 35.187 44.3841 35.8455 44.6634 36.4153C44.9553 36.9723 45.361 37.4089 45.8807 37.7251C46.413 38.0285 46.9894 38.18 47.6101 38.1794C48.2941 38.1787 48.8703 38.0198 49.3386 37.7027C49.807 37.3855 50.1866 36.9798 50.4774 36.4855L51.9602 37.2441C51.758 37.7129 51.4417 38.1439 51.0115 38.537C50.5938 38.9174 50.0938 39.2219 49.5114 39.4505C48.9416 39.6791 48.302 39.7937 47.5927 39.7944ZM57.2158 39.5569L53.1967 29.3199L55.1727 29.3179L58.3923 37.9787L57.7083 37.9794L60.9297 29.3122L62.9057 29.3103L58.8878 39.5553L57.2158 39.5569ZM64.4967 39.5497L64.4866 29.3087L66.2536 29.307L66.2637 39.548L64.4967 39.5497ZM64.485 27.6747L64.4827 25.3947L66.2497 25.393L66.252 27.673L64.485 27.6747ZM73.7177 39.7686C72.7297 39.7696 71.8491 39.5361 71.076 39.0682C70.3029 38.6003 69.6942 37.9613 69.2501 37.151C68.806 36.3281 68.5834 35.41 68.5824 34.3967C68.5814 33.3707 68.7958 32.4585 69.2257 31.6601C69.6682 30.8616 70.263 30.234 71.0098 29.7773C71.7694 29.3079 72.6178 29.0727 73.5551 29.0718C74.3151 29.071 74.9866 29.2097 75.5696 29.4878C76.1652 29.7532 76.6658 30.1201 77.0716 30.5883C77.4901 31.0439 77.8073 31.5693 78.0232 32.1644C78.2518 32.7468 78.3664 33.3547 78.367 33.9881C78.3671 34.1274 78.3546 34.2857 78.3295 34.4631C78.317 34.6278 78.2981 34.7861 78.2729 34.9381L69.8749 34.9464L69.8734 33.4264L77.2454 33.4192L76.4101 34.104C76.5235 33.4452 76.4595 32.8563 76.2184 32.3372C75.9772 31.8181 75.6221 31.4068 75.1531 31.1032C74.6842 30.7997 74.152 30.6482 73.5567 30.6488C72.9614 30.6494 72.4169 30.8019 71.9232 31.1064C71.4295 31.4109 71.0435 31.8483 70.7654 32.4185C70.5 32.9761 70.393 33.6412 70.4444 34.4139C70.3945 35.1612 70.5091 35.8198 70.7884 36.3895C71.0802 36.9466 71.486 37.3832 72.0056 37.6993C72.5379 38.0028 73.1144 38.1542 73.7351 38.1536C74.4191 38.1529 74.9953 37.994 75.4636 37.6769C75.932 37.3598 76.3116 36.9541 76.6024 36.4598L78.0852 37.2183C77.883 37.6872 77.5667 38.1182 77.1365 38.5113C76.7188 38.8917 76.2188 39.1962 75.6364 39.4247C75.0666 39.6533 74.427 39.7679 73.7177 39.7686ZM83.0324 39.5315L79.5073 29.2939L81.4643 29.292L84.2657 37.8582L83.5817 37.8399L86.3093 29.2872L87.9813 29.2856L90.7257 37.8329L90.0417 37.8525L92.8453 29.2808L94.7833 29.2789L91.2784 39.5233L89.5874 39.525L86.8809 30.9777L87.4129 30.9771L84.7234 39.5298L83.0324 39.5315ZM100.041 39.7427C99.0148 39.7437 98.1216 39.4913 97.3611 38.9853C96.6006 38.4794 96.0616 37.796 95.7441 36.9349L97.1494 36.2495C97.4413 36.8573 97.8408 37.3382 98.3478 37.6924C98.8548 38.0465 99.4187 38.2233 100.039 38.2227C100.597 38.2221 101.059 38.0887 101.426 37.8223C101.793 37.556 101.976 37.2075 101.976 36.7768C101.976 36.4728 101.887 36.2322 101.709 36.0551C101.544 35.8652 101.342 35.7197 101.101 35.6187C100.86 35.5049 100.638 35.4228 100.436 35.3723L98.8961 34.9368C97.9712 34.6717 97.2931 34.2924 96.862 33.7988C96.4435 33.3052 96.2339 32.7291 96.2333 32.0704C96.2327 31.4624 96.3842 30.9366 96.6877 30.493C97.0039 30.0367 97.4279 29.6816 97.9597 29.4277C98.5041 29.1739 99.112 29.0466 99.7833 29.0459C100.683 29.0451 101.487 29.2723 102.197 29.7276C102.919 30.1829 103.433 30.822 103.738 31.645L102.295 32.3115C102.066 31.7797 101.724 31.362 101.267 31.0585C100.811 30.7423 100.298 30.5844 99.7278 30.585C99.2085 30.5855 98.7969 30.7189 98.4932 30.9852C98.1895 31.2389 98.0378 31.562 98.0382 31.9547C98.0385 32.246 98.1147 32.4866 98.2669 32.6764C98.4191 32.8536 98.6029 32.9928 98.8183 33.0939C99.0337 33.1824 99.2428 33.2581 99.4455 33.3213L101.118 33.8136C101.954 34.0535 102.601 34.4265 103.057 34.9327C103.526 35.4389 103.761 36.0467 103.762 36.756C103.762 37.326 103.605 37.8392 103.288 38.2955C102.972 38.7518 102.536 39.1069 101.978 39.3608C101.421 39.6147 100.776 39.742 100.041 39.7427Z" fill="white"/>
<path d="M3.31116 16.2928L0.68374 4.18011C0.415312 2.94264 1.70631 1.94985 2.83337 2.52702L13.953 8.22147C15.1909 8.85545 14.9742 10.6869 13.6224 11.0144L8.79069 12.185C8.34385 12.2932 7.97134 12.6004 7.77998 13.0185L6.14097 16.5991C5.54079 17.9103 3.61684 17.702 3.31116 16.2928Z" fill="#36B884"/>
</svg>
