<svg width="162" height="69" viewBox="0 0 162 69" fill="none" xmlns="http://www.w3.org/2000/svg">
<path d="M1.15393 50.7847C0.918171 41.0563 8.61345 32.9788 18.3418 32.743L131.921 29.9906L132.411 50.2245C132.612 58.5063 126.061 65.3828 117.779 65.5835L19.1956 67.9725C9.46721 68.2083 1.38969 60.513 1.15393 50.7847Z" fill="#F25644"/>
<path d="M25.6532 55.8825C24.6531 55.915 23.7231 55.7678 22.8634 55.4409C22.0159 55.101 21.2649 54.6121 20.6105 53.9744C19.9688 53.3362 19.4626 52.5796 19.0919 51.7045C18.7213 50.8295 18.5189 49.8665 18.4847 48.8157C18.4502 47.7523 18.5894 46.7719 18.9024 45.8746C19.2154 44.9773 19.6713 44.1894 20.2703 43.5109C20.8692 42.8324 21.587 42.3021 22.4237 41.9201C23.26 41.5254 24.1782 41.3117 25.1783 41.2792C26.1531 41.2475 27.0322 41.39 27.8156 41.7067C28.6116 42.023 29.2844 42.4447 29.8338 42.9718C30.3959 43.4985 30.8009 44.0683 31.049 44.6812L29.3652 45.5154C29.0105 44.7412 28.4772 44.1248 27.7653 43.6664C27.0529 43.1953 26.2093 42.9756 25.2345 43.0073C24.247 43.0394 23.3748 43.3022 22.6178 43.7958C21.8734 44.2889 21.2996 44.9602 20.8963 45.8098C20.493 46.6593 20.3095 47.6411 20.3458 48.7552C20.3816 49.8566 20.6283 50.8181 21.0859 51.6397C21.5435 52.4613 22.1597 53.0939 22.9346 53.5376C23.722 53.9809 24.6095 54.1865 25.597 54.1544C26.5718 54.1227 27.3996 53.855 28.0802 53.3513C28.7605 52.8349 29.2524 52.1789 29.556 51.3833L31.2904 52.1063C31.0827 52.734 30.7156 53.3289 30.1889 53.891C29.6749 54.4527 29.0309 54.9172 28.2571 55.2845C27.496 55.6515 26.628 55.8508 25.6532 55.8825ZM38.4056 55.4678C37.4181 55.4999 36.5181 55.3011 35.7057 54.8712C34.8929 54.4287 34.2391 53.81 33.7444 53.015C33.2496 52.22 32.9855 51.3098 32.9522 50.2843C32.9189 49.2588 33.1171 48.3399 33.5469 47.5275C33.9894 46.7147 34.6018 46.0611 35.3842 45.5668C36.1665 45.0724 37.0577 44.809 38.0579 44.7765C39.0454 44.7443 39.9455 44.9495 40.7583 45.392C41.5707 45.8218 42.2178 46.4281 42.6995 47.2109C43.1938 47.9932 43.4579 48.9035 43.4916 49.9416C43.5254 50.9797 43.3149 51.9117 42.8602 52.7376C42.405 53.5508 41.7863 54.2046 41.0039 54.6989C40.2338 55.1802 39.3677 55.4365 38.4056 55.4678ZM38.35 53.7587C38.983 53.7381 39.5475 53.5613 40.0436 53.2284C40.5524 52.895 40.9433 52.4451 41.2164 51.8785C41.5021 51.3116 41.6339 50.6863 41.6116 50.0027C41.589 49.3064 41.4171 48.6973 41.096 48.1755C40.7871 47.6406 40.368 47.2233 39.8386 46.9237C39.3215 46.611 38.7465 46.465 38.1135 46.4855C37.4678 46.5065 36.8908 46.6901 36.3824 47.0361C35.8863 47.3691 35.4952 47.8127 35.2091 48.3669C34.9225 48.9085 34.7906 49.5275 34.8132 50.2238C34.8355 50.9074 35.0075 51.5228 35.3295 52.07C35.6515 52.6171 36.0708 53.0407 36.5875 53.3408C37.1168 53.6404 37.7043 53.7797 38.35 53.7587ZM45.9618 54.994L45.6289 44.7584L47.357 44.7022L47.4219 46.6961L47.1315 46.5345C47.3637 45.8806 47.7525 45.3673 48.298 44.9947C48.8558 44.6091 49.5145 44.4039 50.2741 44.3792C51.0083 44.3553 51.6657 44.4987 52.2461 44.8093C52.8392 45.1196 53.3097 45.5605 53.6578 46.1321C54.0186 46.7034 54.2109 47.3561 54.2348 48.0904L54.4503 54.7179L52.6652 54.776L52.4683 48.7182C52.4497 48.1485 52.3328 47.6707 52.1175 47.2848C51.9022 46.8989 51.6011 46.6046 51.2143 46.4017C50.8398 46.1858 50.4119 46.0856 49.9309 46.1013C49.4498 46.1169 49.023 46.2448 48.6507 46.4851C48.2905 46.7122 48.0094 47.0319 47.8074 47.444C47.6049 47.8434 47.5127 48.3217 47.5309 48.8787L47.7279 54.9365L45.9618 54.994ZM60.6499 54.7444C59.6245 54.7778 58.7237 54.5536 57.9476 54.0719C57.1716 53.5902 56.6113 52.9241 56.2668 52.0735L57.6498 51.3442C57.9608 51.9424 58.3752 52.4105 58.8931 52.7485C59.411 53.0865 59.9802 53.2454 60.6005 53.2252C61.1576 53.2071 61.6153 53.0592 61.9738 52.7814C62.3323 52.5036 62.5046 52.1495 62.4906 51.719C62.4807 51.4152 62.3842 51.1775 62.2012 51.006C62.0305 50.8215 61.8232 50.6825 61.5794 50.589C61.3351 50.4829 61.1109 50.4078 60.9067 50.3638L59.3543 49.977C58.4215 49.7412 57.7318 49.3835 57.2853 48.9037C56.8515 48.4236 56.6239 47.8543 56.6024 47.196C56.5827 46.5883 56.7175 46.058 57.007 45.605C57.3086 45.139 57.7212 44.7707 58.2447 44.5002C58.7808 44.2293 59.3844 44.0829 60.0554 44.0611C60.9542 44.0319 61.7656 44.2336 62.4893 44.6663C63.2258 45.0986 63.7593 45.7213 64.0899 46.5343L62.6683 47.2459C62.4231 46.7216 62.0677 46.3149 61.6021 46.0259C61.136 45.7242 60.6181 45.5826 60.0484 45.6012C59.5294 45.618 59.1222 45.7643 58.8271 46.0401C58.5314 46.3032 58.39 46.6309 58.4028 47.0234C58.4123 47.3146 58.496 47.5526 58.6541 47.7376C58.8118 47.9099 58.9999 48.0432 59.2184 48.1375C59.4365 48.2191 59.6479 48.2883 59.8525 48.345L61.5397 48.7844C62.3831 48.9977 63.0409 49.3502 63.5131 49.8418C63.998 50.333 64.2519 50.933 64.275 51.642C64.2935 52.2117 64.152 52.7296 63.8503 53.1956C63.5486 53.6617 63.1234 54.0303 62.5745 54.3017C62.0257 54.573 61.3842 54.7206 60.6499 54.7444ZM70.3109 54.4303C69.5766 54.4542 68.9064 54.3049 68.3003 53.9824C67.7068 53.6595 67.2356 53.1996 66.8867 52.6026C66.55 51.9926 66.3687 51.2887 66.3428 50.4912L66.1347 44.0915L67.9008 44.0341L68.1027 50.2438C68.1192 50.7502 68.2348 51.19 68.4498 51.5633C68.6773 51.9361 68.9782 52.2241 69.3523 52.4274C69.7391 52.6302 70.173 52.7239 70.6541 52.7082C71.1352 52.6926 71.5558 52.5712 71.916 52.344C72.2888 52.1164 72.5699 51.7968 72.7592 51.3851C72.9613 50.973 73.0532 50.4884 73.0351 49.9314L72.8381 43.8736L74.6232 43.8155L74.956 54.0511L73.228 54.1073L73.1631 52.1134L73.4535 52.275C73.234 52.9285 72.839 53.4483 72.2686 53.8343C71.7104 54.2073 71.0579 54.406 70.3109 54.4303ZM77.6921 53.9621L77.2246 39.5867L78.9907 39.5293L79.4582 53.9047L77.6921 53.9621ZM86.361 53.7943C85.3609 53.8268 84.5793 53.5671 84.0164 53.0151C83.4662 52.4627 83.1742 51.6674 83.1404 50.6293L82.9651 45.2361L81.104 45.2967L81.0491 43.6065L81.4289 43.5942C81.8846 43.5794 82.2409 43.4284 82.4977 43.1412C82.7545 42.8541 82.8755 42.4826 82.8607 42.0268L82.8335 41.1913L84.5996 41.1338L84.6762 43.4886L86.9739 43.4139L87.0289 45.104L84.7311 45.1787L84.9046 50.5149C84.9158 50.8567 84.9761 51.1526 85.0856 51.4025C85.2078 51.652 85.3979 51.8486 85.6561 51.9922C85.9138 52.1233 86.2515 52.182 86.6693 52.1684C86.7579 52.1655 86.8653 52.1557 86.9915 52.1389C87.1304 52.1217 87.2566 52.105 87.3701 52.0886L87.4207 53.6458C87.2574 53.6891 87.0746 53.7204 86.8725 53.7396C86.6708 53.7715 86.5003 53.7898 86.361 53.7943ZM89.7277 53.5707L89.3949 43.3352L91.1609 43.2777L91.4938 53.5133L89.7277 53.5707ZM89.3418 41.702L89.2677 39.4232L91.0337 39.3658L91.1078 41.6446L89.3418 41.702ZM94.2341 53.4242L93.9013 43.1886L95.6294 43.1324L95.6942 45.1264L95.4038 44.9647C95.636 44.3108 96.0249 43.7976 96.5704 43.425C97.1281 43.0393 97.7868 42.8341 98.5464 42.8094C99.2807 42.7856 99.938 42.9289 100.518 43.2396C101.111 43.5498 101.582 43.9907 101.93 44.5624C102.291 45.1336 102.483 45.7864 102.507 46.5207L102.723 53.1482L100.938 53.2062L100.741 47.1484C100.722 46.5787 100.605 46.1009 100.39 45.7151C100.174 45.3292 99.8734 45.0348 99.4866 44.8319C99.1121 44.616 98.6843 44.5159 98.2032 44.5315C97.7221 44.5471 97.2954 44.6751 96.923 44.9153C96.5628 45.1425 96.2818 45.4621 96.0797 45.8742C95.8773 46.2737 95.7851 46.7519 95.8032 47.309L96.0002 53.3668L94.2341 53.4242ZM110.266 57.0851C109.544 57.1085 108.87 57.0164 108.242 56.8087C107.627 56.6006 107.091 56.3012 106.635 55.9105C106.192 55.532 105.848 55.0806 105.602 54.5563L107.23 53.743C107.423 54.2183 107.771 54.6125 108.276 54.9256C108.793 55.251 109.432 55.4013 110.191 55.3766C110.774 55.3577 111.296 55.2266 111.757 54.9835C112.231 54.7527 112.6 54.4111 112.864 53.959C113.128 53.5195 113.251 52.9896 113.23 52.3692L113.156 50.0715L113.49 50.4028C113.158 51.1106 112.662 51.659 112.003 52.0479C111.357 52.4365 110.635 52.6437 109.837 52.6697C108.875 52.701 108.007 52.5074 107.233 52.089C106.459 51.658 105.844 51.0633 105.388 50.305C104.932 49.5341 104.689 48.6739 104.658 47.7244C104.627 46.7622 104.814 45.888 105.219 45.1018C105.624 44.3155 106.193 43.6887 106.926 43.2213C107.67 42.7409 108.524 42.485 109.486 42.4537C110.284 42.4278 111.011 42.5879 111.669 42.934C112.339 43.2671 112.88 43.7437 113.293 44.364L113.043 44.8474L112.969 42.5686L114.697 42.5124L115.015 52.3112C115.044 53.1974 114.861 53.9954 114.466 54.7053C114.071 55.4152 113.506 55.9785 112.772 56.3953C112.051 56.8243 111.216 57.0542 110.266 57.0851ZM109.934 50.9556C110.541 50.9359 111.081 50.7663 111.552 50.4468C112.036 50.1269 112.415 49.709 112.69 49.1931C112.964 48.6646 113.091 48.0838 113.07 47.4508C113.05 46.8305 112.886 46.2655 112.578 45.7559C112.27 45.2464 111.864 44.8477 111.361 44.5599C110.87 44.2717 110.32 44.1375 109.713 44.1572C109.092 44.1774 108.534 44.3476 108.037 44.6679C107.541 44.9883 107.155 45.4127 106.881 45.9412C106.619 46.4567 106.498 47.0309 106.519 47.6639C106.539 48.2969 106.697 48.8684 106.993 49.3784C107.3 49.8753 107.706 50.2677 108.21 50.5555C108.726 50.8428 109.301 50.9762 109.934 50.9556Z" fill="white"/>
<g filter="url(#filter0_d_390_530)">
<path d="M141.84 28.495L143.228 16.1785C143.369 14.9202 141.985 14.0633 140.922 14.7516L130.436 21.5427C129.268 22.2988 129.67 24.0989 131.047 24.2878L135.973 24.9631C136.428 25.0256 136.83 25.2935 137.063 25.69L139.056 29.0863C139.786 30.3299 141.679 29.9279 141.84 28.495Z" fill="#F25644"/>
</g>
<defs>
<filter id="filter0_d_390_530" x="111.65" y="0.406836" width="49.6878" height="51.5213" filterUnits="userSpaceOnUse" color-interpolation-filters="sRGB">
<feFlood flood-opacity="0" result="BackgroundImageFix"/>
<feColorMatrix in="SourceAlpha" type="matrix" values="0 0 0 0 0 0 0 0 0 0 0 0 0 0 0 0 0 0 127 0" result="hardAlpha"/>
<feOffset dy="4"/>
<feGaussianBlur stdDeviation="9.05"/>
<feComposite in2="hardAlpha" operator="out"/>
<feColorMatrix type="matrix" values="0 0 0 0 0.845833 0 0 0 0 0.359236 0 0 0 0 0.30309 0 0 0 1 0"/>
<feBlend mode="normal" in2="BackgroundImageFix" result="effect1_dropShadow_390_530"/>
<feBlend mode="normal" in="SourceGraphic" in2="effect1_dropShadow_390_530" result="shape"/>
</filter>
</defs>
</svg>
