<svg width="18" height="21" viewBox="0 0 18 21" fill="none" xmlns="http://www.w3.org/2000/svg">
<path d="M9.76494 1.67274L9.76494 17.1808L15.2482 11.9143C15.344 11.8202 15.4583 11.7453 15.5845 11.6939C15.7106 11.6426 15.8461 11.6157 15.9831 11.615C16.1201 11.6143 16.2559 11.6397 16.3827 11.6897C16.5094 11.7397 16.6245 11.8134 16.7214 11.9065C16.8183 11.9996 16.895 12.1102 16.9471 12.2319C16.9991 12.3536 17.0255 12.4841 17.0248 12.6157C17.024 12.7473 16.996 12.8774 16.9425 12.9985C16.889 13.1197 16.811 13.2295 16.7131 13.3215L9.46141 20.2865C9.26714 20.473 9.00369 20.5778 8.729 20.5778C8.4543 20.5778 8.19085 20.473 7.99658 20.2865L0.74494 13.3215C0.648579 13.2291 0.572158 13.1195 0.520069 12.9987C0.467979 12.8779 0.441246 12.7485 0.441406 12.6177C0.44145 12.421 0.502231 12.2287 0.616066 12.0651C0.7299 11.9015 0.891677 11.774 1.08094 11.6987C1.27021 11.6234 1.47847 11.6037 1.6794 11.6421C1.88032 11.6804 2.06489 11.7752 2.20977 11.9143L7.69305 17.1808L7.69305 1.67274C7.69305 1.40884 7.80219 1.15576 7.99647 0.969164C8.19075 0.782565 8.45425 0.677735 8.729 0.677735C9.00375 0.677735 9.26724 0.782565 9.46152 0.969164C9.6558 1.15576 9.76494 1.40884 9.76494 1.67274Z" fill="white"/>
</svg>
