<svg width="54" height="54" viewBox="0 0 54 54" fill="none" xmlns="http://www.w3.org/2000/svg">
<path d="M26.7167 52.3324L49.9504 40.3084C50.8533 39.8398 51.3048 39.6083 51.6334 39.2626C51.9245 38.9591 52.145 38.5952 52.2792 38.1967C52.4335 37.7424 52.4335 37.2367 52.4335 36.2194V13.8516M26.7167 52.3324L3.48309 40.3084C2.58015 39.8398 2.12868 39.6083 1.80008 39.2626C1.50969 38.9586 1.28929 38.5948 1.1543 38.1967C1 37.7424 1 37.2338 1 36.2137V13.8516M26.7167 52.3324V26.4356M52.4335 13.8516L26.7167 26.4356M52.4335 13.8516L39.5751 7.19378M1 13.8516L24.628 1.62468C25.3938 1.23035 25.7738 1.03033 26.1767 0.953183C26.5334 0.884095 26.9001 0.884095 27.2568 0.953183C27.6568 1.03033 28.0397 1.23035 28.8027 1.62468L39.5751 7.19378M1 13.8516L13.8584 20.1464M26.7167 26.4356L13.8584 20.1436M39.5751 7.19378L13.8584 20.1436M13.8584 20.1436V26.4356" stroke="#5E36EF" stroke-width="1.5" stroke-linecap="round" stroke-linejoin="round"/>
</svg>
