<svg width="204" height="42" viewBox="0 0 204 42" fill="none" xmlns="http://www.w3.org/2000/svg">
<path d="M48.3485 31.4279V6.94786H57.9705C59.5232 6.94786 60.8265 7.26519 61.8805 7.89986C62.9345 8.53452 63.7279 9.35619 64.2605 10.3649C64.7932 11.3622 65.0595 12.4162 65.0595 13.5269C65.0595 14.8755 64.7252 16.0315 64.0565 16.9949C63.3992 17.9582 62.5095 18.6155 61.3875 18.9669L61.3535 18.1339C62.9175 18.5192 64.1189 19.2729 64.9575 20.3949C65.7962 21.5055 66.2155 22.8032 66.2155 24.2879C66.2155 25.7272 65.9265 26.9795 65.3485 28.0449C64.7819 29.1102 63.9489 29.9432 62.8495 30.5439C61.7615 31.1332 60.4412 31.4279 58.8885 31.4279H48.3485ZM51.9525 28.0449H58.3445C59.1492 28.0449 59.8689 27.8919 60.5035 27.5859C61.1495 27.2799 61.6539 26.8435 62.0165 26.2769C62.3905 25.6989 62.5775 25.0132 62.5775 24.2199C62.5775 23.4832 62.4132 22.8202 62.0845 22.2309C61.7672 21.6302 61.3025 21.1599 60.6905 20.8199C60.0899 20.4685 59.3815 20.2929 58.5655 20.2929H51.9525V28.0449ZM51.9525 16.9439H57.9195C58.5769 16.9439 59.1662 16.8135 59.6875 16.5529C60.2202 16.2809 60.6395 15.8955 60.9455 15.3969C61.2629 14.8869 61.4215 14.2749 61.4215 13.5609C61.4215 12.6089 61.1042 11.8269 60.4695 11.2149C59.8349 10.6029 58.9849 10.2969 57.9195 10.2969H51.9525V16.9439ZM69.0545 10.0589V6.60786H72.6075V10.0589H69.0545ZM69.0545 31.4279V13.0679H72.6075V31.4279H69.0545ZM75.1286 31.4279V30.8669L85.5496 16.2469H76.0806V13.0679H91.1936V13.6459L80.7896 28.2489H90.6836V31.4279H75.1286ZM101.605 40.0979C100.619 40.0979 99.6616 39.9449 98.7323 39.6389C97.8143 39.3329 96.9756 38.8795 96.2163 38.2789C95.457 37.6895 94.828 36.9585 94.3293 36.0859L97.6103 34.4199C98.007 35.2019 98.5736 35.7742 99.3103 36.1369C100.047 36.4995 100.823 36.6809 101.639 36.6809C102.648 36.6809 103.509 36.4995 104.223 36.1369C104.937 35.7855 105.476 35.2529 105.838 34.5389C106.212 33.8249 106.394 32.9409 106.382 31.8869V26.7529H106.807V13.0679H109.952V31.9209C109.952 32.4082 109.935 32.8729 109.901 33.3149C109.867 33.7569 109.805 34.1989 109.714 34.6409C109.454 35.8762 108.955 36.8962 108.218 37.7009C107.493 38.5055 106.564 39.1062 105.43 39.5029C104.308 39.8995 103.033 40.0979 101.605 40.0979ZM101.333 31.9379C99.622 31.9379 98.143 31.5129 96.8963 30.6629C95.661 29.8129 94.7033 28.6569 94.0233 27.1949C93.3546 25.7215 93.0203 24.0669 93.0203 22.2309C93.0203 20.3835 93.3603 18.7345 94.0403 17.2839C94.7203 15.8219 95.6836 14.6715 96.9303 13.8329C98.1883 12.9829 99.6786 12.5579 101.401 12.5579C103.135 12.5579 104.592 12.9829 105.77 13.8329C106.96 14.6715 107.856 15.8219 108.456 17.2839C109.068 18.7459 109.374 20.3949 109.374 22.2309C109.374 24.0669 109.068 25.7159 108.456 27.1779C107.844 28.6399 106.943 29.8015 105.753 30.6629C104.563 31.5129 103.09 31.9379 101.333 31.9379ZM101.826 28.7249C102.994 28.7249 103.946 28.4472 104.682 27.8919C105.419 27.3365 105.957 26.5715 106.297 25.5969C106.637 24.6222 106.807 23.5002 106.807 22.2309C106.807 20.9615 106.632 19.8395 106.28 18.8649C105.94 17.8902 105.408 17.1309 104.682 16.5869C103.968 16.0429 103.056 15.7709 101.945 15.7709C100.767 15.7709 99.7976 16.0599 99.0383 16.6379C98.279 17.2159 97.7123 17.9922 97.3383 18.9669C96.9756 19.9415 96.7943 21.0295 96.7943 22.2309C96.7943 23.4435 96.9756 24.5429 97.3383 25.5289C97.7123 26.5035 98.2676 27.2799 99.0043 27.8579C99.7523 28.4359 100.693 28.7249 101.826 28.7249ZM113.842 31.4279V13.0679H117.004V17.5219L116.562 16.9439C116.789 16.3545 117.083 15.8162 117.446 15.3289C117.809 14.8302 118.228 14.4222 118.704 14.1049C119.169 13.7649 119.684 13.5042 120.251 13.3229C120.829 13.1302 121.418 13.0169 122.019 12.9829C122.62 12.9375 123.198 12.9659 123.753 13.0679V16.3999C123.152 16.2412 122.484 16.1959 121.747 16.2639C121.022 16.3319 120.353 16.5642 119.741 16.9609C119.163 17.3349 118.704 17.7882 118.364 18.3209C118.035 18.8535 117.797 19.4485 117.65 20.1059C117.503 20.7519 117.429 21.4375 117.429 22.1629V31.4279H113.842ZM133.747 31.9379C131.911 31.9379 130.319 31.5242 128.97 30.6969C127.622 29.8695 126.579 28.7305 125.842 27.2799C125.117 25.8179 124.754 24.1349 124.754 22.2309C124.754 20.3155 125.128 18.6325 125.876 17.1819C126.624 15.7199 127.673 14.5865 129.021 13.7819C130.37 12.9659 131.945 12.5579 133.747 12.5579C135.583 12.5579 137.176 12.9715 138.524 13.7989C139.873 14.6262 140.916 15.7652 141.652 17.2159C142.389 18.6665 142.757 20.3382 142.757 22.2309C142.757 24.1462 142.383 25.8349 141.635 27.2969C140.899 28.7475 139.856 29.8865 138.507 30.7139C137.159 31.5299 135.572 31.9379 133.747 31.9379ZM133.747 28.5889C135.504 28.5889 136.813 27.9995 137.674 26.8209C138.547 25.6309 138.983 24.1009 138.983 22.2309C138.983 20.3155 138.541 18.7855 137.657 17.6409C136.785 16.4849 135.481 15.9069 133.747 15.9069C132.557 15.9069 131.577 16.1789 130.806 16.7229C130.036 17.2555 129.463 17.9979 129.089 18.9499C128.715 19.8905 128.528 20.9842 128.528 22.2309C128.528 24.1575 128.97 25.6989 129.854 26.8549C130.738 28.0109 132.036 28.5889 133.747 28.5889ZM148.855 31.4279L143.245 13.0509L146.764 13.0679L150.606 25.6649L154.482 13.0679H157.542L161.418 25.6649L165.26 13.0679H168.762L163.152 31.4279H160.296L156.012 18.1339L151.711 31.4279H148.855ZM181.428 31.4279C180.272 31.6545 179.139 31.7509 178.028 31.7169C176.918 31.6829 175.926 31.4675 175.053 31.0709C174.181 30.6742 173.523 30.0509 173.081 29.2009C172.685 28.4415 172.469 27.6709 172.435 26.8889C172.413 26.0955 172.401 25.2002 172.401 24.2029V7.96785H175.971V24.0329C175.971 24.7695 175.977 25.4099 175.988 25.9539C176.011 26.4979 176.13 26.9569 176.345 27.3309C176.753 28.0335 177.399 28.4359 178.283 28.5379C179.179 28.6285 180.227 28.5889 181.428 28.4189V31.4279ZM168.882 15.9239V13.0679H181.428V15.9239H168.882ZM197.301 31.4279V22.4009C197.301 21.6869 197.239 20.9559 197.114 20.2079C197.001 19.4485 196.774 18.7459 196.434 18.0999C196.106 17.4539 195.635 16.9325 195.023 16.5359C194.423 16.1392 193.635 15.9409 192.66 15.9409C192.026 15.9409 191.425 16.0485 190.858 16.2639C190.292 16.4679 189.793 16.8022 189.362 17.2669C188.943 17.7315 188.609 18.3435 188.359 19.1029C188.121 19.8622 188.002 20.7859 188.002 21.8739L185.792 21.0409C185.792 19.3749 186.104 17.9072 186.727 16.6379C187.351 15.3572 188.246 14.3599 189.413 13.6459C190.581 12.9319 191.992 12.5749 193.646 12.5749C194.916 12.5749 195.981 12.7789 196.842 13.1869C197.704 13.5949 198.401 14.1332 198.933 14.8019C199.477 15.4592 199.891 16.1789 200.174 16.9609C200.458 17.7429 200.65 18.5079 200.752 19.2559C200.854 20.0039 200.905 20.6612 200.905 21.2279V31.4279H197.301ZM184.398 31.4279V6.94786H187.577V20.1569H188.002V31.4279H184.398Z" fill="white"/>
<path d="M0 0.293335H13.0047V28.8904C13.0047 36.0726 7.18229 41.8951 0 41.8951V0.293335Z" fill="#FE9177"/>
<path d="M14.1309 18.6681H21.437C26.5666 18.6681 30.725 22.8265 30.725 27.9561C30.725 33.0857 26.5666 37.2441 21.437 37.2441H14.1309V18.6681Z" fill="#5E36EF"/>
<path d="M14.1309 0.104858H21.26C26.4874 0.104858 30.725 4.34251 30.725 9.56991C30.725 14.7973 26.4874 19.035 21.26 19.035H14.1309V0.104858Z" fill="#9E87ED"/>
</svg>
