<svg width="34" height="27" viewBox="0 0 34 27" fill="none" xmlns="http://www.w3.org/2000/svg">
<path d="M33.5292 9.54304H28.5622C27.4694 6.3057 23.9677 5.24345 22.3535 5.11699H3.47876C0.597892 4.50998 -0.039541 2.08198 0.00185076 0.943848H23.2226C28.7857 1.55085 32.4116 6.92956 33.5292 9.54304Z" fill="#00AEEF"/>
<path d="M14.0338 9.16367H3.85138C3.55335 12.401 6.87298 13.6319 8.57004 13.8426C8.07334 19.4068 14.0338 27.5002 21.3601 26.8679C32.6849 25.0469 34.1915 17.4256 33.5292 13.8426H23.7194V18.0158H28.5622C25.7061 23.2006 20.8634 22.8212 19.3733 22.3154C11.4261 19.3815 12.5023 12.3251 14.0338 9.16367Z" fill="#00AEEF"/>
</svg>
