<svg width="204" height="42" viewBox="0 0 204 42" fill="none" xmlns="http://www.w3.org/2000/svg">
<path d="M48.3484 31.323V6.843H57.9704C59.5231 6.843 60.8264 7.16033 61.8804 7.795C62.9344 8.42966 63.7278 9.25133 64.2604 10.26C64.7931 11.2573 65.0594 12.3113 65.0594 13.422C65.0594 14.7707 64.7251 15.9267 64.0564 16.89C63.3991 17.8533 62.5094 18.5107 61.3874 18.862L61.3534 18.029C62.9174 18.4143 64.1188 19.168 64.9574 20.29C65.7961 21.4007 66.2154 22.6983 66.2154 24.183C66.2154 25.6223 65.9264 26.8747 65.3484 27.94C64.7818 29.0053 63.9488 29.8383 62.8494 30.439C61.7614 31.0283 60.4411 31.323 58.8884 31.323H48.3484ZM51.9524 27.94H58.3444C59.1491 27.94 59.8688 27.787 60.5034 27.481C61.1494 27.175 61.6538 26.7387 62.0164 26.172C62.3904 25.594 62.5774 24.9083 62.5774 24.115C62.5774 23.3783 62.4131 22.7153 62.0844 22.126C61.7671 21.5253 61.3024 21.055 60.6904 20.715C60.0898 20.3637 59.3814 20.188 58.5654 20.188H51.9524V27.94ZM51.9524 16.839H57.9194C58.5768 16.839 59.1661 16.7087 59.6874 16.448C60.2201 16.176 60.6394 15.7907 60.9454 15.292C61.2628 14.782 61.4214 14.17 61.4214 13.456C61.4214 12.504 61.1041 11.722 60.4694 11.11C59.8348 10.498 58.9848 10.192 57.9194 10.192H51.9524V16.839ZM69.0544 9.954V6.503H72.6074V9.954H69.0544ZM69.0544 31.323V12.963H72.6074V31.323H69.0544ZM75.1285 31.323V30.762L85.5495 16.142H76.0805V12.963H91.1935V13.541L80.7895 28.144H90.6835V31.323H75.1285ZM101.605 39.993C100.619 39.993 99.6615 39.84 98.7322 39.534C97.8142 39.228 96.9755 38.7747 96.2162 38.174C95.4568 37.5847 94.8278 36.8537 94.3292 35.981L97.6102 34.315C98.0068 35.097 98.5735 35.6693 99.3102 36.032C100.047 36.3947 100.823 36.576 101.639 36.576C102.648 36.576 103.509 36.3947 104.223 36.032C104.937 35.6807 105.476 35.148 105.838 34.434C106.212 33.72 106.394 32.836 106.382 31.782V26.648H106.807V12.963H109.952V31.816C109.952 32.3033 109.935 32.768 109.901 33.21C109.867 33.652 109.805 34.094 109.714 34.536C109.454 35.7713 108.955 36.7913 108.218 37.596C107.493 38.4007 106.564 39.0013 105.43 39.398C104.308 39.7947 103.033 39.993 101.605 39.993ZM101.333 31.833C99.6218 31.833 98.1428 31.408 96.8962 30.558C95.6608 29.708 94.7032 28.552 94.0232 27.09C93.3545 25.6167 93.0202 23.962 93.0202 22.126C93.0202 20.2787 93.3602 18.6297 94.0402 17.179C94.7202 15.717 95.6835 14.5667 96.9302 13.728C98.1882 12.878 99.6785 12.453 101.401 12.453C103.135 12.453 104.592 12.878 105.77 13.728C106.96 14.5667 107.856 15.717 108.456 17.179C109.068 18.641 109.374 20.29 109.374 22.126C109.374 23.962 109.068 25.611 108.456 27.073C107.844 28.535 106.943 29.6967 105.753 30.558C104.563 31.408 103.09 31.833 101.333 31.833ZM101.826 28.62C102.994 28.62 103.946 28.3423 104.682 27.787C105.419 27.2317 105.957 26.4667 106.297 25.492C106.637 24.5173 106.807 23.3953 106.807 22.126C106.807 20.8567 106.632 19.7347 106.28 18.76C105.94 17.7853 105.408 17.026 104.682 16.482C103.968 15.938 103.056 15.666 101.945 15.666C100.767 15.666 99.7975 15.955 99.0382 16.533C98.2788 17.111 97.7122 17.8873 97.3382 18.862C96.9755 19.8367 96.7942 20.9247 96.7942 22.126C96.7942 23.3387 96.9755 24.438 97.3382 25.424C97.7122 26.3987 98.2675 27.175 99.0042 27.753C99.7522 28.331 100.693 28.62 101.826 28.62ZM113.842 31.323V12.963H117.004V17.417L116.562 16.839C116.788 16.2497 117.083 15.7113 117.446 15.224C117.808 14.7253 118.228 14.3173 118.704 14C119.168 13.66 119.684 13.3993 120.251 13.218C120.829 13.0253 121.418 12.912 122.019 12.878C122.619 12.8327 123.197 12.861 123.753 12.963V16.295C123.152 16.1363 122.483 16.091 121.747 16.159C121.021 16.227 120.353 16.4593 119.741 16.856C119.163 17.23 118.704 17.6833 118.364 18.216C118.035 18.7487 117.797 19.3437 117.65 20.001C117.502 20.647 117.429 21.3327 117.429 22.058V31.323H113.842ZM133.747 31.833C131.911 31.833 130.319 31.4193 128.97 30.592C127.621 29.7647 126.579 28.6257 125.842 27.175C125.117 25.713 124.754 24.03 124.754 22.126C124.754 20.2107 125.128 18.5277 125.876 17.077C126.624 15.615 127.672 14.4817 129.021 13.677C130.37 12.861 131.945 12.453 133.747 12.453C135.583 12.453 137.175 12.8667 138.524 13.694C139.873 14.5213 140.915 15.6603 141.652 17.111C142.389 18.5617 142.757 20.2333 142.757 22.126C142.757 24.0413 142.383 25.73 141.635 27.192C140.898 28.6427 139.856 29.7817 138.507 30.609C137.158 31.425 135.572 31.833 133.747 31.833ZM133.747 28.484C135.504 28.484 136.813 27.8947 137.674 26.716C138.547 25.526 138.983 23.996 138.983 22.126C138.983 20.2107 138.541 18.6807 137.657 17.536C136.784 16.38 135.481 15.802 133.747 15.802C132.557 15.802 131.577 16.074 130.806 16.618C130.035 17.1507 129.463 17.893 129.089 18.845C128.715 19.7857 128.528 20.8793 128.528 22.126C128.528 24.0527 128.97 25.594 129.854 26.75C130.738 27.906 132.036 28.484 133.747 28.484ZM148.855 31.323L143.245 12.946L146.764 12.963L150.606 25.56L154.482 12.963H157.542L161.418 25.56L165.26 12.963H168.762L163.152 31.323H160.296L156.012 18.029L151.711 31.323H148.855ZM181.428 31.323C180.272 31.5497 179.139 31.646 178.028 31.612C176.917 31.578 175.926 31.3627 175.053 30.966C174.18 30.5693 173.523 29.946 173.081 29.096C172.684 28.3367 172.469 27.566 172.435 26.784C172.412 25.9907 172.401 25.0953 172.401 24.098V7.863H175.971V23.928C175.971 24.6647 175.977 25.305 175.988 25.849C176.011 26.393 176.13 26.852 176.345 27.226C176.753 27.9287 177.399 28.331 178.283 28.433C179.178 28.5237 180.227 28.484 181.428 28.314V31.323ZM168.882 15.819V12.963H181.428V15.819H168.882ZM197.301 31.323V22.296C197.301 21.582 197.239 20.851 197.114 20.103C197.001 19.3437 196.774 18.641 196.434 17.995C196.105 17.349 195.635 16.8277 195.023 16.431C194.422 16.0343 193.635 15.836 192.66 15.836C192.025 15.836 191.425 15.9437 190.858 16.159C190.291 16.363 189.793 16.6973 189.362 17.162C188.943 17.6267 188.608 18.2387 188.359 18.998C188.121 19.7573 188.002 20.681 188.002 21.769L185.792 20.936C185.792 19.27 186.104 17.8023 186.727 16.533C187.35 15.2523 188.246 14.255 189.413 13.541C190.58 12.827 191.991 12.47 193.646 12.47C194.915 12.47 195.981 12.674 196.842 13.082C197.703 13.49 198.4 14.0283 198.933 14.697C199.477 15.3543 199.891 16.074 200.174 16.856C200.457 17.638 200.65 18.403 200.752 19.151C200.854 19.899 200.905 20.5563 200.905 21.123V31.323H197.301ZM184.398 31.323V6.843H187.577V20.052H188.002V31.323H184.398Z" fill="#050704"/>
<path d="M0 0.188477H13.0047V28.7855C13.0047 35.9678 7.18229 41.7902 0 41.7902V0.188477Z" fill="#FE9177"/>
<path d="M14.1309 18.5632H21.437C26.5666 18.5632 30.725 22.7216 30.725 27.8512C30.725 32.9809 26.5666 37.1392 21.437 37.1392H14.1309V18.5632Z" fill="#5E36EF"/>
<path d="M14.1309 0H21.26C26.4874 0 30.725 4.23765 30.725 9.46505C30.725 14.6924 26.4874 18.9301 21.26 18.9301H14.1309V0Z" fill="#9E87ED"/>
</svg>
