<svg width="122" height="51" viewBox="0 0 122 51" fill="none" xmlns="http://www.w3.org/2000/svg">
<path d="M121.561 17.6505C121.558 27.3817 113.668 35.2683 103.936 35.2656L10.8738 35.2399L10.8794 15C10.8817 6.71576 17.5993 0.00189068 25.8835 0.00417828L103.946 0.0257343C113.677 0.0284214 121.564 7.91931 121.561 17.6505Z" fill="#F25644"/>
<path d="M27.5587 24.6734L27.5447 10.5184L33.4917 10.5125C34.3404 10.5117 35.0689 10.663 35.6772 10.9664C36.2982 11.2697 36.7736 11.6999 37.1035 12.2569C37.446 12.8013 37.6176 13.4534 37.6184 14.2134C37.6191 14.9101 37.436 15.5436 37.0693 16.114C36.7151 16.6717 36.1899 17.1092 35.4936 17.4265L35.4739 16.7236C36.0821 16.951 36.5827 17.2545 36.9758 17.6341C37.3815 18.001 37.6859 18.4314 37.889 18.9252C38.0922 19.4063 38.194 19.9192 38.1945 20.4639C38.1958 21.7685 37.7788 22.795 36.9436 23.5431C36.1083 24.2913 34.9687 24.6661 33.5247 24.6675L27.5587 24.6734ZM29.419 22.9615L33.599 22.9574C34.4223 22.9566 35.0808 22.7343 35.5743 22.2905C36.0679 21.8466 36.3143 21.2447 36.3136 20.4847C36.3128 19.7247 36.0652 19.1233 35.5708 18.6805C35.0763 18.2249 34.4174 17.9976 33.5941 17.9984L29.4141 18.0025L29.419 22.9615ZM29.4125 16.3305L33.4595 16.3265C34.1435 16.3259 34.6943 16.129 35.1119 15.7359C35.5295 15.3302 35.738 14.817 35.7374 14.1963C35.7367 13.5503 35.5272 13.0565 35.1089 12.7149C34.6906 12.3733 34.1394 12.2029 33.4554 12.2035L29.4084 12.2075L29.4125 16.3305ZM44.1342 24.885C43.3995 24.8857 42.7343 24.7154 42.1387 24.374C41.5557 24.0326 41.0992 23.558 40.7693 22.9503C40.452 22.33 40.293 21.6208 40.2922 20.8228L40.2859 14.4198L42.0529 14.4181L42.059 20.6311C42.0595 21.1377 42.1613 21.581 42.3643 21.9608C42.58 22.3406 42.8716 22.6379 43.2392 22.8529C43.6194 23.0679 44.0502 23.1751 44.5315 23.1746C45.0128 23.1742 45.4371 23.0661 45.8042 22.8504C46.184 22.6347 46.475 22.324 46.6773 21.9185C46.8922 21.513 46.9994 21.0315 46.9988 20.4742L46.9929 14.4132L48.7789 14.4114L48.789 24.6524L47.06 24.6541L47.058 22.6591L47.3432 22.8299C47.1031 23.4761 46.692 23.9832 46.1097 24.3511C45.54 24.7063 44.8815 24.8843 44.1342 24.885ZM55.1937 24.8741C54.1677 24.8751 53.2744 24.6227 52.5139 24.1168C51.7534 23.6108 51.2144 22.9274 50.8969 22.0664L52.3022 21.381C52.5941 21.9887 52.9936 22.4696 53.5006 22.8238C54.0077 23.178 54.5715 23.3547 55.1922 23.3541C55.7495 23.3536 56.2117 23.2201 56.5788 22.9538C56.9458 22.6874 57.1292 22.3389 57.1287 21.9082C57.1284 21.6042 57.0395 21.3636 56.862 21.1865C56.6972 20.9966 56.4944 20.8512 56.2536 20.7501C56.0128 20.6363 55.7911 20.5542 55.5884 20.5037L54.0489 20.0683C53.124 19.8032 52.446 19.4238 52.0148 18.9303C51.5963 18.4367 51.3867 17.8605 51.3861 17.2019C51.3855 16.5939 51.537 16.0681 51.8405 15.6244C52.1568 15.1681 52.5807 14.813 53.1125 14.5592C53.6569 14.3053 54.2648 14.178 54.9361 14.1774C55.8355 14.1765 56.64 14.4037 57.3498 14.859C58.0722 15.3143 58.5859 15.9534 58.8907 16.7765L57.4473 17.4429C57.2188 16.9111 56.8764 16.4935 56.4201 16.1899C55.9638 15.8737 55.4506 15.7159 54.8806 15.7164C54.3613 15.7169 53.9498 15.8503 53.646 16.1166C53.3423 16.3703 53.1906 16.6934 53.191 17.0861C53.1913 17.3774 53.2675 17.618 53.4197 17.8079C53.5719 17.9851 53.7557 18.1242 53.9711 18.2253C54.1865 18.3138 54.3956 18.3896 54.5983 18.4527L56.2708 18.9451C57.1071 19.1849 57.7534 19.5579 58.2099 20.0642C58.6791 20.5704 58.914 21.1781 58.9147 21.8875C58.9153 22.4575 58.7575 22.9706 58.4412 23.4269C58.125 23.8832 57.6884 24.2383 57.1313 24.4922C56.5742 24.7461 55.9283 24.8734 55.1937 24.8741ZM61.2305 24.6402L61.2204 14.3992L62.9874 14.3974L62.9975 24.6384L61.2305 24.6402ZM61.2188 12.7652L61.2166 10.4852L62.9836 10.4834L62.9858 12.7634L61.2188 12.7652ZM65.7393 24.6357L65.7292 14.3947L67.4582 14.393L67.4602 16.388L67.175 16.2173C67.4277 15.5711 67.8326 15.0703 68.3895 14.7151C68.9592 14.3472 69.624 14.1629 70.384 14.1622C71.1187 14.1614 71.7712 14.3255 72.3415 14.6542C72.9245 14.983 73.3809 15.4385 73.7108 16.0209C74.0534 16.6032 74.2251 17.2617 74.2258 17.9964L74.2323 24.6274L72.4463 24.6291L72.4403 18.5681C72.4398 17.9981 72.338 17.5169 72.1349 17.1244C71.9319 16.732 71.6402 16.4282 71.26 16.2133C70.8925 15.9857 70.468 15.8721 69.9867 15.8725C69.5054 15.873 69.0748 15.9874 68.695 16.2158C68.3279 16.4315 68.0369 16.7421 67.8219 17.1477C67.607 17.5406 67.4998 18.0157 67.5003 18.573L67.5063 24.634L65.7393 24.6357ZM81.473 24.8482C80.485 24.8492 79.6045 24.6157 78.8313 24.1478C78.0582 23.6799 77.4496 23.0409 77.0054 22.2306C76.5613 21.4077 76.3387 20.4896 76.3377 19.4763C76.3367 18.4503 76.5512 17.5381 76.981 16.7397C77.4236 15.9412 78.0183 15.3136 78.7652 14.8569C79.5247 14.3875 80.3731 14.1523 81.3105 14.1514C82.0705 14.1506 82.742 14.2893 83.3249 14.5674C83.9205 14.8328 84.4212 15.1997 84.827 15.6679C85.2454 16.1235 85.5626 16.6489 85.7785 17.244C86.0071 17.8264 86.1217 18.4343 86.1223 19.0676C86.1225 19.207 86.11 19.3653 86.0848 19.5427C86.0723 19.7074 86.0534 19.8657 86.0283 20.0177L77.6303 20.026L77.6288 18.506L85.0008 18.4987L84.1654 19.1836C84.2788 18.5248 84.2149 17.9359 83.9737 17.4168C83.7325 16.8977 83.3775 16.4863 82.9085 16.1828C82.4395 15.8793 81.9074 15.7278 81.312 15.7284C80.7167 15.729 80.1722 15.8815 79.6785 16.186C79.1848 16.4905 78.7989 16.9279 78.5208 17.4981C78.2553 18.0557 78.1483 18.7208 78.1997 19.4935C78.1498 20.2408 78.2645 20.8994 78.5437 21.4691C78.8356 22.0262 79.2413 22.4628 79.761 22.7789C80.2933 23.0824 80.8698 23.2338 81.4904 23.2332C82.1744 23.2325 82.7506 23.0736 83.219 22.7565C83.6873 22.4394 84.0669 22.0337 84.3578 21.5394L85.8405 22.2979C85.6383 22.7668 85.3221 23.1978 84.8918 23.5909C84.4742 23.9713 83.9741 24.2758 83.3917 24.5043C82.8219 24.7329 82.1824 24.8475 81.473 24.8482ZM92.0989 24.8378C91.0729 24.8388 90.1797 24.5863 89.4192 24.0804C88.6587 23.5745 88.1197 22.891 87.8021 22.03L89.2075 21.3446C89.4994 21.9523 89.8989 22.4333 90.4059 22.7874C90.9129 23.1416 91.4768 23.3184 92.0974 23.3178C92.6548 23.3172 93.117 23.1838 93.484 22.9174C93.8511 22.651 94.0344 22.3025 94.034 21.8718C94.0337 21.5678 93.9448 21.3273 93.7673 21.1501C93.6024 20.9603 93.3996 20.8148 93.1589 20.7137C92.9181 20.5999 92.6963 20.5178 92.4936 20.4674L90.9542 20.0319C90.0293 19.7668 89.3512 19.3875 88.9201 18.8939C88.5016 18.4003 88.292 17.8242 88.2914 17.1655C88.2908 16.5575 88.4422 16.0317 88.7458 15.5881C89.062 15.1317 89.486 14.7767 90.0178 14.5228C90.5622 14.2689 91.17 14.1417 91.8414 14.141C92.7407 14.1401 93.5453 14.3673 94.255 14.8226C94.9775 15.2779 95.4911 15.9171 95.7959 16.7401L94.3526 17.4065C94.1241 16.8748 93.7817 16.4571 93.3254 16.1535C92.869 15.8373 92.3559 15.6795 91.7859 15.6801C91.2666 15.6806 90.855 15.814 90.5513 16.0803C90.2475 16.3339 90.0959 16.6571 90.0962 17.0497C90.0965 17.3411 90.1728 17.5817 90.325 17.7715C90.4771 17.9487 90.6609 18.0878 90.8764 18.189C91.0918 18.2774 91.3009 18.3532 91.5036 18.4163L93.1761 18.9087C94.0123 19.1485 94.6587 19.5216 95.1152 20.0278C95.5843 20.534 95.8193 21.1418 95.82 21.8511C95.8205 22.4211 95.6627 22.9342 95.3465 23.3906C95.0303 23.8469 94.5936 24.202 94.0365 24.4558C93.4795 24.7097 92.8336 24.837 92.0989 24.8378ZM101.803 24.8282C100.777 24.8292 99.8838 24.5768 99.1233 24.0708C98.3628 23.5649 97.8238 22.8814 97.5062 22.0204L98.9116 21.335C99.2035 21.9428 99.603 22.4237 100.11 22.7779C100.617 23.132 101.181 23.3088 101.802 23.3082C102.359 23.3076 102.821 23.1742 103.188 22.9078C103.555 22.6415 103.739 22.293 103.738 21.8623C103.738 21.5583 103.649 21.3177 103.471 21.1405C103.307 20.9507 103.104 20.8052 102.863 20.7041C102.622 20.5904 102.4 20.5083 102.198 20.4578L100.658 20.0223C99.7333 19.7572 99.0553 19.3779 98.6242 18.8843C98.2057 18.3907 97.9961 17.8146 97.9955 17.1559C97.9949 16.5479 98.1463 16.0221 98.4499 15.5785C98.7661 15.1222 99.1901 14.7671 99.7218 14.5132C100.266 14.2594 100.874 14.1321 101.545 14.1314C102.445 14.1306 103.249 14.3578 103.959 14.8131C104.682 15.2684 105.195 15.9075 105.5 16.7305L104.057 17.397C103.828 16.8652 103.486 16.4475 103.029 16.144C102.573 15.8278 102.06 15.6699 101.49 15.6705C100.971 15.671 100.559 15.8044 100.255 16.0707C99.9516 16.3243 99.8 16.6475 99.8003 17.0402C99.8006 17.3315 99.8769 17.5721 100.029 17.7619C100.181 17.9391 100.365 18.0783 100.58 18.1794C100.796 18.2678 101.005 18.3436 101.208 18.4068L102.88 18.8991C103.716 19.139 104.363 19.512 104.819 20.0182C105.288 20.5244 105.523 21.1322 105.524 21.8415C105.525 22.4115 105.367 22.9247 105.051 23.381C104.734 23.8373 104.298 24.1924 103.741 24.4463C103.184 24.7002 102.538 24.8275 101.803 24.8282Z" fill="white"/>
<path d="M3.29944 34.8912L0.672021 47.0039C0.403594 48.2414 1.69459 49.2342 2.82165 48.657L13.9413 42.9625C15.1792 42.3286 14.9625 40.4971 13.6107 40.1696L8.77897 38.999C8.33213 38.8908 7.95962 38.5836 7.76826 38.1655L6.12925 34.5849C5.52908 33.2738 3.60512 33.482 3.29944 34.8912Z" fill="#F25644"/>
</svg>
