<svg width="122" height="51" viewBox="0 0 122 51" fill="none" xmlns="http://www.w3.org/2000/svg">
<path d="M121.678 32.6688C121.675 22.9375 113.784 15.051 104.053 15.0537L10.9904 15.0794L10.996 35.3192C10.9983 43.6035 17.7159 50.3174 26.0001 50.3151L104.063 50.2935C113.794 50.2909 121.68 42.4 121.678 32.6688Z" fill="#36B884"/>
<path d="M27.6755 39.7218L27.6616 25.5668L33.6086 25.561C34.4572 25.5601 35.1857 25.7114 35.794 26.0148C36.415 26.3182 36.8904 26.7484 37.2203 27.3054C37.5628 27.8497 37.7345 28.5019 37.7352 29.2619C37.7359 29.9586 37.5529 30.5921 37.1861 31.1624C36.832 31.7201 36.3067 32.1576 35.6104 32.475L35.5907 31.772C36.1989 31.9994 36.6995 32.3029 37.0926 32.6825C37.4983 33.0495 37.8027 33.4798 38.0059 33.9736C38.209 34.4548 38.3108 34.9677 38.3114 35.5123C38.3127 36.817 37.8957 37.8434 37.0604 38.5916C36.2251 39.3397 35.0855 39.7145 33.6415 39.7159L27.6755 39.7218ZM29.5358 38.01L33.7158 38.0059C34.5392 38.0051 35.1976 37.7827 35.6912 37.3389C36.1847 36.8951 36.4311 36.2932 36.4304 35.5332C36.4296 34.7732 36.182 34.1718 35.6876 33.7289C35.1932 33.2734 34.5343 33.0461 33.7109 33.0469L29.5309 33.051L29.5358 38.01ZM29.5293 31.379L33.5763 31.375C34.2603 31.3743 34.8111 31.1775 35.2287 30.7844C35.6463 30.3786 35.8548 29.8654 35.8542 29.2448C35.8536 28.5988 35.6441 28.105 35.2257 27.7634C34.8074 27.4218 34.2562 27.2513 33.5722 27.252L29.5252 27.256L29.5293 31.379ZM44.251 39.9335C43.5163 39.9342 42.8512 39.7639 42.2555 39.4225C41.6725 39.081 41.216 38.6065 40.8861 37.9988C40.5688 37.3784 40.4098 36.6693 40.409 35.8713L40.4027 29.4683L42.1697 29.4665L42.1758 35.6795C42.1763 36.1862 42.2781 36.6294 42.4811 37.0092C42.6968 37.389 42.9885 37.6864 43.356 37.9014C43.7362 38.1163 44.167 38.2236 44.6483 38.2231C45.1297 38.2226 45.5539 38.1145 45.921 37.8988C46.3008 37.6831 46.5918 37.3725 46.7941 36.967C47.009 36.5614 47.1162 36.08 47.1157 35.5227L47.1097 29.4617L48.8957 29.4599L48.9058 39.7009L47.1768 39.7026L47.1748 37.7076L47.46 37.8783C47.2199 38.5246 46.8088 39.0316 46.2265 39.3995C45.6568 39.7548 44.9983 39.9327 44.251 39.9335ZM55.3105 39.9226C54.2845 39.9236 53.3912 39.6711 52.6307 39.1652C51.8702 38.6593 51.3312 37.9758 51.0137 37.1148L52.419 36.4294C52.711 37.0371 53.1104 37.5181 53.6175 37.8723C54.1245 38.2264 54.6883 38.4032 55.309 38.4026C55.8663 38.402 56.3285 38.2686 56.6956 38.0022C57.0627 37.7359 57.246 37.3873 57.2456 36.9567C57.2453 36.6527 57.1564 36.4121 56.9788 36.2349C56.814 36.0451 56.6112 35.8996 56.3704 35.7985C56.1296 35.6848 55.9079 35.6027 55.7052 35.5522L54.1657 35.1167C53.2408 34.8516 52.5628 34.4723 52.1316 33.9787C51.7131 33.4851 51.5036 32.909 51.5029 32.2503C51.5023 31.6423 51.6538 31.1165 51.9574 30.6729C52.2736 30.2166 52.6976 29.8615 53.2293 29.6076C53.7737 29.3538 54.3816 29.2265 55.0529 29.2258C55.9523 29.2249 56.7568 29.4522 57.4666 29.9075C58.1891 30.3627 58.7027 31.0019 59.0075 31.8249L57.5642 32.4914C57.3356 31.9596 56.9932 31.5419 56.5369 31.2384C56.0806 30.9222 55.5675 30.7643 54.9975 30.7649C54.4781 30.7654 54.0666 30.8988 53.7629 31.1651C53.4591 31.4187 53.3074 31.7419 53.3078 32.1346C53.3081 32.4259 53.3843 32.6665 53.5365 32.8563C53.6887 33.0335 53.8725 33.1727 54.0879 33.2738C54.3033 33.3622 54.5124 33.438 54.7152 33.5012L56.3876 33.9935C57.2239 34.2334 57.8702 34.6064 58.3267 35.1126C58.7959 35.6188 59.0308 36.2266 59.0315 36.9359C59.0321 37.5059 58.8743 38.0191 58.5581 38.4754C58.2418 38.9317 57.8052 39.2868 57.2481 39.5407C56.691 39.7946 56.0451 39.9219 55.3105 39.9226ZM61.3474 39.6886L61.3373 29.4476L63.1043 29.4459L63.1144 39.6869L61.3474 39.6886ZM61.3357 27.8136L61.3334 25.5336L63.1004 25.5319L63.1027 27.8119L61.3357 27.8136ZM65.8561 39.6842L65.8461 29.4432L67.575 29.4415L67.577 31.4365L67.2918 31.2658C67.5445 30.6195 67.9494 30.1188 68.5064 29.7636C69.076 29.3957 69.7408 29.2114 70.5008 29.2106C71.2355 29.2099 71.888 29.3739 72.4583 29.7027C73.0413 30.0314 73.4977 30.487 73.8277 31.0693C74.1702 31.6517 74.3419 32.3102 74.3426 33.0448L74.3491 39.6758L72.5631 39.6776L72.5572 33.6166C72.5566 33.0466 72.4548 32.5654 72.2517 32.1729C72.0487 31.7804 71.7571 31.4767 71.3768 31.2617C71.0093 31.0341 70.5848 30.9205 70.1035 30.921C69.6222 30.9215 69.1916 31.0359 68.8118 31.2643C68.4447 31.48 68.1537 31.7906 67.9388 32.1961C67.7238 32.589 67.6166 33.0641 67.6172 33.6215L67.6231 39.6825L65.8561 39.6842ZM81.5898 39.8967C80.6018 39.8977 79.7213 39.6642 78.9482 39.1963C78.175 38.7284 77.5664 38.0893 77.1223 37.2791C76.6781 36.4562 76.4555 35.5381 76.4545 34.5247C76.4535 33.4987 76.668 32.5865 77.0979 31.7881C77.5404 30.9897 78.1351 30.3621 78.882 29.9054C79.6415 29.4359 80.49 29.2008 81.4273 29.1998C82.1873 29.1991 82.8588 29.3378 83.4417 29.6159C84.0373 29.8813 84.538 30.2481 84.9438 30.7164C85.3622 31.172 85.6794 31.6973 85.8954 32.2924C86.1239 32.8749 86.2385 33.4828 86.2391 34.1161C86.2393 34.2554 86.2268 34.4138 86.2016 34.5911C86.1891 34.7558 86.1703 34.9142 86.1451 35.0662L77.7471 35.0745L77.7456 33.5545L85.1176 33.5472L84.2823 34.232C84.3956 33.5733 84.3317 32.9843 84.0905 32.4652C83.8493 31.9461 83.4943 31.5348 83.0253 31.2313C82.5563 30.9277 82.0242 30.7763 81.4289 30.7768C80.8335 30.7774 80.289 30.93 79.7953 31.2345C79.3016 31.5389 78.9157 31.9763 78.6376 32.5466C78.3721 33.1042 78.2651 33.7693 78.3166 34.5419C78.2666 35.2893 78.3813 35.9478 78.6605 36.5176C78.9524 37.0746 79.3582 37.5112 79.8778 37.8274C80.4101 38.1309 80.9866 38.2823 81.6073 38.2817C82.2913 38.281 82.8674 38.1221 83.3358 37.805C83.8041 37.4878 84.1837 37.0821 84.4746 36.5878L85.9573 37.3464C85.7551 37.8153 85.4389 38.2462 85.0086 38.6393C84.591 39.0197 84.0909 39.3242 83.5085 39.5528C82.9387 39.7814 82.2992 39.896 81.5898 39.8967ZM92.2157 39.8862C91.1897 39.8872 90.2965 39.6348 89.536 39.1289C88.7755 38.6229 88.2365 37.9395 87.919 37.0785L89.3243 36.3931C89.6162 37.0008 90.0157 37.4817 90.5227 37.8359C91.0297 38.1901 91.5936 38.3668 92.2142 38.3662C92.7716 38.3657 93.2338 38.2322 93.6008 37.9659C93.9679 37.6995 94.1512 37.351 94.1508 36.9203C94.1505 36.6163 94.0616 36.3757 93.8841 36.1986C93.7193 36.0087 93.5164 35.8633 93.2757 35.7622C93.0349 35.6484 92.8131 35.5663 92.6104 35.5158L91.071 35.0803C90.1461 34.8153 89.468 34.4359 89.0369 33.9423C88.6184 33.4488 88.4088 32.8726 88.4082 32.214C88.4076 31.606 88.5591 31.0802 88.8626 30.6365C89.1788 30.1802 89.6028 29.8251 90.1346 29.5713C90.679 29.3174 91.2869 29.1901 91.9582 29.1895C92.8575 29.1886 93.6621 29.4158 94.3719 29.8711C95.0943 30.3264 95.6079 30.9655 95.9128 31.7886L94.4694 32.455C94.2409 31.9232 93.8985 31.5056 93.4422 31.202C92.9859 30.8858 92.4727 30.728 91.9027 30.7285C91.3834 30.729 90.9718 30.8624 90.6681 31.1287C90.3644 31.3824 90.2127 31.7055 90.2131 32.0982C90.2133 32.3895 90.2896 32.6301 90.4418 32.82C90.5939 32.9971 90.7778 33.1363 90.9932 33.2374C91.2086 33.3259 91.4177 33.4017 91.6204 33.4648L93.2929 33.9572C94.1291 34.197 94.7755 34.57 95.232 35.0762C95.7012 35.5824 95.9361 36.1902 95.9368 36.8995C95.9374 37.4695 95.7795 37.9827 95.4633 38.439C95.1471 38.8953 94.7104 39.2504 94.1534 39.5043C93.5963 39.7582 92.9504 39.8855 92.2157 39.8862ZM101.92 39.8767C100.894 39.8777 100.001 39.6252 99.2401 39.1193C98.4796 38.6134 97.9406 37.9299 97.6231 37.0689L99.0284 36.3835C99.3203 36.9912 99.7198 37.4722 100.227 37.8263C100.734 38.1805 101.298 38.3573 101.918 38.3567C102.476 38.3561 102.938 38.2227 103.305 37.9563C103.672 37.6899 103.855 37.3414 103.855 36.9107C103.855 36.6067 103.766 36.3662 103.588 36.189C103.423 35.9992 103.221 35.8537 102.98 35.7526C102.739 35.6388 102.517 35.5567 102.315 35.5063L100.775 35.0708C99.8502 34.8057 99.1721 34.4264 98.741 33.9328C98.3225 33.4392 98.1129 32.8631 98.1123 32.2044C98.1117 31.5964 98.2632 31.0706 98.5667 30.627C98.8829 30.1706 99.3069 29.8156 99.8387 29.5617C100.383 29.3078 100.991 29.1806 101.662 29.1799C102.562 29.179 103.366 29.4062 104.076 29.8615C104.798 30.3168 105.312 30.956 105.617 31.779L104.174 32.4454C103.945 31.9137 103.603 31.496 103.146 31.1924C102.69 30.8762 102.177 30.7184 101.607 30.719C101.087 30.7195 100.676 30.8529 100.372 31.1192C100.068 31.3728 99.9168 31.696 99.9172 32.0886C99.9174 32.38 99.9937 32.6205 100.146 32.8104C100.298 32.9876 100.482 33.1267 100.697 33.2279C100.913 33.3163 101.122 33.3921 101.325 33.4552L102.997 33.9476C103.833 34.1874 104.48 34.5605 104.936 35.0667C105.405 35.5729 105.64 36.1807 105.641 36.89C105.641 37.46 105.484 37.9731 105.167 38.4295C104.851 38.8858 104.415 39.2409 103.857 39.4947C103.3 39.7486 102.655 39.8759 101.92 39.8767Z" fill="white"/>
<path d="M3.41614 15.428L0.78872 3.31537C0.520293 2.07789 1.81129 1.0851 2.93835 1.66228L14.058 7.35672C15.2959 7.9907 15.0792 9.82217 13.7274 10.1497L8.89567 11.3202C8.44883 11.4285 8.07632 11.7357 7.88496 12.1538L6.24595 15.7344C5.64578 17.0455 3.72182 16.8372 3.41614 15.428Z" fill="#36B884"/>
</svg>
