<svg width="22" height="18" viewBox="0 0 22 18" fill="none" xmlns="http://www.w3.org/2000/svg">
<path d="M1 5.57143V4.65714C1 3.37714 1 2.73714 1.24222 2.248C1.45556 1.81714 1.79444 1.46857 2.21333 1.24914C2.68889 1 3.31111 1 4.55556 1H17.4444C18.6889 1 19.3111 1 19.7856 1.24914C20.2044 1.46857 20.5444 1.81714 20.7578 2.248C21 2.736 21 3.376 21 4.65371V5.57143M1 5.57143H21M1 5.57143V13.3429C1 14.6229 1 15.2629 1.24222 15.752C1.45527 16.1821 1.79521 16.5317 2.21333 16.7509C2.68778 17 3.31 17 4.55222 17H17.4478C18.69 17 19.3111 17 19.7856 16.7509C20.2044 16.5314 20.5444 16.1817 20.7578 15.752C21 15.2629 21 14.6251 21 13.3474V5.57143M4.33333 12.4286H8.77778" stroke="white" stroke-width="1.2" stroke-linecap="round" stroke-linejoin="round"/>
</svg>
