<svg width="10" height="8" viewBox="0 0 10 8" fill="none" xmlns="http://www.w3.org/2000/svg">
<path d="M8.73908 0.951606C8.65315 0.986762 7.73518 1.87739 6.21174 3.40082L3.81721 5.78754L2.8133 4.78754C2.25862 4.24067 1.7508 3.76411 1.6883 3.72895C1.28596 3.52582 0.832834 3.67036 0.633615 4.06879C0.516428 4.30317 0.508615 4.51801 0.614084 4.73286C0.660959 4.83832 1.16877 5.36957 2.04768 6.24457C3.11799 7.31098 3.4383 7.60786 3.5594 7.64692C3.75862 7.70942 4.0594 7.67426 4.21955 7.56489C4.40705 7.43598 9.54377 2.30317 9.6883 2.10004C9.79768 1.94379 9.8133 1.89301 9.8133 1.66254C9.8133 1.43598 9.79768 1.38129 9.69612 1.23676C9.47737 0.928168 9.07502 0.807075 8.73908 0.951606Z" fill="#5135FF"/>
</svg>
