<svg width="18" height="18" viewBox="0 0 18 18" fill="none" xmlns="http://www.w3.org/2000/svg">
<path d="M8.2838 1.47676C8.19083 1.50996 8.07462 1.56309 8.02814 1.59297C7.95509 1.63946 7.0088 2.45625 6.73985 2.70196L6.65021 2.78496L5.90314 2.71524C4.94025 2.62559 4.7045 2.62559 4.46876 2.71524C4.23302 2.80157 3.95079 3.06055 3.84122 3.28633C3.79142 3.38594 3.67853 3.80762 3.56896 4.28906C3.45275 4.79707 3.35978 5.13906 3.32657 5.17559C3.29669 5.20547 2.95138 5.41797 2.55958 5.65039C2.16778 5.87949 1.78927 6.1252 1.71954 6.1916C1.4506 6.45059 1.30782 6.93535 1.39415 7.28067C1.41739 7.36367 1.58341 7.77871 1.76271 8.20039C1.94532 8.62207 2.09474 8.99063 2.09474 9.02051C2.09474 9.05039 1.94532 9.41895 1.76271 9.84063C1.58341 10.2623 1.41739 10.6773 1.39415 10.7604C1.30782 11.109 1.45724 11.6104 1.72286 11.8494C1.79259 11.9125 2.1711 12.1549 2.5629 12.3906C2.9547 12.623 3.29669 12.8389 3.32657 12.8688C3.35978 12.902 3.45607 13.2605 3.57228 13.7686C3.67521 14.2334 3.79806 14.6816 3.8379 14.7646C3.93751 14.9605 4.15665 15.1797 4.35587 15.2793C4.51857 15.3623 4.84396 15.432 4.98341 15.4088C5.02989 15.4021 5.42169 15.3656 5.85333 15.3258L6.64025 15.2561L7.31427 15.8438C8.13107 16.5576 8.21739 16.6074 8.66896 16.6074C9.12384 16.6074 9.21349 16.5576 10.0303 15.8438L10.701 15.2561L11.4879 15.3258C11.9195 15.3656 12.308 15.4021 12.3545 15.4088C12.494 15.432 12.8193 15.3623 12.982 15.2793C13.1713 15.1863 13.3971 14.9639 13.4934 14.7846C13.5299 14.7082 13.6561 14.2533 13.7656 13.7686L13.9682 12.8887L14.7119 12.4371C15.1203 12.1914 15.5188 11.9324 15.5984 11.8627C15.6815 11.7896 15.7811 11.6535 15.8475 11.5174C15.9471 11.3182 15.957 11.2684 15.957 11.0127V10.7305L15.5984 9.90039C15.4025 9.44219 15.2432 9.04707 15.2432 9.01719C15.2432 8.99063 15.3926 8.62207 15.5752 8.20039C15.7545 7.77871 15.9205 7.36367 15.9438 7.28067C15.9969 7.07149 15.9604 6.7627 15.8608 6.54688C15.7213 6.24141 15.5818 6.12188 14.7949 5.66035C14.3932 5.42129 14.0412 5.20215 14.0113 5.17227C13.9781 5.13906 13.8885 4.81699 13.7822 4.33887C13.5565 3.32949 13.5233 3.24317 13.2709 2.99082C12.899 2.62227 12.7297 2.59571 11.4414 2.71524L10.6977 2.78496L10.0236 2.19395C9.24337 1.51328 9.12384 1.44356 8.71876 1.42696C8.52286 1.417 8.40997 1.43028 8.2838 1.47676ZM11.7369 6.77266C11.8067 6.8125 11.893 6.89883 11.9262 6.96192C12.0059 7.11133 12.0059 7.34707 11.9295 7.47656C11.8233 7.64922 8.31036 11.2252 8.18087 11.2883C8.09454 11.3348 8.01485 11.348 7.90196 11.3381C7.75919 11.3215 7.64298 11.2484 6.6004 10.5047C5.36525 9.62481 5.34864 9.6082 5.34864 9.30938C5.34864 9.1168 5.45489 8.96074 5.65411 8.86113C5.92638 8.725 5.96954 8.74492 6.98556 9.47207L7.88536 10.1195L8.01485 9.99336C8.08458 9.92363 8.81505 9.17656 9.64181 8.3332C10.4652 7.48985 11.1858 6.77598 11.2389 6.74942C11.3883 6.67637 11.5875 6.68633 11.7369 6.77266Z" fill="#E17B63"/>
</svg>
