<svg width="20" height="21" viewBox="0 0 20 21" fill="none" xmlns="http://www.w3.org/2000/svg">
<path d="M18.8889 10.1207C18.5942 10.1207 18.3116 10.2377 18.1032 10.4461C17.8948 10.6545 17.7778 10.9371 17.7778 11.2318V17.4207C17.7778 17.5975 17.7075 17.7671 17.5825 17.8921C17.4575 18.0171 17.2879 18.0873 17.1111 18.0873H2.88889C2.71208 18.0873 2.54251 18.0171 2.41748 17.8921C2.29246 17.7671 2.22222 17.5975 2.22222 17.4207V3.19846C2.22222 3.02165 2.29246 2.85208 2.41748 2.72705C2.54251 2.60203 2.71208 2.53179 2.88889 2.53179H13.5222C13.8169 2.53179 14.0995 2.41473 14.3079 2.20636C14.5163 1.99798 14.6333 1.71537 14.6333 1.42068C14.6333 1.126 14.5163 0.843381 14.3079 0.635007C14.0995 0.426633 13.8169 0.30957 13.5222 0.30957H2.88889C2.12361 0.312497 1.39051 0.617801 0.849369 1.15894C0.30823 1.70008 0.00292653 2.43318 0 3.19846V17.4207C0.00292653 18.186 0.30823 18.9191 0.849369 19.4602C1.39051 20.0013 2.12361 20.3066 2.88889 20.3096H17.1111C17.8764 20.3066 18.6095 20.0013 19.1506 19.4602C19.6918 18.9191 19.9971 18.186 20 17.4207V11.2318C20 10.9371 19.8829 10.6545 19.6746 10.4461C19.4662 10.2377 19.1836 10.1207 18.8889 10.1207Z" fill="#C4BCE3"/>
<path d="M8.5778 9.19845C8.36929 9.01094 8.09759 8.9092 7.81721 8.91364C7.53682 8.91809 7.26849 9.02838 7.06603 9.22241C6.86356 9.41643 6.74196 9.67983 6.72559 9.95978C6.70923 10.2397 6.79932 10.5155 6.97779 10.7318L9.44446 13.3207C9.54773 13.429 9.67183 13.5154 9.8093 13.5746C9.94678 13.6337 10.0948 13.6645 10.2445 13.6651C10.3933 13.666 10.5409 13.6369 10.6783 13.5797C10.8157 13.5224 10.9402 13.4381 11.0445 13.3318L18.5778 5.55401C18.6799 5.44895 18.7604 5.32481 18.8145 5.18866C18.8687 5.05251 18.8955 4.90703 18.8934 4.76052C18.8914 4.61401 18.8605 4.46934 18.8025 4.33477C18.7445 4.2002 18.6606 4.07837 18.5556 3.97623C18.4505 3.87409 18.3264 3.79365 18.1902 3.73949C18.0541 3.68533 17.9086 3.65851 17.7621 3.66058C17.6156 3.66264 17.4709 3.69354 17.3363 3.75151C17.2018 3.80949 17.0799 3.8934 16.9778 3.99846L10.2556 10.954L8.5778 9.19845Z" fill="#C4BCE3"/>
</svg>
