<svg width="145" height="57" viewBox="0 0 145 57" fill="none" xmlns="http://www.w3.org/2000/svg">
<path d="M0.769164 38.5518C0.533405 28.8234 8.22868 20.7459 17.957 20.5101L131.536 17.7576L132.026 37.9916C132.227 46.2734 125.676 53.1499 117.394 53.3506L18.8108 55.7396C9.08244 55.9754 1.00492 48.2801 0.769164 38.5518Z" fill="#F25644"/>
<path d="M25.2684 43.6501C24.2683 43.6826 23.3384 43.5354 22.4786 43.2085C21.6311 42.8685 20.8802 42.3797 20.2258 41.742C19.584 41.1038 19.0778 40.3472 18.7072 39.4721C18.3365 38.597 18.1341 37.6341 18.1 36.5833C18.0654 35.5199 18.2046 34.5395 18.5176 33.6422C18.8306 32.7449 19.2866 31.957 19.8855 31.2785C20.4844 30.6 21.2022 30.0697 22.0389 29.6877C22.8752 29.2929 23.7934 29.0793 24.7936 29.0468C25.7684 29.0151 26.6475 29.1576 27.4308 29.4743C28.2269 29.7906 28.8996 30.2123 29.449 30.7394C30.0111 31.266 30.4162 31.8358 30.6642 32.4488L28.9805 33.2829C28.6258 32.5087 28.0925 31.8924 27.3805 31.434C26.6682 30.9629 25.8246 30.7432 24.8498 30.7749C23.8623 30.807 22.99 31.0698 22.233 31.5633C21.4886 32.0565 20.9148 32.7278 20.5115 33.5774C20.1083 34.4269 19.9248 35.4087 19.961 36.5228C19.9968 37.6242 20.2435 38.5857 20.7011 39.4073C21.1587 40.2288 21.775 40.8615 22.5498 41.3052C23.3373 41.7485 24.2248 41.9541 25.2122 41.922C26.1871 41.8903 27.0148 41.6226 27.6955 41.1188C28.3757 40.6025 28.8676 39.9465 29.1713 39.1508L30.9057 39.8739C30.698 40.5016 30.3308 41.0965 29.8041 41.6586C29.2901 42.2203 28.6462 42.6848 27.8724 43.0521C27.1112 43.4191 26.2433 43.6184 25.2684 43.6501ZM38.0208 43.2354C37.0333 43.2675 36.1334 43.0686 35.321 42.6388C34.5082 42.1963 33.8544 41.5776 33.3596 40.7826C32.8648 39.9876 32.6008 39.0773 32.5674 38.0519C32.5341 37.0264 32.7323 36.1075 33.1622 35.2951C33.6046 34.4823 34.217 33.8287 34.9994 33.3343C35.7817 32.84 36.673 32.5766 37.6731 32.544C38.6606 32.5119 39.5607 32.7171 40.3736 33.1596C41.186 33.5894 41.833 34.1957 42.3147 34.9785C42.8091 35.7608 43.0731 36.671 43.1069 37.7092C43.1406 38.7473 42.9301 39.6793 42.4754 40.5052C42.0203 41.3184 41.4015 41.9722 40.6192 42.4665C39.8491 42.9478 38.9829 43.2041 38.0208 43.2354ZM37.9652 41.5263C38.5982 41.5057 39.1628 41.3289 39.6589 40.996C40.1676 40.6626 40.5586 40.2126 40.8316 39.6461C41.1173 39.0792 41.2491 38.4539 41.2269 37.7703C41.2042 37.074 41.0323 36.4649 40.7112 35.9431C40.4023 35.4082 39.9832 34.9909 39.4539 34.6913C38.9367 34.3786 38.3617 34.2325 37.7287 34.2531C37.083 34.2741 36.506 34.4576 35.9977 34.8037C35.5016 35.1366 35.1104 35.5803 34.8243 36.1345C34.5378 36.6761 34.4058 37.2951 34.4285 37.9914C34.4507 38.675 34.6228 39.2904 34.9447 39.8376C35.2667 40.3847 35.686 40.8083 36.2027 41.1083C36.732 41.408 37.3196 41.5473 37.9652 41.5263ZM45.577 42.7615L45.2442 32.5259L46.9723 32.4698L47.0371 34.4637L46.7467 34.3021C46.9789 33.6482 47.3678 33.1349 47.9133 32.7623C48.471 32.3767 49.1297 32.1715 49.8893 32.1468C50.6236 32.1229 51.2809 32.2663 51.8613 32.5769C52.4544 32.8871 52.925 33.3281 53.2731 33.8997C53.6338 34.471 53.8261 35.1237 53.85 35.858L54.0655 42.4855L52.2805 42.5435L52.0835 36.4858C52.065 35.9161 51.948 35.4383 51.7327 35.0524C51.5174 34.6665 51.2163 34.3722 50.8295 34.1693C50.455 33.9533 50.0272 33.8532 49.5461 33.8688C49.065 33.8845 48.6383 34.0124 48.2659 34.2526C47.9058 34.4798 47.6247 34.7994 47.4226 35.2116C47.2202 35.611 47.128 36.0893 47.1461 36.6463L47.3431 42.7041L45.577 42.7615ZM60.2652 42.512C59.2397 42.5454 58.3389 42.3212 57.5629 41.8395C56.7868 41.3578 56.2265 40.6917 55.882 39.8411L57.2651 39.1117C57.576 39.7099 57.9904 40.178 58.5084 40.5161C59.0263 40.8541 59.5954 41.013 60.2158 40.9928C60.7728 40.9747 61.2306 40.8267 61.5891 40.549C61.9475 40.2712 62.1198 39.917 62.1058 39.4866C62.0959 39.1828 61.9995 38.9451 61.8165 38.7736C61.6457 38.5891 61.4384 38.4501 61.1946 38.3566C60.9503 38.2505 60.7261 38.1754 60.5219 38.1314L58.9695 37.7446C58.0367 37.5088 57.347 37.151 56.9005 36.6713C56.4667 36.1911 56.2391 35.6219 56.2177 34.9636C56.1979 34.3559 56.3328 33.8256 56.6222 33.3726C56.9239 32.9065 57.3364 32.5383 57.8599 32.2678C58.3961 31.9969 58.9996 31.8505 59.6706 31.8287C60.5695 31.7995 61.3808 32.0012 62.1046 32.4339C62.841 32.8662 63.3745 33.4889 63.7051 34.3019L62.2835 35.0135C62.0383 34.4891 61.6829 34.0825 61.2173 33.7935C60.7512 33.4918 60.2334 33.3502 59.6637 33.3687C59.1446 33.3856 58.7375 33.5319 58.4423 33.8077C58.1467 34.0707 58.0053 34.3985 58.018 34.791C58.0275 35.0822 58.1113 35.3202 58.2694 35.5052C58.4271 35.6775 58.6152 35.8108 58.8337 35.9051C59.0518 35.9867 59.2631 36.0558 59.4677 36.1126L61.1549 36.5519C61.9983 36.7653 62.6561 37.1178 63.1283 37.6094C63.6132 38.1005 63.8672 38.7006 63.8902 39.4096C63.9088 39.9793 63.7672 40.4971 63.4655 40.9632C63.1638 41.4292 62.7386 41.7979 62.1898 42.0692C61.641 42.3405 60.9994 42.4881 60.2652 42.512ZM69.9262 42.1979C69.1919 42.2217 68.5217 42.0724 67.9155 41.75C67.3221 41.4271 66.8509 40.9672 66.5019 40.3702C66.1653 39.7601 65.984 39.0563 65.958 38.2587L65.7499 31.8591L67.516 31.8017L67.7179 38.0114C67.7344 38.5178 67.8501 38.9576 68.065 39.3308C68.2926 39.7036 68.5934 39.9917 68.9675 40.195C69.3543 40.3978 69.7883 40.4914 70.2694 40.4758C70.7504 40.4601 71.1711 40.3387 71.5312 40.1116C71.904 39.884 72.1851 39.5644 72.3745 39.1527C72.5765 38.7406 72.6685 38.256 72.6504 37.6989L72.4534 31.6411L74.2384 31.5831L74.5713 41.8187L72.8432 41.8749L72.7784 39.8809L73.0688 40.0426C72.8492 40.6961 72.4542 41.2158 71.8838 41.6019C71.3256 41.9749 70.6731 42.1736 69.9262 42.1979ZM77.3073 41.7297L76.8398 27.3543L78.6059 27.2969L79.0734 41.6723L77.3073 41.7297ZM85.9762 41.5619C84.9761 41.5944 84.1946 41.3347 83.6317 40.7827C83.0814 40.2302 82.7894 39.435 82.7557 38.3969L82.5803 33.0037L80.7193 33.0642L80.6643 31.3741L81.0441 31.3618C81.4999 31.347 81.8561 31.196 82.113 30.9088C82.3698 30.6216 82.4907 30.2502 82.4759 29.7944L82.4488 28.9589L84.2148 28.9014L84.2914 31.2562L86.5892 31.1815L86.6441 32.8716L84.3464 32.9463L84.5199 38.2825C84.531 38.6243 84.5913 38.9201 84.7008 39.1701C84.823 39.4195 85.0132 39.6161 85.2713 39.7598C85.529 39.8908 85.8668 39.9496 86.2846 39.936C86.3732 39.9331 86.4806 39.9233 86.6068 39.9065C86.7456 39.8893 86.8718 39.8725 86.9853 39.8562L87.036 41.4133C86.8726 41.4567 86.6899 41.488 86.4877 41.5072C86.286 41.5391 86.1155 41.5573 85.9762 41.5619ZM89.3429 41.3383L89.0101 31.1027L90.7762 31.0453L91.109 41.2809L89.3429 41.3383ZM88.957 29.4696L88.8829 27.1908L90.649 27.1334L90.7231 29.4122L88.957 29.4696ZM93.8494 41.1918L93.5165 30.9562L95.2446 30.9L95.3094 32.8939L95.019 32.7323C95.2512 32.0784 95.6401 31.5652 96.1856 31.1926C96.7434 30.8069 97.402 30.6017 98.1616 30.577C98.8959 30.5531 99.5533 30.6965 100.134 31.0071C100.727 31.3174 101.197 31.7583 101.545 32.33C101.906 32.9012 102.098 33.554 102.122 34.2882L102.338 40.9157L100.553 40.9738L100.356 34.916C100.337 34.3463 100.22 33.8685 100.005 33.4826C99.7897 33.0968 99.4887 32.8024 99.1019 32.5995C98.7273 32.3836 98.2995 32.2834 97.8184 32.2991C97.3373 32.3147 96.9106 32.4427 96.5382 32.6829C96.1781 32.91 95.897 33.2297 95.6949 33.6418C95.4925 34.0413 95.4003 34.5195 95.4184 35.0766L95.6154 41.1343L93.8494 41.1918ZM109.881 44.8526C109.16 44.8761 108.485 44.784 107.857 44.5763C107.242 44.3682 106.706 44.0688 106.25 43.678C105.807 43.2996 105.463 42.8482 105.218 42.3239L106.845 41.5106C107.038 41.9859 107.387 42.3801 107.891 42.6932C108.409 43.0185 109.047 43.1689 109.807 43.1442C110.389 43.1252 110.911 42.9942 111.372 42.7511C111.846 42.5202 112.215 42.1787 112.479 41.7266C112.744 41.2871 112.866 40.7572 112.846 40.1368L112.771 37.839L113.105 38.1703C112.773 38.8782 112.278 39.4266 111.618 39.8155C110.972 40.2041 110.25 40.4113 109.453 40.4373C108.49 40.4685 107.622 40.275 106.848 39.8566C106.074 39.4255 105.459 38.8309 105.003 38.0726C104.547 37.3017 104.304 36.4415 104.273 35.492C104.242 34.5298 104.429 33.6556 104.834 32.8694C105.239 32.0831 105.808 31.4563 106.541 30.9889C107.286 30.5084 108.139 30.2526 109.101 30.2213C109.899 30.1953 110.627 30.3554 111.284 30.7016C111.954 31.0347 112.495 31.5113 112.908 32.1315L112.658 32.6149L112.584 30.3361L114.312 30.2799L114.631 40.0788C114.659 40.965 114.476 41.763 114.081 42.4729C113.686 43.1828 113.121 43.7461 112.387 44.1628C111.666 44.5918 110.831 44.8218 109.881 44.8526ZM109.549 38.7232C110.157 38.7035 110.696 38.5338 111.167 38.2143C111.651 37.8945 112.03 37.4766 112.305 36.9607C112.579 36.4322 112.706 35.8514 112.686 35.2184C112.665 34.5981 112.501 34.0331 112.193 33.5235C111.885 33.0139 111.479 32.6152 110.976 32.3275C110.485 32.0393 109.936 31.905 109.328 31.9248C108.707 31.945 108.149 32.1152 107.653 32.4355C107.156 32.7558 106.771 33.1803 106.496 33.7088C106.234 34.2242 106.114 34.7985 106.134 35.4315C106.155 36.0645 106.313 36.636 106.608 37.146C106.916 37.6429 107.321 38.0352 107.825 38.323C108.341 38.6104 108.916 38.7438 109.549 38.7232Z" fill="white"/>
<path d="M141.455 16.2626L142.843 3.9461C142.984 2.68781 141.599 1.83084 140.537 2.51918L130.051 9.31029C128.883 10.0664 129.284 11.8665 130.662 12.0554L135.588 12.7307C136.043 12.7932 136.445 13.0611 136.678 13.4576L138.671 16.8539C139.401 18.0975 141.294 17.6955 141.455 16.2626Z" fill="#F25644"/>
</svg>
