<svg width="31" height="23" viewBox="0 0 31 23" fill="none" xmlns="http://www.w3.org/2000/svg">
<path d="M25.9111 0.65625H4.2805C1.98452 0.65625 0.123047 2.51772 0.123047 4.8137V18.4988C0.123047 20.7948 1.98452 22.6562 4.2805 22.6562H25.9111C28.207 22.6562 30.0685 20.7948 30.0685 18.4988V4.8137C30.0685 2.51772 28.207 0.65625 25.9111 0.65625ZM10.5435 15.5L4.72167 20.4668C4.31103 20.8172 3.6937 20.7685 3.3433 20.3575C2.99284 19.9468 3.04156 19.3295 3.45267 18.9791L9.27449 14.0124C9.68507 13.6619 10.3024 13.7106 10.6528 14.1217C11.0033 14.5323 10.9545 15.1496 10.5435 15.5ZM15.0958 13.6118C14.3171 13.6099 13.5623 13.3512 12.9721 12.8408L12.9726 12.8413L12.9707 12.8399C12.9712 12.8403 12.9717 12.8403 12.9721 12.8408L4.03947 5.08777C3.63123 4.73346 3.58778 4.11618 3.94157 3.70847C4.29582 3.30023 4.91316 3.25677 5.32081 3.61056L14.256 11.3655C14.4469 11.5355 14.7616 11.6582 15.0958 11.6562C15.4295 11.6572 15.7389 11.5379 15.9403 11.3622L15.9447 11.3584L24.8707 3.61062C25.2784 3.25683 25.8958 3.30029 26.25 3.70853C26.6038 4.11618 26.5604 4.73352 26.1521 5.08783L17.217 12.8432C16.6288 13.3482 15.875 13.6108 15.0958 13.6118ZM26.8487 20.3575C26.4982 20.7685 25.8809 20.8172 25.4704 20.4668L19.6486 15.5C19.2375 15.1496 19.1888 14.5323 19.5392 14.1217C19.8896 13.7106 20.507 13.662 20.9176 14.0124L26.7394 18.9791C27.1504 19.3295 27.1992 19.9468 26.8487 20.3575Z" fill="#5E36EF"/>
</svg>
