<svg width="92" height="19" viewBox="0 0 92 19" fill="none" xmlns="http://www.w3.org/2000/svg">
<path d="M9.64967 1.46594C9.76916 1.09689 10.2913 1.09689 10.4108 1.46594L11.979 6.30986C12.0325 6.47487 12.1861 6.58665 12.3596 6.58665H17.4376C17.8248 6.58665 17.9861 7.08177 17.6733 7.30986L13.5626 10.3071C13.4229 10.409 13.3645 10.5891 13.4177 10.7536L14.9873 15.6015C15.1067 15.9703 14.6843 16.2763 14.3711 16.0479L10.2659 13.0546C10.1255 12.9522 9.93499 12.9522 9.79456 13.0546L5.68938 16.0479C5.37617 16.2763 4.95377 15.9703 5.07316 15.6015L6.64272 10.7536C6.69597 10.5891 6.63753 10.409 6.49783 10.3071L2.38715 7.30986C2.07434 7.08177 2.23567 6.58665 2.62282 6.58665H7.70086C7.8743 6.58665 8.02799 6.47487 8.08141 6.30986L9.64967 1.46594Z" fill="#FFB31F"/>
<path d="M27.8098 1.46594C27.9293 1.09689 28.4514 1.09689 28.5709 1.46594L30.1392 6.30986C30.1926 6.47487 30.3463 6.58665 30.5197 6.58665H35.5978C35.9849 6.58665 36.1463 7.08177 35.8335 7.30986L31.7228 10.3071C31.5831 10.409 31.5246 10.5891 31.5779 10.7536L33.1474 15.6015C33.2668 15.9703 32.8444 16.2763 32.5312 16.0479L28.426 13.0546C28.2856 12.9522 28.0951 12.9522 27.9547 13.0546L23.8495 16.0479C23.5363 16.2763 23.1139 15.9703 23.2333 15.6015L24.8029 10.7536C24.8561 10.5891 24.7977 10.409 24.658 10.3071L20.5473 7.30986C20.2345 7.08177 20.3958 6.58665 20.783 6.58665H25.861C26.0345 6.58665 26.1881 6.47487 26.2416 6.30986L27.8098 1.46594Z" fill="#FFB31F"/>
<path d="M45.9663 1.46594C46.0858 1.09689 46.6079 1.09689 46.7274 1.46594L48.2957 6.30986C48.3491 6.47487 48.5028 6.58665 48.6762 6.58665H53.7543C54.1414 6.58665 54.3028 7.08177 53.99 7.30986L49.8793 10.3071C49.7396 10.409 49.6811 10.5891 49.7344 10.7536L51.3039 15.6015C51.4233 15.9703 51.0009 16.2763 50.6877 16.0479L46.5825 13.0546C46.4421 12.9522 46.2516 12.9522 46.1112 13.0546L42.006 16.0479C41.6928 16.2763 41.2704 15.9703 41.3898 15.6015L42.9594 10.7536C43.0126 10.5891 42.9542 10.409 42.8145 10.3071L38.7038 7.30986C38.391 7.08177 38.5523 6.58665 38.9395 6.58665H44.0175C44.191 6.58665 44.3446 6.47487 44.3981 6.30986L45.9663 1.46594Z" fill="#FFB31F"/>
<path d="M64.1262 1.46594C64.2457 1.09689 64.7679 1.09689 64.8873 1.46594L66.4556 6.30986C66.509 6.47487 66.6627 6.58665 66.8362 6.58665H71.9142C72.3013 6.58665 72.4627 7.08177 72.1499 7.30986L68.0392 10.3071C67.8995 10.409 67.841 10.5891 67.8943 10.7536L69.4639 15.6015C69.5832 15.9703 69.1608 16.2763 68.8476 16.0479L64.7425 13.0546C64.602 12.9522 64.4116 12.9522 64.2711 13.0546L60.1659 16.0479C59.8527 16.2763 59.4303 15.9703 59.5497 15.6015L61.1193 10.7536C61.1725 10.5891 61.1141 10.409 60.9744 10.3071L56.8637 7.30986C56.5509 7.08177 56.7122 6.58665 57.0994 6.58665H62.1774C62.3509 6.58665 62.5045 6.47487 62.558 6.30986L64.1262 1.46594Z" fill="#FFB31F"/>
<path d="M82.2857 1.46594C82.4051 1.09689 82.9273 1.09689 83.0468 1.46594L84.615 6.30986C84.6685 6.47487 84.8221 6.58665 84.9956 6.58665H90.0736C90.4608 6.58665 90.6221 7.08177 90.3093 7.30986L86.1986 10.3071C86.0589 10.409 86.0005 10.5891 86.0537 10.7536L87.6233 15.6015C87.7427 15.9703 87.3203 16.2763 87.0071 16.0479L82.9019 13.0546C82.7614 12.9522 82.571 12.9522 82.4305 13.0546L78.3254 16.0479C78.0122 16.2763 77.5898 15.9703 77.7091 15.6015L79.2787 10.7536C79.332 10.5891 79.2735 10.409 79.1338 10.3071L75.0231 7.30986C74.7103 7.08177 74.8717 6.58665 75.2588 6.58665H80.3368C80.5103 6.58665 80.664 6.47487 80.7174 6.30986L82.2857 1.46594Z" fill="#FFB31F"/>
</svg>
