<svg width="159" height="32" viewBox="0 0 159 32" fill="none" xmlns="http://www.w3.org/2000/svg">
<ellipse cx="15.7672" cy="16.9467" rx="4.67713" ry="5.0409" fill="#578F9E"/>
<path d="M41.2684 26.3085V7.40847H52.4059V10.2165H44.0764V14.7795H51.1099V17.5875H44.0764V26.3085H41.2684ZM53.7138 26.3085V12.8085H56.5218V14.2395C56.9898 13.6815 57.5658 13.2405 58.2498 12.9165C58.9338 12.5925 59.6718 12.4305 60.4638 12.4305C60.9678 12.4305 61.4673 12.498 61.9623 12.633L60.8418 15.468C60.4908 15.333 60.1398 15.2655 59.7888 15.2655C59.1948 15.2655 58.6503 15.414 58.1553 15.711C57.6603 15.999 57.2643 16.3905 56.9673 16.8855C56.6703 17.3805 56.5218 17.9295 56.5218 18.5325V26.3085H53.7138ZM63.5223 12.8085H66.3303V26.3085H63.5223V12.8085ZM64.9533 10.851C64.5213 10.851 64.1613 10.7115 63.8733 10.4325C63.5853 10.1535 63.4413 9.80247 63.4413 9.37947C63.4413 8.96547 63.5853 8.61897 63.8733 8.33997C64.1613 8.05197 64.5168 7.90797 64.9398 7.90797C65.3538 7.90797 65.7048 8.05197 65.9928 8.33997C66.2808 8.61897 66.4248 8.96547 66.4248 9.37947C66.4248 9.80247 66.2808 10.1535 65.9928 10.4325C65.7138 10.7115 65.3673 10.851 64.9533 10.851ZM76.6884 15.6165H73.8534L73.8399 26.3085H71.0319L71.0454 15.6165H68.8989V12.8085H71.0454L71.0319 8.56947H73.8399L73.8534 12.8085H76.6884V15.6165ZM87.6044 22.4745L90.1154 23.838C89.5034 24.693 88.7249 25.377 87.7799 25.89C86.8439 26.403 85.8269 26.6595 84.7289 26.6595C83.4869 26.6595 82.3529 26.34 81.3269 25.701C80.3099 25.062 79.4954 24.207 78.8834 23.136C78.2804 22.056 77.9789 20.8635 77.9789 19.5585C77.9789 18.5685 78.1544 17.646 78.5054 16.791C78.8564 15.927 79.3379 15.171 79.9499 14.523C80.5709 13.866 81.2909 13.353 82.1099 12.984C82.9289 12.615 83.8019 12.4305 84.7289 12.4305C85.8269 12.4305 86.8439 12.687 87.7799 13.2C88.7249 13.713 89.5034 14.4015 90.1154 15.2655L87.6044 16.629C87.2264 16.179 86.7854 15.837 86.2814 15.603C85.7774 15.36 85.2599 15.2385 84.7289 15.2385C83.9909 15.2385 83.3204 15.441 82.7174 15.846C82.1234 16.242 81.6509 16.7685 81.2999 17.4255C80.9579 18.0735 80.7869 18.7845 80.7869 19.5585C80.7869 20.3235 80.9624 21.0345 81.3134 21.6915C81.6644 22.3395 82.1369 22.8615 82.7309 23.2575C83.3339 23.6535 83.9999 23.8515 84.7289 23.8515C85.2869 23.8515 85.8179 23.7255 86.3219 23.4735C86.8259 23.2215 87.2534 22.8885 87.6044 22.4745ZM104.36 17.844V26.3085H101.552V18.5325C101.552 17.9295 101.403 17.3805 101.106 16.8855C100.818 16.3905 100.427 15.999 99.9318 15.711C99.4458 15.414 98.8968 15.2655 98.2848 15.2655C97.6908 15.2655 97.1463 15.414 96.6513 15.711C96.1563 15.999 95.7603 16.3905 95.4633 16.8855C95.1663 17.3805 95.0178 17.9295 95.0178 18.5325V26.3085H92.2098V6.05847H95.0178V14.2395C95.4858 13.6815 96.0618 13.2405 96.7458 12.9165C97.4298 12.5925 98.1678 12.4305 98.9598 12.4305C99.9588 12.4305 100.868 12.6735 101.687 13.1595C102.506 13.6455 103.154 14.298 103.631 15.117C104.117 15.936 104.36 16.845 104.36 17.844ZM114.183 15.6165H111.348L111.334 26.3085H108.526L108.54 15.6165H106.393V12.8085H108.54L108.526 8.56947H111.334L111.348 12.8085H114.183V15.6165ZM122.223 26.6595C120.981 26.6595 119.847 26.34 118.821 25.701C117.804 25.062 116.99 24.207 116.378 23.136C115.775 22.056 115.473 20.8635 115.473 19.5585C115.473 18.5685 115.649 17.646 116 16.791C116.351 15.927 116.832 15.171 117.444 14.523C118.065 13.866 118.785 13.353 119.604 12.984C120.423 12.615 121.296 12.4305 122.223 12.4305C123.258 12.4305 124.208 12.6465 125.072 13.0785C125.936 13.5015 126.674 14.091 127.286 14.847C127.898 15.594 128.348 16.458 128.636 17.439C128.924 18.411 129.009 19.446 128.892 20.544H118.484C118.601 21.165 118.826 21.7275 119.159 22.2315C119.501 22.7265 119.933 23.118 120.455 23.406C120.986 23.694 121.575 23.8425 122.223 23.8515C122.907 23.8515 123.528 23.6805 124.086 23.3385C124.653 22.9965 125.117 22.524 125.477 21.921L128.325 22.5825C127.785 23.7795 126.971 24.7605 125.882 25.5255C124.793 26.2815 123.573 26.6595 122.223 26.6595ZM118.389 18.3975H126.057C125.967 17.7495 125.738 17.1645 125.369 16.6425C125.009 16.1115 124.554 15.693 124.005 15.387C123.465 15.072 122.871 14.9145 122.223 14.9145C121.584 14.9145 120.99 15.0675 120.441 15.3735C119.901 15.6795 119.451 16.098 119.091 16.629C118.74 17.151 118.506 17.7405 118.389 18.3975ZM139.917 22.4745L142.428 23.838C141.816 24.693 141.037 25.377 140.092 25.89C139.156 26.403 138.139 26.6595 137.041 26.6595C135.799 26.6595 134.665 26.34 133.639 25.701C132.622 25.062 131.808 24.207 131.196 23.136C130.593 22.056 130.291 20.8635 130.291 19.5585C130.291 18.5685 130.467 17.646 130.818 16.791C131.169 15.927 131.65 15.171 132.262 14.523C132.883 13.866 133.603 13.353 134.422 12.984C135.241 12.615 136.114 12.4305 137.041 12.4305C138.139 12.4305 139.156 12.687 140.092 13.2C141.037 13.713 141.816 14.4015 142.428 15.2655L139.917 16.629C139.539 16.179 139.098 15.837 138.594 15.603C138.09 15.36 137.572 15.2385 137.041 15.2385C136.303 15.2385 135.633 15.441 135.03 15.846C134.436 16.242 133.963 16.7685 133.612 17.4255C133.27 18.0735 133.099 18.7845 133.099 19.5585C133.099 20.3235 133.275 21.0345 133.626 21.6915C133.977 22.3395 134.449 22.8615 135.043 23.2575C135.646 23.6535 136.312 23.8515 137.041 23.8515C137.599 23.8515 138.13 23.7255 138.634 23.4735C139.138 23.2215 139.566 22.8885 139.917 22.4745ZM156.672 17.844V26.3085H153.864V18.5325C153.864 17.9295 153.716 17.3805 153.419 16.8855C153.131 16.3905 152.739 15.999 152.244 15.711C151.758 15.414 151.209 15.2655 150.597 15.2655C150.003 15.2655 149.459 15.414 148.964 15.711C148.469 15.999 148.073 16.3905 147.776 16.8855C147.479 17.3805 147.33 17.9295 147.33 18.5325V26.3085H144.522V6.05847H147.33V14.2395C147.798 13.6815 148.374 13.2405 149.058 12.9165C149.742 12.5925 150.48 12.4305 151.272 12.4305C152.271 12.4305 153.18 12.6735 153.999 13.1595C154.818 13.6455 155.466 14.298 155.943 15.117C156.429 15.936 156.672 16.845 156.672 17.844Z" fill="#615C73"/>
<path d="M16.1631 0.633911L19.6823 11.4648H31.0705L21.8572 18.1586L25.3764 28.9895L16.1631 22.2956L6.94982 28.9895L10.469 18.1586L1.25569 11.4648H12.6439L16.1631 0.633911Z" fill="#FE9177"/>
</svg>
