<svg width="136" height="35" viewBox="0 0 136 35" fill="none" xmlns="http://www.w3.org/2000/svg">
<path d="M55.8646 27.7709C54.502 27.7709 53.2326 27.5095 52.0566 26.9869C50.89 26.4549 49.868 25.7222 48.9906 24.7889C48.1226 23.8462 47.4413 22.7589 46.9466 21.5269C46.4613 20.2949 46.2186 18.9835 46.2186 17.5929C46.2186 16.1275 46.48 14.7789 47.0026 13.5469C47.5253 12.3149 48.2393 11.2462 49.1446 10.3409C50.05 9.42619 51.0813 8.71686 52.2386 8.21286C53.4053 7.70886 54.628 7.45686 55.9066 7.45686C57.3533 7.45686 58.744 7.79286 60.0786 8.46486C61.4133 9.13686 62.5753 10.1449 63.5646 11.4889L60.9606 12.9029C60.2886 12.0629 59.5046 11.4282 58.6086 10.9989C57.722 10.5695 56.812 10.3549 55.8786 10.3549C54.9733 10.3549 54.1146 10.5415 53.3026 10.9149C52.4906 11.2789 51.772 11.7922 51.1466 12.4549C50.5213 13.1082 50.0266 13.8782 49.6626 14.7649C49.308 15.6422 49.1306 16.5989 49.1306 17.6349C49.1306 18.6335 49.3033 19.5715 49.6486 20.4489C50.0033 21.3262 50.4886 22.0962 51.1046 22.7589C51.73 23.4122 52.4486 23.9255 53.2606 24.2989C54.082 24.6722 54.9593 24.8589 55.8926 24.8589C56.5833 24.8589 57.246 24.7469 57.8806 24.5229C58.5153 24.2989 59.1033 23.9815 59.6446 23.5709C60.1953 23.1509 60.676 22.6515 61.0866 22.0729C61.4973 21.4942 61.824 20.8502 62.0666 20.1409H57.9086V17.5649H65.4826C65.5013 18.9649 65.2586 20.2809 64.7546 21.5129C64.26 22.7449 63.5693 23.8322 62.6826 24.7749C61.8053 25.7082 60.7833 26.4409 59.6166 26.9729C58.45 27.5049 57.1993 27.7709 55.8646 27.7709ZM74.0754 27.7709C72.7874 27.7709 71.6114 27.4395 70.5474 26.7769C69.4927 26.1142 68.648 25.2275 68.0134 24.1169C67.388 22.9969 67.0754 21.7602 67.0754 20.4069C67.0754 19.3802 67.2574 18.4235 67.6214 17.5369C67.9854 16.6409 68.4847 15.8569 69.1194 15.1849C69.7634 14.5035 70.51 13.9715 71.3594 13.5889C72.2087 13.2062 73.114 13.0149 74.0754 13.0149C75.1487 13.0149 76.1334 13.2389 77.0294 13.6869C77.9254 14.1255 78.6907 14.7369 79.3254 15.5209C79.96 16.2955 80.4267 17.1915 80.7254 18.2089C81.024 19.2169 81.1127 20.2902 80.9914 21.4289H70.1974C70.3187 22.0729 70.552 22.6562 70.8974 23.1789C71.252 23.6922 71.7 24.0982 72.2414 24.3969C72.792 24.6955 73.4034 24.8495 74.0754 24.8589C74.7847 24.8589 75.4287 24.6815 76.0074 24.3269C76.5954 23.9722 77.076 23.4822 77.4494 22.8569L80.4034 23.5429C79.8434 24.7842 78.9987 25.8015 77.8694 26.5949C76.74 27.3789 75.4754 27.7709 74.0754 27.7709ZM70.0994 19.2029H78.0514C77.958 18.5309 77.72 17.9242 77.3374 17.3829C76.964 16.8322 76.4927 16.3982 75.9234 16.0809C75.3634 15.7542 74.7474 15.5909 74.0754 15.5909C73.4127 15.5909 72.7967 15.7495 72.2274 16.0669C71.6674 16.3842 71.2007 16.8182 70.8274 17.3689C70.4634 17.9102 70.2207 18.5215 70.0994 19.2029ZM94.1885 6.40686H97.1005V27.4069H94.1885V25.3489C93.7312 26.0769 93.1339 26.6649 92.3965 27.1129C91.6592 27.5515 90.7959 27.7709 89.8065 27.7709C88.7892 27.7709 87.8372 27.5795 86.9505 27.1969C86.0639 26.8142 85.2799 26.2869 84.5985 25.6149C83.9265 24.9335 83.3992 24.1495 83.0165 23.2629C82.6339 22.3762 82.4425 21.4242 82.4425 20.4069C82.4425 19.3895 82.6339 18.4375 83.0165 17.5509C83.3992 16.6549 83.9265 15.8709 84.5985 15.1989C85.2799 14.5175 86.0639 13.9855 86.9505 13.6029C87.8372 13.2202 88.7892 13.0289 89.8065 13.0289C90.7959 13.0289 91.6592 13.2529 92.3965 13.7009C93.1339 14.1395 93.7312 14.7182 94.1885 15.4369V6.40686ZM89.8345 24.9569C90.6559 24.9569 91.3745 24.7562 91.9905 24.3549C92.6065 23.9442 93.0825 23.3935 93.4185 22.7029C93.7639 22.0122 93.9365 21.2469 93.9365 20.4069C93.9365 19.5575 93.7639 18.7875 93.4185 18.0969C93.0732 17.4062 92.5925 16.8602 91.9765 16.4589C91.3699 16.0482 90.6559 15.8429 89.8345 15.8429C89.0225 15.8429 88.2805 16.0482 87.6085 16.4589C86.9459 16.8695 86.4139 17.4202 86.0125 18.1109C85.6205 18.8015 85.4245 19.5669 85.4245 20.4069C85.4245 21.2562 85.6252 22.0262 86.0265 22.7169C86.4372 23.3982 86.9739 23.9442 87.6365 24.3549C88.3085 24.7562 89.0412 24.9569 89.8345 24.9569ZM106.423 27.7709C105.135 27.7709 103.959 27.4395 102.895 26.7769C101.84 26.1142 100.996 25.2275 100.361 24.1169C99.7357 22.9969 99.423 21.7602 99.423 20.4069C99.423 19.3802 99.605 18.4235 99.969 17.5369C100.333 16.6409 100.832 15.8569 101.467 15.1849C102.111 14.5035 102.858 13.9715 103.707 13.5889C104.556 13.2062 105.462 13.0149 106.423 13.0149C107.711 13.0149 108.882 13.3462 109.937 14.0089C111.001 14.6715 111.846 15.5629 112.471 16.6829C113.106 17.8029 113.423 19.0442 113.423 20.4069C113.423 21.4242 113.241 22.3762 112.877 23.2629C112.513 24.1495 112.009 24.9335 111.365 25.6149C110.73 26.2869 109.988 26.8142 109.139 27.1969C108.299 27.5795 107.394 27.7709 106.423 27.7709ZM106.423 24.8589C107.198 24.8589 107.893 24.6535 108.509 24.2429C109.125 23.8322 109.61 23.2909 109.965 22.6189C110.329 21.9375 110.511 21.2002 110.511 20.4069C110.511 19.5949 110.324 18.8482 109.951 18.1669C109.587 17.4855 109.097 16.9442 108.481 16.5429C107.865 16.1322 107.179 15.9269 106.423 15.9269C105.658 15.9269 104.962 16.1322 104.337 16.5429C103.721 16.9535 103.231 17.4995 102.867 18.1809C102.512 18.8622 102.335 19.6042 102.335 20.4069C102.335 21.2375 102.522 21.9889 102.895 22.6609C103.268 23.3329 103.763 23.8695 104.379 24.2709C105.004 24.6629 105.686 24.8589 106.423 24.8589ZM115.493 27.4069V6.40686H118.405V27.4069H115.493ZM130.58 13.4069H133.688L126.016 34.4069H122.922L125.456 27.4069L120.43 13.4069H123.608L126.912 23.4169L130.58 13.4069Z" fill="#615C73"/>
<path d="M35.0136 12.2331H30.0466C28.9537 8.99576 25.4521 7.9335 23.8379 7.80704H4.96314C2.08227 7.20004 1.44483 4.77203 1.48623 3.6339H24.707C30.2701 4.24091 33.896 9.61962 35.0136 12.2331Z" fill="#3D873D" fill-opacity="0.8"/>
<path d="M15.5181 11.8537H5.33575C5.03773 15.0911 8.35735 16.3219 10.0544 16.5327C9.55771 22.0969 15.5181 30.1902 22.8445 29.558C34.1693 27.7369 35.6759 20.1157 35.0136 16.5327H25.2038V20.7058H30.0466C27.1904 25.8906 22.3478 25.5113 20.8577 25.0054C12.9104 22.0716 13.9866 15.0152 15.5181 11.8537Z" fill="#3D873D" fill-opacity="0.8"/>
<path d="M35.0136 12.2331H30.0466C28.9537 8.99576 25.4521 7.9335 23.8379 7.80704H4.96314C2.08227 7.20004 1.44483 4.77203 1.48623 3.6339H24.707C30.2701 4.24091 33.896 9.61962 35.0136 12.2331Z" stroke="white" stroke-linejoin="round"/>
<path d="M15.5181 11.8537H5.33575C5.03773 15.0911 8.35735 16.3219 10.0544 16.5327C9.55771 22.0969 15.5181 30.1902 22.8445 29.558C34.1693 27.7369 35.6759 20.1157 35.0136 16.5327H25.2038V20.7058H30.0466C27.1904 25.8906 22.3478 25.5113 20.8577 25.0054C12.9104 22.0716 13.9866 15.0152 15.5181 11.8537Z" stroke="white" stroke-linejoin="round"/>
</svg>
