<svg width="96" height="15" viewBox="0 0 96 15" fill="none" xmlns="http://www.w3.org/2000/svg">
<path d="M12.6414 6.88604C11.6814 8.9927 11.2014 11.266 11.2014 13.706C10.8414 13.9594 10.3948 14.086 9.86144 14.086C9.34144 14.086 8.91477 13.9594 8.58144 13.706C8.24811 13.466 8.04811 13.2194 7.98144 12.966C7.64811 13.3127 7.20811 13.586 6.66144 13.786C6.12811 13.986 5.57477 14.086 5.00144 14.086C4.4281 14.086 3.8881 13.9927 3.38144 13.806C2.8881 13.6194 2.4481 13.3194 2.06144 12.906C1.2081 11.9994 0.781438 10.686 0.781438 8.96603C0.781438 6.29937 1.49477 4.16603 2.92144 2.56603C4.3881 0.912701 6.42144 0.086035 9.02144 0.086035C10.8214 0.086035 12.0414 0.552702 12.6814 1.48603C12.8814 1.77937 12.9814 2.10603 12.9814 2.46603C12.9814 2.8127 12.9014 3.13937 12.7414 3.44603C12.5948 3.73937 12.4014 4.00603 12.1614 4.24603C11.5881 4.77937 10.9481 5.04603 10.2414 5.04603C9.96144 5.04603 9.6881 4.99937 9.42144 4.90603C9.47477 4.50603 9.50144 4.0727 9.50144 3.60603C9.50144 3.13937 9.48144 2.79937 9.44144 2.58604C9.41477 2.3727 9.36144 2.17937 9.28144 2.00603C9.10811 1.64603 8.82811 1.46604 8.44144 1.46604C8.0681 1.46604 7.6681 1.6727 7.24144 2.08603C6.8281 2.48603 6.45477 3.01937 6.12144 3.68604C5.3881 5.17937 5.02144 6.82603 5.02144 8.62603C5.02144 9.4527 5.18144 10.1594 5.50144 10.746C5.8481 11.386 6.3281 11.706 6.94144 11.706C7.15477 11.706 7.35477 11.6527 7.54144 11.546C7.74144 11.4394 7.88144 11.346 7.96144 11.266L8.60144 7.24603L12.6414 6.88604ZM19.8864 8.06603C20.3664 7.2127 20.6064 6.3527 20.6064 5.48603C20.6064 4.9127 20.3998 4.62603 19.9864 4.62603C19.6664 4.62603 19.3398 4.89937 19.0064 5.44603C18.6598 5.9927 18.4331 6.61937 18.3264 7.32603L17.2864 13.686L13.1464 14.086L15.1864 3.48603L18.4864 3.08603L18.1264 5.10603C18.7798 3.75937 19.8398 3.08603 21.3064 3.08603C22.0798 3.08603 22.6731 3.28603 23.0864 3.68604C23.5131 4.08603 23.7264 4.69937 23.7264 5.52603C23.7264 6.33937 23.4531 7.00603 22.9064 7.52603C22.3731 8.04603 21.6464 8.30603 20.7264 8.30603C20.3264 8.30603 20.0464 8.22603 19.8864 8.06603ZM24.9161 13.086C24.6095 12.7394 24.3828 12.2927 24.2361 11.746C24.1028 11.1994 24.0361 10.4794 24.0361 9.58603C24.0361 8.6927 24.1895 7.83937 24.4961 7.02604C24.8028 6.2127 25.2361 5.5127 25.7961 4.92603C26.9428 3.69937 28.4628 3.08603 30.3561 3.08603C31.0361 3.08603 31.6228 3.19937 32.1161 3.42603L35.5361 3.08603L34.0561 10.886C34.0161 11.046 33.9961 11.2727 33.9961 11.566C33.9961 11.8594 34.0828 12.0994 34.2561 12.286C34.4428 12.4727 34.6695 12.5794 34.9361 12.606C34.8028 13.0594 34.4895 13.4194 33.9961 13.686C33.5161 13.9527 33.0028 14.086 32.4561 14.086C31.9095 14.086 31.4495 13.9794 31.0761 13.766C30.7161 13.566 30.4828 13.2927 30.3761 12.946C30.1628 13.2794 29.8295 13.5527 29.3761 13.766C28.9228 13.9794 28.3895 14.086 27.7761 14.086C27.1761 14.086 26.6295 14.006 26.1361 13.846C25.6428 13.686 25.2361 13.4327 24.9161 13.086ZM29.1361 4.96603C28.9895 5.20603 28.8495 5.5327 28.7161 5.94603C28.5828 6.34603 28.4028 7.0927 28.1761 8.18604C27.9628 9.26604 27.8561 10.1927 27.8561 10.966C27.8561 11.7394 27.9161 12.2394 28.0361 12.466C28.1561 12.6927 28.3228 12.806 28.5361 12.806C28.9628 12.806 29.3295 12.606 29.6361 12.206C29.9561 11.7927 30.1761 11.226 30.2961 10.506L31.3561 4.64603C31.0761 4.40603 30.7695 4.28603 30.4361 4.28603C30.1161 4.28603 29.8561 4.33937 29.6561 4.44603C29.4695 4.5527 29.2961 4.72603 29.1361 4.96603ZM45.0747 14.086C43.4614 14.086 42.6547 13.4594 42.6547 12.206C42.6681 11.8594 42.7281 11.3927 42.8347 10.806L43.1947 8.96603C43.5547 7.2327 43.7347 6.1727 43.7347 5.78603C43.7347 5.0127 43.5081 4.62603 43.0547 4.62603C42.2947 4.62603 41.7147 5.61937 41.3147 7.60603L40.1347 13.686L36.1147 14.086L38.1947 3.46603L41.4747 3.08603L41.1547 5.04603C41.7814 3.73937 43.0547 3.08603 44.9747 3.08603C45.9081 3.08603 46.5681 3.28603 46.9547 3.68604C47.3547 4.0727 47.5547 4.70603 47.5547 5.58603C47.5547 6.4127 47.3414 7.7927 46.9147 9.72603C46.7147 10.5927 46.6147 11.1927 46.6147 11.526C46.6147 11.846 46.7014 12.0994 46.8747 12.286C47.0614 12.4727 47.2881 12.5794 47.5547 12.606C47.4214 13.0594 47.1214 13.4194 46.6547 13.686C46.2014 13.9527 45.6747 14.086 45.0747 14.086ZM49.4738 11.686C49.4738 11.326 49.5671 10.6927 49.7538 9.78604L50.8138 4.38603H49.6338L49.7138 3.78603C51.3138 3.30603 52.8871 2.47937 54.4338 1.30603H55.3938L54.9138 3.48603H56.4738L56.2938 4.38603H54.7538L53.7338 9.78604C53.5604 10.6127 53.4738 11.166 53.4738 11.446C53.4738 12.086 53.7538 12.4727 54.3138 12.606C54.1804 13.0594 53.8738 13.4194 53.3938 13.686C52.9138 13.9527 52.3338 14.086 51.6538 14.086C50.9738 14.086 50.4404 13.8727 50.0538 13.446C49.6671 13.0194 49.4738 12.4327 49.4738 11.686ZM68.8614 10.606C69.1148 10.926 69.2414 11.3994 69.2414 12.026C69.2414 12.6394 69.0014 13.1394 68.5214 13.526C68.0548 13.8994 67.4081 14.086 66.5814 14.086C66.1014 14.086 65.4881 14.0327 64.7414 13.926C63.2748 13.6994 62.3281 13.586 61.9014 13.586C61.4881 13.586 61.1948 13.5994 61.0214 13.626C60.8481 13.6394 60.6214 13.6594 60.3414 13.686L62.7614 0.486035H67.1414L65.1414 11.486C65.3148 11.5127 65.4814 11.526 65.6414 11.526H66.1414C67.2614 11.526 68.1681 11.2194 68.8614 10.606ZM78.3996 0.346034C81.6662 0.346034 83.2996 1.49937 83.2996 3.80603C83.2996 5.0727 82.8929 6.08603 82.0796 6.84604C81.2796 7.60603 80.1796 7.98603 78.7796 7.98603C78.1262 7.98603 77.5462 7.79937 77.0396 7.42603C76.7996 7.26603 76.5996 7.07937 76.4396 6.86603C77.4129 6.86603 78.1529 6.5727 78.6596 5.98603C79.1796 5.38603 79.4396 4.50603 79.4396 3.34603C79.4396 2.18603 78.8662 1.60603 77.7196 1.60603H77.2396C77.1596 1.60603 77.0862 1.6127 77.0196 1.62603L74.7196 13.686H70.3796L72.8396 0.586035C74.2662 0.452701 75.3929 0.379368 76.2196 0.366035C77.0462 0.352701 77.7729 0.346034 78.3996 0.346034ZM93.8321 9.54603C94.1787 9.79937 94.3521 10.1994 94.3521 10.746C94.3521 11.2794 94.2321 11.7394 93.9921 12.126C93.7654 12.4994 93.4254 12.8327 92.9721 13.126C91.9987 13.7527 90.6587 14.066 88.9521 14.066C87.2587 14.066 85.9454 13.626 85.0121 12.746C84.0921 11.8527 83.6321 10.6194 83.6321 9.04603C83.6321 6.81937 84.2121 4.85937 85.3721 3.16603C86.2521 1.9127 87.4787 1.01937 89.0521 0.486035C89.8654 0.219368 90.6721 0.086035 91.4721 0.086035C92.2721 0.086035 92.9187 0.139368 93.4121 0.246034C93.9054 0.352701 94.3387 0.512701 94.7121 0.726035C95.5254 1.1927 95.9321 1.79937 95.9321 2.54603C95.9321 3.22603 95.6121 3.81937 94.9721 4.32603C94.3854 4.77937 93.8521 5.00603 93.3721 5.00603C92.8921 5.00603 92.5521 4.9727 92.3521 4.90603C92.4054 4.42603 92.4321 4.0327 92.4321 3.72603C92.4321 3.40603 92.4254 3.1327 92.4121 2.90603C92.3987 2.67937 92.3587 2.45937 92.2921 2.24603C92.1587 1.7527 91.8854 1.50603 91.4721 1.50603C91.0721 1.50603 90.6654 1.69937 90.2521 2.08603C89.8521 2.45937 89.4787 2.96603 89.1321 3.60603C88.3454 5.05937 87.9521 6.64603 87.9521 8.36604C87.9521 9.1927 88.1854 9.84603 88.6521 10.326C89.1187 10.7927 89.8521 11.026 90.8521 11.026C91.5987 11.026 92.3254 10.7794 93.0321 10.286C93.3387 10.0727 93.6054 9.82603 93.8321 9.54603Z" fill="#615C73"/>
</svg>
