<svg width="84" height="65" viewBox="0 0 84 65" fill="none" xmlns="http://www.w3.org/2000/svg">
<path d="M25.2829 2.12285C12.0233 9.0275 3.02968 20.1981 0.522896 32.8639C-0.114795 36.0744 -0.180763 42.1434 0.39096 45.2879C1.09462 49.1361 2.61188 52.9842 4.45899 55.6009C7.00975 59.2512 8.90084 60.9883 12.0233 62.5496C14.8819 63.9789 16.6631 64.3967 20.2253 64.3747C23.8096 64.3747 25.2609 64.0668 27.8337 62.7255C30.9122 61.1203 33.1111 58.7014 34.8703 54.9412C36.0137 52.5224 36.4315 50.5874 36.4095 47.9047C36.3655 38.889 29.6148 32.1163 20.1154 31.5886C17.5207 31.4566 15.9154 31.6765 13.9364 32.4901L12.595 33.0399L12.749 32.0064C13.2327 28.686 14.728 24.42 16.3992 21.4955C19.3018 16.4379 24.2934 11.5563 30.1645 8.05997C31.286 7.3783 32.1875 6.7626 32.1656 6.69663C31.9896 6.30083 28.1195 0.75951 28.0316 0.75951C27.9656 0.75951 26.7342 1.37521 25.2829 2.12285Z" fill="#5E36EF"/>
<path d="M72.2301 2.07866C57.3873 9.90686 47.8879 22.9245 46.9644 36.7339C46.3267 46.3652 49.0753 54.3473 54.9465 59.8447C61.0156 65.5179 71.8563 66.0676 77.5515 60.9881C79.7725 59.0091 82.0814 55.1169 82.895 51.9945C84.764 44.76 81.3117 37.0637 74.649 33.6334C70.2291 31.3465 64.7098 30.9067 60.7517 32.5119C60.048 32.7758 59.4763 32.9737 59.4763 32.9077C59.4763 32.8417 59.6742 31.8302 59.9161 30.6428C61.7852 21.4733 67.4145 14.0189 76.9139 8.1697C78.0793 7.44405 79.0468 6.80636 79.0468 6.74039C79.0468 6.56448 75.0008 0.737305 74.8908 0.737305C74.8249 0.737305 73.6155 1.35301 72.2301 2.07866Z" fill="#5E36EF"/>
</svg>
