<svg width="252" height="252" viewBox="0 0 252 252" fill="none" xmlns="http://www.w3.org/2000/svg">
<path d="M37.0342 121.693C36.9816 122.844 36.6862 123.818 36.1479 124.615C35.6043 125.413 34.8722 126.012 33.9516 126.413C33.0313 126.809 31.977 126.98 30.789 126.925C29.6009 126.871 28.5666 126.605 27.6861 126.127C26.8059 125.644 26.1342 124.98 25.6708 124.137C25.2022 123.293 24.9941 122.296 25.0467 121.145C25.1073 119.819 25.4907 118.728 26.1971 117.874C26.8981 117.02 27.8189 116.44 28.9594 116.135L29.4061 118.101C28.6447 118.291 28.0412 118.645 27.5957 119.164C27.145 119.682 26.9 120.37 26.8608 121.228C26.8255 122.001 26.9692 122.653 27.2919 123.186C27.6149 123.713 28.0847 124.122 28.7015 124.412C29.3131 124.696 30.0397 124.86 30.8813 124.904C31.7231 124.942 32.4642 124.848 33.1045 124.621C33.7398 124.388 34.2424 124.021 34.6123 123.52C34.9822 123.019 35.1848 122.383 35.2201 121.61C35.2593 120.752 35.078 120.045 34.6764 119.487C34.2747 118.929 33.7061 118.522 32.9704 118.264L33.5945 116.346C34.7024 116.755 35.5691 117.416 36.1947 118.331C36.8149 119.246 37.0948 120.366 37.0342 121.693Z" fill="#050704"/>
<path d="M38.4868 107.102L27.3412 104.189L27.8287 102.324L32.999 103.675L28.9919 97.8735L29.5906 95.5824L33.8029 101.802L40.8212 98.1703L40.2022 100.539L33.773 103.878L38.9743 105.237L38.4868 107.102Z" fill="#050704"/>
<path d="M39.9849 87.977L38.6392 87.2877L40.8277 83.0156L42.1734 83.7049L39.9849 87.977Z" fill="#050704"/>
<path d="M54.3856 71.685L45.567 64.2726L48.6297 60.6289C48.7018 60.5431 48.7985 60.4363 48.9199 60.3084C49.0372 60.1772 49.1542 60.0629 49.2707 59.9658C49.7772 59.5206 50.3001 59.2425 50.8393 59.1315C51.382 59.0163 51.9203 59.0473 52.4543 59.2243C52.9875 59.3939 53.4971 59.6829 53.9829 60.0912C54.7015 60.6952 55.1673 61.3968 55.3804 62.1959C55.5894 62.9917 55.4394 63.8166 54.9305 64.6708L54.4554 65.3479L52.5457 67.6199L55.6261 70.2091L54.3856 71.685ZM58.6425 66.6204L53.592 65.3432L54.5224 63.5649L60.0478 64.9486L58.6425 66.6204ZM51.1678 66.4617L52.9385 64.3551C53.0072 64.2734 53.0803 64.1781 53.1579 64.0692C53.2355 63.9603 53.2981 63.8526 53.3457 63.7463C53.4904 63.4499 53.5435 63.1671 53.505 62.8978C53.47 62.6246 53.3785 62.377 53.2306 62.1551C53.0861 61.9291 52.9199 61.7372 52.7321 61.5794C52.5443 61.4215 52.3267 61.2908 52.0792 61.1874C51.8312 61.0764 51.5695 61.0271 51.2942 61.0396C51.0224 61.048 50.7529 61.149 50.4858 61.3425C50.3892 61.4076 50.296 61.4895 50.2061 61.5881C50.1122 61.6833 50.0309 61.7718 49.9623 61.8534L48.1915 63.9601L51.1678 66.4617Z" fill="#050704"/>
<path d="M67.6951 57.3845L60.6863 48.2419L66.5909 43.7154L67.6909 45.1503L63.3164 48.5038L65.0443 50.7577L68.6569 47.9882L69.7568 49.4231L66.1442 52.1926L68.1252 54.7766L72.4997 51.4231L73.5997 52.858L67.6951 57.3845Z" fill="#050704"/>
<path d="M86.09 45.1593L78.0698 36.1272L79.8808 35.3169L86.5961 42.882L85.4672 32.8174L87.2782 32.0071L88.6678 44.0059L86.09 45.1593Z" fill="#050704"/>
<path d="M104.769 38.255L102.447 26.9714L104.335 26.5828L106.657 37.8664L104.769 38.255Z" fill="#050704"/>
<path d="M121.122 35.588L121.293 24.0693L128.733 24.1797L128.706 25.9875L123.194 25.9057L123.152 28.7454L127.704 28.8129L127.677 30.6207L123.125 30.5532L123.077 33.8088L128.588 33.8906L128.562 35.6984L121.122 35.588Z" fill="#050704"/>
<path d="M147.795 35.6241L144.598 24.0554L146.622 24.0854L148.794 32.4386L151.205 24.1694L153.229 24.1835L155.401 32.5367L157.812 24.2515L159.836 24.2816L156.306 35.7504L154.402 35.7222L152.164 27.496L149.698 35.6524L147.795 35.6241Z" fill="#050704"/>
<path d="M187.83 52.9426C187.048 52.0974 186.561 51.2032 186.371 50.26C186.184 49.3131 186.272 48.371 186.632 47.4338C186.996 46.5005 187.615 45.6298 188.487 44.8216C189.36 44.0135 190.275 43.4636 191.234 43.1721C192.196 42.8844 193.14 42.8715 194.066 43.1335C194.996 43.3918 195.852 43.9436 196.635 44.7888C197.417 45.634 197.902 46.53 198.088 47.4769C198.282 48.4241 198.197 49.3643 197.833 50.2976C197.472 51.2349 196.856 52.1075 195.983 52.9157C195.111 53.7238 194.193 54.2717 193.231 54.5594C192.273 54.851 191.327 54.8656 190.393 54.6034C189.467 54.3414 188.613 53.7879 187.83 52.9426ZM189.163 51.7087C189.684 52.2797 190.246 52.6353 190.848 52.7754C191.454 52.9194 192.075 52.8715 192.711 52.6317C193.35 52.3958 193.979 51.9915 194.597 51.419C195.215 50.8464 195.663 50.254 195.939 49.6419C196.223 49.0301 196.316 48.4166 196.219 47.8015C196.125 47.1903 195.82 46.5974 195.302 46.0227C194.781 45.4517 194.219 45.0962 193.617 44.9561C193.014 44.816 192.394 44.8639 191.754 45.0998C191.119 45.3396 190.492 45.7458 189.873 46.3184C189.255 46.8909 188.804 47.4831 188.52 48.095C188.24 48.7032 188.147 49.3129 188.241 49.9241C188.338 50.5392 188.645 51.1341 189.163 51.7087Z" fill="#050704"/>
<path d="M199.992 71.3514C199.529 70.5596 199.282 69.7679 199.251 68.9764C199.224 68.1894 199.402 67.4546 199.788 66.7719C200.176 66.0939 200.763 65.5246 201.551 65.0641L207.786 61.4166L208.786 63.0934L202.578 66.7248C202.205 66.9429 201.907 67.2003 201.685 67.4969C201.466 67.7982 201.316 68.1176 201.236 68.4551C201.16 68.79 201.151 69.1288 201.209 69.4715C201.268 69.8143 201.384 70.1353 201.559 70.4345C201.74 70.7429 201.964 71.0043 202.231 71.2186C202.506 71.4348 202.808 71.5918 203.137 71.6897C203.471 71.7849 203.821 71.8084 204.189 71.7604C204.556 71.7123 204.924 71.5806 205.292 71.3652L211.5 67.7338L212.486 69.4187L206.236 73.0743C205.449 73.5348 204.664 73.7657 203.88 73.767C203.098 73.773 202.37 73.5686 201.695 73.1541C201.023 72.7441 200.455 72.1432 199.992 71.3514Z" fill="#050704"/>
<path d="M208.032 87.1106L219.024 83.6652L220.448 88.2073C220.481 88.3142 220.519 88.4532 220.562 88.6244C220.609 88.7939 220.643 88.9539 220.662 89.1044C220.765 89.7708 220.718 90.3612 220.521 90.8755C220.326 91.3949 220.011 91.832 219.574 92.1868C219.144 92.5451 218.626 92.8192 218.021 93.009C217.125 93.2897 216.283 93.3049 215.495 93.0546C214.712 92.8026 214.097 92.2324 213.651 91.3438L213.336 90.579L212.448 87.7469L208.608 88.9504L208.032 87.1106ZM210.01 93.4238L213.804 89.8537L214.803 91.5948L210.663 95.5079L210.01 93.4238ZM214.166 87.2085L214.989 89.8346C215.021 89.9364 215.062 90.0493 215.112 90.1733C215.162 90.2974 215.219 90.408 215.283 90.5053C215.455 90.7868 215.665 90.9837 215.912 91.0961C216.161 91.2136 216.419 91.2697 216.686 91.2644C216.954 91.2642 217.205 91.2274 217.439 91.154C217.674 91.0806 217.901 90.9675 218.121 90.8146C218.348 90.6652 218.53 90.4711 218.668 90.2323C218.807 89.9987 218.867 89.7172 218.848 89.388C218.845 89.2715 218.826 89.1489 218.791 89.0201C218.761 88.8896 218.731 88.7735 218.699 88.6717L217.876 86.0457L214.166 87.2085Z" fill="#050704"/>
<path d="M215.862 124.807C215.924 123.656 216.228 122.685 216.773 121.892C217.323 121.099 218.06 120.506 218.984 120.113C219.908 119.725 220.963 119.563 222.151 119.627C223.339 119.691 224.371 119.966 225.247 120.451C226.123 120.942 226.789 121.611 227.245 122.458C227.707 123.306 227.907 124.305 227.844 125.455C227.773 126.781 227.38 127.868 226.667 128.716C225.958 129.565 225.033 130.137 223.89 130.433L223.46 128.463C224.223 128.28 224.829 127.93 225.279 127.415C225.734 126.9 225.985 126.214 226.031 125.357C226.073 124.585 225.935 123.931 225.616 123.396C225.298 122.866 224.832 122.453 224.217 122.158C223.608 121.869 222.883 121.699 222.042 121.648C221.2 121.603 220.458 121.691 219.816 121.912C219.179 122.139 218.673 122.502 218.299 123C217.925 123.498 217.717 124.133 217.675 124.905C217.629 125.762 217.804 126.471 218.201 127.032C218.598 127.593 219.163 128.006 219.897 128.27L219.257 130.182C218.152 129.764 217.291 129.096 216.673 128.176C216.061 127.256 215.79 126.133 215.862 124.807Z" fill="#050704"/>
<path d="M214.594 141.754L225.782 144.501L225.323 146.373L215.891 144.058L214.678 148.999L212.922 148.568L214.594 141.754Z" fill="#050704"/>
<path d="M210.424 157.312L220.981 161.923L220.209 163.69L209.652 159.079L210.424 157.312Z" fill="#050704"/>
<path d="M202.396 173.396L211.812 180.033L207.525 186.114L206.047 185.072L209.223 180.567L206.902 178.931L204.279 182.651L202.801 181.61L205.424 177.889L202.763 176.013L199.587 180.518L198.109 179.477L202.396 173.396Z" fill="#050704"/>
<path d="M191.242 187.696L199.067 196.151L197.635 197.477L188.197 195.147L193.713 201.106L192.28 202.432L184.455 193.978L185.888 192.652L195.325 194.981L189.809 189.022L191.242 187.696Z" fill="#050704"/>
<path d="M173.862 201.619L178.764 210.003L181.982 208.122L182.894 209.683L174.793 214.418L173.881 212.857L177.099 210.976L172.198 202.591L173.862 201.619Z" fill="#050704"/>
<path d="M154.766 210.293C155.567 210.029 156.334 209.93 157.069 209.996C157.8 210.064 158.457 210.287 159.043 210.667C159.626 211.053 160.091 211.585 160.438 212.262L158.634 213.178C158.258 212.583 157.761 212.191 157.142 212.002C156.519 211.815 155.878 211.83 155.219 212.048C154.83 212.176 154.482 212.358 154.178 212.594C153.874 212.829 153.654 213.098 153.518 213.401C153.377 213.706 153.363 214.028 153.475 214.368C153.525 214.52 153.597 214.65 153.689 214.76C153.783 214.875 153.898 214.967 154.032 215.034C154.162 215.104 154.319 215.153 154.502 215.183C154.683 215.218 154.884 215.233 155.107 215.227L158.209 215.13C158.475 215.12 158.77 215.127 159.092 215.15C159.41 215.179 159.731 215.256 160.052 215.38C160.371 215.511 160.664 215.712 160.934 215.982C161.199 216.259 161.412 216.639 161.57 217.12C161.803 217.824 161.82 218.472 161.623 219.065C161.423 219.665 161.06 220.184 160.536 220.621C160.007 221.059 159.372 221.398 158.631 221.637C157.88 221.88 157.169 221.972 156.497 221.912C155.828 221.858 155.217 221.658 154.665 221.313C154.113 220.967 153.644 220.484 153.26 219.864L155.114 218.873C155.323 219.231 155.587 219.506 155.909 219.697C156.227 219.895 156.577 220.01 156.958 220.042C157.334 220.075 157.711 220.034 158.089 219.921C158.455 219.805 158.776 219.638 159.052 219.417C159.324 219.204 159.521 218.959 159.643 218.683C159.761 218.408 159.772 218.129 159.679 217.846C159.59 217.577 159.436 217.384 159.217 217.265C159 217.151 158.756 217.083 158.484 217.061C158.209 217.045 157.937 217.045 157.667 217.061L155.527 217.161C155.235 217.179 154.902 217.182 154.527 217.171C154.153 217.16 153.775 217.096 153.394 216.981C153.014 216.865 152.666 216.662 152.351 216.373C152.032 216.086 151.781 215.668 151.601 215.121C151.414 214.554 151.368 214.016 151.464 213.507C151.556 213.005 151.756 212.546 152.062 212.13C152.368 211.714 152.757 211.35 153.226 211.038C153.691 210.727 154.204 210.479 154.766 210.293Z" fill="#050704"/>
<path d="M142.061 218.232L142.237 219.734L137.47 220.293L137.294 218.792L142.061 218.232Z" fill="#050704"/>
<path d="M110.797 214.063L107.874 225.206L101.165 223.446L101.654 221.581L106.498 222.852L107.227 220.074L103.312 219.047L103.799 217.19L107.714 218.217L108.933 213.574L110.797 214.063Z" fill="#050704"/>
<path d="M88.1872 206.839L82.5308 216.874L76.0494 213.221L76.9372 211.646L81.739 214.353L83.1334 211.879L79.1679 209.644L80.0557 208.068L84.0212 210.304L85.6199 207.467L80.8181 204.761L81.7059 203.186L88.1872 206.839Z" fill="#050704"/>
<path d="M69.3757 194.791L61.6181 203.307L56.1179 198.297L57.3354 196.961L61.4103 200.672L63.3228 198.573L59.9576 195.508L61.1751 194.171L64.5403 197.236L66.7329 194.829L62.658 191.117L63.8755 189.781L69.3757 194.791Z" fill="#050704"/>
<path d="M56.6231 181.888L47.3661 188.745L45.1804 185.795C45.1233 185.718 45.0127 185.564 44.8487 185.334C44.6816 185.099 44.5315 184.865 44.3985 184.632C43.95 183.829 43.7527 183.016 43.8066 182.193C43.8531 181.369 44.1096 180.581 44.5759 179.831C45.0422 179.081 45.6676 178.415 46.4518 177.834C47.2361 177.253 48.0551 176.849 48.9087 176.622C49.7623 176.394 50.5923 176.377 51.3987 176.569C52.1975 176.761 52.9155 177.188 53.5527 177.851C53.7339 178.042 53.9124 178.251 54.0881 178.48C54.2638 178.708 54.3803 178.861 54.4374 178.938L56.6231 181.888ZM53.9972 181.394L52.9781 180.019C52.8829 179.89 52.758 179.73 52.6034 179.54C52.4456 179.345 52.2946 179.181 52.1503 179.049C51.7451 178.672 51.2866 178.461 50.7748 178.415C50.2631 178.369 49.7389 178.446 49.2023 178.644C48.6624 178.838 48.1504 179.115 47.6661 179.473C47.1647 179.845 46.7425 180.26 46.3994 180.72C46.0564 181.18 45.8381 181.66 45.7444 182.161C45.6476 182.658 45.7172 183.15 45.9532 183.639C46.0332 183.819 46.1457 184.011 46.2906 184.216C46.4281 184.419 46.5444 184.585 46.6397 184.714L47.6587 186.09L53.9972 181.394Z" fill="#050704"/>
<path d="M47.2973 167.997L36.8517 172.855L34.9254 168.713C34.597 168.007 34.4709 167.362 34.547 166.78C34.6161 166.195 34.8201 165.691 35.1589 165.269C35.4955 164.842 35.8984 164.519 36.3675 164.301C36.9429 164.033 37.4955 163.944 38.025 164.033C38.5524 164.117 38.9952 164.361 39.3536 164.765L38.991 164.934C38.835 164.206 38.9153 163.563 39.2317 163.004C39.546 162.441 40.0053 162.018 40.6098 161.737C41.2288 161.449 41.8255 161.316 42.4 161.337C42.9744 161.358 43.5013 161.542 43.9806 161.89C44.4577 162.233 44.8559 162.747 45.1753 163.434L47.2973 167.997ZM44.8275 166.993L43.6298 164.417C43.4881 164.113 43.3006 163.868 43.0673 163.682C42.8291 163.499 42.5673 163.391 42.2818 163.359C41.9893 163.325 41.6883 163.379 41.3788 163.523C41.0984 163.654 40.875 163.831 40.7088 164.055C40.5425 164.28 40.4481 164.538 40.4255 164.831C40.3981 165.126 40.4597 165.436 40.6104 165.76L41.8316 168.386L44.8275 166.993ZM40.1995 169.145L39.1065 166.795C38.9895 166.543 38.8366 166.341 38.6476 166.188C38.4587 166.034 38.2429 165.943 38.0004 165.915C37.7578 165.887 37.4987 165.937 37.223 166.065C36.8603 166.234 36.6121 166.49 36.4782 166.835C36.3444 167.179 36.3742 167.56 36.5676 167.975L37.6607 170.326L40.1995 169.145Z" fill="#050704"/>
<path d="M40.7848 147.644L28.8076 149.209L27.6167 146.648L36.5307 138.497L37.3674 140.296L29.3853 147.643L29.2031 147.251L39.9482 145.845L40.7848 147.644ZM37.6681 146.861L36.036 147.62L33.4855 142.136L35.1176 141.377L37.6681 146.861Z" fill="#050704"/>
</svg>
