<svg width="181" height="28" viewBox="0 0 181 28" fill="none" xmlns="http://www.w3.org/2000/svg">
<path d="M0.446045 8.12411C0.446045 5.36269 2.68462 3.12411 5.44604 3.12411H26.0046C28.766 3.12411 31.0046 5.36269 31.0046 8.12411V19.2476C31.0046 22.1239 28.5837 24.4071 25.7123 24.239L5.15381 23.0353C2.51042 22.8806 0.446045 20.6918 0.446045 18.0439V8.12411Z" fill="#7ADAF3"/>
<ellipse cx="15.7247" cy="13.8367" rx="4.67713" ry="5.0409" fill="#578F9E"/>
<path d="M49.331 5.99849C51.081 5.99849 52.5476 6.21515 53.731 6.64849C54.9143 7.08182 55.856 7.67349 56.556 8.42349C57.256 9.15682 57.756 10.0068 58.056 10.9735C58.3726 11.9402 58.531 12.9568 58.531 14.0235C58.531 15.1068 58.3643 16.1402 58.031 17.1235C57.6976 18.1068 57.1643 18.9818 56.431 19.7485C55.7143 20.4985 54.7726 21.0985 53.606 21.5485C52.4393 21.9818 51.0143 22.1985 49.331 22.1985H41.556V5.99849H49.331ZM44.406 19.6985H49.306C50.5393 19.6985 51.5643 19.5402 52.381 19.2235C53.1976 18.9068 53.8476 18.4818 54.331 17.9485C54.8143 17.3985 55.156 16.7902 55.356 16.1235C55.556 15.4402 55.656 14.7402 55.656 14.0235C55.656 13.3068 55.556 12.6235 55.356 11.9735C55.156 11.3068 54.8143 10.7152 54.331 10.1985C53.8476 9.66515 53.1976 9.24849 52.381 8.94849C51.5643 8.63182 50.5393 8.47349 49.306 8.47349H44.406V19.6985ZM67.7214 22.4735C66.3381 22.4735 65.0964 22.2235 63.9964 21.7235C62.8964 21.2235 62.0297 20.4902 61.3964 19.5235C60.7631 18.5568 60.4464 17.3818 60.4464 15.9985C60.4464 14.6318 60.7631 13.4652 61.3964 12.4985C62.0297 11.5152 62.8964 10.7652 63.9964 10.2485C65.0964 9.73182 66.3381 9.47349 67.7214 9.47349C69.1047 9.47349 70.3381 9.73182 71.4214 10.2485C72.5047 10.7652 73.3547 11.5152 73.9714 12.4985C74.6047 13.4652 74.9214 14.6318 74.9214 15.9985C74.9214 17.3818 74.6047 18.5568 73.9714 19.5235C73.3547 20.4902 72.5047 21.2235 71.4214 21.7235C70.3381 22.2235 69.1047 22.4735 67.7214 22.4735ZM67.7214 20.1985C68.5214 20.1985 69.2547 20.0402 69.9214 19.7235C70.5881 19.4068 71.1131 18.9318 71.4964 18.2985C71.8964 17.6652 72.0964 16.8985 72.0964 15.9985C72.0964 15.0985 71.8964 14.3318 71.4964 13.6985C71.1131 13.0652 70.5881 12.5818 69.9214 12.2485C69.2714 11.8985 68.5381 11.7235 67.7214 11.7235C66.9047 11.7235 66.1631 11.8902 65.4964 12.2235C64.8297 12.5568 64.2881 13.0402 63.8714 13.6735C63.4714 14.3068 63.2714 15.0818 63.2714 15.9985C63.2714 16.8985 63.4714 17.6652 63.8714 18.2985C64.2714 18.9318 64.8047 19.4068 65.4714 19.7235C66.1547 20.0402 66.9047 20.1985 67.7214 20.1985ZM77.155 9.74849H79.93V22.1985H77.155V9.74849ZM85.18 9.47349C85.8966 9.47349 86.555 9.57349 87.155 9.77349C87.7716 9.97349 88.2966 10.2818 88.73 10.6985C89.18 11.0985 89.5216 11.5985 89.755 12.1985C90.005 12.7985 90.13 13.5068 90.13 14.3235V22.1985H87.355V14.8735C87.355 13.8568 87.105 13.1068 86.605 12.6235C86.1216 12.1235 85.355 11.8735 84.305 11.8735C83.505 11.8735 82.7716 12.0485 82.105 12.3985C81.455 12.7318 80.9216 13.1735 80.505 13.7235C80.0883 14.2568 79.8466 14.8485 79.78 15.4985L79.755 14.1485C79.8383 13.5318 80.0216 12.9485 80.305 12.3985C80.5883 11.8318 80.9633 11.3318 81.43 10.8985C81.8966 10.4485 82.4466 10.0985 83.08 9.84849C83.7133 9.59849 84.4133 9.47349 85.18 9.47349ZM103.345 18.0985H106.02C105.887 18.9485 105.553 19.7068 105.02 20.3735C104.503 21.0235 103.795 21.5402 102.895 21.9235C101.995 22.2902 100.92 22.4735 99.67 22.4735C98.2534 22.4735 96.9867 22.2152 95.87 21.6985C94.7534 21.1652 93.8784 20.4152 93.245 19.4485C92.6117 18.4818 92.295 17.3318 92.295 15.9985C92.295 14.6818 92.6034 13.5318 93.22 12.5485C93.8367 11.5652 94.6867 10.8068 95.77 10.2735C96.87 9.74015 98.1367 9.47349 99.57 9.47349C101.053 9.47349 102.287 9.74015 103.27 10.2735C104.27 10.7902 105.012 11.5735 105.495 12.6235C105.978 13.6568 106.178 14.9652 106.095 16.5485H95.12C95.2034 17.2485 95.4284 17.8818 95.795 18.4485C96.1784 18.9985 96.695 19.4318 97.345 19.7485C97.995 20.0485 98.7534 20.1985 99.62 20.1985C100.587 20.1985 101.395 20.0068 102.045 19.6235C102.712 19.2402 103.145 18.7318 103.345 18.0985ZM99.495 11.7235C98.3617 11.7235 97.4284 12.0068 96.695 12.5735C95.9617 13.1235 95.4867 13.8318 95.27 14.6985H103.295C103.228 13.7652 102.853 13.0402 102.17 12.5235C101.487 11.9902 100.595 11.7235 99.495 11.7235ZM108.57 4.74849H111.345V22.1985H108.57V4.74849ZM113.342 9.74849H116.317L121.342 21.6985L118.942 22.1985L113.342 9.74849ZM127.217 9.74849L119.217 27.1985H116.292L119.717 20.3735L124.242 9.74849H127.217ZM138.874 18.0985H141.549C141.416 18.9485 141.083 19.7068 140.549 20.3735C140.033 21.0235 139.324 21.5402 138.424 21.9235C137.524 22.2902 136.449 22.4735 135.199 22.4735C133.783 22.4735 132.516 22.2152 131.399 21.6985C130.283 21.1652 129.408 20.4152 128.774 19.4485C128.141 18.4818 127.824 17.3318 127.824 15.9985C127.824 14.6818 128.133 13.5318 128.749 12.5485C129.366 11.5652 130.216 10.8068 131.299 10.2735C132.399 9.74015 133.666 9.47349 135.099 9.47349C136.583 9.47349 137.816 9.74015 138.799 10.2735C139.799 10.7902 140.541 11.5735 141.024 12.6235C141.508 13.6568 141.708 14.9652 141.624 16.5485H130.649C130.733 17.2485 130.958 17.8818 131.324 18.4485C131.708 18.9985 132.224 19.4318 132.874 19.7485C133.524 20.0485 134.283 20.1985 135.149 20.1985C136.116 20.1985 136.924 20.0068 137.574 19.6235C138.241 19.2402 138.674 18.7318 138.874 18.0985ZM135.024 11.7235C133.891 11.7235 132.958 12.0068 132.224 12.5735C131.491 13.1235 131.016 13.8318 130.799 14.6985H138.824C138.758 13.7652 138.383 13.0402 137.699 12.5235C137.016 11.9902 136.124 11.7235 135.024 11.7235ZM149.399 22.4735C148.249 22.4735 147.199 22.1985 146.249 21.6485C145.316 21.0985 144.574 20.3402 144.024 19.3735C143.474 18.3902 143.199 17.2652 143.199 15.9985C143.199 14.6985 143.466 13.5652 143.999 12.5985C144.549 11.6152 145.283 10.8485 146.199 10.2985C147.133 9.74849 148.199 9.47349 149.399 9.47349C150.449 9.47349 151.333 9.64849 152.049 9.99849C152.766 10.3318 153.333 10.7985 153.749 11.3985C154.166 11.9818 154.466 12.6652 154.649 13.4485C154.849 14.2318 154.949 15.0818 154.949 15.9985C154.949 16.6818 154.849 17.4068 154.649 18.1735C154.449 18.9235 154.133 19.6235 153.699 20.2735C153.283 20.9235 152.716 21.4568 151.999 21.8735C151.299 22.2735 150.433 22.4735 149.399 22.4735ZM150.249 20.1735C151.183 20.1735 151.974 19.9985 152.624 19.6485C153.291 19.2818 153.791 18.7818 154.124 18.1485C154.474 17.5152 154.649 16.7985 154.649 15.9985C154.649 15.1152 154.474 14.3652 154.124 13.7485C153.774 13.1152 153.274 12.6235 152.624 12.2735C151.974 11.9235 151.183 11.7485 150.249 11.7485C148.916 11.7485 147.883 12.1485 147.149 12.9485C146.416 13.7318 146.049 14.7485 146.049 15.9985C146.049 16.8152 146.224 17.5402 146.574 18.1735C146.941 18.8068 147.441 19.2985 148.074 19.6485C148.708 19.9985 149.433 20.1735 150.249 20.1735ZM154.649 4.74849H157.449V22.1985H154.849C154.816 21.8152 154.774 21.3402 154.724 20.7735C154.674 20.2068 154.649 19.6985 154.649 19.2485V4.74849ZM171.138 18.0985H173.813C173.68 18.9485 173.346 19.7068 172.813 20.3735C172.296 21.0235 171.588 21.5402 170.688 21.9235C169.788 22.2902 168.713 22.4735 167.463 22.4735C166.046 22.4735 164.78 22.2152 163.663 21.6985C162.546 21.1652 161.671 20.4152 161.038 19.4485C160.405 18.4818 160.088 17.3318 160.088 15.9985C160.088 14.6818 160.396 13.5318 161.013 12.5485C161.63 11.5652 162.48 10.8068 163.563 10.2735C164.663 9.74015 165.93 9.47349 167.363 9.47349C168.846 9.47349 170.08 9.74015 171.063 10.2735C172.063 10.7902 172.805 11.5735 173.288 12.6235C173.771 13.6568 173.971 14.9652 173.888 16.5485H162.913C162.996 17.2485 163.221 17.8818 163.588 18.4485C163.971 18.9985 164.488 19.4318 165.138 19.7485C165.788 20.0485 166.546 20.1985 167.413 20.1985C168.38 20.1985 169.188 20.0068 169.838 19.6235C170.505 19.2402 170.938 18.7318 171.138 18.0985ZM167.288 11.7235C166.155 11.7235 165.221 12.0068 164.488 12.5735C163.755 13.1235 163.28 13.8318 163.063 14.6985H171.088C171.021 13.7652 170.646 13.0402 169.963 12.5235C169.28 11.9902 168.388 11.7235 167.288 11.7235Z" fill="#615C73"/>
</svg>
