<svg width="27" height="24" viewBox="0 0 27 24" fill="none" xmlns="http://www.w3.org/2000/svg">
<path d="M3.82696 4.02251C2.14103 5.70845 0.729307 7.14556 0.688682 7.22173C0.551573 7.48579 0.592198 7.55689 1.21173 8.18657L1.80587 8.78579H1.44024C1.01368 8.78579 0.744542 8.88228 0.663292 9.05493C0.617588 9.15142 0.759776 10.5479 1.32345 15.6463C1.71954 19.2061 2.06485 22.253 2.09532 22.4206C2.12579 22.5932 2.20704 22.8116 2.28829 22.9284C2.48126 23.2127 2.88243 23.5022 3.13126 23.5377C3.24298 23.553 8.02149 23.5631 13.7496 23.553L24.1598 23.5377L24.4645 23.3854C24.7945 23.2178 25.0535 22.8979 25.1399 22.5577C25.1652 22.451 25.5106 19.785 25.9117 16.6264C26.6024 11.1471 26.6328 10.8729 26.5516 10.751C26.4957 10.6647 26.1149 10.4413 25.4141 10.0858L24.3578 9.55767L23.6824 6.51587C23.2508 4.58618 22.9715 3.43345 22.9156 3.3522C22.8496 3.26079 22.7684 3.22017 22.6262 3.21001C22.4992 3.19985 20.4477 3.63657 17.2129 4.36782C14.3438 5.00767 11.957 5.53579 11.9063 5.53579C11.8555 5.53579 10.8602 4.5811 9.5297 3.25064C7.40196 1.1229 7.22931 0.965481 7.06681 0.965481C6.90431 0.965481 6.69103 1.16861 3.82696 4.02251ZM8.9711 3.91079C10.1949 5.13462 10.8195 5.79478 10.7688 5.81001C10.7332 5.82524 10.3574 5.91157 9.93595 5.9979C9.30118 6.14009 9.14884 6.19087 9.03712 6.30259C8.95587 6.37876 8.89493 6.49048 8.89493 6.54634C8.89493 6.6022 8.99649 7.10493 9.12345 7.66353C9.2504 8.22212 9.35196 8.69946 9.35196 8.72993C9.35196 8.77056 8.42774 8.78579 6.18829 8.78579H3.0297L2.34415 8.10025L1.6586 7.4147L4.35001 4.72329C5.82774 3.24048 7.05157 2.03189 7.06681 2.03189C7.08204 2.03189 7.93517 2.87486 8.9711 3.91079ZM22.809 6.58696C23.1086 7.92251 23.3473 9.01939 23.3422 9.02954C23.332 9.0397 23.2254 8.994 23.1035 8.92798C22.8953 8.82134 22.8192 8.81118 21.5395 8.78579L20.1938 8.7604L18.7516 7.72954C17.7969 7.04399 17.2535 6.68345 17.1418 6.66821C16.8371 6.61743 16.7609 6.719 16.3852 7.65337C16.2024 8.12056 16.0297 8.52681 16.0043 8.54712C15.984 8.57251 15.3645 8.24751 14.6281 7.82603C13.8867 7.40454 13.2317 7.05923 13.1707 7.05923C13.1047 7.05923 12.9828 7.12525 12.9016 7.2065L12.7543 7.35376V8.06978V8.78579H11.5152C10.3777 8.78579 10.2711 8.78071 10.2457 8.69439C10.1442 8.344 9.8547 6.94751 9.88009 6.92212C9.91564 6.88657 22.2199 4.12407 22.2453 4.14439C22.2555 4.15454 22.5094 5.25649 22.809 6.58696ZM18.0356 8.27798L18.7109 8.7604L18.2438 8.77564C17.9899 8.78071 17.5785 8.78071 17.3297 8.77564L16.8777 8.7604L17.0402 8.35415C17.1317 8.13071 17.218 7.90728 17.2383 7.85649C17.2586 7.80571 17.2942 7.77017 17.3145 7.78032C17.3399 7.79048 17.6598 8.01392 18.0356 8.27798ZM14.1152 8.53189L14.557 8.78579H14.0899H13.6176V8.53189C13.6176 8.3897 13.6277 8.27798 13.643 8.27798C13.6582 8.27798 13.8715 8.3897 14.1152 8.53189ZM22.225 9.81157C22.2656 10.0655 22.8598 15.4991 22.8598 15.626V15.7428H19.2594H15.6539L15.5168 15.8647C15.334 16.017 15.3188 16.3014 15.4863 16.469L15.6031 16.5807L19.2949 16.6061L22.9867 16.6315L23.2762 19.2213C23.6266 22.3647 23.6266 22.3545 23.4692 22.5221L23.3524 22.6491H13.2621H3.17189L3.06524 22.5323C2.96368 22.4256 2.92814 22.192 2.64884 19.6733C2.48634 18.1702 2.33907 16.86 2.32384 16.7686L2.29845 16.6061H5.64493H8.99142L9.12345 16.4893C9.32149 16.3217 9.32149 16.0272 9.12853 15.8647L8.99142 15.7428H5.59923H2.21212L1.8922 12.8584C1.71954 11.2741 1.56212 9.90298 1.54689 9.81157L1.52149 9.64907H11.8555H22.1945L22.225 9.81157ZM24.434 10.5885C25.1348 10.9389 25.7035 11.2538 25.7035 11.2893C25.7035 11.3198 25.4192 13.5999 25.0688 16.3522C24.7184 19.1045 24.434 21.3846 24.434 21.4252C24.434 21.7756 24.307 20.7194 23.7738 15.9206C23.4387 12.8737 23.1492 10.2889 23.134 10.167C23.1137 10.0502 23.1188 9.95376 23.134 9.95376C23.1492 9.95376 23.7383 10.2381 24.434 10.5885Z" fill="#5135FF"/>
<path d="M6.94238 3.70238C6.86113 3.75316 6.00801 4.58597 5.04824 5.54574C3.34707 7.26215 3.31152 7.29769 3.31152 7.49574C3.31152 7.76488 3.46895 7.9223 3.74316 7.9223C3.93105 7.9223 3.99707 7.86136 5.6373 6.23129C6.57168 5.30707 7.39941 4.45394 7.48066 4.3473C7.66855 4.09847 7.66855 3.94105 7.48066 3.75316C7.30801 3.5805 7.15566 3.56527 6.94238 3.70238Z" fill="#5135FF"/>
<path d="M7.10098 6.1348C6.02441 7.21644 5.89746 7.35863 5.89746 7.5059C5.89746 7.73949 6.09043 7.9223 6.33926 7.9223C6.51699 7.9223 6.58809 7.86136 7.61387 6.84066C8.20801 6.2516 8.74629 5.69808 8.80215 5.61683C9.02559 5.31722 8.84785 4.92621 8.4873 4.92621C8.31973 4.92621 8.22832 5.00238 7.10098 6.1348Z" fill="#5135FF"/>
<path d="M20.0979 5.43395C19.5748 5.64215 19.2854 6.06871 19.2803 6.62731C19.2803 7.03356 19.3768 7.27731 19.6459 7.54645C19.8947 7.79528 20.1029 7.88668 20.499 7.91207C20.8139 7.92731 20.885 7.91715 21.1338 7.78512C22.0834 7.28239 22.0732 5.96715 21.1135 5.47457C20.824 5.32731 20.4025 5.30699 20.0979 5.43395ZM20.8697 6.37848C21.0221 6.55114 21.0119 6.75934 20.8494 6.92692C20.5143 7.26207 19.9455 6.8609 20.174 6.45465C20.3314 6.17535 20.6564 6.13981 20.8697 6.37848Z" fill="#5135FF"/>
<path d="M11.6659 14.1177C10.1069 14.6153 9.65498 16.6009 10.8483 17.7384C12.0772 18.9216 14.1491 18.2106 14.4386 16.5044C14.7077 14.9454 13.1792 13.6352 11.6659 14.1177ZM12.8745 15.0063C13.3366 15.2298 13.5905 15.6462 13.5905 16.1743C13.5854 16.7329 13.3366 17.1138 12.8136 17.3575C11.8183 17.8145 10.7468 16.8091 11.1022 15.7477C11.2038 15.4278 11.5491 15.0723 11.8487 14.9606C12.128 14.8591 12.6155 14.8794 12.8745 15.0063Z" fill="#5135FF"/>
</svg>
