<svg width="75" height="65" viewBox="0 0 75 65" fill="none" xmlns="http://www.w3.org/2000/svg">
<path fill-rule="evenodd" clip-rule="evenodd" d="M73.7389 64.7322H37.5799C37.2072 64.7322 36.8965 64.4837 36.7101 64.1731L28.7576 46.2799C13.7846 48.703 3.47121 56.7176 2.47715 62.8683H17.5123C18.0093 62.8683 18.4443 63.3032 18.4443 63.8002C18.4443 64.2973 18.0093 64.7322 17.5123 64.7322H1.48308C0.986049 64.7322 0.551147 64.2973 0.551147 63.8002C0.551147 56.1584 12.1071 47.274 27.95 44.5403L23.1039 33.7299C22.9797 33.5436 22.9797 33.2329 23.1039 32.9843L37.5799 1.17441C37.7663 0.801636 38.077 0.615234 38.4497 0.615234C38.7604 0.615234 39.1332 0.801651 39.2574 1.1123L57.0263 35.2832C57.2127 35.7802 57.0884 36.3393 56.5914 36.5879C56.1565 36.7742 55.5973 36.6499 55.3488 36.1529L38.5119 3.65956L24.9678 33.3571L29.876 44.2297C32.3611 43.919 34.9084 43.7327 37.5799 43.7327C57.5233 43.7327 74.6709 54.7294 74.6709 63.8002C74.6709 64.2973 74.236 64.7322 73.7389 64.7322ZM38.2012 62.8683H72.6827C71.5023 55.7235 56.8399 45.5965 37.5799 45.5965C35.1776 45.5965 32.8789 45.7415 30.6836 46.0314L38.2012 62.8683Z" fill="white"/>
</svg>
