<svg width="51" height="41" viewBox="0 0 51 41" fill="none" xmlns="http://www.w3.org/2000/svg">
<path d="M20.55 20.6754L34.8271 6.2106C35.2177 5.81481 35.8562 5.81376 36.2482 6.20827L49.9233 19.9729C50.3099 20.362 50.3109 20.9899 49.9256 21.3802L36.2534 35.2311C35.8598 35.6298 35.2155 35.6274 34.8249 35.2259L30.2616 30.5348M30.2616 30.5348L21.2571 39.6763C20.8675 40.0718 20.2302 40.0742 19.8376 39.6816L1.53864 21.3825C1.14812 20.992 1.14812 20.3588 1.53863 19.9683L19.8376 1.66903C20.2302 1.27641 20.8675 1.27881 21.2571 1.67438L39.2819 19.9737C39.6654 20.3629 39.6654 20.9879 39.2819 21.3772L30.2616 30.5348Z" stroke="#5E36EF" stroke-width="1.5"/>
<circle cx="17.8664" cy="22.9759" r="1.82685" transform="rotate(-39.01 17.8664 22.9759)" stroke="#5E36EF" stroke-width="0.8"/>
</svg>
