<svg width="27" height="27" viewBox="0 0 27 27" fill="none" xmlns="http://www.w3.org/2000/svg">
<path d="M12.3879 0.304077C11.3367 0.405639 10.2551 0.654468 9.19375 1.02517C8.54883 1.25369 8.42188 1.36541 8.42188 1.68533C8.42188 1.82751 8.45742 1.91892 8.54375 2.00525C8.75703 2.21853 8.86875 2.21345 9.6 1.96462C11.1387 1.4365 12.4945 1.2283 14.0078 1.28416C16.2117 1.37048 18.2074 1.99001 20.0762 3.16814C20.4113 3.38142 20.7109 3.55408 20.7516 3.55408C20.8836 3.55408 21.1629 3.40681 21.2137 3.31033C21.3 3.14783 21.2797 2.86853 21.168 2.72634C21.1121 2.65525 20.8887 2.48767 20.6754 2.34548C19.0605 1.31462 17.2984 0.654468 15.4043 0.375171C14.7797 0.283764 13.0328 0.24314 12.3879 0.304077Z" fill="#5135FF"/>
<path d="M4.30898 2.59405C3.75039 2.70576 3.21211 3.11709 2.96328 3.6249C2.68398 4.19873 2.68398 4.80811 2.96328 5.36162L3.08516 5.6003L2.76523 6.0878C1.65312 7.76866 0.982812 9.56631 0.698437 11.628C0.607031 12.2628 0.607031 14.2433 0.698437 14.878C1.10469 17.8335 2.35898 20.3776 4.41562 22.4394C7.54375 25.5675 11.9059 26.8624 16.2934 25.9687C17.1973 25.7808 18.4668 25.3593 18.6395 25.1815C18.9137 24.9124 18.7816 24.4401 18.4059 24.3437C18.3195 24.3233 18.0605 24.3894 17.6035 24.5468C16.8164 24.8159 16.0902 24.9937 15.2777 25.1206C14.4602 25.2476 12.7387 25.2425 11.9008 25.1155C9.76289 24.7905 7.82812 23.9476 6.11172 22.5968C5.1875 21.8655 4.06016 20.5909 3.39492 19.5245C2.5875 18.2245 1.98828 16.5843 1.73945 14.9796C1.6125 14.1671 1.6125 12.344 1.73945 11.5366C1.94258 10.2366 2.3082 9.06358 2.86172 7.94639C3.13086 7.40303 3.70469 6.43819 3.84687 6.28076C3.86719 6.26045 3.99414 6.28076 4.12617 6.32647C4.48672 6.44834 5.11133 6.40772 5.48711 6.23506C5.85781 6.0624 6.22851 5.6917 6.42148 5.30577C6.55351 5.03155 6.56875 4.9503 6.56875 4.49327C6.56875 4.05147 6.55351 3.94991 6.43164 3.696C6.16758 3.12725 5.62422 2.70576 4.99961 2.59405C4.65937 2.53311 4.62891 2.53311 4.30898 2.59405ZM5.18242 3.73662C5.52773 3.96006 5.675 4.44756 5.50742 4.83858C5.42617 5.03155 5.12148 5.31592 4.93867 5.36162C4.86758 5.38194 4.7 5.38194 4.56289 5.37178C3.98906 5.31592 3.61836 4.72686 3.82148 4.19366C4.03984 3.61983 4.67461 3.40655 5.18242 3.73662Z" fill="#5135FF"/>
<path d="M22.1786 4.15843C21.8333 4.50375 22.138 5.09281 22.6102 5.00648C22.854 4.96078 23.0216 4.76273 23.0216 4.50883C23.0216 4.34125 22.9911 4.28031 22.854 4.15843C22.6305 3.95531 22.3817 3.95531 22.1786 4.15843Z" fill="#5135FF"/>
<path d="M12.9269 4.51877C12.2871 4.62033 11.4949 4.9301 10.9719 5.29064C10.6265 5.52424 10.0679 6.07268 9.81404 6.42814C9.51951 6.83947 9.20974 7.49963 9.07771 7.99728C8.99646 8.30705 8.96091 8.61174 8.9406 9.29221L8.91521 10.1809L8.64607 10.3535C8.2906 10.5821 8.00115 10.9781 7.89451 11.3844C7.81833 11.6738 7.80818 12.0699 7.82341 15.3606L7.83865 19.0168L7.97068 19.2961C8.13318 19.6465 8.35662 19.9004 8.66638 20.1035C9.16404 20.4235 9.09294 20.4184 13.7344 20.4031L17.9441 20.3879L18.2336 20.2711C18.6398 20.1086 18.9953 19.7684 19.1984 19.3571L19.366 19.0168L19.3812 15.3403C19.3965 11.3539 19.3965 11.3692 19.1172 10.9223C18.9648 10.6887 18.6601 10.3942 18.4519 10.2774L18.2844 10.191L18.259 9.29729C18.2336 8.26643 18.1472 7.8551 17.8172 7.16447C17.5531 6.61096 17.2535 6.19963 16.8218 5.78322C15.9636 4.96564 14.9582 4.53908 13.7801 4.49338C13.4754 4.48322 13.0894 4.49338 12.9269 4.51877ZM14.5215 5.61057C15.3847 5.83908 16.1414 6.38244 16.6289 7.11877C17.0808 7.79416 17.2586 8.45432 17.2586 9.44455V10.0539H16.7254H16.1922V9.50549C16.1922 8.51525 16.0093 7.96682 15.5015 7.41838C14.9429 6.81408 14.4199 6.58557 13.6023 6.58557C13.1808 6.58557 13.0031 6.61096 12.7695 6.69729C11.9265 7.00197 11.2461 7.76877 11.0683 8.62189C11.0379 8.76916 11.0125 9.1551 11.0125 9.46994V10.0539H10.4793H9.94607V9.44963C9.94607 8.48479 10.1136 7.83479 10.525 7.18478C11.0379 6.38752 11.9215 5.76291 12.7898 5.59025C12.9422 5.55978 13.1148 5.52424 13.1707 5.51408C13.3586 5.46838 14.232 5.53439 14.5215 5.61057ZM14.298 7.74338C14.6027 7.89572 14.8922 8.19533 15.0394 8.52541C15.1258 8.7133 15.1511 8.88596 15.1664 9.40393L15.1867 10.0539H13.6074H12.0281V9.50549C12.0281 8.86057 12.1094 8.53049 12.348 8.21564C12.8152 7.60627 13.6125 7.4133 14.298 7.74338ZM17.9695 11.1813C18.0609 11.2473 18.1879 11.3641 18.2437 11.4403C18.3504 11.5824 18.3504 11.6231 18.3656 15.1524L18.3758 18.7172L18.259 18.9406C18.1777 19.093 18.0711 19.1996 17.9187 19.2809L17.7004 19.3977H13.6023H9.50427L9.28083 19.2809C9.14373 19.2047 9.01169 19.0879 8.94568 18.961L8.82888 18.7629L8.84412 15.1727C8.85427 11.6231 8.85427 11.5824 8.96091 11.4403C9.01677 11.3641 9.14373 11.2473 9.23513 11.1813L9.40271 11.0696H13.6023H17.8019L17.9695 11.1813Z" fill="#5135FF"/>
<path d="M13.0687 12.2071C12.5305 12.3797 12.1191 12.7251 11.8602 13.2278C11.5758 13.7864 11.6164 14.5684 11.9516 15.0864C12.0633 15.259 12.0734 15.3251 12.0887 16.229C12.1039 17.1176 12.1141 17.204 12.2258 17.4376C12.7945 18.5954 14.4094 18.5903 14.9832 17.4223C15.0898 17.209 15.1 17.1075 15.1152 16.229C15.1305 15.3251 15.1406 15.259 15.2523 15.0864C15.8059 14.2333 15.5113 12.979 14.6227 12.4153C14.2062 12.1563 13.5207 12.0649 13.0687 12.2071ZM13.9727 13.2227C14.0641 13.2583 14.2113 13.37 14.2977 13.4715C14.5922 13.8067 14.5871 14.2586 14.2926 14.6903L14.1098 14.9544V15.9547V16.9602L13.9625 17.1227C13.8406 17.2598 13.7797 17.2903 13.6019 17.2903C13.4242 17.2903 13.3633 17.2598 13.2414 17.1227L13.0941 16.9602V15.9547V14.9544L12.9113 14.6903C12.6168 14.2637 12.6117 13.8067 12.9062 13.4715C12.9926 13.37 13.1348 13.2583 13.2211 13.2227C13.4191 13.1364 13.7644 13.1364 13.9727 13.2227Z" fill="#5135FF"/>
<path d="M23.6766 5.87993C23.5191 6.00689 23.4379 6.18462 23.4734 6.34712C23.4887 6.42329 23.6055 6.65181 23.7324 6.85493C24.5449 8.10923 25.1594 9.73423 25.4387 11.3795C25.591 12.2885 25.6062 14.0811 25.4641 14.9799C25.2 16.6557 24.6059 18.2706 23.7629 19.601C23.3008 20.3221 23.3566 20.2764 23.0773 20.1799C22.7016 20.053 22.077 20.0987 21.6961 20.2866C21.3152 20.4745 20.975 20.8147 20.782 21.2006C20.65 21.4749 20.6348 21.5561 20.6348 22.0131C20.6348 22.4549 20.65 22.5565 20.7719 22.8104C21.1375 23.5924 22.0211 24.0698 22.8336 23.9174C23.6766 23.7651 24.2859 23.1405 24.4281 22.2823C24.4941 21.9014 24.4281 21.5155 24.2402 21.1397L24.1184 20.901L24.3621 20.5405C25.4488 18.9612 26.1648 17.1026 26.4848 15.0307C26.6066 14.2131 26.6066 12.2936 26.4848 11.476C26.2613 10.044 25.8805 8.79985 25.3066 7.62681C24.8902 6.77368 24.4129 5.98149 24.2504 5.8647C24.1031 5.76314 23.8086 5.76821 23.6766 5.87993ZM23.0672 21.292C23.5344 21.6526 23.5598 22.3077 23.118 22.6936C22.6711 23.0897 21.9906 22.9627 21.7215 22.4295C21.5082 22.0182 21.6707 21.4698 22.082 21.226C22.3461 21.0686 22.8133 21.1042 23.0672 21.292Z" fill="#5135FF"/>
</svg>
