<svg width="85" height="85" viewBox="0 0 85 85" fill="none" xmlns="http://www.w3.org/2000/svg">
<path fill-rule="evenodd" clip-rule="evenodd" d="M42.3593 84.0585C42.1128 84.0585 41.8663 83.9353 41.6815 83.812L0.762784 42.8317C0.393037 42.462 0.393037 41.9074 0.762784 41.5376L41.6198 0.680631C41.9896 0.310884 42.5442 0.310884 42.9139 0.680631L83.8942 41.5992C84.2024 41.969 84.2024 42.5853 83.8942 42.8934L42.9756 83.812C42.8523 83.9353 42.6058 84.0585 42.3593 84.0585ZM2.67317 42.1539L42.3593 81.84L81.9222 42.2772L42.2361 2.59097L2.67317 42.1539Z" fill="white"/>
<path d="M41.5582 60.3319C41.3733 60.3319 41.1268 60.2703 40.942 60.0854L26.8916 45.9735C26.5219 45.6653 26.5219 45.049 26.8916 44.6793L37.3061 34.2648C37.6142 33.8951 38.2305 33.8951 38.6003 34.2648C38.97 34.6345 38.97 35.2508 38.6003 35.5589L28.8019 45.3572L41.5582 58.1134L70.3369 29.3965C70.7066 29.0267 71.2612 29.0267 71.631 29.3965C72.0007 29.7046 72.0007 30.3208 71.631 30.6906L42.2361 60.0854C42.0512 60.2703 41.8047 60.3319 41.5582 60.3319Z" fill="white"/>
</svg>
