<svg width="113" height="34" viewBox="0 0 113 34" fill="none" xmlns="http://www.w3.org/2000/svg">
<path d="M37.3393 25.7775V8.48748H39.5753V23.4375H44.7753V25.7775H37.3393ZM56.3437 25.7775V23.8015C55.789 24.4428 55.1477 24.9541 54.4197 25.3355C53.6917 25.7168 52.9203 25.9075 52.1057 25.9075C51.2043 25.9075 50.355 25.7428 49.5577 25.4135C48.7777 25.0841 48.0843 24.6161 47.4777 24.0095C46.871 23.4201 46.3943 22.7268 46.0477 21.9295C45.7183 21.1148 45.5537 20.2655 45.5537 19.3815C45.5537 18.4975 45.7183 17.6568 46.0477 16.8595C46.3943 16.0448 46.871 15.3341 47.4777 14.7275C48.0843 14.1208 48.7777 13.6528 49.5577 13.3235C50.355 12.9941 51.2043 12.8295 52.1057 12.8295C52.9377 12.8295 53.7177 13.0028 54.4457 13.3495C55.191 13.6961 55.8237 14.1815 56.3437 14.8055V13.0895H58.6837V25.7775H56.3437ZM52.1057 15.1435C51.5337 15.1435 50.979 15.2561 50.4417 15.4815C49.9217 15.6895 49.471 15.9841 49.0897 16.3655C48.7083 16.7468 48.405 17.2061 48.1797 17.7435C47.9717 18.2635 47.8677 18.8095 47.8677 19.3815C47.8677 19.9535 47.9717 20.4995 48.1797 21.0195C48.405 21.5395 48.7083 21.9901 49.0897 22.3715C49.471 22.7528 49.9217 23.0561 50.4417 23.2815C50.979 23.4895 51.5337 23.5935 52.1057 23.5935C52.6777 23.5935 53.2237 23.4895 53.7437 23.2815C54.2637 23.0561 54.7143 22.7528 55.0957 22.3715C55.477 21.9901 55.7717 21.5395 55.9797 21.0195C56.205 20.4995 56.3177 19.9535 56.3177 19.3815C56.3177 18.8095 56.205 18.2635 55.9797 17.7435C55.7717 17.2061 55.477 16.7468 55.0957 16.3655C54.7143 15.9841 54.2637 15.6895 53.7437 15.4815C53.2237 15.2561 52.6777 15.1435 52.1057 15.1435ZM66.3986 31.3155C65.4106 31.3155 64.4919 31.0641 63.6426 30.5615C62.8106 30.0588 62.0826 29.3308 61.4586 28.3775L63.4866 27.2075C63.8506 27.7795 64.2839 28.2128 64.7866 28.5075C65.2892 28.8195 65.8266 28.9755 66.3986 28.9755C67.3172 28.9755 68.1146 28.6375 68.7906 27.9615C69.1026 27.6495 69.3366 27.2855 69.4926 26.8695C69.6659 26.4535 69.7526 26.0115 69.7526 25.5435V24.6335C69.3539 25.0495 68.8512 25.3875 68.2446 25.6475C67.6379 25.8901 67.0226 26.0115 66.3986 26.0115C65.6359 26.0115 64.9166 25.8728 64.2406 25.5955C63.5646 25.3008 62.9666 24.8935 62.4466 24.3735C61.9092 23.8535 61.4932 23.2555 61.1986 22.5795C60.9039 21.8861 60.7566 21.1581 60.7566 20.3955V12.7775H63.0446V20.2395C63.0446 20.8461 63.1919 21.4181 63.4866 21.9555C63.7986 22.4755 64.2059 22.8915 64.7086 23.2035C65.2286 23.5155 65.7919 23.6715 66.3986 23.6715C67.0052 23.6715 67.5686 23.5241 68.0886 23.2295C68.6086 22.9175 69.0159 22.5015 69.3106 21.9815C69.6052 21.4441 69.7526 20.8635 69.7526 20.2395V12.7775H72.0406V25.5435C72.0406 26.3235 71.8932 27.0688 71.5986 27.7795C71.3212 28.4901 70.9226 29.1055 70.4026 29.6255C69.8652 30.1628 69.2499 30.5788 68.5566 30.8735C67.8806 31.1681 67.1612 31.3155 66.3986 31.3155ZM76.3734 20.2655C76.3734 20.6815 76.5208 21.1148 76.8154 21.5655C77.1274 22.0161 77.4828 22.3975 77.8814 22.7095C78.6094 23.2815 79.4588 23.5675 80.4294 23.5675C81.9721 23.5675 83.2288 22.8221 84.1994 21.3315L86.1754 22.5015C85.4994 23.5935 84.6674 24.4341 83.6794 25.0235C82.6914 25.6128 81.6081 25.9075 80.4294 25.9075C79.5454 25.9075 78.7048 25.7428 77.9074 25.4135C77.1101 25.0668 76.4081 24.5901 75.8014 23.9835C75.1948 23.3768 74.7181 22.6748 74.3714 21.8775C74.0421 21.0801 73.8774 20.2395 73.8774 19.3555C73.8774 18.4715 74.0421 17.6308 74.3714 16.8335C74.7181 16.0188 75.1948 15.3081 75.8014 14.7015C76.3908 14.0948 77.0841 13.6268 77.8814 13.2975C78.6961 12.9681 79.5454 12.8035 80.4294 12.8035C81.3134 12.8035 82.1541 12.9681 82.9514 13.2975C83.7661 13.6268 84.4681 14.0948 85.0574 14.7015C86.3401 16.0188 86.9814 17.5441 86.9814 19.2775C86.9814 19.5895 86.9554 19.9188 86.9034 20.2655H76.3734ZM80.4294 14.9355C79.7188 14.9355 79.0514 15.0915 78.4274 15.4035C77.8034 15.7155 77.3008 16.1315 76.9194 16.6515C76.5554 17.1541 76.3734 17.6915 76.3734 18.2635H84.4854C84.4854 17.6915 84.2948 17.1541 83.9134 16.6515C83.5494 16.1315 83.0554 15.7155 82.4314 15.4035C81.8074 15.0915 81.1401 14.9355 80.4294 14.9355ZM94.859 15.2735C94.443 15.0828 94.0704 14.9875 93.741 14.9875C93.0477 14.9875 92.4757 15.2301 92.025 15.7155C91.5397 16.2355 91.297 16.8335 91.297 17.5095V25.7775H89.061V17.5095C89.061 16.5735 89.295 15.7155 89.763 14.9355C90.2484 14.1555 90.907 13.5488 91.739 13.1155C92.363 12.8208 93.0304 12.6735 93.741 12.6735C94.313 12.6735 94.859 12.7775 95.379 12.9855C95.899 13.1935 96.445 13.5315 97.017 13.9995L94.859 15.2735ZM104.367 16.6515C104.315 16.3395 104.202 16.0448 104.029 15.7675C103.699 15.1955 103.049 14.9095 102.079 14.9095C101.559 14.9095 101.16 14.9701 100.883 15.0915C100.519 15.2301 100.241 15.4295 100.051 15.6895C99.8774 15.9495 99.7907 16.2355 99.7907 16.5475C99.7907 16.9288 99.9294 17.2755 100.207 17.5875C100.501 17.9168 100.978 18.0901 101.637 18.1075C102.798 18.1595 103.734 18.2981 104.445 18.5235C105.173 18.7488 105.727 19.1388 106.109 19.6935C106.507 20.2481 106.707 21.0281 106.707 22.0335C106.707 23.0561 106.317 23.9401 105.537 24.6855C105.155 25.0495 104.705 25.3441 104.185 25.5695C103.682 25.7948 103.153 25.9075 102.599 25.9075H102.209C100.822 25.9075 99.704 25.5088 98.8547 24.7115C98.1614 24.0701 97.728 23.1688 97.5547 22.0075H99.8687C99.9554 22.4235 100.129 22.7615 100.389 23.0215C100.787 23.4028 101.342 23.5935 102.053 23.5935C102.243 23.5935 102.382 23.5848 102.469 23.5675C103.075 23.5328 103.552 23.3681 103.899 23.0735C104.245 22.7615 104.419 22.3801 104.419 21.9295C104.419 21.3055 104.228 20.8981 103.847 20.7075C103.465 20.5168 102.729 20.4215 101.637 20.4215C100.267 20.4215 99.2187 19.9881 98.4907 19.1215C97.9014 18.4628 97.6067 17.6308 97.6067 16.6255C97.6067 16.4001 97.6154 16.2268 97.6327 16.1055C97.7714 14.9788 98.2307 14.1208 99.0107 13.5315C99.808 12.9248 100.857 12.6215 102.157 12.6215C103.11 12.6215 103.942 12.8295 104.653 13.2455C105.155 13.5575 105.589 13.9908 105.953 14.5455C106.299 15.1001 106.525 15.7935 106.629 16.6255L106.577 16.6515H104.367Z" fill="#615C73"/>
<path d="M16.8682 0.38916L19.3718 7.8589L6.69152 29.569L0.762505 27.999L16.8682 0.38916Z" fill="#9E87ED"/>
<path d="M20.1354 9.50783L22.4848 15.099L13.2143 30.9713L8.21702 29.8987L20.1354 9.50783Z" fill="#A2C588"/>
<path d="M22.8741 17.5942L25.2235 23.1854L19.953 32.0577L14.9557 30.9851L22.8741 17.5942Z" fill="#FE9177"/>
</svg>
