<svg width="26" height="27" viewBox="0 0 26 27" fill="none" xmlns="http://www.w3.org/2000/svg">
<path d="M1.63212 10.6671V11.1671H2.13212H8.13686H8.63686V10.6671V4.6624V4.1624H8.13686H2.13212H1.63212V4.6624V10.6671ZM15.4994 24.5344V25.0344H15.9994H22.0042H22.5042V24.5344V18.5297V18.0297H22.0042H15.9994H15.4994V18.5297V24.5344ZM1.63212 24.5344V25.0344H2.13212H8.13686H8.63686V24.5344V18.5297V18.0297H8.13686H2.13212H1.63212V18.5297V24.5344ZM0.641602 12.1577V3.17188H9.62738V12.1577H0.641602ZM14.5089 26.0249V17.0392H23.4947V26.0249H14.5089ZM0.641602 26.0249V17.0392H9.62738V26.0249H0.641602Z" fill="#CF7611" stroke="#5135FF"/>
<path d="M18.4339 12.7126L18.7875 13.0662L19.141 12.7126L23.4206 8.433L23.7742 8.07945L23.4206 7.7259L19.141 3.44628L18.7875 3.09272L18.4339 3.44628L14.1543 7.7259L13.8007 8.07945L14.1543 8.433L18.4339 12.7126ZM18.6879 14.3392L12.3287 7.97992L18.6879 1.62068L25.0472 7.97992L18.6879 14.3392Z" fill="#CF7611" stroke="#5135FF"/>
</svg>
