<svg width="34" height="27" viewBox="0 0 34 27" fill="none" xmlns="http://www.w3.org/2000/svg">
<path d="M33.5292 8.82625H28.5622C27.4694 5.5889 23.9677 4.52665 22.3535 4.40019H3.47876C0.597892 3.79319 -0.039541 1.36518 0.00185076 0.227051H23.2226C28.7857 0.834053 32.4116 6.21277 33.5292 8.82625Z" fill="#949EBD"/>
<path d="M14.0338 8.44687H3.85138C3.55335 11.6842 6.87298 12.9151 8.57004 13.1258C8.07334 18.69 14.0338 26.7834 21.3601 26.1511C32.6849 24.3301 34.1915 16.7088 33.5292 13.1258H23.7194V17.299H28.5622C25.7061 22.4838 20.8634 22.1044 19.3733 21.5986C11.4261 18.6647 12.5023 11.6083 14.0338 8.44687Z" fill="#949EBD"/>
</svg>
