<svg width="71" height="62" viewBox="0 0 71 62" fill="none" xmlns="http://www.w3.org/2000/svg">
<path fill-rule="evenodd" clip-rule="evenodd" d="M69.8544 61.5463H35.5251C35.1712 61.5463 34.8763 61.3105 34.6993 61.0155L27.1493 44.0278C12.9339 46.3282 3.14236 53.9373 2.1986 59.7768H16.473C16.9448 59.7768 17.3577 60.1897 17.3577 60.6616C17.3577 61.1334 16.9448 61.5463 16.473 61.5463H1.25483C0.782951 61.5463 0.370056 61.1334 0.370056 60.6616C0.370056 53.4064 11.3413 44.9715 26.3825 42.3762L21.7816 32.1129C21.6636 31.9359 21.6636 31.6409 21.7816 31.405L35.5251 1.20471C35.7021 0.850798 35.997 0.673828 36.3509 0.673828C36.6458 0.673828 36.9997 0.850812 37.1177 1.14574L53.9874 33.5875C54.1644 34.0594 54.0464 34.5902 53.5745 34.8262C53.1616 35.0031 52.6308 34.8851 52.3948 34.4132L36.4099 3.56411L23.5512 31.7589L28.211 42.0813C30.5704 41.7864 32.9888 41.6094 35.5251 41.6094C54.4593 41.6094 70.7392 52.0498 70.7392 60.6616C70.7392 61.1334 70.3263 61.5463 69.8544 61.5463ZM36.115 59.7768H68.8517C67.731 52.9935 53.8105 43.379 35.5251 43.379C33.2444 43.379 31.0619 43.5166 28.9778 43.7919L36.115 59.7768Z" fill="#050704"/>
</svg>
