<svg width="160" height="32" viewBox="0 0 160 32" fill="none" xmlns="http://www.w3.org/2000/svg">
<path d="M51.3605 10.7215C51.4539 11.4122 51.6499 12.1402 51.9485 12.9055C52.2659 13.6708 52.6392 14.3802 53.0685 15.0335C53.5165 15.6682 54.0019 16.2002 54.5245 16.6295C55.0472 17.0588 55.5605 17.2735 56.0645 17.2735C56.6805 17.2735 57.2685 17.0215 57.8285 16.5175C58.4072 16.0135 58.9112 15.3882 59.3405 14.6415C59.7885 13.8948 60.1339 13.0922 60.3765 12.2335C60.6379 11.3562 60.7685 10.5535 60.7685 9.8255V8.3975C60.7685 8.04283 60.8899 7.76283 61.1325 7.5575C61.3752 7.3335 61.7392 7.2215 62.2245 7.2215C62.7099 7.2215 63.0739 7.3335 63.3165 7.5575C63.5592 7.76283 63.6805 8.04283 63.6805 8.3975V23.8255C63.6805 24.1802 63.5592 24.4602 63.3165 24.6655C63.0739 24.8895 62.7099 25.0015 62.2245 25.0015C61.7392 25.0015 61.3752 24.8895 61.1325 24.6655C60.8899 24.4602 60.7685 24.1802 60.7685 23.8255V14.7255C60.5259 15.3602 60.2459 15.9575 59.9285 16.5175C59.6299 17.0588 59.2845 17.5348 58.8925 17.9455C58.5005 18.3562 58.0619 18.6828 57.5765 18.9255C57.1099 19.1495 56.5872 19.2615 56.0085 19.2615C55.2432 19.2615 54.5899 19.1308 54.0485 18.8695C53.5259 18.6082 53.0779 18.2908 52.7045 17.9175C52.3499 17.5442 52.0605 17.1522 51.8365 16.7415C51.6312 16.3122 51.4725 15.9388 51.3605 15.6215V23.8255C51.3605 24.1802 51.2392 24.4602 50.9965 24.6655C50.7539 24.8895 50.3899 25.0015 49.9045 25.0015C49.4192 25.0015 49.0552 24.8895 48.8125 24.6655C48.5699 24.4602 48.4485 24.1802 48.4485 23.8255V8.3975C48.4485 8.04283 48.5699 7.76283 48.8125 7.5575C49.0552 7.3335 49.4192 7.2215 49.9045 7.2215C50.3899 7.2215 50.7539 7.3335 50.9965 7.5575C51.2392 7.76283 51.3605 8.04283 51.3605 8.3975V10.7215ZM76.1571 13.2135C77.8371 13.2135 79.0598 13.5308 79.8252 14.1655C80.5905 14.8002 80.9732 15.6308 80.9732 16.6575C80.9732 16.9748 80.9172 17.2922 80.8052 17.6095C80.7118 17.9268 80.6652 18.2162 80.6652 18.4775V23.7695C80.6652 24.0868 80.5532 24.3575 80.3292 24.5815C80.1238 24.7868 79.7785 24.8895 79.2932 24.8895C78.7892 24.8895 78.4252 24.7868 78.2012 24.5815C77.9958 24.3575 77.8932 24.0868 77.8932 23.7695V21.8935C77.0532 22.8455 76.0638 23.6015 74.9251 24.1615C73.7865 24.7215 72.5732 25.0015 71.2852 25.0015C69.5865 25.0015 68.3545 24.6748 67.5891 24.0215C66.8425 23.3495 66.4691 22.4442 66.4691 21.3055C66.4691 20.3348 66.7305 19.3735 67.2531 18.4215C67.7758 17.4508 68.4851 16.5828 69.3811 15.8175C70.2771 15.0335 71.3038 14.4082 72.4611 13.9415C73.6371 13.4562 74.8691 13.2135 76.1571 13.2135ZM75.1772 14.8655C74.3558 14.8655 73.5998 15.0242 72.9092 15.3415C72.2185 15.6402 71.6118 16.0415 71.0892 16.5455C70.5851 17.0495 70.1838 17.6282 69.8851 18.2815C69.6051 18.9348 69.4651 19.6068 69.4651 20.2975C69.4651 21.1748 69.7078 21.8562 70.1931 22.3415C70.6971 22.8082 71.4065 23.0415 72.3212 23.0415C73.1051 23.0415 73.8425 22.8922 74.5331 22.5935C75.2238 22.2762 75.8212 21.8655 76.3252 21.3615C76.8478 20.8575 77.2585 20.2788 77.5572 19.6255C77.8745 18.9722 78.0331 18.2908 78.0331 17.5815C78.0331 16.7602 77.7718 16.1068 77.2492 15.6215C76.7452 15.1175 76.0545 14.8655 75.1772 14.8655ZM86.9977 17.7215C87.5391 16.1535 88.2671 15.0148 89.1817 14.3055C90.1151 13.5775 91.0951 13.2135 92.1217 13.2135C93.1857 13.2135 94.0257 13.4468 94.6417 13.9135C95.2764 14.3615 95.5937 14.8655 95.5937 15.4255C95.5937 15.8175 95.4631 16.1535 95.2017 16.4335C94.9404 16.7135 94.5857 16.8535 94.1377 16.8535C93.5031 16.8535 93.0084 16.5828 92.6537 16.0415C92.4484 15.7242 92.2244 15.5002 91.9817 15.3695C91.7577 15.2388 91.4871 15.1735 91.1697 15.1735C90.7404 15.1735 90.2831 15.3882 89.7977 15.8175C89.3311 16.2468 88.8924 16.8068 88.4817 17.4975C88.0897 18.1695 87.7631 18.9442 87.5017 19.8215C87.2404 20.6802 87.1097 21.5388 87.1097 22.3975V23.8255C87.1097 24.1428 86.9977 24.4042 86.7737 24.6095C86.5684 24.8335 86.2137 24.9455 85.7097 24.9455C85.2244 24.9455 84.8697 24.8335 84.6457 24.6095C84.4404 24.4042 84.3377 24.1428 84.3377 23.8255V14.5855C84.3377 14.2682 84.4404 14.0068 84.6457 13.8015C84.8511 13.5775 85.1871 13.4655 85.6537 13.4655C86.1391 13.4655 86.4844 13.5775 86.6897 13.8015C86.8951 14.0068 86.9977 14.2682 86.9977 14.5855V17.7215ZM102.294 25.0015C101.454 25.0015 100.726 24.8988 100.11 24.6935C99.4943 24.5068 98.9903 24.2455 98.5983 23.9095C98.2063 23.5735 97.9076 23.1815 97.7023 22.7335C97.5156 22.2855 97.4223 21.8095 97.4223 21.3055C97.4223 20.8762 97.4689 20.5402 97.5623 20.2975C97.6743 20.0362 97.7303 19.7282 97.7303 19.3735V6.0735C97.7303 5.75616 97.8329 5.49483 98.0383 5.2895C98.2623 5.0655 98.6169 4.9535 99.1023 4.9535C99.6063 4.9535 99.9609 5.0655 100.166 5.2895C100.39 5.49483 100.502 5.75616 100.502 6.0735V16.3775C101.268 15.3695 102.248 14.5948 103.442 14.0535C104.637 13.4935 105.897 13.2135 107.222 13.2135C108.902 13.2135 110.106 13.5588 110.834 14.2495C111.562 14.9215 111.926 15.8268 111.926 16.9655C111.926 17.9175 111.665 18.8788 111.142 19.8495C110.62 20.8015 109.91 21.6602 109.014 22.4255C108.137 23.1908 107.11 23.8162 105.934 24.3015C104.777 24.7682 103.564 25.0015 102.294 25.0015ZM103.218 23.0695C104.021 23.0695 104.768 22.9202 105.458 22.6215C106.168 22.3228 106.774 21.9308 107.278 21.4455C107.801 20.9415 108.202 20.3722 108.482 19.7375C108.781 19.0842 108.93 18.4028 108.93 17.6935C108.93 16.7975 108.688 16.1068 108.202 15.6215C107.736 15.1362 107.054 14.8935 106.158 14.8935C105.374 14.8935 104.628 15.0522 103.918 15.3695C103.228 15.6682 102.612 16.0695 102.07 16.5735C101.548 17.0775 101.128 17.6655 100.81 18.3375C100.512 18.9908 100.362 19.6628 100.362 20.3535C100.362 21.1748 100.614 21.8375 101.118 22.3415C101.641 22.8268 102.341 23.0695 103.218 23.0695ZM117.559 23.7695C117.559 24.0868 117.447 24.3575 117.223 24.5815C116.999 24.7868 116.635 24.8895 116.131 24.8895C115.646 24.8895 115.291 24.7868 115.067 24.5815C114.843 24.3575 114.731 24.0868 114.731 23.7695V6.0735C114.731 5.75616 114.843 5.49483 115.067 5.2895C115.291 5.0655 115.646 4.9535 116.131 4.9535C116.635 4.9535 116.999 5.0655 117.223 5.2895C117.447 5.49483 117.559 5.75616 117.559 6.0735V23.7695ZM130.053 13.2135C131.639 13.2135 132.797 13.4842 133.525 14.0255C134.271 14.5668 134.645 15.2295 134.645 16.0135C134.645 16.9282 134.318 17.7122 133.665 18.3655C133.03 19.0002 131.938 19.4482 130.389 19.7095L123.417 20.8855C123.417 21.5762 123.603 22.1268 123.977 22.5375C124.369 22.9295 125.078 23.1255 126.105 23.1255C127.038 23.1255 127.897 23.0135 128.681 22.7895C129.483 22.5655 130.249 22.2762 130.977 21.9215C131.313 21.7535 131.574 21.6695 131.761 21.6695C132.19 21.6695 132.405 21.9308 132.405 22.4535C132.405 22.7708 132.209 23.0322 131.817 23.2375C129.651 24.4135 127.477 25.0015 125.293 25.0015C124.415 25.0015 123.659 24.9082 123.025 24.7215C122.409 24.5348 121.905 24.2828 121.513 23.9655C121.121 23.6295 120.831 23.2375 120.645 22.7895C120.458 22.3415 120.365 21.8562 120.365 21.3335C120.365 20.3628 120.626 19.3922 121.149 18.4215C121.671 17.4508 122.371 16.5828 123.249 15.8175C124.145 15.0522 125.171 14.4268 126.329 13.9415C127.505 13.4562 128.746 13.2135 130.053 13.2135ZM129.129 14.8095C128.475 14.8095 127.831 14.9308 127.197 15.1735C126.562 15.4162 125.983 15.7428 125.461 16.1535C124.957 16.5642 124.518 17.0402 124.145 17.5815C123.79 18.1042 123.557 18.6455 123.445 19.2055L129.549 18.2255C130.482 18.0762 131.089 17.8615 131.369 17.5815C131.667 17.3015 131.817 16.9468 131.817 16.5175C131.817 16.0695 131.593 15.6775 131.145 15.3415C130.697 14.9868 130.025 14.8095 129.129 14.8095ZM139.722 23.7695C139.722 24.0868 139.61 24.3575 139.386 24.5815C139.162 24.7868 138.798 24.8895 138.294 24.8895C137.808 24.8895 137.454 24.7868 137.23 24.5815C137.006 24.3575 136.894 24.0868 136.894 23.7695V14.4455C136.894 14.1282 137.006 13.8668 137.23 13.6615C137.454 13.4375 137.808 13.3255 138.294 13.3255C138.798 13.3255 139.162 13.4375 139.386 13.6615C139.61 13.8668 139.722 14.1282 139.722 14.4455V23.7695ZM138.294 10.7775C137.734 10.7775 137.323 10.6655 137.062 10.4415C136.8 10.1988 136.67 9.91883 136.67 9.6015V8.5375C136.67 8.22016 136.8 7.9495 137.062 7.7255C137.323 7.48283 137.734 7.3615 138.294 7.3615C138.835 7.3615 139.236 7.48283 139.498 7.7255C139.778 7.9495 139.918 8.22016 139.918 8.5375V9.6015C139.918 9.91883 139.778 10.1988 139.498 10.4415C139.236 10.6655 138.835 10.7775 138.294 10.7775ZM146.027 16.8815C147.539 14.4362 149.798 13.2135 152.803 13.2135C154.446 13.2135 155.659 13.5402 156.443 14.1935C157.227 14.8468 157.619 15.7055 157.619 16.7695C157.619 17.3482 157.517 17.9735 157.311 18.6455C157.106 19.3175 156.817 19.9988 156.443 20.6895C156.089 21.3802 155.65 22.0615 155.127 22.7335C154.605 23.3868 154.035 23.9842 153.419 24.5255C153.214 24.7308 153.027 24.8615 152.859 24.9175C152.71 24.9735 152.542 25.0015 152.355 25.0015C152.113 25.0015 151.898 24.9082 151.711 24.7215C151.543 24.5535 151.459 24.3762 151.459 24.1895C151.459 24.0962 151.478 24.0028 151.515 23.9095C151.553 23.7975 151.646 23.6668 151.795 23.5175C152.243 23.0508 152.635 22.5562 152.971 22.0335C153.326 21.4922 153.615 20.9695 153.839 20.4655C154.082 19.9428 154.269 19.4482 154.399 18.9815C154.53 18.5148 154.595 18.0948 154.595 17.7215C154.595 16.7508 154.343 16.0322 153.839 15.5655C153.354 15.0988 152.663 14.8655 151.767 14.8655C151.058 14.8655 150.358 15.0242 149.667 15.3415C148.995 15.6588 148.398 16.1068 147.875 16.6855C147.353 17.2455 146.933 17.9175 146.615 18.7015C146.298 19.4668 146.139 20.3068 146.139 21.2215V23.8255C146.139 24.1428 146.027 24.4042 145.803 24.6095C145.598 24.8335 145.243 24.9455 144.739 24.9455C144.254 24.9455 143.899 24.8335 143.675 24.6095C143.47 24.4042 143.367 24.1428 143.367 23.8255V14.5855C143.367 14.2682 143.47 14.0068 143.675 13.8015C143.881 13.5775 144.217 13.4655 144.683 13.4655C145.169 13.4655 145.514 13.5775 145.719 13.8015C145.925 14.0068 146.027 14.2682 146.027 14.5855V16.8815Z" fill="#615C73"/>
<path fill-rule="evenodd" clip-rule="evenodd" d="M7.976 7.52435L11.439 22.4223L25.8876 24.9858L22.7445 27.8778C17.6461 32.5691 9.33695 32.6164 4.18546 27.9835C-0.966026 23.3506 -1.00906 15.7919 4.08933 11.1006L7.976 7.52435Z" fill="#9E87ED"/>
<path fill-rule="evenodd" clip-rule="evenodd" d="M30.5481 20.6843L25.7457 25.1367L25.7069 25.0983L24.0947 10.0211L8.0667 7.50522L11.9006 3.97749C16.9874 -0.70308 25.2776 -0.750284 30.4173 3.87206C35.5433 8.48203 35.6018 15.9989 30.5481 20.6843Z" fill="#5E36EF"/>
</svg>
