<svg width="27" height="27" viewBox="0 0 27 27" fill="none" xmlns="http://www.w3.org/2000/svg">
<path d="M13.4586 16.7926L12.4886 14.5367L12.411 14.3563L12.2315 14.2769L9.81961 13.2101L12.2278 12.1681L12.4051 12.0914L12.4848 11.9154L13.4586 9.76385L14.4325 11.9154L14.5121 12.0914L14.6894 12.1681L17.0976 13.2101L14.6857 14.2769L14.5062 14.3563L14.4287 14.5367L13.4586 16.7926ZM3.27801 19.2407L3.65382 19.1444V18.7564V7.85324V7.46527L3.27801 7.36891C2.52094 7.17479 1.89929 6.77108 1.40079 6.14551C0.908238 5.5274 0.662109 4.81805 0.662109 3.99725C0.662109 3.02031 0.998311 2.2061 1.67911 1.5253C2.3599 0.844502 3.17411 0.508301 4.15106 0.508301C4.97185 0.508301 5.68121 0.754429 6.29931 1.24698C6.92489 1.74549 7.3286 2.36714 7.52272 3.1242L7.61908 3.50002H8.00705H18.9102H19.2982L19.3945 3.1242C19.5886 2.36714 19.9923 1.74549 20.6179 1.24698C20.9052 1.01809 21.0666 0.978367 21.2329 0.968677C21.3392 0.962487 21.4574 0.969095 21.635 0.98089L21.6558 0.982268C21.8226 0.993377 22.0261 1.00692 22.2676 1.00692C23.2445 1.00692 24.0587 1.34312 24.7395 2.02392L24.7679 2.05229C25.1553 2.43962 25.4092 2.69348 25.5822 2.97262C25.7425 3.23111 25.8396 3.52559 25.8396 3.99725C25.8396 4.17898 25.8436 4.3419 25.8473 4.49325C25.8542 4.77491 25.8602 5.01654 25.8375 5.26486C25.806 5.61089 25.7202 5.88984 25.5164 6.14551C25.0179 6.77108 24.3963 7.17479 23.6392 7.36891L23.2634 7.46527V7.85324V18.7564V19.1444L23.6392 19.2407C24.3963 19.4348 25.0179 19.8385 25.5164 20.4641C26.009 21.0822 26.2551 21.7916 26.2551 22.6124C26.2551 23.5893 25.9189 24.4035 25.2381 25.0843C24.5573 25.7651 23.7431 26.1013 22.7662 26.1013C21.9454 26.1013 21.236 25.8552 20.6179 25.3626C19.9923 24.8641 19.5886 24.2425 19.3945 23.4854L19.2982 23.1096H18.9102H8.00705H7.61908L7.52272 23.4854C7.3286 24.2425 6.92489 24.8641 6.29931 25.3626C5.68121 25.8552 4.97185 26.1013 4.15106 26.1013C3.17411 26.1013 2.3599 25.7651 1.67911 25.0843C0.998311 24.4035 0.662109 23.5893 0.662109 22.6124C0.662109 21.7916 0.908238 21.0822 1.40079 20.4641C1.89929 19.8385 2.52094 19.4348 3.27801 19.2407ZM7.52198 21.7364L7.61666 22.1151H8.00705H18.9102H19.3006L19.3953 21.7364C19.5509 21.1139 19.8495 20.5851 20.2942 20.1404C20.7389 19.6957 21.2677 19.3971 21.8902 19.2415L22.2689 19.1468V18.7564V7.85324V7.46285L21.8902 7.36817C21.2677 7.21254 20.7389 6.91388 20.2942 6.46921C19.8495 6.02453 19.5509 5.49576 19.3953 4.87322L19.3006 4.49449H18.9102H8.00705H7.61666L7.52198 4.87322C7.36635 5.49576 7.06769 6.02453 6.62302 6.46921C6.17834 6.91388 5.64957 7.21254 5.02703 7.36817L4.6483 7.46285V7.85324V18.7564V19.1468L5.02703 19.2415C5.64957 19.3971 6.17834 19.6957 6.62302 20.1404C7.06769 20.5851 7.36635 21.1139 7.52198 21.7364ZM4.15106 6.49173C4.83618 6.49173 5.43472 6.24621 5.91737 5.76356C6.40002 5.28091 6.64554 4.68237 6.64554 3.99725C6.64554 3.31214 6.40002 2.71359 5.91737 2.23095C5.43472 1.7483 4.83618 1.50278 4.15106 1.50278C3.46595 1.50278 2.8674 1.7483 2.38475 2.23095C1.90211 2.71359 1.65659 3.31214 1.65659 3.99725C1.65659 4.68237 1.90211 5.28091 2.38475 5.76356C2.8674 6.24621 3.46595 6.49173 4.15106 6.49173ZM22.7662 6.49173C23.4513 6.49173 24.0498 6.24621 24.5325 5.76356C25.0151 5.28091 25.2607 4.68237 25.2607 3.99725C25.2607 3.31214 25.0151 2.71359 24.5325 2.23095C24.0498 1.7483 23.4513 1.50278 22.7662 1.50278C22.0811 1.50278 21.4825 1.7483 20.9999 2.23095C20.5172 2.71359 20.2717 3.31214 20.2717 3.99725C20.2717 4.68237 20.5172 5.28091 20.9999 5.76356C21.4825 6.24621 22.0811 6.49173 22.7662 6.49173ZM22.7662 25.1068C23.4513 25.1068 24.0498 24.8613 24.5325 24.3787C25.0151 23.896 25.2607 23.2975 25.2607 22.6124C25.2607 21.9273 25.0151 21.3287 24.5325 20.8461C24.0498 20.3634 23.4513 20.1179 22.7662 20.1179C22.0811 20.1179 21.4825 20.3634 20.9999 20.8461C20.5172 21.3287 20.2717 21.9273 20.2717 22.6124C20.2717 23.2975 20.5172 23.896 20.9999 24.3787C21.4825 24.8613 22.0811 25.1068 22.7662 25.1068ZM4.15106 25.1068C4.83618 25.1068 5.43472 24.8613 5.91737 24.3787C6.40002 23.896 6.64554 23.2975 6.64554 22.6124C6.64554 21.9273 6.40002 21.3287 5.91737 20.8461C5.43472 20.3634 4.83618 20.1179 4.15106 20.1179C3.46595 20.1179 2.8674 20.3634 2.38475 20.8461C1.90211 21.3287 1.65659 21.9273 1.65659 22.6124C1.65659 23.2975 1.90211 23.896 2.38475 24.3787C2.8674 24.8613 3.46595 25.1068 4.15106 25.1068Z" fill="#5840ED" stroke="#5135FF"/>
<circle cx="22.6" cy="4.16346" r="2.90516" fill="white" stroke="#5135FF" stroke-width="2.5"/>
<path d="M13.4597 16.7925L12.4897 14.5366L12.4121 14.3563L12.2326 14.2769L9.8207 13.2101L12.2289 12.1681L12.4062 12.0914L12.4858 11.9154L13.4597 9.76381L14.4336 11.9154L14.5132 12.0914L14.6905 12.1681L17.0987 13.2101L14.6868 14.2769L14.5073 14.3563L14.4297 14.5366L13.4597 16.7925Z" fill="#C9E80F" stroke="#5135FF"/>
</svg>
