<svg width="89" height="28" viewBox="0 0 89 28" fill="none" xmlns="http://www.w3.org/2000/svg">
<path d="M10.3803 21.364C9.01759 21.364 7.74826 21.1027 6.57226 20.58C5.40559 20.048 4.38359 19.3153 3.50626 18.382C2.63826 17.4393 1.95692 16.352 1.46226 15.12C0.976925 13.888 0.734258 12.5767 0.734258 11.186C0.734258 9.72067 0.995591 8.372 1.51826 7.14C2.04092 5.908 2.75492 4.83933 3.66026 3.934C4.56559 3.01933 5.59692 2.31 6.75426 1.806C7.92093 1.302 9.14359 1.05 10.4223 1.05C11.8689 1.05 13.2596 1.386 14.5943 2.058C15.9289 2.73 17.0909 3.738 18.0803 5.082L15.4763 6.496C14.8043 5.656 14.0203 5.02133 13.1243 4.592C12.2376 4.16267 11.3276 3.948 10.3943 3.948C9.48893 3.948 8.63026 4.13467 7.81826 4.508C7.00626 4.872 6.28759 5.38533 5.66226 6.048C5.03692 6.70133 4.54226 7.47133 4.17826 8.358C3.82359 9.23533 3.64626 10.192 3.64626 11.228C3.64626 12.2267 3.81892 13.1647 4.16426 14.042C4.51892 14.9193 5.00426 15.6893 5.62026 16.352C6.24559 17.0053 6.96426 17.5187 7.77626 17.892C8.59759 18.2653 9.47492 18.452 10.4083 18.452C11.0989 18.452 11.7616 18.34 12.3963 18.116C13.0309 17.892 13.6189 17.5747 14.1603 17.164C14.7109 16.744 15.1916 16.2447 15.6023 15.666C16.0129 15.0873 16.3396 14.4433 16.5823 13.734H12.4243V11.158H19.9983C20.0169 12.558 19.7743 13.874 19.2703 15.106C18.7756 16.338 18.0849 17.4253 17.1983 18.368C16.3209 19.3013 15.2989 20.034 14.1323 20.566C12.9656 21.098 11.7149 21.364 10.3803 21.364ZM28.591 21.364C27.303 21.364 26.127 21.0327 25.063 20.37C24.0083 19.7073 23.1636 18.8207 22.529 17.71C21.9036 16.59 21.591 15.3533 21.591 14C21.591 12.9733 21.773 12.0167 22.137 11.13C22.501 10.234 23.0003 9.45 23.635 8.778C24.279 8.09667 25.0256 7.56467 25.875 7.182C26.7243 6.79933 27.6296 6.608 28.591 6.608C29.6643 6.608 30.649 6.832 31.545 7.28C32.441 7.71867 33.2063 8.33 33.841 9.114C34.4756 9.88867 34.9423 10.7847 35.241 11.802C35.5396 12.81 35.6283 13.8833 35.507 15.022H24.713C24.8343 15.666 25.0676 16.2493 25.413 16.772C25.7676 17.2853 26.2156 17.6913 26.757 17.99C27.3076 18.2887 27.919 18.4427 28.591 18.452C29.3003 18.452 29.9443 18.2747 30.523 17.92C31.111 17.5653 31.5916 17.0753 31.965 16.45L34.919 17.136C34.359 18.3773 33.5143 19.3947 32.385 20.188C31.2556 20.972 29.991 21.364 28.591 21.364ZM24.615 12.796H32.567C32.4736 12.124 32.2356 11.5173 31.853 10.976C31.4796 10.4253 31.0083 9.99133 30.439 9.674C29.879 9.34733 29.263 9.184 28.591 9.184C27.9283 9.184 27.3123 9.34267 26.743 9.66C26.183 9.97733 25.7163 10.4113 25.343 10.962C24.979 11.5033 24.7363 12.1147 24.615 12.796ZM48.7042 -1.66893e-06H51.6162V21H48.7042V18.942C48.2468 19.67 47.6495 20.258 46.9122 20.706C46.1748 21.1447 45.3115 21.364 44.3222 21.364C43.3048 21.364 42.3528 21.1727 41.4662 20.79C40.5795 20.4073 39.7955 19.88 39.1142 19.208C38.4422 18.5267 37.9148 17.7427 37.5322 16.856C37.1495 15.9693 36.9582 15.0173 36.9582 14C36.9582 12.9827 37.1495 12.0307 37.5322 11.144C37.9148 10.248 38.4422 9.464 39.1142 8.792C39.7955 8.11067 40.5795 7.57867 41.4662 7.196C42.3528 6.81333 43.3048 6.622 44.3222 6.622C45.3115 6.622 46.1748 6.846 46.9122 7.294C47.6495 7.73267 48.2468 8.31133 48.7042 9.03V-1.66893e-06ZM44.3502 18.55C45.1715 18.55 45.8902 18.3493 46.5062 17.948C47.1222 17.5373 47.5982 16.9867 47.9342 16.296C48.2795 15.6053 48.4522 14.84 48.4522 14C48.4522 13.1507 48.2795 12.3807 47.9342 11.69C47.5888 10.9993 47.1082 10.4533 46.4922 10.052C45.8855 9.64133 45.1715 9.436 44.3502 9.436C43.5382 9.436 42.7962 9.64133 42.1242 10.052C41.4615 10.4627 40.9295 11.0133 40.5282 11.704C40.1362 12.3947 39.9402 13.16 39.9402 14C39.9402 14.8493 40.1408 15.6193 40.5422 16.31C40.9528 16.9913 41.4895 17.5373 42.1522 17.948C42.8242 18.3493 43.5568 18.55 44.3502 18.55ZM60.9386 21.364C59.6506 21.364 58.4746 21.0327 57.4106 20.37C56.356 19.7073 55.5113 18.8207 54.8766 17.71C54.2513 16.59 53.9386 15.3533 53.9386 14C53.9386 12.9733 54.1206 12.0167 54.4846 11.13C54.8486 10.234 55.348 9.45 55.9826 8.778C56.6266 8.09667 57.3733 7.56467 58.2226 7.182C59.072 6.79933 59.9773 6.608 60.9386 6.608C62.2266 6.608 63.398 6.93933 64.4526 7.602C65.5166 8.26467 66.3613 9.156 66.9866 10.276C67.6213 11.396 67.9386 12.6373 67.9386 14C67.9386 15.0173 67.7566 15.9693 67.3926 16.856C67.0286 17.7427 66.5246 18.5267 65.8806 19.208C65.246 19.88 64.504 20.4073 63.6546 20.79C62.8146 21.1727 61.9093 21.364 60.9386 21.364ZM60.9386 18.452C61.7133 18.452 62.4086 18.2467 63.0246 17.836C63.6406 17.4253 64.126 16.884 64.4806 16.212C64.8446 15.5307 65.0266 14.7933 65.0266 14C65.0266 13.188 64.84 12.4413 64.4666 11.76C64.1026 11.0787 63.6126 10.5373 62.9966 10.136C62.3806 9.72533 61.6946 9.52 60.9386 9.52C60.1733 9.52 59.478 9.72533 58.8526 10.136C58.2366 10.5467 57.7466 11.0927 57.3826 11.774C57.028 12.4553 56.8506 13.1973 56.8506 14C56.8506 14.8307 57.0373 15.582 57.4106 16.254C57.784 16.926 58.2786 17.4627 58.8946 17.864C59.52 18.256 60.2013 18.452 60.9386 18.452ZM70.0091 21V-1.66893e-06H72.9211V21H70.0091ZM85.0952 7H88.2032L80.5312 28H77.4372L79.9712 21L74.9452 7H78.1232L81.4272 17.01L85.0952 7Z" fill="#615C73"/>
</svg>
