<svg width="49" height="46" viewBox="0 0 49 46" fill="none" xmlns="http://www.w3.org/2000/svg">
<path d="M22.428 0.168068C18.0266 1.11532 14.8022 4.47375 14.1037 8.82728C14.008 9.42051 13.9602 10.4539 13.9602 12.1953V14.7117H13.7497C13.032 14.7117 12.2187 15.2475 11.8264 15.9939C11.6159 16.3861 11.6159 16.4244 11.5872 22.6246L11.5585 28.8631L6.9371 28.8918L2.31567 28.9205L1.65546 29.2554C1.18662 29.4946 0.899576 29.7242 0.650803 30.0591C-0.0285384 30.9585 -0.0189702 30.8437 0.00973436 37.2065L0.0384389 42.89L0.306348 43.4354C0.593394 44.0286 1.10051 44.5358 1.73201 44.8706C2.13387 45.0811 2.21999 45.0907 5.19569 45.1194C8.23838 45.1481 8.24794 45.1481 8.46801 44.9376C8.74549 44.6793 8.76463 44.287 8.51585 43.9808L8.33406 43.7512L5.37749 43.7033C2.45919 43.6555 2.43049 43.6555 2.10517 43.4258C1.93294 43.3015 1.7033 43.024 1.60762 42.8039C1.44496 42.4403 1.42583 42.0672 1.42583 37.0152C1.42583 31.8196 1.43539 31.5996 1.61719 31.2264C1.72244 31.0063 1.96164 30.7289 2.16258 30.5949L2.5166 30.3557L24.2364 30.327C36.1871 30.3174 46.1093 30.327 46.2815 30.3557C46.6642 30.4227 47.2479 30.9202 47.4105 31.3317C47.5158 31.5804 47.5445 32.719 47.5445 37.0247C47.5445 42.0672 47.5254 42.4403 47.3627 42.8039C47.267 43.024 47.0374 43.3015 46.8652 43.4258L46.5398 43.6555L28.8387 43.7033C19.1078 43.732 11.0706 43.7894 10.9749 43.8277C10.7644 43.933 10.5826 44.4114 10.6591 44.6601C10.8218 45.1673 9.69274 45.1386 28.9918 45.1194L46.8269 45.0907L47.2383 44.8706C47.8698 44.5358 48.3769 44.0286 48.664 43.4354L48.9319 42.89L48.9606 37.2065C48.9893 30.8437 48.9989 30.9585 48.3195 30.0591C48.0707 29.7242 47.7837 29.4946 47.3149 29.2554L46.6547 28.9205L42.0332 28.8918L37.4118 28.8631L37.3831 25.275L37.3544 21.6774L37.1247 21.4956C36.8377 21.2564 36.3976 21.2659 36.1583 21.5051C35.9766 21.6869 35.967 21.8209 35.967 25.2846V28.8726H31.8527C29.5946 28.8726 27.7383 28.8439 27.7383 28.7961C27.7383 28.7578 27.6522 28.0115 27.5565 27.1408L27.3652 25.5429L27.614 24.9401C27.8245 24.4139 27.8532 24.2321 27.8149 23.524C27.7766 22.8734 27.7192 22.5959 27.5087 22.194C26.2457 19.7254 22.8299 19.668 21.5095 22.0984C21.1937 22.6724 21.1841 22.7394 21.1841 23.7058C21.1841 24.5574 21.2128 24.7679 21.3946 25.1028L21.6051 25.5046L21.4233 27.1121C21.3181 28.0019 21.232 28.7578 21.232 28.7961C21.232 28.8439 19.3757 28.8726 17.1177 28.8726H13.0033L13.0225 22.7394L13.0512 16.6062L13.3191 16.3766L13.587 16.1469H24.4852H35.3833L35.6512 16.3766C35.9191 16.6062 35.9191 16.6254 35.9478 17.8118C35.9861 18.9696 35.9957 19.027 36.2253 19.2088C36.5506 19.4575 36.7611 19.448 37.0865 19.1705L37.3544 18.9409V17.6587C37.3544 16.5392 37.3257 16.3383 37.1439 15.9939C36.7516 15.2571 35.9478 14.7117 35.2302 14.7117H35.0102V12.1953C35.0102 9.45878 34.9049 8.43498 34.4839 7.18155C33.3357 3.77528 30.5514 1.19186 27.0016 0.254185C25.8917 -0.0424309 23.5953 -0.090271 22.428 0.168068ZM26.8294 1.69898C28.4368 2.13911 29.719 2.895 30.9437 4.1293C31.8527 5.03828 32.5894 6.17689 33.0008 7.31551C33.4793 8.64548 33.5749 9.46835 33.5749 12.2336V14.7117H31.9579H30.3409L30.3026 12.0518C30.2643 9.65971 30.2356 9.34396 30.0538 8.77944C29.4606 6.97105 28.1211 5.6028 26.3318 4.98087C25.6908 4.75123 25.4324 4.72253 24.4852 4.71296C23.6623 4.71296 23.2509 4.7608 22.8586 4.89475C20.9354 5.54539 19.5288 6.93278 18.9165 8.77944C18.7347 9.34396 18.706 9.65971 18.6677 12.0518L18.6294 14.7117H17.0124H15.3954V12.2336C15.3954 9.62144 15.4911 8.69333 15.8738 7.58342C16.9359 4.50246 19.5384 2.21566 22.7533 1.54589C23.7006 1.35452 25.8534 1.43107 26.8294 1.69898ZM25.5664 6.24387C26.3318 6.4448 26.8198 6.71271 27.3843 7.22939C27.9871 7.80348 28.3698 8.34887 28.6186 9.04735C28.81 9.5449 28.8291 9.84151 28.8674 12.1474L28.9057 14.7117H24.4947H20.0838V12.4823C20.0838 11.2576 20.1316 10.0042 20.189 9.69799C20.4857 8.1001 21.7965 6.66487 23.3465 6.25344C24.0259 6.07164 24.887 6.06207 25.5664 6.24387ZM25.3463 21.9357C26.3414 22.4428 26.6763 23.6101 26.15 24.7296L25.9013 25.2559L26.0543 26.7581C26.15 27.5809 26.2457 28.3942 26.2744 28.5569L26.3223 28.8726H24.4852H22.6481L22.6959 28.5569C22.7246 28.3942 22.8203 27.5809 22.916 26.7581L23.0691 25.2559L22.8203 24.7296C22.5428 24.1268 22.495 23.4092 22.6959 22.9117C22.8586 22.5289 23.5379 21.907 23.8824 21.8304C24.0355 21.8017 24.1981 21.7635 24.246 21.7443C24.4086 21.6869 25.088 21.8113 25.3463 21.9357Z" fill="#5E36EF"/>
<path d="M7.54011 32.5571C7.32004 32.7294 7.31047 32.8155 7.26263 34.0402L7.21479 35.3415L6.23884 34.777C5.70302 34.4612 5.18634 34.1837 5.08109 34.155C4.80361 34.0593 4.42088 34.2794 4.28693 34.6047C4.09556 35.0544 4.31563 35.3032 5.41597 35.9634C5.95179 36.2792 6.41106 36.5662 6.44934 36.5949C6.47804 36.6332 6.03791 36.9298 5.46381 37.2551C4.18168 37.9823 3.98074 38.2885 4.40174 38.8243C4.70793 39.2166 5.04281 39.1496 6.18143 38.499C6.73638 38.1832 7.19566 37.9249 7.21479 37.9249C7.23393 37.9249 7.26263 38.5085 7.28177 39.2262C7.31047 40.4605 7.32004 40.537 7.54011 40.7092C7.82716 40.9484 8.13334 40.9389 8.44909 40.6901C8.69786 40.4987 8.69786 40.4892 8.69786 39.1975C8.69786 37.6953 8.57348 37.7622 9.90345 38.5468C10.4584 38.8721 10.8985 39.0731 11.0803 39.0731C11.6162 39.0731 11.9223 38.5085 11.664 38.0206C11.6162 37.9249 11.1665 37.6187 10.688 37.3412C10.2001 37.0638 9.72166 36.7863 9.62598 36.7289C9.47289 36.6236 9.56857 36.5471 10.4297 36.0591C10.9655 35.7529 11.4822 35.4276 11.5779 35.3319C11.9798 34.93 11.6736 34.1646 11.1186 34.1646C10.9272 34.1646 10.4488 34.3751 9.80777 34.7483C9.25282 35.0736 8.77441 35.3415 8.7457 35.3415C8.717 35.3415 8.69786 34.7674 8.69786 34.0689C8.69786 32.8537 8.68829 32.7772 8.47779 32.5858C8.20032 32.3275 7.83672 32.3179 7.54011 32.5571Z" fill="#5E36EF"/>
<path d="M18.505 32.6159C18.2753 32.836 18.2658 32.8934 18.2658 34.099C18.2658 34.7783 18.2466 35.3428 18.2275 35.3428C18.2084 35.3428 17.8639 35.1515 17.4621 34.9123C16.1321 34.1277 15.979 34.0703 15.6728 34.2042C15.1657 34.4051 15.0413 34.9697 15.424 35.3141C15.5388 35.4289 16.0268 35.7447 16.4957 36.0126C16.9741 36.2805 17.3951 36.5389 17.4333 36.5771C17.4812 36.625 17.0698 36.912 16.5244 37.2182C15.979 37.5244 15.4623 37.8593 15.3762 37.9454C14.9839 38.3377 15.3379 39.0744 15.9216 39.0744C16.0842 39.0744 16.6009 38.8448 17.1846 38.5003C17.7204 38.1846 18.1892 37.9262 18.2179 37.9262C18.2466 37.9262 18.2658 38.4908 18.2658 39.1701C18.2658 40.3757 18.2753 40.4331 18.505 40.6532C18.8016 40.9594 19.1652 40.9594 19.4618 40.6532C19.6914 40.4331 19.701 40.3757 19.701 39.1701C19.701 38.4908 19.7201 37.9262 19.7584 37.9262C19.7871 37.9262 20.256 38.1846 20.8014 38.5003C21.4137 38.8544 21.9017 39.0744 22.0835 39.0744C22.581 39.0744 22.8872 38.5673 22.7054 38.0698C22.6671 37.9932 22.1696 37.6392 21.5764 37.2852C20.9927 36.9407 20.5047 36.6441 20.4856 36.6345C20.4665 36.6154 20.9449 36.3284 21.5381 35.9839C22.6767 35.3333 22.8489 35.1323 22.7246 34.6444C22.6959 34.5008 22.5428 34.3286 22.3801 34.2425C22.0356 34.0607 21.8443 34.1277 20.61 34.8549C20.1603 35.1228 19.768 35.3428 19.7489 35.3428C19.7201 35.3428 19.701 34.7879 19.701 34.1085C19.701 33.0082 19.6819 32.8551 19.5001 32.6255C19.2417 32.3001 18.8207 32.2906 18.505 32.6159Z" fill="#5E36EF"/>
<path d="M29.4704 32.6255C29.2886 32.8551 29.2695 33.0082 29.2695 34.1085C29.2695 34.7879 29.2503 35.3428 29.2312 35.3428C29.2121 35.3428 28.7049 35.0654 28.1117 34.7209C27.2889 34.2425 26.9635 34.1085 26.7817 34.1468C26.332 34.2521 26.0928 34.74 26.2651 35.1897C26.2938 35.2759 26.8104 35.6203 27.4132 35.9743C28.016 36.3188 28.504 36.6154 28.504 36.6345C28.504 36.6537 28.0639 36.912 27.5376 37.2086C27.0018 37.5148 26.4851 37.8401 26.3894 37.9358C25.9876 38.3377 26.3129 39.0744 26.8966 39.0744C27.0879 39.0744 27.5472 38.8735 28.1787 38.5003C28.7145 38.1846 29.1834 37.9262 29.2121 37.9262C29.2408 37.9262 29.2695 38.4908 29.2695 39.1701C29.2695 40.3757 29.279 40.4331 29.5087 40.6532C29.8053 40.9594 30.1689 40.9594 30.4655 40.6532C30.6951 40.4331 30.7047 40.3757 30.7047 39.1701C30.7047 38.4908 30.7238 37.9262 30.7525 37.9262C30.7812 37.9262 31.2501 38.1846 31.7859 38.5003C32.3983 38.8544 32.8862 39.0744 33.0585 39.0744C33.6421 39.0744 33.9866 38.3377 33.5847 37.9358C33.489 37.8401 32.9724 37.5148 32.4365 37.2086C31.9007 36.9024 31.4797 36.6345 31.5084 36.6154C31.5371 36.5867 31.9964 36.2997 32.5418 35.9743C33.0967 35.649 33.5847 35.2854 33.6613 35.1419C33.8622 34.7783 33.7282 34.4147 33.3359 34.2234L33.0106 34.0703L31.8816 34.7018L30.7525 35.3333L30.7047 34.0416C30.6569 32.8168 30.6473 32.7307 30.4272 32.5585C30.1019 32.3001 29.7096 32.3289 29.4704 32.6255Z" fill="#5E36EF"/>
<path d="M40.4837 32.5954C40.2923 32.7963 40.2732 32.9207 40.2732 34.0785C40.2732 34.777 40.254 35.3415 40.2253 35.3415C40.1966 35.3415 39.7182 35.0736 39.1633 34.7482C38.0438 34.0976 37.6802 34.0211 37.3836 34.3751C37.1635 34.6526 37.1635 35.1023 37.3836 35.3223C37.4697 35.4085 37.9959 35.7338 38.5317 36.0495C39.412 36.5471 39.5077 36.614 39.345 36.7193C39.2494 36.7863 38.771 37.0733 38.283 37.3508C37.795 37.6283 37.3549 37.9345 37.307 38.0301C37.0487 38.5085 37.3549 39.0731 37.8907 39.0731C38.0725 39.0731 38.5509 38.8626 39.1728 38.499C39.7182 38.1832 40.187 37.9249 40.2158 37.9249C40.254 37.9249 40.2732 38.499 40.2732 39.207C40.2732 40.4796 40.2732 40.4987 40.5219 40.6901C40.8377 40.9389 41.1439 40.9484 41.4309 40.7092C41.651 40.537 41.6605 40.4605 41.6893 39.2262C41.7084 38.5085 41.7371 37.9249 41.7562 37.9249C41.7754 37.9249 42.2346 38.1832 42.7896 38.499C43.9282 39.1496 44.2631 39.2166 44.5693 38.8243C44.9903 38.2885 44.7893 37.9919 43.5168 37.2551C42.9427 36.9298 42.4738 36.6428 42.4738 36.6236C42.4738 36.6045 42.7896 36.4131 43.1723 36.193C44.7224 35.3032 44.8946 35.1214 44.6745 34.5856C44.5501 34.2794 44.11 34.0593 43.8325 34.1646C43.7464 34.2029 43.2393 34.4803 42.713 34.7865L41.7562 35.3415L41.7084 34.0402C41.6605 32.8155 41.651 32.7294 41.4309 32.5571C41.1247 32.3084 40.7324 32.3275 40.4837 32.5954Z" fill="#5E36EF"/>
</svg>
