<svg width="90" height="85" viewBox="0 0 90 85" fill="none" xmlns="http://www.w3.org/2000/svg">
<path fill-rule="evenodd" clip-rule="evenodd" d="M33.0718 84.6158C15.3426 84.6158 0.836853 70.0333 0.836853 52.2274C0.836853 34.3446 15.3426 19.8389 33.0718 19.8389C50.8778 19.8389 65.3836 34.3446 65.3836 52.2274C65.3836 70.0333 50.8778 84.6158 33.0718 84.6158ZM33.0718 22.1414C16.5706 22.1414 3.13935 35.6494 3.13935 52.2274C3.13935 68.8053 16.5706 82.3133 33.0718 82.3133C49.6498 82.3133 63.0811 68.8053 63.0811 52.2274C63.0811 35.6494 49.6498 22.1414 33.0718 22.1414Z" fill="white"/>
<path d="M62.3903 65.1997C61.853 65.1997 61.3925 64.8159 61.239 64.2787C61.1623 63.6647 61.546 63.0507 62.16 62.9739C76.4355 60.3644 86.72 47.8542 86.72 33.3484C86.72 16.7705 73.2888 3.26246 56.7875 3.26246C40.2095 3.26246 26.7783 16.7705 26.7783 33.3484C26.7783 40.4862 29.311 47.4704 33.9928 52.9197C34.3765 53.3802 34.2998 54.0709 33.8393 54.5314C33.3788 54.9152 32.6113 54.8384 32.2275 54.3779C27.2388 48.5449 24.4758 41.0234 24.4758 33.3484C24.4758 15.4657 38.9815 0.959961 56.7875 0.959961C74.5168 0.959961 89.0225 15.4657 89.0225 33.3484C89.0225 49.0054 77.8937 62.3599 62.6205 65.1997C62.5182 65.1997 62.4414 65.1997 62.3903 65.1997Z" fill="white"/>
<path fill-rule="evenodd" clip-rule="evenodd" d="M38.0606 61.361C36.0651 61.361 34.4533 59.7492 34.4533 57.7537C34.4533 55.7582 36.0651 54.1465 38.0606 54.1465C39.9793 54.1465 41.5911 55.7582 41.5911 57.7537C41.5911 59.7492 39.9793 61.361 38.0606 61.361ZM38.0606 56.449C37.2931 56.449 36.7558 57.063 36.7558 57.7537C36.7558 58.5212 37.2931 59.0585 38.0606 59.0585C38.7513 59.0585 39.2886 58.5212 39.2886 57.7537C39.2886 57.063 38.7513 56.449 38.0606 56.449Z" fill="white"/>
</svg>
