<svg width="63" height="75" viewBox="0 0 63 75" fill="none" xmlns="http://www.w3.org/2000/svg">
<path d="M31.9668 56.1854C31.7331 56.1854 31.4995 56.079 31.3826 55.9194L21.2188 46.6639C21.0436 46.5575 20.9268 46.3447 20.9268 46.1319C20.9268 45.9192 21.0436 45.7064 21.2188 45.5468L27.4106 39.9084C27.7026 39.6424 28.2867 39.6424 28.6372 39.9084C28.9877 40.2275 28.9877 40.7595 28.6372 41.0786L23.088 46.1319L31.9668 54.2172L60.2969 28.4719L31.9668 2.67348L3.69503 28.4719L11.8728 35.9189C12.2233 36.2381 12.2233 36.77 11.8728 37.0892C11.5223 37.3552 10.9966 37.3552 10.6461 37.0892L1.82582 29.0039C1.65058 28.8975 1.53375 28.6847 1.53375 28.4719C1.53375 28.2592 1.65058 28.0464 1.82582 27.8868L31.3826 1.02452C31.6747 0.705367 32.2588 0.705367 32.6093 1.02452L62.1077 27.8868C62.4582 28.206 62.4582 28.7379 62.1077 29.0039L32.6093 55.9194C32.4341 56.079 32.2004 56.1854 31.9668 56.1854Z" fill="#050704"/>
<path d="M30.5649 74.4832C30.3896 74.4832 30.156 74.3768 29.9807 74.2172L0.423876 47.3549C0.248638 47.1953 0.190247 46.9826 0.190247 46.7698C0.190247 46.557 0.248638 46.3443 0.423876 46.1847L29.9807 19.3224C30.3312 19.0032 30.8569 19.0032 31.2074 19.3224L41.3712 28.5247C41.7217 28.8439 41.7217 29.3758 41.3712 29.6949L35.3547 35.1738C35.0042 35.4398 34.4785 35.4398 34.128 35.1738C33.7775 34.8547 33.7775 34.3227 34.128 34.0035L39.502 29.1098L30.5649 21.0245L2.29309 46.7698L30.5649 72.5682L58.895 46.7698L50.6588 39.3228C50.3667 39.0037 50.3667 38.4718 50.6588 38.1526C51.0093 37.8334 51.5934 37.8334 51.9439 38.1526L60.7642 46.1847C61.1147 46.5038 61.1147 47.0357 60.7642 47.3549L31.2074 74.2172C31.0321 74.3768 30.7985 74.4832 30.5649 74.4832Z" fill="#050704"/>
<path fill-rule="evenodd" clip-rule="evenodd" d="M31.4994 39.6946C29.9807 39.6946 28.754 38.6307 28.754 37.3009C28.754 35.9711 29.9807 34.9072 31.4994 34.9072C32.9597 34.9072 34.1864 35.9711 34.1864 37.3009C34.1864 38.6307 32.9597 39.6946 31.4994 39.6946ZM31.4994 36.503C30.9153 36.503 30.5064 36.8222 30.5064 37.3009C30.5064 37.7264 30.9153 38.0988 31.4994 38.0988C32.0251 38.0988 32.434 37.7264 32.434 37.3009C32.434 36.8222 32.0251 36.503 31.4994 36.503Z" fill="#050704"/>
</svg>
