<svg width="58" height="46" viewBox="0 0 58 46" fill="none" xmlns="http://www.w3.org/2000/svg">
<path d="M23.1467 23.0484L39.2691 6.71391C39.6598 6.31812 40.2983 6.31707 40.6902 6.71158L56.223 22.3459C56.6095 22.735 56.6106 23.3629 56.2252 23.7532L40.6954 39.486C40.3018 39.8847 39.6576 39.8823 39.2669 39.4807L34.0541 34.1219M34.0541 34.1219L23.8537 44.4775C23.4641 44.873 22.8268 44.8755 22.4342 44.4828L1.70709 23.7555C1.31657 23.365 1.31657 22.7319 1.70709 22.3413L22.4342 1.61385C22.8268 1.22123 23.4641 1.22364 23.8537 1.61921L44.2703 22.3467C44.6538 22.736 44.6538 23.3609 44.2703 23.7502L34.0541 34.1219Z" stroke="#5E36EF" stroke-width="1.5"/>
<ellipse cx="20.1328" cy="25.6318" rx="2.50107" ry="2.50107" transform="rotate(-39.01 20.1328 25.6318)" stroke="#5E36EF" stroke-width="0.8"/>
</svg>
