<svg width="40" height="40" viewBox="0 0 40 40" fill="none" xmlns="http://www.w3.org/2000/svg">
<rect x="0.5" y="0.5" width="39" height="39" rx="19.5" stroke="#6C2DFF"/>
<g clip-path="url(#clip0_3001_370)">
<path d="M21.8739 11.6999C21.5681 11.7843 21.4134 11.8616 21.1427 12.0655C20.3095 12.6948 20.1267 13.9218 20.7349 14.7866C20.8333 14.9237 20.9704 15.0819 21.0407 15.1417C21.1602 15.2401 21.1673 15.2542 21.104 15.2753C20.1583 15.6163 19.413 16.1894 18.9208 16.9487C18.8364 17.0823 18.7626 17.1878 18.7591 17.1878C18.7556 17.1878 18.5938 17.1491 18.404 17.0999C17.279 16.8151 16.1083 17.2089 15.4227 18.1054C15.1661 18.4429 14.9938 18.805 14.8989 19.2128C14.8356 19.487 14.8251 19.6136 14.8427 19.9546C14.8602 20.4222 14.92 20.6753 15.0958 21.0444C15.2399 21.3538 15.37 21.5472 15.6091 21.8073C15.7145 21.9233 15.7778 22.0218 15.7602 22.0394C15.7005 22.0991 14.2977 23.0976 14.2872 23.087C14.2837 23.08 14.2063 22.971 14.1149 22.8374C13.9497 22.6019 13.8513 22.5386 13.7106 22.5772C13.5946 22.6054 11.6962 23.9835 11.661 24.0644C11.6399 24.1065 11.6329 24.1839 11.647 24.2331C11.661 24.2894 12.3817 25.0698 13.447 26.1808C15.6442 28.4694 15.5388 28.3675 15.6653 28.3675C15.7356 28.3675 15.9606 28.2339 16.4317 27.9069C16.8009 27.6538 17.1208 27.4218 17.1454 27.3901C17.2298 27.2776 17.1946 27.1194 17.0294 26.8944C16.9415 26.7749 16.8712 26.6694 16.8712 26.6519C16.8712 26.6237 17.1524 26.4304 17.3177 26.3495C17.3774 26.3214 17.5356 26.2792 17.6692 26.2581C17.8977 26.2194 18.0032 26.2335 19.8384 26.5358C20.9001 26.7116 21.8669 26.8558 21.9899 26.8558C22.5032 26.8558 22.7845 26.7397 23.4946 26.2265C27.1333 23.6144 27.9806 22.9991 28.0825 22.9042C28.2302 22.7671 28.3673 22.4858 28.3673 22.3171C28.3673 21.839 27.8786 21.3608 27.2528 21.2272C26.954 21.1675 26.5181 21.2026 26.286 21.3081C26.1806 21.3573 25.5337 21.8003 24.8411 22.2995C23.463 23.2909 23.1782 23.4843 22.9356 23.5862L22.7774 23.653L22.802 23.5581C22.8196 23.5054 22.8302 23.3296 22.8302 23.1644C22.8302 22.9042 22.8161 22.8374 22.7212 22.6335C22.5735 22.3241 22.3942 22.1343 22.1306 22.0042C21.9513 21.9163 21.7544 21.8741 20.9493 21.7405C20.4184 21.6526 19.9684 21.5823 19.9544 21.5823C19.9403 21.5823 19.972 21.5155 20.0282 21.4312C20.3903 20.9038 20.5731 20.1655 20.4923 19.5327C20.4712 19.364 20.4466 19.2058 20.436 19.1741C20.4184 19.1284 20.77 19.1214 23.3645 19.1144C26.5532 19.1038 26.3985 19.1144 26.4724 18.921C26.5497 18.7206 26.3071 17.8312 26.0294 17.2968C25.5759 16.4249 24.7462 15.6866 23.8497 15.3597C23.7337 15.314 23.6282 15.2683 23.6106 15.2577C23.5966 15.2437 23.6458 15.1804 23.7231 15.1206C23.797 15.0608 23.9306 14.9026 24.0184 14.769C24.6548 13.8128 24.4017 12.5718 23.4419 11.9495C22.9989 11.6647 22.3767 11.5663 21.8739 11.6999ZM22.7177 12.2483C23.0095 12.3222 23.1852 12.4241 23.3927 12.6315C24.0888 13.3276 23.8884 14.4878 22.9954 14.9272C22.7388 15.0538 22.7142 15.0608 22.3767 15.0608C22.0497 15.0608 22.0005 15.0503 21.786 14.9483C21.3255 14.7304 21.0267 14.3401 20.9528 13.855C20.7946 12.8425 21.7298 11.9917 22.7177 12.2483ZM23.245 15.7605C24.0817 15.9749 24.8446 16.5022 25.3157 17.1983C25.5653 17.5675 25.8712 18.2917 25.8712 18.5202C25.8712 18.5483 25.0872 18.5589 23.0481 18.5589H20.2251L20.0528 18.2917C19.8946 18.0491 19.5993 17.7362 19.3567 17.5499L19.2583 17.4726L19.3462 17.3179C19.8278 16.4987 20.8474 15.8413 21.8845 15.6761C22.229 15.6233 22.8548 15.662 23.245 15.7605ZM18.3829 17.6729C19.0614 17.8944 19.6204 18.471 19.8454 19.1741C19.9544 19.5011 19.9755 20.0284 19.8981 20.3519C19.7434 20.9987 19.2724 21.5929 18.6817 21.8812C18.3407 22.0499 18.07 22.1097 17.6727 22.1132C17.0259 22.1132 16.5337 21.9128 16.0767 21.4593C15.6196 21.0093 15.3946 20.4714 15.3946 19.8421C15.3946 19.4519 15.4579 19.1917 15.6442 18.8155C15.9255 18.239 16.4845 17.7854 17.1067 17.6272C17.4091 17.5534 18.0876 17.578 18.3829 17.6729ZM27.3196 21.8284C27.527 21.9058 27.7591 22.1062 27.7907 22.2397C27.8188 22.3487 27.7556 22.4647 27.6149 22.5702C26.4688 23.421 22.672 26.1175 22.5313 26.1808C22.1763 26.346 22.0286 26.3355 19.9825 25.9909C17.9505 25.6534 17.7044 25.6323 17.2895 25.7624C17.1595 25.8046 16.9345 25.9136 16.7903 26.012L16.5231 26.1843L16.0345 25.5093C14.804 23.8007 14.6563 23.5897 14.6563 23.5616C14.6563 23.5335 16.0802 22.4894 16.263 22.3804C16.2981 22.3593 16.3895 22.3804 16.5196 22.4401C16.9977 22.6546 17.6903 22.7355 18.2001 22.6405C18.5903 22.5632 19.0368 22.3663 19.4024 22.1062C19.4446 22.078 19.7399 22.1132 20.5802 22.2468C21.1989 22.3487 21.7579 22.4472 21.8177 22.4647C21.9618 22.5105 22.1903 22.7671 22.2431 22.9464C22.3661 23.3507 22.1903 23.7128 21.8634 23.7339C21.7966 23.7374 21.322 23.6741 20.8087 23.5862C20.2216 23.4913 19.8419 23.4421 19.7786 23.4597C19.5888 23.5054 19.5395 23.8042 19.6977 23.9343C19.7856 24.0081 21.7579 24.3245 22.1306 24.3245C22.5313 24.3245 22.8934 24.2366 23.2767 24.0433C23.6247 23.8675 23.6001 23.8851 25.0802 22.8163C25.7376 22.3417 26.3599 21.9093 26.4653 21.8565C26.7044 21.7335 27.0384 21.7229 27.3196 21.8284ZM15.1415 25.2245C15.8763 26.2511 16.4845 27.1089 16.4915 27.13C16.5091 27.1897 15.7392 27.7136 15.6829 27.6784C15.5845 27.6116 12.3712 24.2401 12.3817 24.2085C12.3852 24.1909 12.6841 23.9659 13.0392 23.7093C13.6368 23.2804 13.6931 23.2487 13.7458 23.3015C13.7774 23.3331 14.4067 24.198 15.1415 25.2245Z" fill="#5E36EF"/>
<path d="M18.0137 19.5078L17.2402 20.2812L16.8887 19.9297C16.5863 19.6238 16.523 19.5781 16.4211 19.5781C16.277 19.5781 16.1328 19.7117 16.1328 19.8453C16.1328 19.9227 16.2348 20.0457 16.632 20.4465C17.0855 20.9035 17.1418 20.9492 17.2543 20.9492C17.3703 20.9492 17.4441 20.8859 18.2844 20.0422C19.1 19.2266 19.1914 19.1246 19.1914 19.0227C19.1914 18.868 19.0578 18.7344 18.9031 18.7344C18.8047 18.7344 18.7062 18.8188 18.0137 19.5078Z" fill="#5E36EF"/>
</g>
<defs>
<clipPath id="clip0_3001_370">
<rect width="18" height="18" fill="white" transform="translate(11 11)"/>
</clipPath>
</defs>
</svg>
