<svg width="43" height="48" viewBox="0 0 43 48" fill="none" xmlns="http://www.w3.org/2000/svg">
<path fill-rule="evenodd" clip-rule="evenodd" d="M22.2075 38.3768V46.8823C33.0749 46.6095 41.8166 38.6673 41.8166 28.939C41.8166 19.2108 33.075 11.2688 22.2078 10.9959V30.8577C22.2078 31.1318 21.9766 31.3716 21.6299 31.3716C21.3217 31.3716 21.0521 31.1318 21.0521 30.8577V10.4905L21.0518 10.4748L21.0521 10.4591V1.97943C10.1881 2.25348 1.48143 10.1668 1.48143 19.8956C1.48143 29.7898 10.4855 37.8364 21.6099 37.846C21.6165 37.8458 21.623 37.8457 21.6296 37.8457C21.8261 37.8457 21.9855 37.9227 22.0867 38.0393C22.1643 38.1285 22.2078 38.241 22.2078 38.3599C22.2078 38.3655 22.2077 38.3712 22.2075 38.3768ZM21.142 47.6711C21.2464 47.8165 21.43 47.9172 21.6296 47.9172C33.4182 47.9172 42.9724 39.3873 42.9724 28.939C42.9724 18.6284 33.729 10.2401 22.2078 9.96776V1.43133C22.2078 1.15728 21.9766 0.91748 21.6299 0.91748C9.87986 0.91748 0.325684 9.44738 0.325684 19.8956C0.325684 30.172 9.56805 38.5925 21.0518 38.8668V47.4033M21.142 47.6711C21.0852 47.5921 21.0518 47.4998 21.0518 47.4033L21.142 47.6711ZM24.4805 42.7104C24.1723 42.7104 23.9412 42.5391 23.9026 42.265C23.8641 41.991 24.0953 41.717 24.4035 41.717C31.6461 41.0318 37.0781 35.6535 37.0781 29.1791C37.0781 22.8758 31.7617 17.4976 24.7117 16.7097C24.4035 16.6754 24.1723 16.4356 24.2108 16.1273C24.2494 15.8533 24.5576 15.6477 24.8658 15.682C32.4937 16.5384 38.2339 22.362 38.2339 29.1791C38.2339 36.1674 32.3396 41.991 24.519 42.7104H24.4805ZM21.63 36.2358C20.6284 36.2358 19.8193 35.5164 19.8193 34.6257C19.8193 33.735 20.6284 33.0156 21.63 33.0156C22.6317 33.0156 23.4407 33.735 23.4407 34.6257C23.4407 35.5164 22.6317 36.2358 21.63 36.2358ZM21.63 34.0433C21.2833 34.0433 20.9751 34.3174 20.9751 34.6257C20.9751 34.9683 21.2833 35.2081 21.63 35.2081C22.0153 35.2081 22.2849 34.9683 22.2849 34.6257C22.2849 34.3174 22.0153 34.0433 21.63 34.0433Z" fill="#5E36EF"/>
</svg>
