<svg width="16" height="15" viewBox="0 0 16 15" fill="none" xmlns="http://www.w3.org/2000/svg">
<path fill-rule="evenodd" clip-rule="evenodd" d="M7.76329 11.5578C9.96296 11.5578 11.7462 9.77527 11.7462 7.57645C11.7462 5.37762 9.96296 3.59512 7.76329 3.59512C5.56361 3.59512 3.78042 5.37762 3.78042 7.57645C3.78042 9.77527 5.56361 11.5578 7.76329 11.5578ZM7.76329 10.2307C9.22972 10.2307 10.4185 9.0423 10.4185 7.57645C10.4185 6.11056 9.22972 4.92223 7.76329 4.92223C6.29684 4.92223 5.10805 6.11056 5.10805 7.57645C5.10805 9.0423 6.29684 10.2307 7.76329 10.2307Z" fill="#615C73"/>
<path d="M11.746 2.93152C11.3795 2.93152 11.0824 3.22861 11.0824 3.59507C11.0824 3.96154 11.3795 4.25863 11.746 4.25863C12.1125 4.25863 12.4096 3.96154 12.4096 3.59507C12.4096 3.22861 12.1125 2.93152 11.746 2.93152Z" fill="#615C73"/>
<path fill-rule="evenodd" clip-rule="evenodd" d="M0.895043 2.45119C0.460938 3.30284 0.460938 4.41772 0.460938 6.64746V8.50542C0.460938 10.7352 0.460938 11.8501 0.895043 12.7017C1.27689 13.4508 1.88619 14.0599 2.63562 14.4416C3.4876 14.8755 4.60291 14.8755 6.83353 14.8755H8.69219C10.9228 14.8755 12.0381 14.8755 12.8901 14.4416C13.6395 14.0599 14.2488 13.4508 14.6307 12.7017C15.0648 11.8501 15.0648 10.7352 15.0648 8.50542V6.64746C15.0648 4.41772 15.0648 3.30284 14.6307 2.45119C14.2488 1.70205 13.6395 1.09298 12.8901 0.711282C12.0381 0.277344 10.9228 0.277344 8.69219 0.277344H6.83353C4.60291 0.277344 3.4876 0.277344 2.63562 0.711282C1.88619 1.09298 1.27689 1.70205 0.895043 2.45119ZM8.69219 1.60445H6.83353C5.69631 1.60445 4.92324 1.60549 4.3257 1.65429C3.74364 1.70182 3.44599 1.78798 3.23835 1.89374C2.73873 2.14821 2.33253 2.55426 2.07796 3.05368C1.97216 3.26124 1.88597 3.55878 1.83841 4.14061C1.7896 4.73792 1.78856 5.51069 1.78856 6.64746V8.50542C1.78856 9.64222 1.7896 10.4149 1.83841 11.0123C1.88597 11.5941 1.97216 11.8917 2.07796 12.0992C2.33253 12.5986 2.73873 13.0046 3.23835 13.2591C3.44599 13.3649 3.74364 13.4511 4.3257 13.4986C4.92324 13.5474 5.69631 13.5484 6.83353 13.5484H8.69219C9.82944 13.5484 10.6024 13.5474 11.2 13.4986C11.7821 13.4511 12.0798 13.3649 12.2874 13.2591C12.787 13.0046 13.1932 12.5986 13.4477 12.0992C13.5535 11.8917 13.6398 11.5941 13.6873 11.0123C13.7361 10.4149 13.7372 9.64222 13.7372 8.50542V6.64746C13.7372 5.51069 13.7361 4.73792 13.6873 4.14061C13.6398 3.55878 13.5535 3.26124 13.4477 3.05368C13.1932 2.55426 12.787 2.14821 12.2874 1.89374C12.0798 1.78798 11.7821 1.70182 11.2 1.65429C10.6024 1.60549 9.82944 1.60445 8.69219 1.60445Z" fill="#615C73"/>
</svg>
