<svg width="15" height="14" viewBox="0 0 15 14" fill="none" xmlns="http://www.w3.org/2000/svg">
<path fill-rule="evenodd" clip-rule="evenodd" d="M7.50041 10.233C9.60913 10.233 11.3186 8.6456 11.3186 6.68751C11.3186 4.7294 9.60913 3.14205 7.50041 3.14205C5.39169 3.14205 3.68223 4.7294 3.68223 6.68751C3.68223 8.6456 5.39169 10.233 7.50041 10.233ZM7.50041 9.05114C8.9062 9.05114 10.0459 7.99288 10.0459 6.68751C10.0459 5.3821 8.9062 4.32387 7.50041 4.32387C6.0946 4.32387 4.95496 5.3821 4.95496 6.68751C4.95496 7.99288 6.0946 9.05114 7.50041 9.05114Z" fill="#615C73"/>
<path d="M11.3184 2.5511C10.9671 2.5511 10.6823 2.81566 10.6823 3.14201C10.6823 3.46836 10.9671 3.73292 11.3184 3.73292C11.6698 3.73292 11.9546 3.46836 11.9546 3.14201C11.9546 2.81566 11.6698 2.5511 11.3184 2.5511Z" fill="#615C73"/>
<path fill-rule="evenodd" clip-rule="evenodd" d="M0.916156 2.12335C0.5 2.88177 0.5 3.87459 0.5 5.86023V7.51477C0.5 9.5004 0.5 10.4933 0.916156 11.2516C1.28222 11.9188 1.86632 12.4612 2.58477 12.801C3.40152 13.1875 4.47071 13.1875 6.60909 13.1875H8.39091C10.5293 13.1875 11.5985 13.1875 12.4152 12.801C13.1337 12.4612 13.7178 11.9188 14.0838 11.2516C14.5 10.4933 14.5 9.5004 14.5 7.51477V5.86023C14.5 3.87459 14.5 2.88177 14.0838 2.12335C13.7178 1.45623 13.1337 0.913845 12.4152 0.573931C11.5985 0.1875 10.5293 0.1875 8.39091 0.1875H6.60909C4.47071 0.1875 3.40152 0.1875 2.58477 0.573931C1.86632 0.913845 1.28222 1.45623 0.916156 2.12335ZM8.39091 1.36932H6.60909C5.5189 1.36932 4.7778 1.37024 4.20496 1.4137C3.64697 1.45603 3.36163 1.53276 3.16257 1.62694C2.68361 1.85355 2.29421 2.21514 2.05016 2.65989C1.94874 2.84472 1.86611 3.10969 1.82052 3.62782C1.77372 4.15974 1.77273 4.84791 1.77273 5.86023V7.51477C1.77273 8.52712 1.77372 9.21523 1.82052 9.74717C1.86611 10.2653 1.94874 10.5303 2.05016 10.7151C2.29421 11.1599 2.68361 11.5214 3.16257 11.748C3.36163 11.8422 3.64697 11.919 4.20496 11.9613C4.7778 12.0047 5.5189 12.0057 6.60909 12.0057H8.39091C9.48113 12.0057 10.2222 12.0047 10.795 11.9613C11.3531 11.919 11.6384 11.8422 11.8375 11.748C12.3164 11.5214 12.7058 11.1599 12.9498 10.7151C13.0513 10.5303 13.1339 10.2653 13.1795 9.74717C13.2263 9.21523 13.2273 8.52712 13.2273 7.51477V5.86023C13.2273 4.84791 13.2263 4.15974 13.1795 3.62782C13.1339 3.10969 13.0513 2.84472 12.9498 2.65989C12.7058 2.21514 12.3164 1.85355 11.8375 1.62694C11.6384 1.53276 11.3531 1.45603 10.795 1.4137C10.2222 1.37024 9.48113 1.36932 8.39091 1.36932Z" fill="#615C73"/>
</svg>
