<svg width="85" height="85" viewBox="0 0 85 85" fill="none" xmlns="http://www.w3.org/2000/svg">
<rect width="85" height="85" fill="#866BF0"/>
<path d="M49.1398 55.5002V47.7002M49.1398 33.4V29.5M34.8601 55.5V51.6M34.8601 37.3V29.5M36 62.5H48C58 62.5 62 58.5 62 48.5V36.5C62 26.5 58 22.5 48 22.5H36C26 22.5 22 26.5 22 36.5V48.5C22 58.5 26 62.5 36 62.5ZM49.14 43.8C52.0118 43.8 54.34 41.4718 54.34 38.6C54.34 35.728 52.0118 33.3999 49.14 33.3999C46.268 33.3999 43.94 35.728 43.94 38.6C43.94 41.4718 46.268 43.8 49.14 43.8ZM34.8599 51.6002C37.7318 51.6002 40.06 49.272 40.06 46.4002C40.06 43.5284 37.7318 41.2002 34.8599 41.2002C31.988 41.2002 29.6599 43.5284 29.6599 46.4002C29.6599 49.272 31.988 51.6002 34.8599 51.6002Z" stroke="#F4F4F4" stroke-width="2" stroke-miterlimit="10" stroke-linecap="round" stroke-linejoin="round"/>
</svg>
