<svg width="20" height="17" viewBox="0 0 20 17" fill="none" xmlns="http://www.w3.org/2000/svg">
<path fill-rule="evenodd" clip-rule="evenodd" d="M19.2273 16.2273H10.1315C10.0377 16.2273 9.9596 16.1648 9.91271 16.0867L7.91226 11.5856C4.14578 12.1951 1.55144 14.2112 1.30138 15.7584H5.08349C5.20852 15.7584 5.31792 15.8678 5.31792 15.9929C5.31792 16.1179 5.20852 16.2273 5.08349 16.2273H1.05132C0.926294 16.2273 0.816895 16.1179 0.816895 15.9929C0.816895 14.0706 3.72381 11.8357 7.70909 11.148L6.49006 8.42866C6.4588 8.38177 6.4588 8.30362 6.49006 8.24111L10.1315 0.239294C10.1784 0.145522 10.2565 0.0986328 10.3503 0.0986328C10.4285 0.0986328 10.5222 0.145526 10.5535 0.223669L15.0233 8.81937C15.0701 8.9444 15.0389 9.08506 14.9138 9.14757C14.8044 9.19446 14.6638 9.16319 14.6013 9.03816L10.3659 0.864436L6.95891 8.33487L8.19357 11.0699C8.81871 10.9917 9.45949 10.9449 10.1315 10.9449C15.1483 10.9449 19.4618 13.7111 19.4618 15.9929C19.4618 16.1179 19.3524 16.2273 19.2273 16.2273ZM10.2878 15.7584H18.9616C18.6647 13.9612 14.9764 11.4137 10.1315 11.4137C9.52721 11.4137 8.94895 11.4502 8.39674 11.5231L10.2878 15.7584Z" fill="#5E36EF"/>
</svg>
