<svg width="17" height="17" viewBox="0 0 17 17" fill="none" xmlns="http://www.w3.org/2000/svg">
<path d="M11.4995 5.57812C12.729 5.57812 13.9081 6.11045 14.7775 7.05801C15.6469 8.00556 16.1353 9.29072 16.1353 10.6308V16.5255H13.0447V10.6308C13.0447 10.1841 12.8819 9.75569 12.5921 9.43984C12.3023 9.12399 11.9093 8.94655 11.4995 8.94655C11.0896 8.94655 10.6966 9.12399 10.4068 9.43984C10.117 9.75569 9.95419 10.1841 9.95419 10.6308V16.5255H6.86365V10.6308C6.86365 9.29072 7.35206 8.00556 8.22145 7.05801C9.09083 6.11045 10.27 5.57813 11.4995 5.57812Z" fill="#5E36EF"/>
<path d="M3.77267 6.41797H0.682129V16.5232H3.77267V6.41797Z" fill="#5E36EF"/>
<path d="M2.2274 3.89186C3.08083 3.89186 3.77267 3.13781 3.77267 2.20765C3.77267 1.27748 3.08083 0.523438 2.2274 0.523438C1.37397 0.523438 0.682129 1.27748 0.682129 2.20765C0.682129 3.13781 1.37397 3.89186 2.2274 3.89186Z" fill="#5E36EF"/>
</svg>
