<svg width="15" height="14" viewBox="0 0 15 14" fill="none" xmlns="http://www.w3.org/2000/svg">
<path d="M0.5 1.6976C0.5 1.25988 0.657662 0.898771 0.972973 0.614268C1.28828 0.329752 1.6982 0.1875 2.2027 0.1875C2.6982 0.1875 3.09909 0.327559 3.40541 0.607702C3.72072 0.896591 3.87838 1.27301 3.87838 1.73699C3.87838 2.1572 3.72523 2.50736 3.41892 2.7875C3.10361 3.07639 2.68919 3.22083 2.17568 3.22083H2.16216C1.66666 3.22083 1.26577 3.07639 0.959459 2.7875C0.653149 2.49861 0.5 2.13531 0.5 1.6976ZM0.675676 13.1875V4.41578H3.67568V13.1875H0.675676ZM5.33784 13.1875H8.33784V8.28952C8.33784 7.98311 8.37388 7.74675 8.44595 7.58043C8.57207 7.28278 8.76351 7.03109 9.02027 6.82538C9.27703 6.61965 9.59909 6.51679 9.98649 6.51679C10.9955 6.51679 11.5 7.17773 11.5 8.49962V13.1875H14.5V8.15821C14.5 6.86258 14.1847 5.87992 13.5541 5.21023C12.9234 4.54053 12.0901 4.20568 11.0541 4.20568C9.89189 4.20568 8.98649 4.69154 8.33784 5.66326V5.68952H8.32432L8.33784 5.66326V4.41578H5.33784C5.35585 4.69591 5.36486 5.56695 5.36486 7.02891C5.36486 8.49086 5.35585 10.5437 5.33784 13.1875Z" fill="#615C73"/>
</svg>
