<svg width="23" height="31" viewBox="0 0 23 31" fill="none" xmlns="http://www.w3.org/2000/svg">
<path d="M11.373 0.65625C5.16023 0.65625 0.123047 5.69344 0.123047 11.9062C0.123047 14.3527 0.925078 16.5975 2.2582 18.4359C2.28211 18.48 2.28586 18.5292 2.31305 18.5714L9.81305 29.8214C10.1609 30.3431 10.7468 30.6562 11.373 30.6562C11.9993 30.6562 12.5852 30.3431 12.933 29.8214L20.433 18.5714C20.4607 18.5292 20.464 18.48 20.4879 18.4359C21.821 16.5975 22.623 14.3527 22.623 11.9062C22.623 5.69344 17.5859 0.65625 11.373 0.65625ZM11.373 15.6562C9.30211 15.6562 7.62305 13.9772 7.62305 11.9062C7.62305 9.83531 9.30211 8.15625 11.373 8.15625C13.444 8.15625 15.123 9.83531 15.123 11.9062C15.123 13.9772 13.444 15.6562 11.373 15.6562Z" fill="#5E36EF"/>
</svg>
