<svg width="99" height="19" viewBox="0 0 99 19" fill="none" xmlns="http://www.w3.org/2000/svg">
<path d="M3.36701 5.90615C3.45034 6.52282 3.62534 7.17282 3.89201 7.85615C4.17534 8.53949 4.50867 9.17282 4.89201 9.75615C5.29201 10.3228 5.72534 10.7978 6.19201 11.1812C6.65867 11.5645 7.11701 11.7562 7.56701 11.7562C8.11701 11.7562 8.64201 11.5312 9.14201 11.0812C9.65867 10.6312 10.1087 10.0728 10.492 9.40615C10.892 8.73949 11.2003 8.02282 11.417 7.25615C11.6503 6.47282 11.767 5.75615 11.767 5.10615V3.83115C11.767 3.51448 11.8753 3.26448 12.092 3.08115C12.3087 2.88115 12.6337 2.78115 13.067 2.78115C13.5003 2.78115 13.8253 2.88115 14.042 3.08115C14.2587 3.26448 14.367 3.51448 14.367 3.83115V17.6062C14.367 17.9228 14.2587 18.1728 14.042 18.3562C13.8253 18.5562 13.5003 18.6562 13.067 18.6562C12.6337 18.6562 12.3087 18.5562 12.092 18.3562C11.8753 18.1728 11.767 17.9228 11.767 17.6062V9.48115C11.5503 10.0478 11.3003 10.5812 11.017 11.0812C10.7503 11.5645 10.442 11.9895 10.092 12.3562C9.74201 12.7228 9.35034 13.0145 8.91701 13.2312C8.50034 13.4312 8.03367 13.5312 7.51701 13.5312C6.83367 13.5312 6.25034 13.4145 5.76701 13.1812C5.30034 12.9478 4.90034 12.6645 4.56701 12.3312C4.25034 11.9978 3.99201 11.6478 3.79201 11.2812C3.60867 10.8978 3.46701 10.5645 3.36701 10.2812V17.6062C3.36701 17.9228 3.25867 18.1728 3.04201 18.3562C2.82534 18.5562 2.50034 18.6562 2.06701 18.6562C1.63367 18.6562 1.30867 18.5562 1.09201 18.3562C0.875339 18.1728 0.767006 17.9228 0.767006 17.6062V3.83115C0.767006 3.51448 0.875339 3.26448 1.09201 3.08115C1.30867 2.88115 1.63367 2.78115 2.06701 2.78115C2.50034 2.78115 2.82534 2.88115 3.04201 3.08115C3.25867 3.26448 3.36701 3.51448 3.36701 3.83115V5.90615ZM25.5068 8.13115C27.0068 8.13115 28.0985 8.41449 28.7819 8.98115C29.4652 9.54782 29.8069 10.2895 29.8069 11.2062C29.8069 11.4895 29.7569 11.7728 29.6569 12.0562C29.5735 12.3395 29.5319 12.5978 29.5319 12.8312V17.5562C29.5319 17.8395 29.4319 18.0812 29.2319 18.2812C29.0485 18.4645 28.7402 18.5562 28.3069 18.5562C27.8569 18.5562 27.5319 18.4645 27.3319 18.2812C27.1485 18.0812 27.0569 17.8395 27.0569 17.5562V15.8812C26.3069 16.7312 25.4235 17.4062 24.4068 17.9062C23.3902 18.4062 22.3069 18.6562 21.1568 18.6562C19.6402 18.6562 18.5402 18.3645 17.8568 17.7812C17.1902 17.1812 16.8568 16.3728 16.8568 15.3562C16.8568 14.4895 17.0902 13.6312 17.5568 12.7812C18.0235 11.9145 18.6568 11.1395 19.4568 10.4562C20.2568 9.75615 21.1735 9.19782 22.2068 8.78115C23.2568 8.34782 24.3568 8.13115 25.5068 8.13115ZM24.6318 9.60615C23.8985 9.60615 23.2235 9.74782 22.6068 10.0312C21.9902 10.2978 21.4485 10.6562 20.9818 11.1062C20.5318 11.5562 20.1735 12.0728 19.9068 12.6562C19.6568 13.2395 19.5318 13.8395 19.5318 14.4562C19.5318 15.2395 19.7485 15.8478 20.1818 16.2812C20.6318 16.6978 21.2652 16.9062 22.0818 16.9062C22.7818 16.9062 23.4402 16.7728 24.0568 16.5062C24.6735 16.2228 25.2068 15.8562 25.6569 15.4062C26.1235 14.9562 26.4902 14.4395 26.7569 13.8562C27.0402 13.2728 27.1818 12.6645 27.1818 12.0312C27.1818 11.2978 26.9485 10.7145 26.4818 10.2812C26.0319 9.83115 25.4152 9.60615 24.6318 9.60615ZM35.186 12.1562C35.6693 10.7562 36.3193 9.73949 37.136 9.10615C37.9693 8.45615 38.8443 8.13115 39.761 8.13115C40.711 8.13115 41.461 8.33949 42.011 8.75615C42.5776 9.15615 42.861 9.60615 42.861 10.1062C42.861 10.4562 42.7443 10.7562 42.511 11.0062C42.2776 11.2562 41.961 11.3812 41.561 11.3812C40.9943 11.3812 40.5526 11.1395 40.236 10.6562C40.0526 10.3728 39.8526 10.1728 39.636 10.0562C39.436 9.93949 39.1943 9.88115 38.911 9.88115C38.5276 9.88115 38.1193 10.0728 37.686 10.4562C37.2693 10.8395 36.8776 11.3395 36.511 11.9562C36.161 12.5562 35.8693 13.2478 35.636 14.0312C35.4026 14.7978 35.286 15.5645 35.286 16.3312V17.6062C35.286 17.8895 35.186 18.1228 34.986 18.3062C34.8026 18.5062 34.486 18.6062 34.036 18.6062C33.6026 18.6062 33.286 18.5062 33.086 18.3062C32.9026 18.1228 32.811 17.8895 32.811 17.6062V9.35615C32.811 9.07282 32.9026 8.83949 33.086 8.65615C33.2693 8.45615 33.5693 8.35615 33.986 8.35615C34.4193 8.35615 34.7276 8.45615 34.911 8.65615C35.0943 8.83949 35.186 9.07282 35.186 9.35615V12.1562ZM48.8436 18.6562C48.0936 18.6562 47.4436 18.5645 46.8936 18.3812C46.3436 18.2145 45.8936 17.9812 45.5436 17.6812C45.1936 17.3812 44.9269 17.0312 44.7436 16.6312C44.5769 16.2312 44.4936 15.8062 44.4936 15.3562C44.4936 14.9728 44.5352 14.6728 44.6186 14.4562C44.7186 14.2228 44.7686 13.9478 44.7686 13.6312V1.75615C44.7686 1.47282 44.8602 1.23948 45.0436 1.05615C45.2436 0.856152 45.5602 0.756152 45.9936 0.756152C46.4436 0.756152 46.7602 0.856152 46.9436 1.05615C47.1436 1.23948 47.2436 1.47282 47.2436 1.75615V10.9562C47.9269 10.0562 48.8019 9.36449 49.8686 8.88115C50.9352 8.38115 52.0602 8.13115 53.2436 8.13115C54.7436 8.13115 55.8186 8.43949 56.4686 9.05615C57.1186 9.65615 57.4436 10.4645 57.4436 11.4812C57.4436 12.3312 57.2102 13.1895 56.7436 14.0562C56.2769 14.9062 55.6436 15.6728 54.8436 16.3562C54.0602 17.0395 53.1436 17.5978 52.0936 18.0312C51.0602 18.4478 49.9769 18.6562 48.8436 18.6562ZM49.6686 16.9312C50.3852 16.9312 51.0519 16.7978 51.6686 16.5312C52.3019 16.2645 52.8436 15.9145 53.2936 15.4812C53.7602 15.0312 54.1186 14.5228 54.3686 13.9562C54.6352 13.3728 54.7686 12.7645 54.7686 12.1312C54.7686 11.3312 54.5519 10.7145 54.1186 10.2812C53.7019 9.84782 53.0936 9.63115 52.2936 9.63115C51.5936 9.63115 50.9269 9.77282 50.2936 10.0562C49.6769 10.3228 49.1269 10.6812 48.6436 11.1312C48.1769 11.5812 47.8019 12.1062 47.5186 12.7062C47.2519 13.2895 47.1186 13.8895 47.1186 14.5062C47.1186 15.2395 47.3436 15.8312 47.7936 16.2812C48.2602 16.7145 48.8852 16.9312 49.6686 16.9312ZM62.4727 17.5562C62.4727 17.8395 62.3727 18.0812 62.1727 18.2812C61.9727 18.4645 61.6477 18.5562 61.1977 18.5562C60.7643 18.5562 60.4477 18.4645 60.2477 18.2812C60.0477 18.0812 59.9477 17.8395 59.9477 17.5562V1.75615C59.9477 1.47282 60.0477 1.23948 60.2477 1.05615C60.4477 0.856152 60.7643 0.756152 61.1977 0.756152C61.6477 0.756152 61.9727 0.856152 62.1727 1.05615C62.3727 1.23948 62.4727 1.47282 62.4727 1.75615V17.5562ZM73.6279 8.13115C75.0446 8.13115 76.0779 8.37282 76.7279 8.85615C77.3946 9.33949 77.7279 9.93115 77.7279 10.6312C77.7279 11.4478 77.4363 12.1478 76.8529 12.7312C76.2863 13.2978 75.3113 13.6978 73.9279 13.9312L67.7029 14.9812C67.7029 15.5978 67.8696 16.0895 68.2029 16.4562C68.5529 16.8062 69.1863 16.9812 70.1029 16.9812C70.9363 16.9812 71.7029 16.8812 72.4029 16.6812C73.1196 16.4812 73.8029 16.2228 74.4529 15.9062C74.7529 15.7562 74.9863 15.6812 75.1529 15.6812C75.5363 15.6812 75.7279 15.9145 75.7279 16.3812C75.7279 16.6645 75.5529 16.8978 75.2029 17.0812C73.2696 18.1312 71.3279 18.6562 69.3779 18.6562C68.5946 18.6562 67.9196 18.5728 67.3529 18.4062C66.8029 18.2395 66.3529 18.0145 66.0029 17.7312C65.6529 17.4312 65.3946 17.0812 65.2279 16.6812C65.0613 16.2812 64.9779 15.8478 64.9779 15.3812C64.9779 14.5145 65.2113 13.6478 65.6779 12.7812C66.1446 11.9145 66.7696 11.1395 67.5529 10.4562C68.3529 9.77282 69.2696 9.21449 70.3029 8.78115C71.3529 8.34782 72.4613 8.13115 73.6279 8.13115ZM72.8029 9.55615C72.2196 9.55615 71.6446 9.66449 71.0779 9.88115C70.5113 10.0978 69.9946 10.3895 69.5279 10.7562C69.0779 11.1228 68.6863 11.5478 68.3529 12.0312C68.0363 12.4978 67.8279 12.9812 67.7279 13.4812L73.1779 12.6062C74.0113 12.4728 74.5529 12.2812 74.8029 12.0312C75.0696 11.7812 75.2029 11.4645 75.2029 11.0812C75.2029 10.6812 75.0029 10.3312 74.6029 10.0312C74.2029 9.71449 73.6029 9.55615 72.8029 9.55615ZM82.2608 17.5562C82.2608 17.8395 82.1608 18.0812 81.9608 18.2812C81.7608 18.4645 81.4358 18.5562 80.9858 18.5562C80.5524 18.5562 80.2358 18.4645 80.0358 18.2812C79.8358 18.0812 79.7358 17.8395 79.7358 17.5562V9.23115C79.7358 8.94782 79.8358 8.71448 80.0358 8.53115C80.2358 8.33115 80.5524 8.23115 80.9858 8.23115C81.4358 8.23115 81.7608 8.33115 81.9608 8.53115C82.1608 8.71448 82.2608 8.94782 82.2608 9.23115V17.5562ZM80.9858 5.95615C80.4858 5.95615 80.1191 5.85615 79.8858 5.65615C79.6524 5.43948 79.5358 5.18948 79.5358 4.90615V3.95615C79.5358 3.67282 79.6524 3.43115 79.8858 3.23115C80.1191 3.01448 80.4858 2.90615 80.9858 2.90615C81.4691 2.90615 81.8274 3.01448 82.0608 3.23115C82.3108 3.43115 82.4358 3.67282 82.4358 3.95615V4.90615C82.4358 5.18948 82.3108 5.43948 82.0608 5.65615C81.8274 5.85615 81.4691 5.95615 80.9858 5.95615ZM87.891 11.4062C89.241 9.22282 91.2577 8.13115 93.941 8.13115C95.4077 8.13115 96.491 8.42282 97.191 9.00615C97.891 9.58949 98.241 10.3562 98.241 11.3062C98.241 11.8228 98.1494 12.3812 97.966 12.9812C97.7827 13.5812 97.5244 14.1895 97.191 14.8062C96.8744 15.4228 96.4827 16.0312 96.016 16.6312C95.5494 17.2145 95.041 17.7478 94.491 18.2312C94.3077 18.4145 94.141 18.5312 93.991 18.5812C93.8577 18.6312 93.7077 18.6562 93.541 18.6562C93.3244 18.6562 93.1327 18.5728 92.966 18.4062C92.816 18.2562 92.741 18.0978 92.741 17.9312C92.741 17.8478 92.7577 17.7645 92.791 17.6812C92.8244 17.5812 92.9077 17.4645 93.041 17.3312C93.441 16.9145 93.791 16.4728 94.091 16.0062C94.4077 15.5228 94.666 15.0562 94.866 14.6062C95.0827 14.1395 95.2494 13.6978 95.366 13.2812C95.4827 12.8645 95.541 12.4895 95.541 12.1562C95.541 11.2895 95.316 10.6478 94.866 10.2312C94.4327 9.81449 93.816 9.60615 93.016 9.60615C92.3827 9.60615 91.7577 9.74782 91.141 10.0312C90.541 10.3145 90.0077 10.7145 89.541 11.2312C89.0744 11.7312 88.6994 12.3312 88.416 13.0312C88.1327 13.7145 87.991 14.4645 87.991 15.2812V17.6062C87.991 17.8895 87.891 18.1228 87.691 18.3062C87.5077 18.5062 87.191 18.6062 86.741 18.6062C86.3077 18.6062 85.991 18.5062 85.791 18.3062C85.6077 18.1228 85.516 17.8895 85.516 17.6062V9.35615C85.516 9.07282 85.6077 8.83949 85.791 8.65615C85.9744 8.45615 86.2744 8.35615 86.691 8.35615C87.1244 8.35615 87.4327 8.45615 87.616 8.65615C87.7994 8.83949 87.891 9.07282 87.891 9.35615V11.4062Z" fill="#615C73"/>
</svg>
