<svg width="14" height="2" viewBox="0 0 14 2" fill="none" xmlns="http://www.w3.org/2000/svg">
<path d="M7.61091 1.40268L13.1794 1.40268C13.5329 1.40268 13.7981 1.13751 13.7981 0.783958C13.7981 0.430405 13.5329 0.165239 13.1794 0.165239L7.61091 0.16524C7.61343 0.167766 7.34574 0.16524 6.99219 0.16524C6.63863 0.16524 6.37347 0.16524 6.37347 0.16524L0.805003 0.16524C0.628227 0.16524 0.495644 0.209434 0.363062 0.342017C0.0978965 0.607182 0.0978965 0.960735 0.363061 1.2259C0.495644 1.35848 0.628226 1.40268 0.805003 1.40268L6.37347 1.40268C6.37347 1.40268 6.45959 1.40268 6.55025 1.40268C6.55025 1.40268 6.81541 1.40268 6.99219 1.40268C7.34574 1.40268 7.61343 1.40268 7.61091 1.40268Z" fill="#050704"/>
</svg>
