<svg width="15" height="2" viewBox="0 0 15 2" fill="none" xmlns="http://www.w3.org/2000/svg">
<path d="M8.12946 1.86166L13.6979 1.86166C14.0515 1.86166 14.3166 1.5965 14.3166 1.24294C14.3166 0.889389 14.0515 0.624224 13.6979 0.624224L8.12946 0.624224C8.13199 0.62675 7.8643 0.624225 7.51074 0.624225C7.15719 0.624225 6.89202 0.624225 6.89202 0.624225L1.32356 0.624224C1.14678 0.624224 1.0142 0.668418 0.881616 0.801001C0.616451 1.06617 0.616451 1.41972 0.881616 1.68488C1.0142 1.81747 1.14678 1.86166 1.32356 1.86166L6.89202 1.86166C6.89202 1.86166 6.97814 1.86166 7.0688 1.86166C7.0688 1.86166 7.33397 1.86166 7.51074 1.86166C7.8643 1.86166 8.13199 1.86166 8.12946 1.86166Z" fill="#050704"/>
</svg>
