<svg width="76" height="75" viewBox="0 0 76 75" fill="none" xmlns="http://www.w3.org/2000/svg">
<ellipse cx="37.3124" cy="37.6877" rx="26.7204" ry="26.7204" stroke="black" stroke-linecap="round" stroke-linejoin="round"/>
<ellipse cx="37.3123" cy="37.6876" rx="36.3123" ry="36.3123" stroke="black" stroke-linecap="round" stroke-linejoin="round" stroke-dasharray="4 4"/>
<path d="M10.592 37.0023C11.5056 36.5456 13.7437 36.1802 15.388 38.3726C17.4434 41.1132 27.7205 50.0201 36.6273 45.9092C37.3124 44.9957 37.4495 43.0316 32.5165 42.4835C26.3502 41.7984 24.2948 36.3173 29.0908 32.8916C33.8867 29.4659 48.2746 19.874 38.6827 11.6523M61.9774 32.8916C60.6071 32.4348 57.3185 33.4397 55.126 41.1133C52.3855 50.7052 46.9044 48.6498 46.2192 51.3903C45.5341 54.1309 42.1084 55.5012 43.4787 63.0377M59.2368 15.7631L53.7557 26.7254L51.0152 23.9848L54.4409 10.9672L49.6449 6.17121C48.7314 3.88742 48.2746 -0.269087 53.7557 1.37525L58.5517 6.85646L71.5693 2.74563L74.3099 5.48618L64.0328 11.6523L68.8288 17.8187L72.9396 17.1335L74.995 19.1889L68.8288 21.2444L66.7734 26.7254L64.0328 25.3552L65.4031 21.2444L59.2368 15.7631Z" stroke="black"/>
</svg>
