<svg width="21" height="20" viewBox="0 0 21 20" fill="none" xmlns="http://www.w3.org/2000/svg">
<path fill-rule="evenodd" clip-rule="evenodd" d="M7.5695 19.9934C3.40278 19.9934 -0.00634766 16.5662 -0.00634766 12.3815C-0.00634766 8.17866 3.40278 4.76953 7.5695 4.76953C11.7543 4.76953 15.1634 8.17866 15.1634 12.3815C15.1634 16.5662 11.7543 19.9934 7.5695 19.9934ZM7.5695 5.31066C3.69139 5.31066 0.534784 8.48531 0.534784 12.3815C0.534784 16.2776 3.69139 19.4522 7.5695 19.4522C11.4656 19.4522 14.6223 16.2776 14.6223 12.3815C14.6223 8.48531 11.4656 5.31066 7.5695 5.31066Z" fill="#5E36EF"/>
<path d="M14.4595 15.4296C14.3332 15.4296 14.225 15.3394 14.1889 15.2132C14.1709 15.0689 14.2611 14.9246 14.4054 14.9065C17.7604 14.2932 20.1774 11.3531 20.1774 7.94395C20.1774 4.0478 17.0208 0.873163 13.1427 0.873163C9.24657 0.873163 6.08996 4.0478 6.08996 7.94395C6.08996 9.62146 6.68521 11.2629 7.78551 12.5436C7.8757 12.6518 7.85766 12.8141 7.74943 12.9224C7.64121 13.0126 7.46083 12.9945 7.37065 12.8863C6.19819 11.5154 5.54883 9.74773 5.54883 7.94395C5.54883 3.74116 8.95797 0.332031 13.1427 0.332031C17.3094 0.332031 20.7186 3.74116 20.7186 7.94395C20.7186 11.6237 18.1031 14.7622 14.5136 15.4296C14.4895 15.4296 14.4715 15.4296 14.4595 15.4296Z" fill="#5E36EF"/>
<path fill-rule="evenodd" clip-rule="evenodd" d="M8.74182 14.5276C8.27284 14.5276 7.89404 14.1488 7.89404 13.6798C7.89404 13.2108 8.27284 12.832 8.74182 12.832C9.19276 12.832 9.57156 13.2108 9.57156 13.6798C9.57156 14.1488 9.19276 14.5276 8.74182 14.5276ZM8.74182 13.3732C8.56144 13.3732 8.43517 13.5175 8.43517 13.6798C8.43517 13.8602 8.56144 13.9864 8.74182 13.9864C8.90416 13.9864 9.03043 13.8602 9.03043 13.6798C9.03043 13.5175 8.90416 13.3732 8.74182 13.3732Z" fill="#5E36EF"/>
</svg>
