<svg width="27" height="27" viewBox="0 0 27 27" fill="none" xmlns="http://www.w3.org/2000/svg">
<path d="M18.2598 17.3363L17.6018 18.0289C17.6018 18.0289 16.0381 19.6753 11.7697 15.1814C7.50144 10.6877 9.06517 9.04136 9.06517 9.04136L9.47947 8.60519C10.5001 7.53071 10.5963 5.80565 9.70584 4.54629L7.88442 1.97013C6.78234 0.411417 4.65277 0.205511 3.38958 1.5354L1.12238 3.92234C0.496043 4.58176 0.0763165 5.43657 0.127219 6.38483C0.257435 8.81081 1.29407 14.0304 7.07857 20.1204C13.2127 26.5786 18.9684 26.8352 21.3222 26.603C22.0666 26.5294 22.714 26.128 23.2358 25.5787L25.2877 23.4184C26.6728 21.9602 26.2822 19.4603 24.51 18.4403L21.7504 16.8518C20.5868 16.182 19.1692 16.3787 18.2598 17.3363Z" fill="#5E36EF"/>
</svg>
