<svg width="26" height="27" viewBox="0 0 26 27" fill="none" xmlns="http://www.w3.org/2000/svg">
<path d="M9.6136 8.79298L7.39192 11.0151C8.77221 14.7109 13.1321 17.9541 15.1395 19.1137L17.3323 16.9501C18.3848 16.0847 19.4471 16.5895 19.8467 16.9501L22.7704 19.7862C23.7294 20.3241 23.5209 21.6086 23.2967 22.1836C22.8679 22.6319 21.8231 23.7157 21.0747 24.4641C20.3262 25.2126 18.9696 25.4777 18.3848 25.5167C14.4378 25.0489 8.64877 21.1895 6.7191 19.1137C4.78943 17.0378 2.56741 13.4416 1.28096 10.4009C0.251804 7.9684 0.969535 6.24924 1.45705 5.69373L3.41571 3.85168C4.49165 2.63541 5.50123 2.77966 5.87153 3.00381C6.63171 3.68605 8.3918 5.3195 9.35078 6.39543C10.3098 7.47137 9.92557 8.4421 9.6136 8.79298Z" stroke="white"/>
<path d="M13.6533 6.34375C15.4321 6.69949 19.1637 8.43903 19.8604 12.5513" stroke="white" stroke-width="1.5"/>
<path d="M13.625 1.42871C15.4037 1.78445 22.3603 3.28283 24.7755 12.2987" stroke="white" stroke-width="1.5"/>
</svg>
