<svg width="24" height="25" viewBox="0 0 24 25" fill="none" xmlns="http://www.w3.org/2000/svg">
<path d="M21.9448 17.1506V20.1506C21.9459 20.4291 21.8888 20.7047 21.7773 20.9599C21.6657 21.2151 21.5021 21.4442 21.2968 21.6324C21.0916 21.8207 20.8493 21.964 20.5855 22.0533C20.3217 22.1425 20.0421 22.1756 19.7648 22.1506C16.6876 21.8162 13.7318 20.7647 11.1348 19.0806C8.71859 17.5452 6.67009 15.4967 5.13476 13.0806C3.44474 10.4718 2.393 7.50156 2.06476 4.41057C2.03977 4.13403 2.07263 3.85533 2.16126 3.59219C2.24988 3.32905 2.39233 3.08725 2.57952 2.88219C2.76672 2.67712 2.99456 2.51328 3.24855 2.40109C3.50253 2.2889 3.7771 2.23083 4.05476 2.23057H7.05476C7.54006 2.22579 8.01055 2.39764 8.37852 2.7141C8.74649 3.03055 8.98683 3.47001 9.05476 3.95057C9.18138 4.91063 9.41621 5.85329 9.75476 6.76057C9.8893 7.11849 9.91842 7.50748 9.83866 7.88145C9.75891 8.25541 9.57362 8.59868 9.30476 8.87057L8.03476 10.1406C9.45831 12.6441 11.5312 14.717 14.0348 16.1406L15.3048 14.8706C15.5766 14.6017 15.9199 14.4164 16.2939 14.3367C16.6678 14.2569 17.0568 14.286 17.4148 14.4206C18.322 14.7591 19.2647 14.9939 20.2248 15.1206C20.7105 15.1891 21.1542 15.4338 21.4713 15.8081C21.7884 16.1823 21.9569 16.6601 21.9448 17.1506Z" stroke="#050704" stroke-width="2" stroke-linecap="round" stroke-linejoin="round"/>
</svg>
