<svg width="15" height="17" viewBox="0 0 15 17" fill="none" xmlns="http://www.w3.org/2000/svg">
<path d="M7.11485 0.953323C7.02189 0.986526 6.90567 1.03965 6.85919 1.06953C6.78614 1.11602 5.83985 1.93282 5.57091 2.17852L5.48126 2.26153L4.73419 2.1918C3.7713 2.10215 3.53556 2.10215 3.29982 2.1918C3.06407 2.27813 2.78185 2.53711 2.67228 2.76289C2.62247 2.8625 2.50958 3.28418 2.40001 3.76563C2.2838 4.27363 2.19083 4.61563 2.15763 4.65215C2.12775 4.68203 1.78243 4.89453 1.39064 5.12696C0.998839 5.35606 0.620324 5.60176 0.550597 5.66817C0.281652 5.92715 0.138878 6.41192 0.225207 6.75723C0.248449 6.84024 0.414464 7.25527 0.593761 7.67695C0.776378 8.09863 0.925792 8.46719 0.925792 8.49707C0.925792 8.52695 0.776378 8.89551 0.593761 9.31719C0.414464 9.73887 0.248449 10.1539 0.225207 10.2369C0.138878 10.5855 0.288292 11.0869 0.553917 11.326C0.623644 11.3891 1.00216 11.6314 1.39396 11.8672C1.78575 12.0996 2.12775 12.3154 2.15763 12.3453C2.19083 12.3785 2.28712 12.7371 2.40333 13.2451C2.50626 13.71 2.62911 14.1582 2.66896 14.2412C2.76857 14.4371 2.98771 14.6563 3.18692 14.7559C3.34962 14.8389 3.67501 14.9086 3.81446 14.8854C3.86095 14.8787 4.25275 14.8422 4.68439 14.8023L5.4713 14.7326L6.14532 15.3203C6.96212 16.0342 7.04845 16.084 7.50001 16.084C7.95489 16.084 8.04454 16.0342 8.86134 15.3203L9.53204 14.7326L10.319 14.8023C10.7506 14.8422 11.1391 14.8787 11.1856 14.8854C11.325 14.9086 11.6504 14.8389 11.8131 14.7559C12.0024 14.6629 12.2281 14.4404 12.3244 14.2611C12.3609 14.1848 12.4871 13.7299 12.5967 13.2451L12.7992 12.3652L13.543 11.9137C13.9514 11.668 14.3498 11.409 14.4295 11.3393C14.5125 11.2662 14.6121 11.1301 14.6785 10.9939C14.7781 10.7947 14.7881 10.7449 14.7881 10.4893V10.207L14.4295 9.37695C14.2336 8.91875 14.0742 8.52363 14.0742 8.49375C14.0742 8.46719 14.2236 8.09863 14.4063 7.67695C14.5856 7.25527 14.7516 6.84024 14.7748 6.75723C14.8279 6.54805 14.7914 6.23926 14.6918 6.02344C14.5524 5.71797 14.4129 5.59844 13.626 5.13692C13.2242 4.89785 12.8723 4.67871 12.8424 4.64883C12.8092 4.61563 12.7195 4.29356 12.6133 3.81543C12.3875 2.80606 12.3543 2.71973 12.102 2.46739C11.7301 2.09883 11.5608 2.07227 10.2725 2.1918L9.52872 2.26153L8.8547 1.67051C8.07443 0.989846 7.95489 0.92012 7.54982 0.903519C7.35392 0.893558 7.24103 0.906838 7.11485 0.953323ZM10.568 6.24922C10.6377 6.28906 10.724 6.37539 10.7572 6.43848C10.8369 6.58789 10.8369 6.82363 10.7606 6.95313C10.6543 7.12578 7.14142 10.7018 7.01193 10.7648C6.9256 10.8113 6.84591 10.8246 6.73302 10.8146C6.59025 10.798 6.47403 10.725 5.43146 9.98125C4.1963 9.10137 4.1797 9.08477 4.1797 8.78594C4.1797 8.59336 4.28595 8.43731 4.48517 8.3377C4.75743 8.20156 4.8006 8.22149 5.81661 8.94863L6.71642 9.5961L6.84591 9.46992C6.91564 9.4002 7.6461 8.65313 8.47286 7.80977C9.2963 6.96641 10.0168 6.25254 10.0699 6.22598C10.2193 6.15293 10.4186 6.16289 10.568 6.24922Z" fill="#E17B63"/>
</svg>
