<svg width="125" height="33" viewBox="0 0 125 33" fill="none" xmlns="http://www.w3.org/2000/svg">
<path d="M41.3664 16.2735C42.5364 16.6875 43.1214 17.6415 43.1214 19.1355V22.2675C43.1214 24.6435 42.0054 25.8315 39.7734 25.8315H32.8344V8.36254H39.5574C41.7894 8.36254 42.9054 9.55054 42.9054 11.9265V13.5195C42.9054 14.9595 42.3924 15.8775 41.3664 16.2735ZM38.6124 10.9275H36.6144V15.5985H38.6124C38.7564 15.5985 38.8734 15.5445 38.9634 15.4365C39.0714 15.3285 39.1254 15.2025 39.1254 15.0585V11.4675C39.1254 11.3235 39.0714 11.1975 38.9634 11.0895C38.8734 10.9815 38.7564 10.9275 38.6124 10.9275ZM39.3414 22.6995V18.7845C39.3414 18.6405 39.2874 18.5145 39.1794 18.4065C39.0894 18.2985 38.9724 18.2445 38.8284 18.2445H36.6144V23.2395H38.8284C38.9724 23.2395 39.0894 23.1855 39.1794 23.0775C39.2874 22.9695 39.3414 22.8435 39.3414 22.6995ZM49.4816 22.6455H53.6126V25.8315H45.7016V8.36254H49.4816V22.6455ZM65.6917 11.6565V22.5375C65.6917 24.9135 64.5757 26.1015 62.3437 26.1015H58.7527C56.5207 26.1015 55.4047 24.9135 55.4047 22.5375V11.6565C55.4047 9.28054 56.5207 8.09254 58.7527 8.09254H62.3437C64.5757 8.09254 65.6917 9.28054 65.6917 11.6565ZM61.9117 22.9695V11.1975C61.9117 11.0535 61.8577 10.9275 61.7497 10.8195C61.6597 10.7115 61.5427 10.6575 61.3987 10.6575H59.6977C59.5537 10.6575 59.4277 10.7115 59.3197 10.8195C59.2297 10.9275 59.1847 11.0535 59.1847 11.1975V22.9695C59.1847 23.1135 59.2297 23.2395 59.3197 23.3475C59.4277 23.4555 59.5537 23.5095 59.6977 23.5095H61.3987C61.5427 23.5095 61.6597 23.4555 61.7497 23.3475C61.8577 23.2395 61.9117 23.1135 61.9117 22.9695ZM78.1758 12.9525H74.5848V11.5755C74.5848 11.4315 74.5308 11.3055 74.4228 11.1975C74.3328 11.0895 74.2158 11.0355 74.0718 11.0355H72.5868C72.4428 11.0355 72.3168 11.0895 72.2088 11.1975C72.1188 11.3055 72.0738 11.4315 72.0738 11.5755V14.6805C72.0738 14.8245 72.1188 14.9505 72.2088 15.0585C72.3168 15.1665 72.4428 15.2205 72.5868 15.2205H75.0168C77.2488 15.2565 78.3648 16.4445 78.3648 18.7845V22.5375C78.3648 24.9135 77.2488 26.1015 75.0168 26.1015H71.8308C69.5988 26.1015 68.4828 24.9135 68.4828 22.5375V20.7285H72.0738V22.6725C72.0738 22.8165 72.1188 22.9425 72.2088 23.0505C72.3168 23.1585 72.4428 23.2125 72.5868 23.2125H74.2608C74.4048 23.2125 74.5218 23.1585 74.6118 23.0505C74.7198 22.9425 74.7738 22.8165 74.7738 22.6725V19.2435C74.7738 19.0995 74.7198 18.9735 74.6118 18.8655C74.5218 18.7575 74.4048 18.7035 74.2608 18.7035H71.8308C69.5988 18.7035 68.4828 17.5155 68.4828 15.1395V11.6565C68.4828 9.28054 69.5988 8.09254 71.8308 8.09254H74.8278C77.0598 8.09254 78.1758 9.28054 78.1758 11.6565V12.9525ZM90.542 12.9525H86.951V11.5755C86.951 11.4315 86.897 11.3055 86.789 11.1975C86.699 11.0895 86.582 11.0355 86.438 11.0355H84.953C84.809 11.0355 84.683 11.0895 84.575 11.1975C84.485 11.3055 84.44 11.4315 84.44 11.5755V14.6805C84.44 14.8245 84.485 14.9505 84.575 15.0585C84.683 15.1665 84.809 15.2205 84.953 15.2205H87.383C89.615 15.2565 90.731 16.4445 90.731 18.7845V22.5375C90.731 24.9135 89.615 26.1015 87.383 26.1015H84.197C81.965 26.1015 80.849 24.9135 80.849 22.5375V20.7285H84.44V22.6725C84.44 22.8165 84.485 22.9425 84.575 23.0505C84.683 23.1585 84.809 23.2125 84.953 23.2125H86.627C86.771 23.2125 86.888 23.1585 86.978 23.0505C87.086 22.9425 87.14 22.8165 87.14 22.6725V19.2435C87.14 19.0995 87.086 18.9735 86.978 18.8655C86.888 18.7575 86.771 18.7035 86.627 18.7035H84.197C81.965 18.7035 80.849 17.5155 80.849 15.1395V11.6565C80.849 9.28054 81.965 8.09254 84.197 8.09254H87.194C89.426 8.09254 90.542 9.28054 90.542 11.6565V12.9525ZM103.502 11.6565V22.5375C103.502 24.9135 102.386 26.1015 100.154 26.1015H96.5632C94.3312 26.1015 93.2152 24.9135 93.2152 22.5375V11.6565C93.2152 9.28054 94.3312 8.09254 96.5632 8.09254H100.154C102.386 8.09254 103.502 9.28054 103.502 11.6565ZM99.7222 22.9695V11.1975C99.7222 11.0535 99.6682 10.9275 99.5602 10.8195C99.4702 10.7115 99.3532 10.6575 99.2092 10.6575H97.5082C97.3642 10.6575 97.2382 10.7115 97.1302 10.8195C97.0402 10.9275 96.9952 11.0535 96.9952 11.1975V22.9695C96.9952 23.1135 97.0402 23.2395 97.1302 23.3475C97.2382 23.4555 97.3642 23.5095 97.5082 23.5095H99.2092C99.3532 23.5095 99.4702 23.4555 99.5602 23.3475C99.6682 23.2395 99.7222 23.1135 99.7222 22.9695ZM110.046 25.8315H106.266V11.6565C106.266 9.28054 107.382 8.09254 109.614 8.09254H111.612C112.926 8.09254 113.862 8.52454 114.42 9.38854C114.942 8.52454 115.878 8.09254 117.228 8.09254H119.226C121.458 8.09254 122.574 9.28054 122.574 11.6565V25.8315H118.794V11.3325C118.794 11.1885 118.74 11.0625 118.632 10.9545C118.542 10.8465 118.425 10.7925 118.281 10.7925H116.823C116.679 10.7925 116.553 10.8465 116.445 10.9545C116.355 11.0625 116.31 11.1885 116.31 11.3325V25.8315H112.53V11.3325C112.53 11.1885 112.476 11.0625 112.368 10.9545C112.278 10.8465 112.161 10.7925 112.017 10.7925H110.559C110.415 10.7925 110.289 10.8465 110.181 10.9545C110.091 11.0625 110.046 11.1885 110.046 11.3325V25.8315Z" fill="#615C73"/>
<path d="M7.82041 16.9436L14.1134 21.0313V27.968M14.1134 27.968L7.82041 24.128V9.63531L1.64844 5.79536M14.1134 27.968L20.6484 24.128V16.9436L14.1134 12.9798V5.79536L7.82041 1.83154L1.64844 5.79536M14.1134 27.968L7.82041 31.684L1.64844 28.2157V5.79536" stroke="#5E36EF" stroke-width="2" stroke-linejoin="round"/>
</svg>
