<svg width="103" height="20" viewBox="0 0 103 20" fill="none" xmlns="http://www.w3.org/2000/svg">
<path d="M9.39781 0.339844L11.5077 6.83357H18.3357L12.8118 10.8469L14.9217 17.3406L9.39781 13.3273L3.87392 17.3406L5.98386 10.8469L0.459962 6.83357H7.28787L9.39781 0.339844Z" fill="white"/>
<path d="M30.4486 0.339844L32.5585 6.83357H39.3864L33.8625 10.8469L35.9725 17.3406L30.4486 13.3273L24.9247 17.3406L27.0346 10.8469L21.5107 6.83357H28.3387L30.4486 0.339844Z" fill="white"/>
<path d="M51.4994 0.339844L53.6093 6.83357H60.4372L54.9133 10.8469L57.0233 17.3406L51.4994 13.3273L45.9755 17.3406L48.0854 10.8469L42.5615 6.83357H49.3894L51.4994 0.339844Z" fill="white"/>
<path d="M72.5502 0.339844L74.6601 6.83357H81.488L75.9641 10.8469L78.074 17.3406L72.5502 13.3273L67.0263 17.3406L69.1362 10.8469L63.6123 6.83357H70.4402L72.5502 0.339844Z" fill="white"/>
<path d="M93.6029 0.339844L95.7128 6.83357H102.541L97.0168 10.8469L99.1268 17.3406L93.6029 13.3273L88.079 17.3406L90.1889 10.8469L84.665 6.83357H91.4929L93.6029 0.339844Z" fill="white"/>
</svg>
