<svg width="73" height="72" viewBox="0 0 73 72" fill="none" xmlns="http://www.w3.org/2000/svg">
<path d="M36.4629 25.2559L30.8074 0.401367V25.2559L15.7759 5.31274L28.2775 27.7859L4.91135 17.219L25.5986 32.6973H0L25.5986 37.1621L4.91135 48.3243L25.5986 42.2223C21.8778 47.977 14.3173 59.7246 13.8411 60.6771C13.3648 61.6296 23.763 51.3505 29.0216 46.0919L25.5986 70.2021L34.5283 47.5801L40.7791 71.9881L39.4397 46.0919L56.1085 65.8861L43.3092 43.4129L66.5265 53.831L45.9881 39.3946H72.3308L47.3274 34.1855L70.6936 22.7257L45.3927 29.5718L61.4662 9.33112L42.4161 26.2976L47.3274 0.401367L36.4629 25.2559Z" fill="#5E36EF"/>
</svg>
