<svg width="96" height="20" viewBox="0 0 96 20" fill="none" xmlns="http://www.w3.org/2000/svg">
<path d="M2.09259 12.9858V2.48779L0.266418 1.7749L0.432434 0.983887H5.02228C6.29181 0.983887 7.4116 1.05225 8.38165 1.18896C9.3517 1.32568 10.1883 1.60889 10.8914 2.03857C11.8615 2.63102 12.5646 3.41227 13.0008 4.38232C13.437 5.34587 13.6551 6.43636 13.6551 7.65381C13.6551 8.67594 13.5216 9.59391 13.2547 10.4077C12.9878 11.2215 12.5874 11.9116 12.0535 12.478C11.5392 13.0249 10.9142 13.4481 10.1785 13.7476C9.44285 14.0405 8.64858 14.2391 7.79572 14.3433C6.94285 14.4474 5.97605 14.4995 4.89532 14.4995H0.207825L0.37384 13.6792L2.09259 12.9858ZM5.05157 13.5327C6.30157 13.3504 7.32371 13.0575 8.11798 12.6538C8.91225 12.2437 9.51447 11.6414 9.92462 10.8472C10.3413 10.0529 10.5496 9.00146 10.5496 7.69287C10.5496 5.64209 9.87254 4.11865 8.51837 3.12256C8.12775 2.8361 7.62319 2.5887 7.0047 2.38037C6.38621 2.16553 5.73517 2.01253 5.05157 1.92139V13.5327ZM15.032 10.0757C15.032 9.19027 15.2371 8.35693 15.6473 7.57568C16.0574 6.79443 16.6271 6.16618 17.3563 5.69092C18.0919 5.21566 18.922 4.97803 19.8465 4.97803C20.7384 4.97803 21.5392 5.1473 22.2488 5.48584C22.965 5.82438 23.5314 6.34521 23.9481 7.04834C24.3712 7.74495 24.5828 8.6141 24.5828 9.65576C24.5828 10.5412 24.3745 11.3745 23.9578 12.1558C23.5477 12.937 22.978 13.5653 22.2488 14.0405C21.5197 14.5093 20.7059 14.7437 19.8074 14.7437C18.9025 14.7437 18.0887 14.5776 17.366 14.2456C16.6499 13.9071 16.0802 13.3895 15.657 12.6929C15.2404 11.9963 15.032 11.1239 15.032 10.0757ZM20.4617 13.3667C20.6896 13.3667 20.8947 13.3374 21.077 13.2788C21.2593 13.2137 21.396 13.1291 21.4871 13.0249C21.6108 12.8621 21.7052 12.5627 21.7703 12.1265C21.8419 11.6903 21.8777 11.2508 21.8777 10.8081C21.8777 9.90967 21.7606 9.12516 21.5262 8.45459C21.2918 7.77751 20.9663 7.25993 20.5496 6.90186C20.133 6.53727 19.6577 6.35498 19.1238 6.35498C18.6486 6.35498 18.3165 6.46891 18.1277 6.69678C18.0171 6.86605 17.9227 7.16878 17.8445 7.60498C17.7729 8.03467 17.7371 8.47412 17.7371 8.92334C17.7371 9.76318 17.8445 10.5184 18.0594 11.189C18.2742 11.8595 18.5867 12.3901 18.9969 12.7808C19.407 13.1714 19.8953 13.3667 20.4617 13.3667ZM25.6961 6.13037L25.784 5.65186L29.0848 5.07568L29.6121 6.64795C30.9988 5.54118 32.2391 4.98779 33.3328 4.98779C34.1271 4.98779 34.7912 5.24821 35.325 5.76904C35.8589 6.28337 36.1258 7.17529 36.1258 8.44482V13.1812L37.6785 13.8159L37.5125 14.4995H32.3758L32.5125 13.7671L33.3719 13.103V9.10889C33.3719 8.51644 33.3165 8.02816 33.2059 7.64404C33.0952 7.25342 32.9617 6.98975 32.8055 6.85303C32.7013 6.76839 32.5809 6.72607 32.4442 6.72607C32.1121 6.72607 31.6629 6.7749 31.0965 6.87256C30.5366 6.9637 30.1004 7.06136 29.7879 7.16553C29.7944 7.19808 29.8074 7.26644 29.827 7.37061C29.8465 7.47477 29.8563 7.57894 29.8563 7.68311V13.1812L31.2332 13.8452L31.0867 14.4995H25.6277L25.7742 13.7378L27.1024 13.0835V6.97998L25.6961 6.13037ZM42.8543 4.97803C43.603 4.97803 44.254 5.12451 44.8074 5.41748C45.3673 5.71045 45.797 6.10758 46.0965 6.60889C46.396 7.11019 46.5457 7.67334 46.5457 8.29834C46.5457 8.81266 46.4643 9.26839 46.3016 9.66553C46.256 9.7762 46.1876 9.86084 46.0965 9.91943C46.0119 9.97152 45.8914 9.99756 45.7352 9.99756H40.5984C40.6701 10.5379 40.8296 11.049 41.077 11.5308C41.3244 12.0125 41.6336 12.3999 42.0047 12.6929C42.3758 12.9858 42.7762 13.1323 43.2059 13.1323C43.5965 13.1323 44.1011 13.077 44.7195 12.9663C45.3445 12.8491 45.7645 12.7547 45.9793 12.6831L46.1551 13.0151C45.758 13.5164 45.2111 13.9299 44.5145 14.2554C43.8179 14.5809 43.0984 14.7437 42.3563 14.7437C41.575 14.7437 40.8458 14.5776 40.1688 14.2456C39.4917 13.9071 38.9415 13.383 38.5184 12.6733C38.1017 11.9637 37.8934 11.075 37.8934 10.0073C37.8934 9.10889 38.0984 8.27555 38.5086 7.50732C38.9188 6.7391 39.4982 6.12712 40.2469 5.67139C41.0021 5.20915 41.8712 4.97803 42.8543 4.97803ZM44.1824 8.75732C44.1434 8.23649 44.0132 7.79053 43.7918 7.41943C43.577 7.04834 43.3003 6.76839 42.9617 6.57959C42.6297 6.39079 42.2619 6.29639 41.8582 6.29639C41.6955 6.29639 41.5555 6.30941 41.4383 6.33545C41.3276 6.36149 41.2365 6.41683 41.1649 6.50146C41.0021 6.72282 40.8621 7.06136 40.7449 7.51709C40.6343 7.96631 40.5724 8.52295 40.5594 9.18701L44.1824 8.75732ZM47.4442 1.16943L47.532 0.710449L51.6043 0.124512V13.1812L53.0301 13.8354L52.8738 14.4995H47.3953L47.532 13.7573L48.8504 13.1226V2.02881L47.4442 1.16943ZM64.6219 5.22217L64.4852 5.92529L63.3231 6.48193L60.8621 12.9175C60.3413 14.2716 59.8888 15.3654 59.5047 16.1987C59.1206 17.0321 58.7332 17.7026 58.3426 18.2104C57.9585 18.7183 57.5451 19.0568 57.1024 19.2261C56.8094 19.3302 56.4839 19.3823 56.1258 19.3823C55.7287 19.3823 55.3152 19.3172 54.8856 19.187C54.4624 19.0568 54.1108 18.881 53.8309 18.6597C53.5509 18.4383 53.4109 18.1974 53.4109 17.937C53.4109 17.7677 53.5119 17.5464 53.7137 17.2729C53.922 16.9995 54.1596 16.7554 54.4266 16.5405C54.6935 16.3322 54.9149 16.228 55.0906 16.228C55.2339 16.228 55.4096 16.2866 55.618 16.4038C55.8263 16.521 55.9923 16.6479 56.116 16.7847L56.4774 18.5718C56.6141 18.4937 56.8224 18.2463 57.1024 17.8296C57.3823 17.4194 57.6785 16.9214 57.991 16.3354C58.3035 15.756 58.577 15.1961 58.8113 14.6558L57.7078 14.7925L54.4168 6.47217L53.0399 5.896L53.157 5.22217H58.5086L58.3621 5.92529L57.3367 6.43311L59.534 12.478L61.4969 6.45264L60.3543 5.8667L60.4715 5.22217H64.6219ZM69.866 4.97803C70.6147 4.97803 71.2658 5.12451 71.8192 5.41748C72.379 5.71045 72.8087 6.10758 73.1082 6.60889C73.4077 7.11019 73.5574 7.67334 73.5574 8.29834C73.5574 8.81266 73.4761 9.26839 73.3133 9.66553C73.2677 9.7762 73.1994 9.86084 73.1082 9.91943C73.0236 9.97152 72.9031 9.99756 72.7469 9.99756H67.6102C67.6818 10.5379 67.8413 11.049 68.0887 11.5308C68.3361 12.0125 68.6453 12.3999 69.0164 12.6929C69.3875 12.9858 69.7879 13.1323 70.2176 13.1323C70.6082 13.1323 71.1128 13.077 71.7313 12.9663C72.3563 12.8491 72.7762 12.7547 72.991 12.6831L73.1668 13.0151C72.7697 13.5164 72.2228 13.9299 71.5262 14.2554C70.8296 14.5809 70.1102 14.7437 69.368 14.7437C68.5867 14.7437 67.8576 14.5776 67.1805 14.2456C66.5034 13.9071 65.9533 13.383 65.5301 12.6733C65.1134 11.9637 64.9051 11.075 64.9051 10.0073C64.9051 9.10889 65.1102 8.27555 65.5203 7.50732C65.9305 6.7391 66.5099 6.12712 67.2586 5.67139C68.0138 5.20915 68.883 4.97803 69.866 4.97803ZM71.1942 8.75732C71.1551 8.23649 71.0249 7.79053 70.8035 7.41943C70.5887 7.04834 70.312 6.76839 69.9734 6.57959C69.6414 6.39079 69.2736 6.29639 68.8699 6.29639C68.7072 6.29639 68.5672 6.30941 68.45 6.33545C68.3393 6.36149 68.2482 6.41683 68.1766 6.50146C68.0138 6.72282 67.8738 7.06136 67.7567 7.51709C67.646 7.96631 67.5841 8.52295 67.5711 9.18701L71.1942 8.75732ZM84.0457 12.5854C84.1889 12.8394 84.4331 13.0542 84.7781 13.23C85.1232 13.3993 85.4422 13.5164 85.7352 13.5815L85.6082 14.1772C85.3804 14.2814 84.9865 14.4019 84.4266 14.5386C83.8732 14.6753 83.4077 14.7437 83.0301 14.7437C82.8218 14.4051 82.6069 14.1121 82.3856 13.8647C82.1707 13.6108 81.9298 13.3927 81.6629 13.2104C81.2853 13.6727 80.8328 14.0438 80.3055 14.3237C79.7781 14.6037 79.202 14.7437 78.577 14.7437C77.8999 14.7437 77.2716 14.5874 76.6922 14.2749C76.1128 13.9624 75.6408 13.4676 75.2762 12.7905C74.9181 12.1134 74.7391 11.2573 74.7391 10.2222C74.7391 9.27165 74.9116 8.39925 75.2567 7.60498C75.6017 6.8042 76.0965 6.16618 76.741 5.69092C77.3856 5.21566 78.1343 4.97803 78.9871 4.97803C79.7619 4.97803 80.5301 5.29053 81.2918 5.91553V2.02881L79.8758 1.15967L79.9637 0.710449L84.0457 0.124512V12.5854ZM78.6551 12.644C78.7788 12.7938 78.9188 12.9142 79.075 13.0054C79.2313 13.0965 79.3875 13.1421 79.5438 13.1421C79.8237 13.1421 80.133 13.1095 80.4715 13.0444C80.81 12.9793 81.0835 12.8979 81.2918 12.8003V7.33154C81.0314 7.07764 80.6961 6.88232 80.2859 6.74561C79.8823 6.60238 79.4689 6.53076 79.0457 6.53076C78.7593 6.53076 78.5249 6.56331 78.3426 6.62842C78.1603 6.69352 78.0203 6.82699 77.9227 7.02881C77.6492 7.56917 77.5125 8.32113 77.5125 9.28467C77.5125 9.98779 77.6134 10.6258 77.8152 11.1987C78.0236 11.7716 78.3035 12.2534 78.6551 12.644ZM91.3699 4.97803C92.1186 4.97803 92.7697 5.12451 93.3231 5.41748C93.883 5.71045 94.3126 6.10758 94.6121 6.60889C94.9116 7.11019 95.0613 7.67334 95.0613 8.29834C95.0613 8.81266 94.98 9.26839 94.8172 9.66553C94.7716 9.7762 94.7033 9.86084 94.6121 9.91943C94.5275 9.97152 94.407 9.99756 94.2508 9.99756H89.1141C89.1857 10.5379 89.3452 11.049 89.5926 11.5308C89.84 12.0125 90.1492 12.3999 90.5203 12.6929C90.8914 12.9858 91.2918 13.1323 91.7215 13.1323C92.1121 13.1323 92.6167 13.077 93.2352 12.9663C93.8602 12.8491 94.2801 12.7547 94.4949 12.6831L94.6707 13.0151C94.2736 13.5164 93.7267 13.9299 93.0301 14.2554C92.3335 14.5809 91.6141 14.7437 90.8719 14.7437C90.0906 14.7437 89.3615 14.5776 88.6844 14.2456C88.0073 13.9071 87.4572 13.383 87.034 12.6733C86.6173 11.9637 86.409 11.075 86.409 10.0073C86.409 9.10889 86.6141 8.27555 87.0242 7.50732C87.4344 6.7391 88.0138 6.12712 88.7625 5.67139C89.5177 5.20915 90.3869 4.97803 91.3699 4.97803ZM92.6981 8.75732C92.659 8.23649 92.5288 7.79053 92.3074 7.41943C92.0926 7.04834 91.8159 6.76839 91.4774 6.57959C91.1453 6.39079 90.7775 6.29639 90.3738 6.29639C90.2111 6.29639 90.0711 6.30941 89.9539 6.33545C89.8432 6.36149 89.7521 6.41683 89.6805 6.50146C89.5177 6.72282 89.3777 7.06136 89.2606 7.51709C89.1499 7.96631 89.088 8.52295 89.075 9.18701L92.6981 8.75732Z" fill="#615C73"/>
</svg>
