<svg width="102" height="16" viewBox="0 0 102 16" fill="none" xmlns="http://www.w3.org/2000/svg">
<path d="M8.90812 9.7658H5.28812V14.6858H7.76812V15.4458H0.108118V14.6858H0.988118V3.5058H0.108118V2.7458H10.0281V7.0258H7.68812L6.86812 3.9458H5.28812V8.6658H8.90812V9.7658ZM11.3261 4.4458H13.7461L14.1461 5.9658H14.3061C14.5328 5.25913 14.8328 4.77913 15.2061 4.5258C15.5928 4.27247 16.0594 4.1458 16.6061 4.1458C16.9928 4.1458 17.4128 4.1858 17.8661 4.2658L17.4461 7.5658H14.6061V8.6258C14.6061 8.87913 14.6661 9.03247 14.7861 9.0858C14.9061 9.1258 15.0461 9.1458 15.2061 9.1458H15.9261V14.6858H17.5461V15.4458H11.3261V14.6858H12.1261V5.2058H11.3261V4.4458ZM21.9586 3.4658C21.3586 3.4658 20.8986 3.43247 20.5786 3.3658C20.2586 3.29913 20.0386 3.1458 19.9186 2.9058C19.7986 2.6658 19.7386 2.29913 19.7386 1.8058C19.7386 1.29913 19.7986 0.932467 19.9186 0.7058C20.0386 0.4658 20.2586 0.312466 20.5786 0.2458C20.8986 0.179133 21.3586 0.1458 21.9586 0.1458C22.4919 0.1458 22.8986 0.179133 23.1786 0.2458C23.4586 0.312466 23.6519 0.4658 23.7586 0.7058C23.8653 0.932467 23.9186 1.29913 23.9186 1.8058C23.9186 2.29913 23.8653 2.6658 23.7586 2.9058C23.6519 3.1458 23.4586 3.29913 23.1786 3.3658C22.8986 3.43247 22.4919 3.4658 21.9586 3.4658ZM24.5386 15.4458H19.1386V14.6858H19.9386V5.2058H19.1386V4.4458H23.7386V14.6858H24.5386V15.4458ZM26.148 4.4458H27.148L29.308 2.0858H30.748V4.4458H32.848V5.4058H30.748V14.4458H31.888V12.4658H32.848V13.9258C32.848 14.6858 32.588 15.1791 32.068 15.4058C31.548 15.6325 30.8546 15.7458 29.988 15.7458C29.6546 15.7458 29.308 15.7258 28.948 15.6858C28.588 15.6458 28.2546 15.5325 27.948 15.3458C27.6546 15.1458 27.4146 14.8191 27.228 14.3658C27.0413 13.9125 26.948 13.2725 26.948 12.4458V5.4058H26.148V4.4458ZM39.5409 15.7458C38.9943 15.7458 38.4609 15.7258 37.9409 15.6858C37.4343 15.6591 36.9609 15.5725 36.5209 15.4258C36.0943 15.2658 35.7143 15.0125 35.3809 14.6658C35.0476 14.3058 34.7876 13.8125 34.6009 13.1858C34.4276 12.5458 34.3409 11.7258 34.3409 10.7258V9.1658C34.3409 8.1658 34.4276 7.35247 34.6009 6.7258C34.7876 6.0858 35.0476 5.59247 35.3809 5.2458C35.7143 4.8858 36.0943 4.63247 36.5209 4.4858C36.9609 4.3258 37.4343 4.23247 37.9409 4.2058C38.4609 4.1658 38.9943 4.1458 39.5409 4.1458C40.2343 4.1458 40.9076 4.19913 41.5609 4.3058C42.2276 4.41247 42.8876 4.55913 43.5409 4.7458L43.0609 7.8658H40.7609L40.2209 5.4458H38.1409V14.4458H40.2209L40.7609 12.0258H43.0609L43.5409 15.1458C42.8609 15.3991 42.1943 15.5591 41.5409 15.6258C40.9009 15.7058 40.2343 15.7458 39.5409 15.7458ZM57.2747 15.4458H52.6747V6.1658H49.7347V15.4458H45.1347V14.6858H45.9347V1.6258H45.1347V0.8658H49.7347V3.5458L48.9147 3.8458C48.6747 3.93913 48.528 4.0258 48.4747 4.1058C48.4213 4.17247 48.3947 4.2858 48.3947 4.4458V6.1658H48.7547C48.9547 5.63247 49.2213 5.23913 49.5547 4.9858C49.888 4.71913 50.3013 4.5458 50.7947 4.4658C51.288 4.3858 51.868 4.3458 52.5347 4.3458C53.348 4.3458 54.048 4.43247 54.6347 4.6058C55.2213 4.77913 55.6747 5.0858 55.9947 5.5258C56.3147 5.95247 56.4747 6.55913 56.4747 7.3458V14.6858H57.2747V15.4458ZM58.8823 4.4458H59.8823L62.0423 2.0858H63.4823V4.4458H65.5823V5.4058H63.4823V14.4458H64.6223V12.4658H65.5823V13.9258C65.5823 14.6858 65.3223 15.1791 64.8023 15.4058C64.2823 15.6325 63.589 15.7458 62.7223 15.7458C62.389 15.7458 62.0423 15.7258 61.6823 15.6858C61.3223 15.6458 60.989 15.5325 60.6823 15.3458C60.389 15.1458 60.149 14.8191 59.9623 14.3658C59.7757 13.9125 59.6823 13.2725 59.6823 12.4458V5.4058H58.8823V4.4458ZM70.8753 14.2458H73.3753L73.8953 12.0258H76.0353L76.4953 15.1458C75.8286 15.3191 75.082 15.4591 74.2553 15.5658C73.442 15.6858 72.6886 15.7458 71.9953 15.7458C71.422 15.7458 70.842 15.7058 70.2553 15.6258C69.682 15.5591 69.1553 15.3991 68.6753 15.1458C68.1953 14.8925 67.8086 14.4991 67.5153 13.9658C67.222 13.4191 67.0753 12.6858 67.0753 11.7658V9.1658C67.0753 8.1658 67.1686 7.35247 67.3553 6.7258C67.5553 6.0858 67.8286 5.59247 68.1753 5.2458C68.522 4.8858 68.922 4.63247 69.3753 4.4858C69.8286 4.3258 70.322 4.23247 70.8553 4.2058C71.3886 4.1658 71.9353 4.1458 72.4953 4.1458C73.0553 4.1458 73.5886 4.1658 74.0953 4.2058C74.6153 4.2458 75.0686 4.3658 75.4553 4.5658C75.8553 4.75247 76.1686 5.07247 76.3953 5.5258C76.622 5.97913 76.7353 6.61913 76.7353 7.4458C76.7353 8.27247 76.622 8.91247 76.3953 9.3658C76.1686 9.81913 75.8553 10.1458 75.4553 10.3458C75.0686 10.5325 74.6153 10.6458 74.0953 10.6858C73.5886 10.7258 73.0553 10.7458 72.4953 10.7458H70.8753V14.2458ZM70.8753 5.6458V9.2458H73.6153V5.6458H70.8753ZM84.1308 15.7458C83.5841 15.7458 83.0508 15.7258 82.5308 15.6858C82.0241 15.6591 81.5508 15.5725 81.1108 15.4258C80.6841 15.2658 80.3041 15.0125 79.9708 14.6658C79.6374 14.3058 79.3774 13.8125 79.1908 13.1858C79.0174 12.5458 78.9308 11.7258 78.9308 10.7258V9.1658C78.9308 8.1658 79.0174 7.35247 79.1908 6.7258C79.3774 6.0858 79.6374 5.59247 79.9708 5.2458C80.3041 4.8858 80.6841 4.63247 81.1108 4.4858C81.5508 4.3258 82.0241 4.23247 82.5308 4.2058C83.0508 4.1658 83.5841 4.1458 84.1308 4.1458C84.8241 4.1458 85.4974 4.19913 86.1508 4.3058C86.8174 4.41247 87.4774 4.55913 88.1308 4.7458L87.6508 7.8658H85.3508L84.8108 5.4458H82.7308V14.4458H84.8108L85.3508 12.0258H87.6508L88.1308 15.1458C87.4508 15.3991 86.7841 15.5591 86.1308 15.6258C85.4908 15.7058 84.8241 15.7458 84.1308 15.7458ZM101.865 15.4458H97.2645V6.1658H94.3245V15.4458H89.7245V14.6858H90.5245V1.6258H89.7245V0.8658H94.3245V3.5458L93.5045 3.8458C93.2645 3.93913 93.1179 4.0258 93.0645 4.1058C93.0112 4.17247 92.9845 4.2858 92.9845 4.4458V6.1658H93.3445C93.5445 5.63247 93.8112 5.23913 94.1445 4.9858C94.4779 4.71913 94.8912 4.5458 95.3845 4.4658C95.8779 4.3858 96.4579 4.3458 97.1245 4.3458C97.9379 4.3458 98.6379 4.43247 99.2245 4.6058C99.8112 4.77913 100.265 5.0858 100.585 5.5258C100.905 5.95247 101.065 6.55913 101.065 7.3458V14.6858H101.865V15.4458Z" fill="#615C73"/>
</svg>
