<svg width="46" height="48" viewBox="0 0 46 48" fill="none" xmlns="http://www.w3.org/2000/svg">
<path d="M18.5464 1.10537C18.4456 1.20615 18.103 1.84105 17.7805 2.52634C17.458 3.20155 17.1456 3.78606 17.0751 3.80622C17.0045 3.83645 16.3091 3.9473 15.5332 4.05816C13.437 4.36049 13.3866 4.52174 14.9789 6.06364L16.0975 7.13188L15.8355 8.53269C15.5231 10.2661 15.5231 10.2661 15.8456 10.4676C16.0975 10.6389 16.1277 10.6289 17.5084 9.91335L18.9092 9.18775L20.2596 9.90327C21.3984 10.4979 21.6504 10.5986 21.862 10.518C21.993 10.4676 22.1341 10.3568 22.1643 10.2661C22.2046 10.1754 22.1139 9.44977 21.9729 8.63347L21.7108 7.16212L22.8295 6.02333C23.4442 5.40858 23.9481 4.82407 23.9481 4.74345C23.9481 4.39073 23.5752 4.24964 22.1039 4.02793L20.6426 3.81629L20.0077 2.51626C19.2418 0.964282 18.9596 0.692182 18.5464 1.10537ZM19.4131 3.74575C19.6953 4.32018 19.9875 4.77368 20.0883 4.80392C20.1891 4.82407 20.693 4.90469 21.2069 4.97524C21.7108 5.0357 22.1341 5.11633 22.1341 5.15664C22.1341 5.18687 21.7814 5.56983 21.3581 5.99309L20.5821 6.77916L20.7635 7.8474C20.8542 8.43192 20.9147 8.9358 20.8845 8.96604C20.8542 8.99627 20.4511 8.81487 19.9775 8.55285C19.5038 8.3009 19.01 8.08927 18.8891 8.08927C18.7681 8.08927 18.2945 8.29083 17.8309 8.54277C17.3774 8.79472 16.9541 8.99627 16.9138 8.99627C16.8634 8.99627 16.9138 8.53269 17.0146 7.96834C17.1154 7.40398 17.1758 6.85978 17.1456 6.76908C17.1154 6.6683 16.7425 6.27527 16.3293 5.87216C15.906 5.47913 15.5835 5.13648 15.6037 5.1264C15.6138 5.10625 16.0673 5.0357 16.5913 4.97524C17.1154 4.90469 17.6394 4.78376 17.7503 4.71322C17.8611 4.64267 18.1534 4.17909 18.4053 3.66513C18.6472 3.16124 18.8588 2.74805 18.879 2.74805C18.8991 2.74805 19.1309 3.20155 19.4131 3.74575Z" fill="#050704"/>
<path d="M30.1158 1.01473C30.0452 1.06512 29.7026 1.70002 29.3398 2.42562C28.977 3.1613 28.6343 3.78612 28.5638 3.80627C28.4933 3.83651 27.7979 3.94736 27.0219 4.05822C24.9257 4.36055 24.8854 4.51172 26.4676 6.05362L27.5863 7.13194L27.3242 8.58314C27.1831 9.37929 27.0924 10.115 27.1227 10.2157C27.163 10.3266 27.2839 10.4576 27.3948 10.5181C27.5762 10.6189 27.808 10.5282 29.0072 9.91341L30.408 9.18781L31.7585 9.90333C33.7438 10.9514 33.8546 10.8708 33.4616 8.63353L33.2097 7.1521L34.3182 6.03346C34.933 5.41872 35.4368 4.84428 35.4368 4.75358C35.4368 4.39078 35.064 4.2497 33.5926 4.02798L32.1313 3.81635L31.4964 2.51632C30.7708 1.05504 30.5088 0.772862 30.1158 1.01473ZM30.8414 3.64503C31.0933 4.13884 31.3654 4.60242 31.446 4.68304C31.5367 4.77374 32.0104 4.8846 32.6655 4.96522L33.7337 5.09623L32.9073 5.93268L32.0809 6.76914L32.2523 7.83738C32.353 8.43197 32.4034 8.93586 32.3732 8.9661C32.353 8.99633 31.9399 8.80485 31.4763 8.55291C31.0026 8.30096 30.5189 8.08933 30.3879 8.08933C30.2669 8.08933 29.7832 8.30096 29.3196 8.55291C28.846 8.80485 28.4429 8.98625 28.4126 8.95602C28.3622 8.90563 28.4832 7.92808 28.6545 7.0614C28.7049 6.81953 28.6041 6.66836 27.8886 5.94276L27.0723 5.09623L28.0498 4.9753C28.594 4.90475 29.1282 4.7939 29.239 4.71327C29.3499 4.64273 29.6421 4.17915 29.8941 3.66518C30.1359 3.1613 30.3476 2.74811 30.3677 2.74811C30.3879 2.74811 30.5995 3.15122 30.8414 3.64503Z" fill="#050704"/>
<path d="M8.24706 7.0009C8.19667 7.07145 7.8641 7.69627 7.52146 8.39163C7.17881 9.087 6.87648 9.67151 6.8664 9.68159C6.84625 9.70175 6.17104 9.82268 5.37489 9.94361C3.15778 10.2762 3.12755 10.387 4.6896 11.9692L5.78808 13.0778L5.54621 14.4887C5.4152 15.2647 5.3245 16.0004 5.35474 16.1213C5.38497 16.2624 5.51598 16.3732 5.6873 16.4236C5.89894 16.474 6.22142 16.3531 7.28967 15.7887L8.63001 15.0934L9.93005 15.7686C10.6355 16.1515 11.3208 16.4539 11.4316 16.4539C11.5526 16.4539 11.7138 16.3531 11.8045 16.2221C11.9355 16.0205 11.9254 15.8492 11.6937 14.529L11.4316 13.0576L12.5503 11.9592C13.165 11.3545 13.6689 10.7801 13.6689 10.6793C13.6689 10.2863 13.3464 10.1452 11.996 9.96377C11.2805 9.86299 10.6153 9.76221 10.5146 9.73198C10.4037 9.70175 10.0812 9.1777 9.6781 8.3614C9.3153 7.6358 8.96258 7.0009 8.90211 6.96059C8.71064 6.83966 8.36799 6.86989 8.24706 7.0009ZM9.1339 9.61105C9.38585 10.1149 9.63779 10.5684 9.69826 10.6188C9.77888 10.6894 11.613 11.0119 11.9254 11.0119C11.9658 11.0119 11.6231 11.3948 11.1595 11.8584L10.313 12.715L10.4742 13.7228C10.575 14.2771 10.6456 14.7809 10.6456 14.8414C10.6456 14.9019 10.182 14.7104 9.62771 14.4181L8.60986 13.8941L7.62224 14.4181C7.07804 14.7104 6.61446 14.9422 6.5943 14.9422C6.56407 14.9422 6.62454 14.4786 6.72531 13.9042C6.82609 13.3398 6.91679 12.8359 6.91679 12.7855C6.91679 12.7352 6.54391 12.322 6.09041 11.8584C5.63691 11.3948 5.30435 11.0119 5.33458 11.0119C5.64699 11.0119 7.48115 10.6894 7.56177 10.6188C7.62224 10.5684 7.87418 10.1149 8.12612 9.61105C8.36799 9.10716 8.59978 8.69397 8.63001 8.69397C8.66025 8.69397 8.89204 9.10716 9.1339 9.61105Z" fill="#050704"/>
<path d="M40.2943 7.0009C40.2439 7.07145 39.9113 7.69627 39.5687 8.39163C39.2261 9.087 38.9237 9.67151 38.9136 9.68159C38.8935 9.70175 38.2183 9.82268 37.4221 9.94361C35.205 10.2762 35.1647 10.387 36.7469 11.9692L37.8454 13.0778L37.5935 14.4887C37.4624 15.2647 37.3717 16.0004 37.402 16.1213C37.4322 16.2624 37.5632 16.3732 37.7245 16.4135C37.9462 16.474 38.2687 16.343 39.3369 15.7887L40.6672 15.0934L41.9672 15.7686C42.6827 16.1515 43.368 16.4539 43.4789 16.4539C43.5998 16.4539 43.7611 16.3531 43.8518 16.2221C43.9828 16.0205 43.9727 15.8492 43.7409 14.529L43.4789 13.0576L44.5975 11.9592C45.2123 11.3545 45.7161 10.7801 45.7161 10.6793C45.7161 10.2863 45.3937 10.1452 44.0432 9.96377C43.3277 9.86299 42.6626 9.76221 42.5618 9.73198C42.4509 9.70175 42.1184 9.15755 41.7153 8.3614C41.3525 7.62572 40.9997 7.0009 40.9393 6.96059C40.768 6.83966 40.4052 6.86989 40.2943 7.0009ZM41.161 9.59089C41.3928 10.0746 41.6346 10.5281 41.7153 10.5886C41.816 10.6793 43.6099 11.0119 43.9727 11.0119C44.013 11.0119 43.6704 11.3948 43.2068 11.8584L42.3602 12.715L42.5215 13.7228C42.6223 14.2771 42.6928 14.7809 42.6928 14.8414C42.6928 14.9019 42.2292 14.7104 41.6649 14.4181L40.647 13.8941L39.6594 14.4181C39.1253 14.7104 38.6617 14.9422 38.6315 14.9422C38.6113 14.9422 38.6819 14.4383 38.7826 13.8236L38.9842 12.7049L38.1477 11.8584C37.6842 11.3948 37.3415 11.0119 37.3818 11.0119C37.6942 11.0119 39.5284 10.6894 39.609 10.6188C39.6695 10.5684 39.9214 10.1149 40.1734 9.61105C40.4152 9.10716 40.647 8.69397 40.6873 8.69397C40.7176 8.69397 40.9393 9.09708 41.161 9.59089Z" fill="#050704"/>
<path d="M23.1117 14.9825C22.9001 15.0631 22.6381 15.2042 22.5272 15.305C22.4264 15.3957 21.6001 16.9376 20.7132 18.7113C19.8264 20.495 18.9194 22.178 18.6977 22.4602C18.1232 23.206 16.1581 25.1006 15.2813 25.7456C14.8681 26.0479 14.1425 26.5215 13.6688 26.8037C12.8626 27.2875 12.7014 27.3378 10.7967 27.7309C9.68812 27.9727 8.68034 28.1844 8.55941 28.2146C8.3377 28.265 8.32762 28.2448 8.32762 27.6099C8.32762 26.5921 8.49894 26.6324 4.5283 26.6324C1.30341 26.6324 1.16232 26.6425 0.970843 26.834C0.769287 27.0355 0.769287 27.1665 0.769287 36.3675C0.769287 42.6057 0.79952 45.76 0.870065 45.891C0.970843 46.0724 1.12201 46.0825 4.5283 46.0825C7.1586 46.0825 8.11599 46.0523 8.20669 45.9616C8.27723 45.891 8.32762 45.5585 8.32762 45.1554V44.4701H9.31524C10.5447 44.4701 11.3207 44.6615 15.1301 45.9313C19.2318 47.2918 18.8589 47.2415 25.611 47.2415H31.2546L31.7585 46.9694C33.381 46.1027 33.9252 44.2282 32.998 42.6762L32.7965 42.3537H33.1391C34.4291 42.3537 35.6989 41.1444 35.8903 39.7134C35.971 39.149 35.7291 38.2118 35.3764 37.7482C35.1043 37.3854 35.074 37.2141 35.2756 37.2141C35.5074 37.2141 36.4345 36.3071 36.6663 35.8636C36.8074 35.5915 36.8981 35.1884 36.9284 34.6644C36.9687 33.9388 36.9485 33.838 36.6563 33.2333C36.4345 32.7899 36.1927 32.4674 35.8903 32.2457L35.457 31.9132L35.7996 31.4597C37.1198 29.7364 36.2733 27.3378 34.167 26.7836C33.6833 26.6626 32.736 26.6324 28.7553 26.6324C24.2001 26.6324 23.928 26.6223 23.9784 26.451C23.9986 26.3603 24.6738 24.5564 25.4598 22.4501C26.7196 19.1144 26.911 18.5299 26.9514 17.895C26.9816 17.2802 26.9514 17.0887 26.7498 16.6352C26.4072 15.9096 26.0746 15.5368 25.4498 15.1941C24.8048 14.8515 23.7365 14.7507 23.1117 14.9825ZM24.956 16.1414C25.4296 16.3833 25.873 17.0283 25.9335 17.5725C25.9738 17.9554 25.7622 18.6004 24.2606 22.6315C22.5574 27.1766 22.497 27.3782 22.7691 27.6603C22.7792 27.6704 25.3288 27.7107 28.4429 27.741L34.0864 27.7913L34.5097 28.0735C35.6384 28.8092 35.6082 30.5728 34.4593 31.2883L34.0763 31.5201L28.7049 31.5705C24.0792 31.6108 23.3234 31.6411 23.2427 31.7721C23.1016 31.9938 23.1218 32.3364 23.273 32.4574C23.3637 32.538 25.1374 32.5783 28.9468 32.5984C34.3384 32.6287 34.4895 32.6388 34.8826 32.8403C35.4268 33.1225 35.8299 33.7171 35.9004 34.3419C35.981 35.0574 35.5679 35.8435 34.943 36.1761L34.4996 36.4078H29.0475C23.1117 36.4078 23.142 36.4078 23.142 36.9621C23.142 37.5265 23.021 37.5164 28.4126 37.5164C33.25 37.5164 33.3709 37.5164 33.8042 37.728C34.4694 38.0606 34.7818 38.5947 34.7818 39.4413C34.7818 40.0459 34.7516 40.1568 34.4694 40.5095C33.8042 41.3359 34.0965 41.2956 28.4429 41.3258C25.0063 41.346 23.3637 41.3863 23.273 41.4669C23.1016 41.5979 23.1016 42.0917 23.273 42.2328C23.3536 42.3033 24.7342 42.3537 27.2235 42.3739C31.436 42.4041 31.3856 42.4041 31.9399 43.0491C32.736 44.0065 32.4538 45.4476 31.3654 45.9717C30.922 46.1934 30.9018 46.1934 25.1877 46.1531C18.5364 46.1127 19.3124 46.2135 15.2914 44.8732C11.7037 43.6739 10.4742 43.3615 9.32532 43.3615H8.4284L8.44855 36.3373L8.47879 29.3131L10.7463 28.8294C13.2254 28.3053 13.5781 28.1743 15.0193 27.2169C16.5813 26.1789 18.4054 24.5161 19.5845 23.0548C19.8163 22.7726 20.6931 21.14 21.6202 19.3059C23.142 16.2422 23.2629 16.0507 23.5652 15.96C23.9784 15.8391 24.4924 15.9096 24.956 16.1414ZM7.31984 36.4078V45.0747H4.59884H1.87784V36.4078V27.741H4.59884H7.31984V36.4078Z" fill="#050704"/>
</svg>
