<svg width="22" height="23" viewBox="0 0 22 23" fill="none" xmlns="http://www.w3.org/2000/svg">
<rect x="3.01575" y="5.06445" width="16.1725" height="12.5786" fill="#FAFAFA"/>
<path d="M18.0055 0.572021H4.25655C2.08241 0.572021 0.320312 2.33458 0.320312 4.50872V18.1986C0.320312 20.3732 2.08241 22.1353 4.25655 22.1353H18.0055C20.1791 22.1353 21.9417 20.3727 21.9417 18.1986V4.50872C21.9422 2.33458 20.1796 0.572021 18.0055 0.572021ZM18.1367 9.51515L10.6997 16.9521C10.3843 17.2681 9.95628 17.4453 9.51002 17.4453C9.06375 17.4453 8.63577 17.2676 8.32029 16.9521L4.63437 13.2662C3.97763 12.609 3.97763 11.544 4.63484 10.8863C4.95032 10.5708 5.37784 10.3936 5.8241 10.3936C6.27037 10.3936 6.69788 10.5708 7.01336 10.8863L9.21001 13.0834C9.2897 13.1631 9.39798 13.2081 9.51048 13.2081C9.62299 13.2081 9.73127 13.1631 9.81096 13.0834L15.7577 7.13616C16.0737 6.82068 16.5012 6.64302 16.9479 6.64302C17.3937 6.64349 17.8217 6.82068 18.1372 7.13616C18.7939 7.79337 18.7939 8.85841 18.1367 9.51515Z" fill="#5E36EF"/>
</svg>
