<svg width="16" height="16" viewBox="0 0 16 16" fill="none" xmlns="http://www.w3.org/2000/svg">
<path d="M0.843273 0.592057H2.91848H5.08232L6.95758 3.35028L7.01271 3.3128L6.95758 3.35029C7.47862 4.1165 7.95465 4.81415 8.3019 5.3214C8.47553 5.57501 8.61699 5.78106 8.71581 5.9243C8.7652 5.99591 8.804 6.0519 8.83086 6.09032L8.86225 6.13486L8.87148 6.14756L8.87525 6.15246L8.87804 6.15579L8.88084 6.1588C8.88172 6.15969 8.88439 6.16238 8.88822 6.16528L8.89792 6.17263L8.89842 6.17164C8.91686 6.18096 8.93371 6.17901 8.94081 6.1777C8.94871 6.17623 8.9546 6.17366 8.95746 6.17231C8.96332 6.16953 8.96756 6.16648 8.96914 6.16533C8.97068 6.1642 8.97212 6.16306 8.97339 6.162C8.97523 6.16047 8.97673 6.15911 8.97774 6.15818C8.98166 6.15458 8.98618 6.15003 8.99079 6.14526C9.0003 6.13541 9.01355 6.12109 9.03005 6.1029C9.06321 6.06635 9.11112 6.01238 9.17204 5.94302C9.29396 5.80422 9.46873 5.60291 9.68334 5.35411C10.1126 4.85649 10.7016 4.16847 11.3466 3.40969C11.9916 2.65248 12.5834 1.95865 13.0173 1.45114C13.2342 1.19738 13.4117 0.99025 13.5365 0.845084C13.5989 0.77249 13.6482 0.715463 13.6826 0.675875L13.7226 0.630053C13.7338 0.617411 13.7363 0.615024 13.7345 0.61664M0.843273 0.592057L12.2163 3.71671L14.8638 0.604961L14.3709 0.598016C14.1092 0.595028 13.9505 0.595079 13.8527 0.600165C13.8036 0.602718 13.7729 0.606414 13.7535 0.610707C13.7409 0.613486 13.7358 0.615945 13.7345 0.61664M0.843273 0.592057L0.847918 0.599006L0.896025 0.67034L1.07093 0.928374C1.22049 1.14873 1.43329 1.46182 1.69361 1.84472C1.83329 2.05018 1.98666 2.27574 2.15128 2.51785C2.60021 3.17808 3.13281 3.96138 3.69978 4.79573C4.47466 5.93607 5.17945 6.97581 5.69054 7.73235C5.94608 8.11061 6.15322 8.41813 6.29651 8.63205C6.36814 8.73899 6.42388 8.82265 6.46176 8.88009C6.48067 8.90878 6.49527 8.93114 6.5052 8.94668L6.51706 8.96562L6.52136 8.97305C6.52197 8.97419 6.52309 8.97629 6.52422 8.97881C6.52477 8.98002 6.52579 8.98236 6.52679 8.98535C6.52719 8.98654 6.53033 8.99531 6.53033 9.00686C6.53033 9.01761 6.52769 9.02572 6.5268 9.02839C6.52557 9.03204 6.52426 9.03489 6.52348 9.03651C6.52191 9.03978 6.52034 9.04238 6.51951 9.04374C6.51769 9.04668 6.51574 9.04949 6.5142 9.05164C6.51096 9.05618 6.50664 9.06187 6.50163 9.06831C6.49147 9.08138 6.47668 9.09985 6.45768 9.12322C6.4196 9.17006 6.36362 9.23784 6.29176 9.32416C6.148 9.49686 5.94015 9.74442 5.68368 10.0485C5.17071 10.6568 4.46293 11.4916 3.68359 12.4069C2.93218 13.2896 2.24181 14.101 1.72621 14.707C1.2954 15.2133 0.986596 15.5762 0.86614 15.7175C0.953321 15.7218 1.10678 15.7224 1.36875 15.7224H1.98737L4.47354 12.8034L4.47357 12.8034C5.16287 11.9954 5.79315 11.259 6.25297 10.7242C6.48287 10.4568 6.67023 10.2397 6.80107 10.0892C6.86646 10.014 6.91786 9.95531 6.95344 9.91524C6.97119 9.89526 6.98524 9.87964 6.99521 9.86885C7.00013 9.86353 7.00449 9.8589 7.008 9.85538C7.00965 9.85371 7.01184 9.85156 7.01417 9.84949C7.01459 9.84912 7.01516 9.84862 7.01585 9.84803C7.01696 9.8471 7.01838 9.84595 7.02003 9.84475C7.02135 9.84378 7.02374 9.84209 7.02688 9.84031C7.02842 9.83945 7.03261 9.83709 7.03867 9.83506C7.06413 9.82648 7.08468 9.83605 7.08857 9.83786L7.08865 9.8379C7.09538 9.84104 7.10018 9.84462 7.10227 9.84624C7.10685 9.84979 7.11044 9.85344 7.1123 9.85537C7.11652 9.85977 7.12104 9.86512 7.12531 9.87037C7.1342 9.88129 7.14617 9.89693 7.16074 9.91651C7.19007 9.95592 7.23191 10.014 7.28473 10.0884C7.39045 10.2373 7.54108 10.4531 7.72543 10.7196C8.09419 11.2527 8.59833 11.9893 9.14892 12.8002C9.14893 12.8002 9.14893 12.8002 9.14893 12.8002L11.1334 15.7224H13.2943C14.3353 15.7224 14.8825 15.7216 15.1663 15.7146C15.2578 15.7123 15.3198 15.7094 15.3613 15.706L15.3399 15.6742C15.2986 15.613 15.2387 15.5243 15.162 15.4112C15.0087 15.1849 14.7887 14.8608 14.5184 14.463C13.9779 13.6674 13.2362 12.5771 12.4245 11.3846C11.6127 10.1921 10.874 9.10621 10.3382 8.31728C10.0703 7.92283 9.85311 7.60258 9.7029 7.38037C9.6278 7.26928 9.56939 7.18263 9.52973 7.12344C9.50992 7.09387 9.49471 7.07102 9.4844 7.05537L9.47235 7.03683L9.46842 7.03049L9.46602 7.02623C9.4656 7.02543 9.46461 7.02353 9.46356 7.02109L9.46115 7.01461C9.4602 7.01127 9.45842 7.00128 9.45808 6.99456C9.45808 6.98046 9.46273 6.97 9.46323 6.96879C9.46465 6.96538 9.46606 6.96277 9.46677 6.9615C9.46827 6.95883 9.4697 6.95668 9.4704 6.95564L9.47511 6.94911L9.48694 6.93402C9.49668 6.92186 9.51093 6.90444 9.52933 6.88218C9.56619 6.8376 9.62042 6.77272 9.69007 6.68984C9.82941 6.52404 10.0309 6.28574 10.2794 5.99263C10.7765 5.4064 11.462 4.6007 12.2163 3.71678L0.843273 0.592057ZM13.7345 0.61664C13.7344 0.616671 13.7344 0.616703 13.7344 0.616736L13.7344 0.616671C13.7344 0.616664 13.7345 0.616647 13.7345 0.61664ZM9.13679 8.10737L9.1368 8.10738C10.3987 9.93186 11.5477 11.5931 12.3817 12.8005C12.7986 13.4042 13.1368 13.8945 13.371 14.235C13.488 14.4052 13.5792 14.5381 13.6411 14.6289C13.6721 14.6743 13.6958 14.7094 13.7119 14.7335L13.7306 14.7617L13.7363 14.7706L13.739 14.7753L13.7407 14.7787L13.7413 14.7798L13.7416 14.7805C13.7422 14.7819 13.7428 14.7832 13.7433 14.7847L13.7434 14.7848C13.7434 14.7848 13.7434 14.7849 13.7434 14.7849C13.7471 14.7947 13.7489 14.8062 13.7471 14.8187C13.7449 14.8335 13.7384 14.8447 13.7325 14.8519C13.7221 14.8647 13.7097 14.8705 13.7057 14.8723C13.6957 14.8768 13.6853 14.8789 13.6794 14.88C13.6654 14.8825 13.6466 14.8844 13.6251 14.886C13.5811 14.8891 13.5159 14.8915 13.4318 14.8932C13.263 14.8965 13.0136 14.8973 12.6947 14.8958L12.6944 14.8958L11.6967 14.8868L11.6622 14.8865L11.6425 14.8581L7.0435 8.21605L7.0435 8.21604C5.77861 6.38856 4.62885 4.72578 3.79531 3.51913C3.37854 2.9158 3.04081 2.42649 2.80727 2.08763C2.6905 1.91821 2.59976 1.78637 2.5382 1.69668L2.46806 1.59422L2.44995 1.56748L2.44493 1.55991L2.44286 1.55665L2.44102 1.55349L2.43872 1.54894C2.4374 1.54585 2.43355 1.53207 2.43264 1.52111C2.43264 1.49294 2.44934 1.47604 2.45613 1.47025C2.46355 1.46392 2.47061 1.46073 2.47342 1.45953C2.47962 1.45688 2.48495 1.45573 2.4866 1.45537C2.49095 1.45444 2.49503 1.45396 2.49729 1.45371C2.50253 1.45314 2.50906 1.4527 2.516 1.45232C2.53028 1.45153 2.55068 1.45079 2.57616 1.45009C2.6273 1.44868 2.70094 1.44737 2.79146 1.44625C2.9726 1.44401 3.22231 1.44252 3.49704 1.44252H3.49724L4.49202 1.4455L4.52683 1.4456L4.54664 1.47423L9.13679 8.10737Z" fill="#5E36EF" stroke="#5E36EF" stroke-width="0.133333"/>
</svg>
