<svg width="50" height="56" viewBox="0 0 50 56" fill="none" xmlns="http://www.w3.org/2000/svg">
<path fill-rule="evenodd" clip-rule="evenodd" d="M24.0251 44.8509C10.7257 44.5333 0.0219727 34.7813 0.0219727 22.8802C0.0219727 10.7799 11.0868 0.901367 24.6947 0.901367C25.0962 0.901367 25.3639 1.17908 25.3639 1.49646V11.3839C38.7068 11.6993 49.4116 21.4139 49.4116 33.3547C49.4116 45.455 38.3469 55.3335 24.6944 55.3335C24.3547 55.3335 24.0555 55.0821 24.0273 54.7842C24.0258 54.7688 24.0251 54.7533 24.0251 54.7377V44.8509ZM25.3636 54.135C37.9492 53.8191 48.0732 44.6212 48.0732 33.3547C48.0732 22.0884 37.9494 12.8906 25.3639 12.5746V35.5755C25.3639 35.8929 25.0962 36.1706 24.6947 36.1706C24.3377 36.1706 24.0254 35.8929 24.0254 35.5755V11.9871L24.0251 11.9711L24.0254 11.955V2.13122C11.4437 2.4486 1.36045 11.6131 1.36045 22.8802C1.36045 34.3456 11.8006 43.6688 24.6947 43.6688C25.0962 43.6688 25.3639 43.9465 25.3639 44.2638C25.3639 44.2704 25.3638 44.2769 25.3636 44.2834V54.135ZM27.996 49.3022C27.639 49.3022 27.3713 49.1038 27.3267 48.7865C27.2821 48.4691 27.5498 48.1517 27.9067 48.1517C36.2945 47.3582 42.5854 41.1296 42.5854 33.6314C42.5854 26.3316 36.4284 20.1029 28.2637 19.1905C27.9067 19.1508 27.639 18.8731 27.6836 18.516C27.7283 18.1987 28.0852 17.9606 28.4421 18.0003C37.2761 18.9921 43.9239 25.7365 43.9239 33.6314C43.9239 41.7247 37.0976 48.4691 28.0406 49.3022H27.996ZM24.6947 41.8044C23.5347 41.8044 22.5978 40.9713 22.5978 39.9398C22.5978 38.9083 23.5347 38.0752 24.6947 38.0752C25.8548 38.0752 26.7917 38.9083 26.7917 39.9398C26.7917 40.9713 25.8548 41.8044 24.6947 41.8044ZM24.6947 39.2653C24.2932 39.2653 23.9363 39.5828 23.9363 39.9398C23.9363 40.3365 24.2932 40.6142 24.6947 40.6142C25.1409 40.6142 25.4532 40.3365 25.4532 39.9398C25.4532 39.5828 25.1409 39.2653 24.6947 39.2653Z" fill="#5E36EF"/>
</svg>
