<svg width="27" height="27" viewBox="0 0 27 27" fill="none" xmlns="http://www.w3.org/2000/svg">
<path d="M13.7146 25.6214L24.8205 19.8739C25.2521 19.6499 25.4679 19.5393 25.625 19.374C25.7641 19.229 25.8695 19.055 25.9336 18.8645C26.0074 18.6474 26.0074 18.4056 26.0074 17.9194V7.22738M13.7146 25.6214L2.60881 19.8739C2.1772 19.6499 1.96139 19.5393 1.80432 19.374C1.66551 19.2287 1.56016 19.0548 1.49563 18.8645C1.42187 18.6474 1.42188 18.4042 1.42188 17.9166V7.22738M13.7146 25.6214V13.2426M26.0074 7.22738L13.7146 13.2426M26.0074 7.22738L19.861 4.04492M1.42188 7.22738L12.7162 1.38286C13.0822 1.19437 13.2639 1.09876 13.4565 1.06188C13.627 1.02885 13.8023 1.02885 13.9728 1.06188C14.164 1.09876 14.347 1.19437 14.7117 1.38286L19.861 4.04492M1.42188 7.22738L7.56826 10.2364M13.7146 13.2426L7.56826 10.235M19.861 4.04492L7.56826 10.235M7.56826 10.235V13.2426" stroke="#5E36EF" stroke-width="1.5" stroke-linecap="round" stroke-linejoin="round"/>
</svg>
