<svg width="16" height="16" viewBox="0 0 16 16" fill="none" xmlns="http://www.w3.org/2000/svg">
<path d="M1.36877 15.7227H1.98694L4.47327 12.8037C5.16236 11.996 5.79277 11.2594 6.25256 10.7246C6.48246 10.4572 6.67056 10.2393 6.80139 10.0889C6.86664 10.0138 6.91821 9.95504 6.95374 9.91504C6.97116 9.89542 6.98484 9.87987 6.99475 9.86914L7.01428 9.84961C7.01536 9.84866 7.01746 9.84669 7.02014 9.84473C7.02148 9.84375 7.0239 9.84158 7.02698 9.83984C7.02867 9.83889 7.03309 9.83784 7.0387 9.83594V9.83496H7.04065C7.0425 9.8344 7.04437 9.83345 7.04651 9.83301V9.83496C7.06837 9.83027 7.08489 9.83621 7.0885 9.83789C7.09523 9.84102 7.10008 9.84506 7.10217 9.84668C7.10658 9.85012 7.11007 9.85353 7.11194 9.85547C7.11616 9.85986 7.12134 9.86487 7.12561 9.87012C7.13449 9.88103 7.14619 9.89741 7.16077 9.91699C7.19004 9.95634 7.23221 10.0138 7.28479 10.0879C7.3905 10.2368 7.54088 10.4532 7.72522 10.7197L9.14905 12.7998L11.1334 15.7227H13.2946C14.3354 15.7227 14.8829 15.7219 15.1666 15.7148C15.2558 15.7126 15.3166 15.7064 15.358 15.7031C15.3522 15.6945 15.3464 15.684 15.3395 15.6738C15.2982 15.6126 15.2382 15.524 15.1617 15.4111C15.0084 15.1848 14.7884 14.8606 14.5182 14.4629L12.4244 11.3848C11.6127 10.1924 10.8743 9.10629 10.3385 8.31738C10.0707 7.92308 9.85297 7.60305 9.70276 7.38086C9.62766 7.26977 9.56956 7.18224 9.52991 7.12305C9.51017 7.09359 9.49429 7.07128 9.48401 7.05566C9.47895 7.04798 9.47514 7.0416 9.47229 7.03711C9.47091 7.03493 9.46954 7.03222 9.46838 7.03027C9.46788 7.02943 9.46727 7.02795 9.46643 7.02637C9.46602 7.0256 9.4645 7.02378 9.4635 7.02148C9.46297 7.02023 9.46221 7.01663 9.46155 7.01465L9.45764 6.99414L9.4635 6.96875C9.46475 6.96577 9.46568 6.96328 9.46643 6.96191C9.46779 6.95948 9.46958 6.95718 9.47034 6.95605C9.47191 6.95372 9.47382 6.95108 9.47522 6.94922C9.4782 6.94527 9.48213 6.9396 9.48694 6.93359C9.49667 6.92145 9.51066 6.90393 9.52893 6.88184C9.56579 6.83725 9.62042 6.77232 9.69006 6.68945C9.8294 6.52366 10.0305 6.28517 10.2789 5.99219L12.2164 3.7168L14.8629 0.605469L14.3707 0.597656L13.8531 0.600586C13.8042 0.603132 13.773 0.606074 13.7535 0.610352L13.735 0.616211L13.734 0.617188L13.7223 0.629883C13.7128 0.640564 13.6994 0.65602 13.6823 0.675781C13.6479 0.715307 13.599 0.772345 13.5367 0.844727C13.4119 0.989892 13.2342 1.19741 13.0172 1.45117C12.5833 1.95867 11.9913 2.65298 11.3463 3.41016H11.3453C10.7006 4.16858 10.1123 4.85707 9.68323 5.35449C9.46874 5.60315 9.29435 5.80461 9.17249 5.94336C9.11164 6.01264 9.06306 6.06599 9.02991 6.10254C9.0134 6.12073 9.00035 6.13566 8.99084 6.14551C8.98635 6.15016 8.98199 6.15466 8.97815 6.1582C8.97648 6.15974 8.97299 6.16236 8.96936 6.16504C8.96781 6.16617 8.96334 6.16914 8.95764 6.17188C8.95481 6.17321 8.94883 6.17626 8.94104 6.17773L8.89807 6.17285L8.88831 6.16504C8.88454 6.16218 8.88139 6.16009 8.88049 6.15918C8.87927 6.15794 8.87816 6.15692 8.87756 6.15625C8.87643 6.15496 8.87623 6.15311 8.87561 6.15234C8.87434 6.15076 8.87286 6.14901 8.8717 6.14746C8.86929 6.14423 8.86563 6.13992 8.86194 6.13477C8.85451 6.12438 8.844 6.10889 8.83069 6.08984C8.80385 6.05144 8.76468 5.99518 8.71545 5.92383C8.61667 5.78064 8.47575 5.57455 8.30237 5.32129L6.95764 3.35059L5.08167 0.591797H0.843384C0.844839 0.593969 0.846604 0.596156 0.848267 0.598633C0.859644 0.615581 0.875607 0.639585 0.896118 0.669922C0.937288 0.730816 0.99614 0.818531 1.07092 0.928711C1.22048 1.14905 1.43374 1.46196 1.69397 1.84473L3.69983 4.7959C4.47462 5.93609 5.17901 6.97592 5.69006 7.73242C5.94554 8.11059 6.15323 8.41792 6.29651 8.63184C6.36804 8.73862 6.42368 8.82244 6.46155 8.87988C6.4804 8.90848 6.49556 8.93076 6.50549 8.94629C6.51042 8.95399 6.5143 8.961 6.51721 8.96582C6.5185 8.96795 6.51986 8.97036 6.52112 8.97266C6.52171 8.97375 6.52296 8.97613 6.52405 8.97852C6.52459 8.97972 6.52597 8.98236 6.52698 8.98535C6.52745 8.98673 6.5299 8.99546 6.52991 9.00684C6.52991 9.01743 6.52791 9.02554 6.52698 9.02832L6.51917 9.04395C6.51741 9.04678 6.51576 9.04969 6.51428 9.05176C6.51104 9.05629 6.50658 9.06194 6.50159 9.06836C6.49144 9.08141 6.47658 9.09975 6.45764 9.12305C6.41956 9.16989 6.36348 9.2379 6.29163 9.32422C6.14787 9.49691 5.93965 9.74477 5.68323 10.0488L3.68323 12.4072C2.30678 14.0242 1.13539 15.4018 0.867798 15.7158C0.955247 15.72 1.10837 15.7227 1.36877 15.7227ZM11.6969 14.8867H11.6617L11.6422 14.8584L7.04358 8.21582C5.77886 6.38857 4.62904 4.72613 3.79553 3.51953C3.37883 2.91631 3.04079 2.42674 2.80725 2.08789C2.69048 1.91847 2.59928 1.78598 2.53772 1.69629C2.50711 1.6517 2.48417 1.61693 2.46838 1.59375C2.46053 1.58222 2.45394 1.57351 2.44983 1.56738C2.44783 1.56439 2.4462 1.56149 2.44495 1.55957L2.44104 1.55371C2.44058 1.55287 2.43977 1.55028 2.43909 1.54883L2.43225 1.52148L2.44202 1.4873C2.4468 1.47926 2.45225 1.4737 2.45569 1.4707C2.46287 1.46458 2.47029 1.46125 2.47327 1.45996C2.47947 1.45731 2.48529 1.45543 2.48694 1.45508C2.49114 1.4542 2.49548 1.45434 2.49768 1.4541C2.50286 1.45355 2.50944 1.45252 2.51624 1.45215C2.53043 1.45137 2.55064 1.45089 2.57581 1.4502C2.62695 1.44878 2.70111 1.44741 2.79163 1.44629L3.4967 1.44238H3.49768L4.49182 1.44531H4.52698L4.54651 1.47461L9.13635 8.10742C10.3983 9.9319 11.5476 11.5934 12.3815 12.8008C12.7984 13.4044 13.1366 13.8949 13.3707 14.2354C13.4878 14.4055 13.5793 14.538 13.6412 14.6289C13.6721 14.6742 13.6954 14.7094 13.7115 14.7334C13.7196 14.7454 13.7267 14.755 13.7311 14.7617C13.7331 14.7649 13.7345 14.7681 13.736 14.7705C13.7367 14.7717 13.7379 14.7736 13.7389 14.7754C13.7393 14.7761 13.7391 14.7777 13.7399 14.7793L13.7408 14.7783C13.7414 14.7794 13.7413 14.7811 13.7418 14.7822C13.7422 14.7832 13.7435 14.7844 13.7438 14.7852C13.7446 14.7877 13.746 14.794 13.7467 14.7979L13.7428 14.7988C13.7438 14.8052 13.7477 14.8112 13.7467 14.8184C13.7445 14.8331 13.738 14.8443 13.7321 14.8516C13.7217 14.8642 13.7099 14.8702 13.7057 14.8721C13.6957 14.8766 13.6853 14.8788 13.6793 14.8799C13.6654 14.8825 13.6462 14.8842 13.6246 14.8857C13.5806 14.8889 13.5152 14.8919 13.4313 14.8936L12.6949 14.8955H12.694L11.6969 14.8867Z" fill="#5E36EF" stroke="#5E36EF" stroke-width="0.133333"/>
</svg>
