<svg width="46" height="47" viewBox="0 0 46 47" fill="none" xmlns="http://www.w3.org/2000/svg">
<path d="M18.001 0.322228C17.9002 0.423006 17.5576 1.05791 17.2351 1.7432C16.9126 2.41841 16.6002 3.00292 16.5297 3.02307C16.4591 3.05331 15.7637 3.16416 14.9878 3.27502C12.8916 3.57735 12.8412 3.7386 14.4335 5.2805L15.5521 6.34874L15.2901 7.74955C14.9777 9.48293 14.9777 9.48293 15.3002 9.68449C15.5521 9.85581 15.5823 9.84573 16.963 9.13021L18.3638 8.40461L19.7142 9.12013C20.853 9.71472 21.105 9.8155 21.3166 9.73487C21.4476 9.68449 21.5887 9.57363 21.6189 9.48293C21.6592 9.39223 21.5685 8.66663 21.4275 7.85033L21.1654 6.37897L22.2841 5.24018C22.8988 4.62544 23.4027 4.04093 23.4027 3.96031C23.4027 3.60758 23.0298 3.4665 21.5585 3.24478L20.0972 3.03315L19.4623 1.73312C18.6964 0.18114 18.4142 -0.0909605 18.001 0.322228ZM18.8677 2.96261C19.1499 3.53704 19.4421 3.99054 19.5429 4.02077C19.6437 4.04093 20.1476 4.12155 20.6615 4.1921C21.1654 4.25256 21.5887 4.33318 21.5887 4.3735C21.5887 4.40373 21.236 4.78668 20.8127 5.20995L20.0367 5.99602L20.2181 7.06426C20.3088 7.64877 20.3693 8.15266 20.3391 8.1829C20.3088 8.21313 19.9057 8.03173 19.4321 7.76971C18.9584 7.51776 18.4646 7.30613 18.3437 7.30613C18.2227 7.30613 17.7491 7.50768 17.2855 7.75963C16.832 8.01157 16.4087 8.21313 16.3684 8.21313C16.318 8.21313 16.3684 7.74955 16.4692 7.1852C16.57 6.62084 16.6304 6.07664 16.6002 5.98594C16.57 5.88516 16.1971 5.49213 15.7839 5.08902C15.3606 4.69598 15.0381 4.35334 15.0583 4.34326C15.0684 4.32311 15.5219 4.25256 16.0459 4.1921C16.57 4.12155 17.094 4.00062 17.2049 3.93007C17.3157 3.85953 17.608 3.39595 17.8599 2.88198C18.1018 2.3781 18.3134 1.96491 18.3336 1.96491C18.3537 1.96491 18.5855 2.41841 18.8677 2.96261Z" fill="#5E36EF"/>
<path d="M29.5703 0.231586C29.4998 0.281976 29.1571 0.916876 28.7943 1.64248C28.4315 2.37815 28.0889 3.00298 28.0183 3.02313C27.9478 3.05336 27.2524 3.16422 26.4764 3.27508C24.3802 3.57741 24.3399 3.72858 25.9221 5.27048L27.0408 6.3488L26.7788 7.8C26.6377 8.59614 26.547 9.33182 26.5772 9.4326C26.6175 9.54345 26.7384 9.67447 26.8493 9.73493C27.0307 9.83571 27.2625 9.74501 28.4617 9.13027L29.8626 8.40467L31.213 9.12019C33.1983 10.1683 33.3092 10.0877 32.9161 7.85039L32.6642 6.36895L33.7727 5.25032C34.3875 4.63558 34.8914 4.06114 34.8914 3.97044C34.8914 3.60764 34.5185 3.46655 33.0471 3.24484L31.5859 3.03321L30.951 1.73318C30.2254 0.271897 29.9633 -0.0102797 29.5703 0.231586ZM30.2959 2.86189C30.5478 3.3557 30.8199 3.81928 30.9006 3.8999C30.9913 3.9906 31.4649 4.10145 32.12 4.18208L33.1882 4.31309L32.3618 5.14954L31.5355 5.986L31.7068 7.05424C31.8076 7.64883 31.858 8.15272 31.8277 8.18295C31.8076 8.21319 31.3944 8.02171 30.9308 7.76977C30.4571 7.51782 29.9734 7.30619 29.8424 7.30619C29.7215 7.30619 29.2377 7.51782 28.7742 7.76977C28.3005 8.02171 27.8974 8.20311 27.8672 8.17288C27.8168 8.12249 27.9377 7.14494 28.109 6.27825C28.1594 6.03639 28.0586 5.88522 27.3431 5.15962L26.5268 4.31309L27.5044 4.19215C28.0486 4.12161 28.5827 4.01075 28.6935 3.93013C28.8044 3.85959 29.0966 3.39601 29.3486 2.88204C29.5905 2.37815 29.8021 1.96496 29.8222 1.96496C29.8424 1.96496 30.054 2.36808 30.2959 2.86189Z" fill="#5E36EF"/>
<path d="M7.70153 6.21776C7.65114 6.2883 7.31857 6.91313 6.97593 7.60849C6.63328 8.30386 6.33095 8.88837 6.32087 8.89845C6.30071 8.9186 5.6255 9.03954 4.82936 9.16047C2.61225 9.49304 2.58201 9.60389 4.14407 11.1861L5.24255 12.2947L5.00068 13.7055C4.86967 14.4815 4.77897 15.2172 4.8092 15.3381C4.83944 15.4792 4.97045 15.5901 5.14177 15.6405C5.3534 15.6909 5.67589 15.5699 6.74414 15.0056L8.08448 14.3102L9.38451 14.9854C10.09 15.3684 10.7752 15.6707 10.8861 15.6707C11.007 15.6707 11.1683 15.5699 11.259 15.4389C11.39 15.2374 11.3799 15.066 11.1481 13.7459L10.8861 12.2745L12.0047 11.176C12.6195 10.5714 13.1234 9.99693 13.1234 9.89615C13.1234 9.50311 12.8009 9.36203 11.4505 9.18063C10.7349 9.07985 10.0698 8.97907 9.96903 8.94884C9.85817 8.9186 9.53568 8.39456 9.13257 7.57826C8.76977 6.85266 8.41705 6.21776 8.35658 6.17745C8.1651 6.05651 7.82246 6.08675 7.70153 6.21776ZM8.58837 8.8279C8.84031 9.33179 9.09226 9.78529 9.15273 9.83568C9.23335 9.90623 11.0675 10.2287 11.3799 10.2287C11.4202 10.2287 11.0776 10.6117 10.614 11.0752L9.76747 11.9319L9.92872 12.9396C10.0295 13.4939 10.1 13.9978 10.1 14.0583C10.1 14.1187 9.63646 13.9273 9.08218 13.635L8.06433 13.111L7.0767 13.635C6.5325 13.9273 6.06893 14.159 6.04877 14.159C6.01854 14.159 6.079 13.6955 6.17978 13.121C6.28056 12.5567 6.37126 12.0528 6.37126 12.0024C6.37126 11.952 5.99838 11.5388 5.54488 11.0752C5.09138 10.6117 4.75881 10.2287 4.78905 10.2287C5.10146 10.2287 6.93561 9.90623 7.01624 9.83568C7.0767 9.78529 7.32865 9.33179 7.58059 8.8279C7.82246 8.32401 8.05425 7.91083 8.08448 7.91083C8.11471 7.91083 8.3465 8.32401 8.58837 8.8279Z" fill="#5E36EF"/>
<path d="M39.7489 6.21776C39.6985 6.2883 39.3659 6.91313 39.0233 7.60849C38.6806 8.30386 38.3783 8.88837 38.3682 8.89845C38.3481 8.9186 37.6729 9.03954 36.8767 9.16047C34.6596 9.49304 34.6193 9.60389 36.2015 11.1861L37.3 12.2947L37.048 13.7055C36.917 14.4815 36.8263 15.2172 36.8566 15.3381C36.8868 15.4792 37.0178 15.5901 37.1791 15.6304C37.4008 15.6909 37.7233 15.5599 38.7915 15.0056L40.1218 14.3102L41.4218 14.9854C42.1373 15.3684 42.8226 15.6707 42.9335 15.6707C43.0544 15.6707 43.2156 15.5699 43.3063 15.4389C43.4374 15.2374 43.4273 15.066 43.1955 13.7459L42.9335 12.2745L44.0521 11.176C44.6669 10.5714 45.1707 9.99693 45.1707 9.89615C45.1707 9.50311 44.8483 9.36203 43.4978 9.18063C42.7823 9.07985 42.1172 8.97907 42.0164 8.94884C41.9055 8.9186 41.573 8.3744 41.1699 7.57826C40.8071 6.84258 40.4543 6.21776 40.3939 6.17745C40.2225 6.05651 39.8598 6.08675 39.7489 6.21776ZM40.6156 8.80775C40.8474 9.29148 41.0892 9.74498 41.1699 9.80545C41.2706 9.89615 43.0645 10.2287 43.4273 10.2287C43.4676 10.2287 43.1249 10.6117 42.6614 11.0752L41.8148 11.9319L41.9761 12.9396C42.0769 13.4939 42.1474 13.9978 42.1474 14.0583C42.1474 14.1187 41.6838 13.9273 41.1195 13.635L40.1016 13.111L39.114 13.635C38.5799 13.9273 38.1163 14.159 38.0861 14.159C38.0659 14.159 38.1365 13.6552 38.2372 13.0404L38.4388 11.9218L37.6023 11.0752C37.1387 10.6117 36.7961 10.2287 36.8364 10.2287C37.1488 10.2287 38.983 9.90623 39.0636 9.83568C39.1241 9.78529 39.376 9.33179 39.628 8.8279C39.8698 8.32401 40.1016 7.91083 40.1419 7.91083C40.1722 7.91083 40.3939 8.31394 40.6156 8.80775Z" fill="#5E36EF"/>
<path d="M22.5663 14.1993C22.3546 14.28 22.0926 14.4211 21.9817 14.5218C21.881 14.6125 21.0546 16.1544 20.1677 17.9281C19.2809 19.7119 18.3739 21.3949 18.1522 21.6771C17.5778 22.4228 15.6126 24.3174 14.7358 24.9624C14.3226 25.2647 13.597 25.7384 13.1234 26.0206C12.3172 26.5043 12.1559 26.5547 10.2512 26.9477C9.14265 27.1896 8.13487 27.4012 8.01394 27.4315C7.79223 27.4819 7.78215 27.4617 7.78215 26.8268C7.78215 25.8089 7.95347 25.8493 3.98283 25.8493C0.757938 25.8493 0.616849 25.8593 0.425371 26.0508C0.223816 26.2524 0.223816 26.3834 0.223816 35.5844C0.223816 41.8225 0.254049 44.9769 0.324594 45.1079C0.425371 45.2893 0.576538 45.2994 3.98283 45.2994C6.61313 45.2994 7.57052 45.2691 7.66122 45.1784C7.73176 45.1079 7.78215 44.7753 7.78215 44.3722V43.6869H8.76977C9.99926 43.6869 10.7753 43.8784 14.5847 45.1482C18.6863 46.5087 18.3134 46.4583 25.0655 46.4583H30.7091L31.213 46.1862C32.8355 45.3195 33.3797 43.4451 32.4526 41.8931L32.251 41.5706H32.5936C33.8836 41.5706 35.1534 40.3613 35.3449 38.9302C35.4255 38.3659 35.1836 37.4286 34.8309 36.965C34.5588 36.6022 34.5286 36.4309 34.7301 36.4309C34.9619 36.4309 35.8891 35.5239 36.1209 35.0805C36.262 34.8084 36.3527 34.4053 36.3829 33.8812C36.4232 33.1556 36.403 33.0549 36.1108 32.4502C35.8891 32.0068 35.6472 31.6843 35.3449 31.4626L34.9115 31.13L35.2542 30.6765C36.5744 28.9532 35.7278 26.5547 33.6216 26.0004C33.1378 25.8795 32.1905 25.8493 28.2098 25.8493C23.6547 25.8493 23.3826 25.8392 23.4329 25.6679C23.4531 25.5772 24.1283 23.7732 24.9144 21.667C26.1741 18.3312 26.3656 17.7467 26.4059 17.1118C26.4361 16.4971 26.4059 16.3056 26.2043 15.8521C25.8617 15.1265 25.5291 14.7536 24.9043 14.411C24.2593 14.0683 23.1911 13.9676 22.5663 14.1993ZM24.4105 15.3583C24.8841 15.6002 25.3276 16.2451 25.388 16.7893C25.4283 17.1723 25.2167 17.8173 23.7151 21.8484C22.012 26.3935 21.9515 26.595 22.2236 26.8772C22.2337 26.8873 24.7834 26.9276 27.8974 26.9578L33.541 27.0082L33.9642 27.2904C35.0929 28.0261 35.0627 29.7897 33.9138 30.5052L33.5309 30.737L28.1594 30.7874C23.5337 30.8277 22.7779 30.8579 22.6973 30.9889C22.5562 31.2106 22.5763 31.5533 22.7275 31.6742C22.8182 31.7548 24.5919 31.7951 28.4013 31.8153C33.7929 31.8455 33.9441 31.8556 34.3371 32.0572C34.8813 32.3393 35.2844 32.9339 35.355 33.5588C35.4356 34.2743 35.0224 35.0603 34.3976 35.3929L33.9541 35.6247H28.5021C22.5663 35.6247 22.5965 35.6247 22.5965 36.179C22.5965 36.7433 22.4756 36.7333 27.8672 36.7333C32.7045 36.7333 32.8254 36.7333 33.2588 36.9449C33.9239 37.2775 34.2363 37.8116 34.2363 38.6581C34.2363 39.2628 34.2061 39.3736 33.9239 39.7264C33.2588 40.5527 33.551 40.5124 27.8974 40.5427C24.4609 40.5628 22.8182 40.6031 22.7275 40.6837C22.5562 40.8148 22.5562 41.3086 22.7275 41.4497C22.8081 41.5202 24.1888 41.5706 26.678 41.5907C30.8905 41.621 30.8401 41.621 31.3944 42.266C32.1905 43.2234 31.9084 44.6645 30.82 45.1885C30.3765 45.4102 30.3564 45.4102 24.6423 45.3699C17.9909 45.3296 18.7669 45.4304 14.7459 44.09C11.1582 42.8908 9.92872 42.5784 8.77985 42.5784H7.88293L7.90308 35.5542L7.93332 28.5299L10.2008 28.0462C12.68 27.5222 13.0327 27.3912 14.4738 26.4338C16.0359 25.3958 17.8599 23.7329 19.039 22.2716C19.2708 21.9895 20.1476 20.3569 21.0747 18.5227C22.5965 15.4591 22.7174 15.2676 23.0198 15.1769C23.4329 15.056 23.9469 15.1265 24.4105 15.3583ZM6.77437 35.6247V44.2916H4.05337H1.33237V35.6247V26.9578H4.05337H6.77437V35.6247Z" fill="#5E36EF"/>
</svg>
