<svg width="53" height="53" viewBox="0 0 53 53" fill="none" xmlns="http://www.w3.org/2000/svg">
<path d="M18.8484 5.50214C18.3998 5.79456 18.0796 6.30102 18.057 6.74098C18.052 6.94436 18.2753 8.16885 18.5659 9.4693C19.0718 11.7331 19.1093 11.8561 19.4109 12.2135C20.0067 12.9401 19.9779 12.9465 23.0656 12.2869C25.7597 11.7151 25.7789 11.7109 26.0461 11.4185C26.6733 10.7524 26.6723 10.7931 26.0445 7.8486C25.5179 5.35685 25.4696 5.18561 25.2054 4.86031C25.0546 4.68161 24.7426 4.45803 24.5152 4.38748C24.1105 4.24529 24.0316 4.25281 21.6468 4.76552C19.7227 5.17527 19.1223 5.32968 18.8484 5.50214ZM24.4956 8.04303L24.9908 10.2586L22.783 10.752L20.5753 11.2453L20.0952 9.09719C19.8304 7.91233 19.6354 6.90407 19.6673 6.86659C19.6875 6.82162 20.6793 6.56963 21.86 6.30579L24.0005 5.82744L24.4956 8.04303Z" fill="#5E36EF"/>
<path d="M14.9072 11.1365C11.2773 13.8794 8.79966 17.7202 7.77013 22.1779C7.41779 23.7131 7.44218 24.183 7.88542 24.4076C8.1802 24.5541 8.53221 24.5058 8.78789 24.297C8.87096 24.2177 9.09579 23.51 9.27245 22.7221C9.81517 20.3252 10.5364 18.6368 11.8322 16.6784C12.9865 14.9438 14.4145 13.4413 15.9786 12.3231C16.8577 11.7019 17.1152 11.3207 16.9319 10.9065C16.769 10.5384 16.4059 10.3565 16.0241 10.452C15.8609 10.4884 15.3568 10.8034 14.9072 11.1365Z" fill="#5E36EF"/>
<path d="M28.327 7.91502C28.1579 8.19555 28.18 8.56484 28.364 8.84736C28.4218 8.92547 29.104 9.13712 29.8897 9.31554C31.9617 9.79312 33.1747 10.2604 34.9339 11.2326C36.9709 12.3653 39.4454 14.6443 40.6462 16.4999C40.9544 16.9772 41.2535 17.143 41.6567 17.0529C41.9926 16.9778 42.3097 16.5024 42.2343 16.1652C42.159 15.8281 41.0817 14.3899 40.1932 13.4354C37.6067 10.6556 34.2269 8.70029 30.5366 7.83592C29.0581 7.48867 28.5588 7.50923 28.327 7.91502Z" fill="#5E36EF"/>
<path d="M30.9826 18.265C30.7983 18.3871 30.5841 18.5563 30.515 18.6527C30.4458 18.7491 28.8783 20.8895 27.0415 23.4037L23.6893 27.976L21.8582 26.8175C19.7708 25.5039 19.4227 25.3895 18.5035 25.6961C17.4063 26.0626 16.7628 27.1066 16.9379 28.2508C17.1022 29.3469 17.2048 29.4453 20.6363 31.6318C23.6211 33.5337 23.7248 33.5915 24.3181 33.6308C24.8378 33.6563 25.0127 33.6273 25.4349 33.4419C25.7078 33.3101 26.0498 33.082 26.1776 32.9321C26.7472 32.2788 34.3983 21.6889 34.562 21.3388C35.4768 19.3442 32.8561 17.0878 30.9826 18.265ZM32.5494 19.5938C32.9553 19.7863 33.2229 20.2625 33.1308 20.6169C33.0524 20.8974 25.2341 31.6865 24.9273 31.9371C24.825 32.0206 24.6373 32.0828 24.5061 32.0818C24.3727 32.0712 22.9893 31.2475 21.4242 30.242C18.7448 28.5347 18.5643 28.4032 18.4911 28.0756C18.3964 27.6518 18.6687 27.247 19.1199 27.1462C19.3598 27.0926 19.7251 27.2841 21.5915 28.465C23.4792 29.6513 23.8231 29.8374 24.0823 29.7795C24.3318 29.7237 24.9034 28.9891 27.8809 24.9052C29.8092 22.2593 31.4853 19.9732 31.613 19.8233C31.8909 19.4881 32.1767 19.4141 32.5494 19.5938Z" fill="#5E36EF"/>
<path d="M6.95056 27.0338C6.52874 27.4011 6.46935 27.5864 5.7812 30.3698C5.25831 32.5398 5.20026 32.8663 5.29928 33.3094C5.43706 33.9259 5.91393 34.4363 6.46474 34.556C7.01769 34.6853 11.7211 33.6342 12.1664 33.2818C12.5436 32.9851 12.7803 32.3759 12.7344 31.8097C12.6995 31.3826 12.5978 31.2435 10.8737 29.1205C9.27471 27.1516 9.00954 26.867 8.65933 26.743C8.10305 26.5537 7.35533 26.6804 6.95056 27.0338ZM9.65606 30.1208L11.2155 32.048L9.00776 32.5414C7.7887 32.8138 6.79572 33.0155 6.78926 32.9866C6.76127 32.8613 7.95265 28.2258 8.01984 28.2108C8.05824 28.2022 8.794 29.0593 9.65606 30.1208Z" fill="#5E36EF"/>
<path d="M42.2304 19.079C41.2009 19.7035 40.6262 20.4691 40.3872 21.5642C40.2402 22.2141 40.2415 22.3554 40.4417 23.2512C40.6484 24.176 40.6826 24.2391 41.1853 24.8651C41.7854 25.611 42.3612 25.9779 43.2653 26.1905C43.7852 26.3069 43.9644 26.2972 44.9051 26.087C45.8746 25.8704 46.0047 25.8211 46.4649 25.4451C47.4994 24.6172 48.0111 23.2993 47.8335 21.9635C47.6019 20.2958 46.5005 19.0653 44.941 18.716C44.3571 18.5835 44.0946 18.5815 43.4088 18.7145C42.9053 18.8068 42.4436 18.9504 42.2304 19.079ZM44.5075 20.249C46.2624 20.6154 46.8898 22.7913 45.6064 24.039C45.1836 24.447 45.1015 24.4855 44.452 24.6004C43.86 24.7023 43.686 24.6906 43.2728 24.5099C42.6374 24.2372 42.0781 23.5834 41.936 22.9476C41.5851 21.3775 42.9736 19.9243 44.5075 20.249Z" fill="#5E36EF"/>
<path d="M10.5 36.1524C10.2096 36.6117 10.2707 36.7498 11.3585 38.1451C13.4999 40.8728 16.2333 42.9118 19.441 44.1874C20.4554 44.5777 22.2404 45.079 23.1348 45.2027C23.8008 45.2966 23.8296 45.2902 24.1119 45.0653C24.4336 44.7911 24.5076 44.4004 24.2914 44.0644C24.1694 43.8792 23.8309 43.7627 22.6727 43.4956C19.6752 42.8 17.0318 41.4792 14.8984 39.5994C13.7463 38.5926 13.2095 37.9945 12.0766 36.4878C11.3898 35.5793 10.9244 35.481 10.5 36.1524Z" fill="#5E36EF"/>
<path d="M43.8247 28.5131C43.7149 28.6084 43.5336 29.1951 43.3305 30.09C42.3786 34.399 40.0573 37.9924 36.5945 40.5362C36.1449 40.8693 35.7305 41.2248 35.6902 41.3148C35.5541 41.6081 35.7088 42.1197 35.9791 42.292C36.3904 42.554 36.8221 42.3665 38.0633 41.3812C40.8598 39.1481 42.7509 36.5611 44.0664 33.2026C44.5219 32.0388 45.1263 29.5573 45.0815 29.0413C45.0237 28.3766 44.3478 28.1029 43.8247 28.5131Z" fill="#5E36EF"/>
<path d="M27.8606 41.3653C27.4206 41.6962 27.3727 41.798 26.8913 43.3417C26.5032 44.5815 26.5044 44.6318 26.6633 45.1626C26.805 45.6164 26.9687 45.8529 27.7643 46.7068C28.2689 47.2514 28.8173 47.7661 28.9732 47.8324C29.3769 48.0152 29.9168 47.9957 31.0494 47.7426C32.7772 47.3565 33.0254 47.1594 33.4731 45.8255C33.9665 44.3802 34.0985 43.6629 33.9483 43.2616C33.8077 42.8581 32.3278 41.1963 31.7808 40.823C31.2946 40.4967 30.9201 40.4894 29.4515 40.8176C28.4436 41.0428 28.1355 41.1521 27.8606 41.3653ZM31.7102 42.9425L32.48 43.7717L32.1343 44.8402L31.7885 45.9086L30.7295 46.1756L29.6705 46.4426L28.9263 45.638C28.5146 45.194 28.1713 44.7852 28.1584 44.7274C28.1476 44.6792 28.2864 44.1729 28.4625 43.6076L28.7976 42.582L29.8727 42.3417L30.9478 42.1015L31.7102 42.9425Z" fill="#5E36EF"/>
</svg>
